<svg width="120" height="120" viewBox="0 0 120 120" fill="none" xmlns="http://www.w3.org/2000/svg">
<path d="M30 60C30 48.7847 30 43.1769 32.4115 39C33.9914 36.2637 36.2637 33.9914 39 32.4115C43.1769 30 48.7847 30 60 30C71.2153 30 76.8231 30 81 32.4115C83.7364 33.9914 86.0087 36.2637 87.5884 39C90 43.1769 90 48.7847 90 60C90 71.2153 90 76.8231 87.5884 81C86.0087 83.7364 83.7364 86.0087 81 87.5884C76.8231 90 71.2153 90 60 90C48.7847 90 43.1769 90 39 87.5884C36.2637 86.0087 33.9914 83.7364 32.4115 81C30 76.8231 30 71.2153 30 60Z" fill="#896AE2"/>
<path fill-rule="evenodd" clip-rule="evenodd" d="M46 60.6454V49H51.6V60.7362C51.6144 63.6983 52.4471 65.6909 53.8248 67.0737C55.2361 68.4751 57.1209 69.2858 60 69.2858C62.8853 69.2858 64.7904 68.4715 66.198 67.0736C67.564 65.7025 68.4 63.6885 68.4 60.6454V49H74V60.6454C74 64.8259 72.7989 68.4673 70.1092 71.1633C67.4589 73.7982 64.0477 75 60 75C55.9464 75 52.5603 73.7946 49.9136 71.1631C47.2373 68.4809 46.018 64.7761 46 60.6454ZM62.8 60.4287V49H57.2V60.4605C57.2047 61.5383 57.4823 62.2632 57.9416 62.7662C58.412 63.2758 59.0403 63.5706 60 63.5706C60.9619 63.5706 61.5968 63.2745 62.066 62.7662C62.5213 62.2676 62.8 61.5353 62.8 60.4287Z" fill="white"/>
</svg>
