<svg width="400" height="400" viewBox="0 0 400 400" fill="none" xmlns="http://www.w3.org/2000/svg">
<path fill-rule="evenodd" clip-rule="evenodd" d="M211.848 43L211.87 43C261.842 43 309.903 62.4859 345.447 97.388C351.313 103.148 351.541 112.722 345.955 118.771C340.369 124.821 331.086 125.055 325.219 119.295C295.277 89.893 254.52 73.2523 211.881 73.2494C174.399 73.3095 138.605 87.9635 112.309 113.785C86.0381 139.581 71.394 174.39 71.3333 210.538C71.3367 241.643 83.9153 271.632 106.556 293.865C129.225 316.124 160.117 328.751 192.469 328.751C219.677 328.751 245.634 318.131 264.664 299.444C283.67 280.782 294.205 255.632 294.205 229.575C294.205 208.57 285.714 188.266 270.347 173.176C254.955 158.062 233.932 149.45 211.87 149.45C194.953 149.45 178.865 156.055 167.111 167.597C155.382 179.114 148.935 194.572 148.935 210.525V210.592H148.935C148.912 216.002 149.979 221.383 152.095 226.43C154.212 231.478 157.348 236.116 161.357 240.053C165.369 243.992 170.174 247.149 175.513 249.308C180.852 251.467 186.598 252.575 192.411 252.551L192.469 252.55C199.096 252.55 205.315 249.959 209.792 245.563C215.658 239.802 224.942 240.037 230.527 246.086C236.113 252.135 235.886 261.709 230.02 267.469C219.951 277.356 206.443 282.792 192.499 282.8C192.489 282.8 192.479 282.8 192.469 282.8V267.675L192.528 282.8C192.518 282.8 192.509 282.8 192.499 282.8C183.018 282.835 173.608 281.029 164.805 277.47C155.992 273.907 147.94 268.647 141.13 261.96C134.318 255.271 128.881 247.283 125.171 238.436C121.465 229.597 119.565 220.097 119.602 210.492C119.602 210.503 119.602 210.514 119.602 210.525H134.268L119.602 210.458C119.602 210.47 119.602 210.481 119.602 210.492C119.611 186.037 129.514 162.745 146.883 145.69C164.236 128.651 187.624 119.2 211.87 119.2C241.261 119.2 269.584 130.658 290.575 151.27C311.59 171.905 323.539 200.056 323.539 229.575C323.539 264.146 309.546 297.143 284.892 321.351C260.263 345.535 227.006 359 192.469 359C152.788 359 114.596 343.528 86.3284 315.771C58.0366 287.99 42 250.149 42 210.525L42 210.5C42.0709 165.852 60.1711 123.212 92.0815 91.8779C123.968 60.5676 167.048 43.0686 211.848 43Z" fill="#3E74FF"/>
</svg>
