<svg width="380" height="100" viewBox="0 0 380 100" fill="none" xmlns="http://www.w3.org/2000/svg">
<path d="M6.99997 28.4139C12.4935 24.5964 134.166 31.5382 206.082 31.5382H324.442C348.913 31.5382 364.894 20.3242 371 28.4139C379.756 40.0149 367.891 69.3118 364.894 78.8555C362.497 86.4905 332.266 89.5134 318.948 89.3862L314.454 86.3322L310.958 89.3862C282.658 91.2949 244 97 201 97C114.489 97 25.9999 83.6142 6.99998 66.9589C2.49999 63.0143 1.50645 32.2314 6.99997 28.4139Z" fill="black" fill-opacity="0.1"/>
<path d="M6.99997 23.4139C12.4935 19.5964 134.166 26.5382 206.082 26.5382H324.442C348.913 26.5382 364.894 15.3242 371 23.4139C379.756 35.0149 367.891 64.3118 364.894 73.8555C362.497 81.4905 332.266 84.5134 318.948 84.3862L314.454 81.3322L310.958 84.3862C282.658 86.2949 244 92 201 92C114.489 92 25.9999 78.6142 6.99998 61.9589C2.49999 58.0143 1.50645 27.2314 6.99997 23.4139Z" fill="#CD8033" stroke="#B67433" stroke-width="2" stroke-linejoin="round"/>
<path d="M358 60.0555C357.2 63.101 360.333 72.7452 362 77.1866C366 75.2831 367.5 71.0004 371 56.2486C373.8 44.4471 374.167 34.8347 374 31.5036L369.5 26.745C366 36.5795 358.8 57.0099 358 60.0555Z" fill="#AC6525" stroke="#B67433" stroke-width="2" stroke-linejoin="round"/>
<path d="M13.5 31.5036L8.50001 61.9589C1.00001 53.3934 3.00001 43.8761 2.50001 34.8347C2.10001 27.6015 6.33334 22.938 8.50001 21.5104L13.5 31.5036Z" fill="#AC6525" stroke="#B67433" stroke-width="2" stroke-linejoin="round"/>
<path d="M27.7919 3.69666C33.2855 -0.120821 134.166 3.69666 206.082 3.69666H324.442C348.913 3.69666 346.416 6.75064 364.894 17.0578C383.372 27.365 364.894 47.5977 361.898 57.1414C359.501 64.7763 332.266 66.4306 318.948 66.3033L314.454 63.2493L310.958 66.3033C282.658 68.212 220.964 72.1059 200.588 72.4113C175.118 72.793 60.7531 66.6851 22.7978 47.5977C-15.1574 28.5103 22.2984 7.51414 27.7919 3.69666Z" fill="#DFC8A1" stroke="#CFB68D" stroke-width="2" stroke-linejoin="round"/>
<ellipse cx="1.51187" cy="5.92499" rx="1.51187" ry="5.92499" transform="matrix(0.997718 -0.0675244 0.0239801 0.999712 61 62.2042)" fill="#CFB68D"/>
<ellipse cx="1.51187" cy="5.92499" rx="1.51187" ry="5.92499" transform="matrix(0.997718 -0.0675244 0.0239801 0.999712 322 68.2042)" fill="#CFB68D"/>
<ellipse cx="4.09508" cy="5.92499" rx="4.09508" ry="5.92499" transform="matrix(0.997718 -0.0675244 0.0239801 0.999712 157 75.553)" fill="#CFB68D"/>
<ellipse cx="1.42962" cy="5.92499" rx="1.42962" ry="5.92499" transform="matrix(0.997718 -0.0675244 0.0239801 0.999712 66 68.1931)" fill="#CFB68D"/>
<path d="M311 66.114V84.8004L314.316 82.6648L319 84.3246L320 66.114L314.316 62.9107L311 66.114Z" fill="#AC6525" stroke="#B67433" stroke-width="2" stroke-linejoin="round"/>
<path d="M274 48.6347C282.8 47.8733 289 38.1657 291 33.4071C291 30.2346 287.6 28.8388 274 48.6347Z" fill="#CFB68D"/>
<path d="M248 56.2486C265.6 54.8495 278 37.0108 282 28.2664C282 22.4367 275.2 19.8717 248 56.2486Z" fill="#CFB68D"/>
<path d="M203 56.2486C214.388 55.019 222.412 39.3427 225 31.6581C225 26.5351 220.6 24.281 203 56.2486Z" fill="#CFB68D"/>
<ellipse cx="2.85992" cy="5.99099" rx="2.85992" ry="5.99099" transform="matrix(0.187255 0.982311 -0.985418 0.17015 237.807 37.214)" fill="#CFB68D"/>
<ellipse cx="2.89408" cy="5.92499" rx="2.89408" ry="5.92499" transform="matrix(0.532353 0.846522 -0.868918 0.494956 98.2967 20.0829)" fill="#CFB68D"/>
<ellipse cx="1.47547" cy="5.81175" rx="1.47547" ry="5.81175" transform="matrix(0.823163 0.567806 -0.605855 0.795575 225.807 47.9319)" fill="#CFB68D"/>
<ellipse cx="1.47547" cy="5.81175" rx="1.47547" ry="5.81175" transform="matrix(0.823163 0.567806 -0.605855 0.795575 86.0421 30.8008)" fill="#957D53"/>
<ellipse cx="1.47547" cy="5.81175" rx="1.47547" ry="5.81175" transform="matrix(0.823163 0.567806 -0.605855 0.795575 329.042 42)" fill="#957D53"/>
<ellipse cx="1.47547" cy="5.81175" rx="1.47547" ry="5.81175" transform="matrix(-0.296002 0.955187 -0.940225 -0.340555 52.8022 16.9584)" fill="#957D53"/>
<ellipse cx="1.47547" cy="5.81175" rx="1.47547" ry="5.81175" transform="matrix(-0.296002 0.955187 -0.940225 -0.340555 348.802 53.9584)" fill="#957D53"/>
<ellipse cx="0.876484" cy="2.54343" rx="0.876484" ry="2.54343" transform="matrix(0.346531 0.938038 -0.953284 0.302075 273.594 15.9021)" fill="#957D53"/>
<ellipse cx="6.09933" cy="5.75024" rx="6.09933" ry="5.75024" transform="matrix(0.936171 -0.351544 0.382964 0.923763 195 31.985)" fill="#CFB68D"/>
<path d="M301.08 39.5252C305.546 42.3029 320.106 34.1931 326.828 29.7909C330.776 26.3087 331.154 23.3804 301.08 39.5252Z" fill="#CFB68D"/>
<path d="M101.776 27.7096C106.101 29.5241 114.487 23.1415 118.14 19.7234C119.986 17.0734 119.298 14.9605 101.776 27.7096Z" fill="#CFB68D"/>
<path d="M70.0151 8.70651C70.8065 13.3302 80.6933 16.9788 85.5377 18.225C88.7648 18.3603 90.1782 16.6459 70.0151 8.70651Z" fill="#CFB68D"/>
<path d="M111 52.7117C119.282 51.3126 125.118 33.4739 127 24.7295C127 18.8999 123.8 16.3348 111 52.7117Z" fill="#CFB68D"/>
<path d="M136.51 35.9883C138.657 38.766 145.655 30.6562 148.885 26.254C150.783 22.7718 150.964 19.8435 136.51 35.9883Z" fill="#957D53"/>
<ellipse cx="2.88535" cy="2.99335" rx="2.88535" ry="2.99335" transform="matrix(-0.689979 0.723829 -0.90405 -0.427427 305.394 29.3038)" fill="#CFB68D"/>
<ellipse cx="3.74901" cy="3.18604" rx="3.74901" ry="3.18604" transform="matrix(-0.878032 -0.478601 0.47099 -0.882139 166.584 45.2096)" fill="#CFB68D"/>
<ellipse cx="3.53875" cy="5.50423" rx="3.53875" ry="5.50423" transform="matrix(0.991875 0.127216 -0.613577 0.789635 317.06 20.2403)" fill="#CFB68D"/>
<ellipse cx="3.5415" cy="7.37483" rx="3.5415" ry="7.37483" transform="matrix(-0.0541629 0.998532 -0.915242 -0.402905 181.267 56.0103)" fill="#CFB68D"/>
<ellipse cx="3.74901" cy="3.18604" rx="3.74901" ry="3.18604" transform="matrix(-0.885223 0.465166 -0.472805 -0.881167 191.65 15.2274)" fill="#CFB68D"/>
<ellipse cx="3.5415" cy="7.37483" rx="3.5415" ry="7.37483" transform="matrix(0.800838 0.598881 -0.842874 0.538111 208.781 9)" fill="#CFB68D"/>
<ellipse cx="3.74901" cy="3.18604" rx="3.74901" ry="3.18604" transform="matrix(-0.885223 0.465166 -0.472805 -0.881167 45.6502 34.2274)" fill="#CFB68D"/>
<ellipse cx="3.5415" cy="7.37483" rx="3.5415" ry="7.37483" transform="matrix(0.800838 0.598881 -0.842874 0.538111 62.781 28)" fill="#CFB68D"/>
<ellipse cx="6.09933" cy="5.75024" rx="6.09933" ry="5.75024" transform="matrix(0.936171 -0.351544 0.382964 0.923763 90 39.5989)" fill="#CFB68D"/>
</svg>
