<svg width="380" height="100" viewBox="0 0 380 100" fill="none" xmlns="http://www.w3.org/2000/svg">
<path d="M64.6867 4.11543C57.0427 1.42255 53.9157 4.11543 52.5258 6.8083C40.0979 30.8884 26.9613 54.9466 13.2636 78.1695C10.9118 82.1566 10.5004 88.9036 10 92.2289C11.0564 93.3373 19.5932 95 35.1532 95C140.316 95 353.699 94.8654 365.929 94.3268C375.821 93.8912 358.883 70.5287 356.201 64.0319C354.811 60.6658 328.404 10.8476 323.887 6.80831C319.37 2.76899 305.472 5.46187 289.142 6.80831C272.812 8.15474 72.3307 6.8083 64.6867 4.11543Z" fill="black" fill-opacity="0.1"/>
<path d="M12.7608 57.5601C6.8095 65.024 6 89 21.4397 89C126.513 89 353.78 89.3981 366 89C368.5 88.9186 373.475 77.3141 369.946 68.5C366.737 60.4847 359.373 55.191 355.405 52.5841C355.868 51.5889 356.516 49.101 355.405 47.1106C354.017 44.6226 327.633 7.80042 323.12 4.81484C318.607 1.82925 304.72 3.81964 288.404 4.81484C272.087 5.81003 71.7775 4.81483 64.1401 2.82445C56.5026 0.834058 53.3782 2.82445 51.9896 4.81483C50.6009 6.80522 26.9942 39.149 21.4397 45.6178C16.9961 50.7928 18.0839 51.5889 19.3568 52.0865C17.9681 52.5841 17.2044 51.987 12.7608 57.5601Z" fill="#E3DC9C"/>
<path opacity="0.5" d="M365.938 80.717C372.528 80.717 370.794 73.3585 370.794 67.6981L367.5 69.8182H20L11.1447 66C11.1447 71.6604 10.3001 77.4814 12.692 78.7359C15.3591 80.1347 22.2382 81 35.7687 81C140.739 81 353.727 80.717 365.938 80.717Z" fill="#D7CC7A"/>
<path d="M12.7608 57.5601C6.8095 65.024 8.94204 70 34.6317 70C139.705 70 352.906 69.9005 365.126 69.5024C377.346 69.1043 363.737 58.0577 355.405 52.5841C355.868 51.5889 356.516 49.101 355.405 47.1106C354.017 44.6226 327.633 7.80042 323.12 4.81484C318.607 1.82925 304.72 3.81964 288.404 4.81484C272.087 5.81003 71.7775 4.81483 64.1401 2.82445C56.5026 0.834058 53.3782 2.82445 51.9896 4.81483C50.6009 6.80522 26.9942 39.149 21.4397 45.6178C16.9961 50.7928 18.0839 51.5889 19.3568 52.0865C17.9681 52.5841 17.2044 51.987 12.7608 57.5601Z" fill="#FFFBD2"/>
<path d="M12.7608 57.5601C6.8095 65.024 8.94204 67 34.6317 67C139.705 67 352.906 66.9005 365.126 66.5024C377.346 66.1043 363.737 58.0577 355.405 52.5841C355.868 51.5889 356.516 49.101 355.405 47.1106C354.017 44.6226 327.633 7.80042 323.12 4.81484C318.607 1.82925 304.72 3.81964 288.404 4.81484C272.087 5.81003 71.7775 4.81483 64.1401 2.82445C56.5026 0.834058 53.3782 2.82445 51.9896 4.81483C50.6009 6.80522 26.9942 39.149 21.4397 45.6178C16.9961 50.7928 18.0839 51.5889 19.3568 52.0865C17.9681 52.5841 17.2044 51.987 12.7608 57.5601Z" fill="#FEF8BC"/>
<path d="M10.1447 64C10.1447 73.8113 9.30013 83.9011 11.692 86.0755C14.3591 88.5001 21.2382 90 34.7687 90C139.739 90 352.727 89.5094 364.938 89.5094C371.528 89.5094 369.794 76.7547 369.794 66.9434" stroke="#E0D892" stroke-width="2" stroke-linejoin="round"/>
<ellipse cx="38" cy="58" rx="3" ry="2" fill="#E3DC9C"/>
<ellipse cx="3" cy="2" rx="3" ry="2" transform="matrix(-1 0 0 1 203 56)" fill="#E3DC9C"/>
<ellipse cx="64" cy="15" rx="3" ry="2" fill="#E3DC9C"/>
<path d="M12.7608 57.5601C6.8095 65.024 8.94204 70 34.6317 70C139.705 70 352.906 69.9005 365.126 69.5024C377.346 69.1043 363.737 58.0577 355.405 52.5841C355.868 51.5889 356.516 49.101 355.405 47.1106C354.017 44.6226 327.633 7.80042 323.12 4.81484C318.607 1.82925 304.72 3.81964 288.404 4.81484C272.087 5.81003 71.7775 4.81483 64.1401 2.82445C56.5026 0.834058 53.3782 2.82445 51.9896 4.81483C50.6009 6.80522 26.9942 39.149 21.4397 45.6178C16.9961 50.7928 18.0839 51.5889 19.3568 52.0865C17.9681 52.5841 17.2044 51.987 12.7608 57.5601Z" stroke="#F6EFA6" stroke-width="2" stroke-linejoin="round"/>
<ellipse cx="3" cy="2" rx="3" ry="2" transform="matrix(-1 0 0 1 166 27)" fill="#E3DC9C"/>
<ellipse cx="3" cy="2" rx="3" ry="2" transform="matrix(-1 0 0 1 306 13)" fill="#E3DC9C"/>
<ellipse cx="73.5" cy="35" rx="1.5" ry="1" fill="#E3DC9C"/>
<ellipse cx="126.5" cy="50" rx="1.5" ry="1" fill="#E3DC9C"/>
<ellipse cx="227.5" cy="22" rx="1.5" ry="1" fill="#E3DC9C"/>
<ellipse cx="235.5" cy="28" rx="1.5" ry="1" fill="#E3DC9C"/>
<ellipse cx="331.5" cy="57" rx="1.5" ry="1" fill="#E3DC9C"/>
</svg>
