<svg width="380" height="100" viewBox="0 0 380 100" fill="none" xmlns="http://www.w3.org/2000/svg">
<g clip-path="url(#clip0_4_197)">
<path d="M32.6558 25.384C54.6336 21.2631 81.1069 23.7356 189.498 23.7356C230.456 24.1646 275.911 25.384 323.862 25.384C371.814 25.384 355.83 33.6257 366.819 45.5762C377.808 57.5266 358.328 79.3672 338.847 90.0814C323.263 98.6528 293.726 100.246 280.906 99.9715L274 97.499C260.514 98.7352 231.356 98.8176 194.992 97.499C149.538 95.8506 49.6387 87.6089 32.6558 83.488C19.0694 80.1914 15.3399 76.6199 15.1734 75.2463C6.68192 67.5 14.6932 68.5524 6.68192 59.9992C-1.80953 50.9333 10.6779 29.5048 32.6558 25.384Z" fill="black" fill-opacity="0.1"/>
<path d="M32.6558 25.1982C54.6336 21.3985 81.1069 23.6783 189.498 23.6783C230.456 24.0738 275.911 25.1982 323.862 25.1982C371.814 25.1982 355.83 32.7977 366.819 43.817C377.808 54.8363 358.328 74.9749 338.847 84.8543C323.263 92.7578 293.726 94.227 280.906 93.9737V89.794C267.419 90.9339 231.356 92.9098 194.992 91.6938C149.538 90.1739 49.6387 82.5744 32.6558 78.7747C19.0694 75.7349 15.3399 72.4418 15.1734 71.1752H25.1633C21.8333 69.2753 13.4751 63.8037 6.68192 57.1161C-1.80953 48.7567 10.6779 28.998 32.6558 25.1982Z" fill="#F0A362" stroke="#D9955D" stroke-width="2"/>
<path d="M6.5 29L3 52.2947C7 58.9503 17 67.0321 20 67.9829C22.4 68.7436 24 43.8959 24 36.131L6.5 29Z" fill="#C28451" stroke="#D9955D" stroke-width="2"/>
<path d="M351 76.5L361.5 49.5L373 32C373.333 37.5 373.3 47.6 368.5 58C363.7 68.4 354.833 74.6667 351 76.5Z" fill="#C28451" stroke="#D9955D" stroke-width="2"/>
<path d="M16.5282 50L14 69.9521C18.0452 76.6027 29.6751 78.0279 32.709 78.978C35.1361 79.7381 21.5847 60.6094 21.5847 52.8503L16.5282 50Z" fill="#C28451" stroke="#D9955D" stroke-width="2"/>
<path d="M35.6558 3.1982C57.6336 -0.601548 84.1069 1.6783 192.498 1.6783C233.456 2.07381 278.911 3.1982 326.862 3.1982C374.814 3.1982 358.83 10.7977 369.819 21.817C380.808 32.8363 361.328 52.9749 341.847 62.8543C326.263 70.7578 296.726 72.227 283.906 71.9737V67.794C270.419 68.9339 234.356 70.9098 197.992 69.6938C152.538 68.174 52.6387 60.5744 35.6558 56.7747C22.0694 53.7349 18.3399 50.4418 18.1734 49.1752H28.1633C24.8333 47.2753 16.4751 41.8037 9.68192 35.1161C1.19047 26.7567 13.6779 6.99795 35.6558 3.1982Z" fill="#F3ECE2" stroke="#F0A362" stroke-width="2"/>
<path d="M281 93L284 72V67.5L277.5 90L281 93Z" stroke="#D9955D" stroke-width="2"/>
<path d="M253 50C277.847 48.3963 295.353 27.9489 301 17.9257C301 11.2436 291.4 8.30343 253 50Z" fill="#D2C5B1"/>
<path d="M232 46C249.6 44.9754 262 31.9118 266 25.5081C266 21.239 259.2 19.3605 232 46Z" fill="#D2C5B1"/>
<path d="M126 52C143.6 50.9754 156 37.9118 160 31.5081C160 27.239 153.2 25.3605 126 52Z" fill="#D2C5B1" fill-opacity="0.4"/>
<path d="M125.81 45.0119C142.06 38.1753 149.392 21.7237 151.027 14.3525C149.603 10.3279 142.566 10.8253 125.81 45.0119Z" fill="#D2C5B1"/>
<path d="M150 27.1441C166.5 21.6861 183.123 25.9989 189.321 21.6861C191.001 17.7614 162.5 1.00001 150 27.1441Z" fill="#D2C5B1"/>
<path d="M109 31C110.216 33.9336 101.268 44.8942 98.1143 46.0784C94.9607 47.2626 84.2162 49.0121 83 46.0784C81.7838 43.1448 90.5565 36.6389 93.71 35.4547C96.8636 34.2705 107.784 28.0663 109 31Z" fill="#D2C5B1"/>
<path d="M93.7287 30.7402C93.1066 33.4825 83.4655 37.464 81.2379 36.8789C79.0104 36.2938 72.4193 32.604 73.0414 29.8617C73.6635 27.1194 81.2632 26.3631 83.4908 26.9482C85.7183 27.5333 94.3508 27.9979 93.7287 30.7402Z" fill="#D2C5B1" fill-opacity="0.4"/>
<path d="M82.7287 10.7402C82.1066 13.4825 72.4655 17.464 70.2379 16.8789C68.0104 16.2938 61.4193 12.604 62.0414 9.86173C62.6635 7.11943 70.2632 6.36309 72.4908 6.94818C74.7183 7.53327 83.3508 7.99792 82.7287 10.7402Z" fill="#D2C5B1" fill-opacity="0.4"/>
<path d="M357.729 23.7402C357.107 26.4825 347.465 30.464 345.238 29.8789C343.01 29.2938 336.419 25.604 337.041 22.8617C337.664 20.1194 345.263 19.3631 347.491 19.9482C349.718 20.5333 358.351 20.9979 357.729 23.7402Z" fill="#D2C5B1" fill-opacity="0.4"/>
<path d="M316 32C317.216 34.9336 308.268 45.8942 305.114 47.0784C301.961 48.2626 291.216 50.0121 290 47.0784C288.784 44.1448 297.556 37.6389 300.71 36.4547C303.864 35.2705 314.784 29.0663 316 32Z" fill="#D2C5B1" fill-opacity="0.4"/>
<path d="M237.29 32.5508C237.998 35.2723 231.263 43.2381 229.016 43.7418C226.769 44.2455 219.219 43.9963 218.512 41.2747C217.805 38.5532 224.207 34.3899 226.455 33.8862C228.702 33.3825 236.583 29.8292 237.29 32.5508Z" fill="#D2C5B1"/>
<path d="M204 36.0914C212.8 35.3301 219 25.6224 221 20.8638C221 17.6914 217.6 16.2955 204 36.0914Z" fill="#D2C5B1" fill-opacity="0.5"/>
<path d="M310 50.0914C318.8 49.3301 325 39.6224 327 34.8638C327 31.6914 323.6 30.2955 310 50.0914Z" fill="#D2C5B1" fill-opacity="0.5"/>
<path d="M231.08 28.2849C235.546 31.0626 250.106 22.9528 256.828 18.5506C260.776 15.0684 261.154 12.1401 231.08 28.2849Z" fill="#D2C5B1" fill-opacity="0.5"/>
<path d="M28 23.7606C32.4661 26.5384 47.0264 18.4285 53.7482 14.0264C57.6963 10.5441 58.074 7.61582 28 23.7606Z" fill="#D2C5B1" fill-opacity="0.5"/>
<ellipse cx="2.88535" cy="2.99335" rx="2.88535" ry="2.99335" transform="matrix(-0.689979 0.723829 -0.90405 -0.427427 235 19)" fill="#D2C5B1" fill-opacity="0.5"/>
<ellipse cx="1.79264" cy="1.85974" rx="1.79264" ry="1.85974" transform="matrix(-0.689979 0.723829 -0.90405 -0.427427 195.344 47.5898)" fill="#D2C5B1" fill-opacity="0.5"/>
<ellipse cx="5.66318" cy="5.87516" rx="5.66318" ry="5.87516" transform="matrix(-0.689979 0.723829 -0.90405 -0.427427 192.438 51.0224)" fill="#D2C5B1" fill-opacity="0.5"/>
<ellipse cx="5.66318" cy="5.87516" rx="5.66318" ry="5.87516" transform="matrix(-0.689979 0.723829 -0.90405 -0.427427 151.438 56.0224)" fill="#D2C5B1" fill-opacity="0.5"/>
<ellipse cx="5.66318" cy="5.87516" rx="5.66318" ry="5.87516" transform="matrix(-0.689979 0.723829 -0.90405 -0.427427 201.438 29.0224)" fill="#D2C5B1" fill-opacity="0.5"/>
<ellipse cx="5.66318" cy="5.87516" rx="5.66318" ry="5.87516" transform="matrix(-0.689979 0.723829 -0.90405 -0.427427 288.438 49.0224)" fill="#D2C5B1" fill-opacity="0.5"/>
<ellipse cx="2.88535" cy="2.99335" rx="2.88535" ry="2.99335" transform="matrix(-0.689979 0.723829 -0.90405 -0.427427 183.788 28.1177)" fill="#D2C5B1" fill-opacity="0.5"/>
<ellipse cx="2.88535" cy="2.99335" rx="2.88535" ry="2.99335" transform="matrix(-0.689979 0.723829 -0.90405 -0.427427 305.394 28.5589)" fill="#D2C5B1" fill-opacity="0.5"/>
<ellipse cx="2.88535" cy="2.99335" rx="2.88535" ry="2.99335" transform="matrix(-0.689979 0.723829 -0.90405 -0.427427 157.394 49.5589)" fill="#D2C5B1" fill-opacity="0.5"/>
<ellipse cx="5.66318" cy="5.87516" rx="5.66318" ry="5.87516" transform="matrix(-0.689979 0.723829 -0.90405 -0.427427 123.438 42.0224)" fill="#D2C5B1" fill-opacity="0.5"/>
<ellipse cx="5.66318" cy="5.87516" rx="5.66318" ry="5.87516" transform="matrix(-0.689979 0.723829 -0.90405 -0.427427 69.4378 27.0224)" fill="#D2C5B1" fill-opacity="0.5"/>
<ellipse cx="5.66318" cy="5.87516" rx="5.66318" ry="5.87516" transform="matrix(-0.689979 0.723829 -0.90405 -0.427427 43.4378 32.0224)" fill="#D2C5B1" fill-opacity="0.5"/>
<ellipse cx="2.88535" cy="2.99335" rx="2.88535" ry="2.99335" transform="matrix(-0.689979 0.723829 -0.90405 -0.427427 105.394 24.5589)" fill="#D2C5B1" fill-opacity="0.5"/>
<ellipse cx="2.88535" cy="2.99335" rx="2.88535" ry="2.99335" transform="matrix(-0.689979 0.723829 -0.90405 -0.427427 58.3939 20.5589)" fill="#D2C5B1" fill-opacity="0.5"/>
<ellipse cx="3.53875" cy="5.50423" rx="3.53875" ry="5.50423" transform="matrix(0.991875 0.127216 -0.613577 0.789635 247 10)" fill="#D2C5B1" fill-opacity="0.5"/>
<ellipse cx="1.51187" cy="5.92499" rx="1.51187" ry="5.92499" transform="matrix(0.997718 -0.0675244 0.0239801 0.999712 316 69.2042)" fill="#D9955D"/>
<ellipse cx="1.51187" cy="5.92499" rx="1.51187" ry="5.92499" transform="matrix(0.997718 -0.0675244 0.0239801 0.999712 307 82.2042)" fill="#D9955D"/>
<ellipse cx="1.51187" cy="5.92499" rx="1.51187" ry="5.92499" transform="matrix(0.997718 -0.0675244 0.0239801 0.999712 298 82.2042)" fill="#D9955D"/>
<ellipse cx="2.92943" cy="5.92499" rx="2.92943" ry="5.92499" transform="matrix(0.997718 -0.0675244 0.0239801 0.999712 336 63.3956)" fill="#D9955D"/>
<ellipse cx="5.67344" cy="5.92499" rx="5.67344" ry="5.92499" transform="matrix(0.997718 -0.0675244 0.0239801 0.999712 155 73.553)" fill="#D9955D"/>
<ellipse cx="1.24183" cy="5.92499" rx="1.24183" ry="5.92499" transform="matrix(0.997718 -0.0675244 0.0239801 0.999712 180 79.1677)" fill="#D9955D"/>
<ellipse cx="1.24183" cy="7.96473" rx="1.24183" ry="7.96473" transform="matrix(0.997718 -0.0675244 0.0239801 0.999712 72 61.1677)" fill="#D9955D"/>
<ellipse cx="1.92524" cy="5.92499" rx="1.92524" ry="5.92499" transform="matrix(0.997718 -0.0675244 0.0239801 0.999712 190 70.26)" fill="#D9955D"/>
<ellipse cx="4.17586" cy="7.14263" rx="4.17586" ry="7.14263" transform="matrix(0.997718 -0.0675244 0.0239801 0.999712 196.942 73.8254)" fill="#D9955D"/>
<ellipse cx="4.17586" cy="7.14263" rx="4.17586" ry="7.14263" transform="matrix(0.997718 -0.0675244 0.0239801 0.999712 261 70.5639)" fill="#D9955D"/>
<ellipse cx="1.42962" cy="5.92499" rx="1.42962" ry="5.92499" transform="matrix(0.997718 -0.0675244 0.0239801 0.999712 64 66.1931)" fill="#D9955D"/>
</g>
<defs>
<clipPath id="clip0_4_197">
<rect width="380" height="100" fill="white"/>
</clipPath>
</defs>
</svg>
