<svg width="380" height="100" viewBox="0 0 380 100" fill="none" xmlns="http://www.w3.org/2000/svg">
<path d="M64.6867 3.12755C57.0427 0.405403 53.9157 3.12755 52.5258 5.8497C40.0979 30.1915 26.9613 54.5112 13.2636 77.9866C10.9118 82.017 10.5004 88.8373 10 92.1988C11.0564 93.3193 19.5932 95 35.1532 95C140.316 95 353.699 94.8639 365.929 94.3195C375.821 93.8791 358.883 70.2627 356.201 63.6953C354.811 60.2926 328.404 9.93292 323.887 5.8497C319.37 1.76648 305.472 4.48863 289.142 5.8497C272.812 7.21077 72.3307 5.8497 64.6867 3.12755Z" fill="black" fill-opacity="0.1"/>
<path d="M12.7608 57.5601C17.2044 51.987 17.9681 52.5841 19.3568 52.0865C18.0838 51.5889 16.9961 50.7928 21.4397 45.6178C26.9942 39.149 50.6009 6.80522 51.9896 4.81483C53.3782 2.82445 56.5026 0.834058 64.1401 2.82445C71.7775 4.81483 272.087 5.81003 288.404 4.81484C304.72 3.81964 318.607 1.82925 323.12 4.81484C327.633 7.80042 354.017 44.6226 355.405 47.1106C356.516 49.101 355.868 51.5889 355.405 52.5841C359.373 55.191 366.737 60.4847 369.946 68.5C373.475 77.3141 368.5 88.9186 366 89C353.78 89.3981 126.513 89 21.4397 89H21.3921C16.9766 89 14.77 89.0001 12.7608 86C7.77671 78.558 8.52369 62.8741 12.7608 57.5601Z" fill="#E5AD7A"/>
<path d="M12.7608 57.5601C6.8095 65.024 8.94204 70 34.6317 70C139.705 70 352.906 69.9005 365.126 69.5024C377.346 69.1043 363.737 58.0577 355.405 52.5841C355.868 51.5889 356.516 49.101 355.405 47.1106C354.017 44.6226 327.633 7.80042 323.12 4.81484C318.607 1.82925 304.72 3.81964 288.404 4.81484C272.087 5.81003 71.7775 4.81483 64.1401 2.82445C56.5026 0.834058 53.3782 2.82445 51.9896 4.81483C50.6009 6.80522 26.9942 39.149 21.4397 45.6178C16.9961 50.7928 18.0839 51.5889 19.3568 52.0865C17.9681 52.5841 17.2044 51.987 12.7608 57.5601Z" fill="#FFCB9B"/>
<path d="M12.7608 57.5601C6.8095 65.024 8.94204 67 34.6317 67C139.705 67 352.906 66.9005 365.126 66.5024C377.346 66.1043 363.737 58.0577 355.405 52.5841C355.868 51.5889 356.516 49.101 355.405 47.1106C354.017 44.6226 327.633 7.80042 323.12 4.81484C318.607 1.82925 304.72 3.81964 288.404 4.81484C272.087 5.81003 71.7775 4.81483 64.1401 2.82445C56.5026 0.834058 53.3782 2.82445 51.9896 4.81483C50.6009 6.80522 26.9942 39.149 21.4397 45.6178C16.9961 50.7928 18.0839 51.5889 19.3568 52.0865C17.9681 52.5841 17.2044 51.987 12.7608 57.5601Z" fill="#F5BD8A"/>
<path opacity="0.2" d="M364.938 80.7925C371.528 80.7925 369.794 69.3962 369.794 65.2453L366.5 69H19L10.1447 70C10.1447 74.1509 9.30013 78.4197 11.692 79.3396C14.3591 80.3654 21.2382 81 34.7687 81C139.739 81 352.727 80.7925 364.938 80.7925Z" fill="#938B37"/>
<path d="M10.1447 64C10.1447 73.8113 9.30013 83.9011 11.692 86.0755C14.3591 88.5001 21.2382 90 34.7687 90C139.739 90 352.727 89.5094 364.938 89.5094C371.528 89.5094 369.794 76.7547 369.794 66.9434" stroke="#EFB784" stroke-width="2" stroke-linejoin="round"/>
<ellipse cx="38" cy="58" rx="3" ry="2" fill="#EAAF79"/>
<ellipse cx="3" cy="2" rx="3" ry="2" transform="matrix(-1 0 0 1 203 56)" fill="#EAAF79"/>
<path d="M12.7608 57.5601C6.8095 65.024 8.94204 70 34.6317 70C139.705 70 352.906 69.9005 365.126 69.5024C377.346 69.1043 363.737 58.0577 355.405 52.5841C355.868 51.5889 356.516 49.101 355.405 47.1106C354.017 44.6226 327.633 7.80042 323.12 4.81484C318.607 1.82925 304.72 3.81964 288.404 4.81484C272.087 5.81003 71.7775 4.81483 64.1401 2.82445C56.5026 0.834058 53.3782 2.82445 51.9896 4.81483C50.6009 6.80522 26.9942 39.149 21.4397 45.6178C16.9961 50.7928 18.0839 51.5889 19.3568 52.0865C17.9681 52.5841 17.2044 51.987 12.7608 57.5601Z" stroke="#EFB784" stroke-width="2" stroke-linejoin="round"/>
<ellipse cx="64" cy="15" rx="3" ry="2" fill="#EAAF79"/>
<ellipse cx="3" cy="2" rx="3" ry="2" transform="matrix(-1 0 0 1 166 27)" fill="#EAAF79"/>
<ellipse cx="3" cy="2" rx="3" ry="2" transform="matrix(-1 0 0 1 306 13)" fill="#EAAF79"/>
<ellipse cx="73.5" cy="35" rx="1.5" ry="1" fill="#EAAF79"/>
<ellipse cx="126.5" cy="50" rx="1.5" ry="1" fill="#EAAF79"/>
<ellipse cx="227.5" cy="22" rx="1.5" ry="1" fill="#EAAF79"/>
<ellipse cx="235.5" cy="28" rx="1.5" ry="1" fill="#EAAF79"/>
<ellipse cx="331.5" cy="57" rx="1.5" ry="1" fill="#EAAF79"/>
</svg>
