<svg width="380" height="100" viewBox="0 0 380 100" fill="none" xmlns="http://www.w3.org/2000/svg">
<path d="M63.6867 2.1518C56.0427 -0.628889 52.9157 2.1518 51.5258 4.93249C39.0979 29.7978 25.9613 54.6405 12.2636 78.6207C9.91182 82.7378 9.50043 89.7048 9 93.1386C10.0564 94.2831 18.5932 96 34.1532 96C139.316 96 352.699 95.861 364.929 95.3048C374.821 94.855 357.883 70.7308 355.201 64.0221C353.811 60.5462 327.404 9.10352 322.887 4.93249C318.37 0.761459 304.472 3.54215 288.142 4.93249C271.812 6.32283 71.3307 4.93249 63.6867 2.1518Z" fill="black" fill-opacity="0.1"/>
<path d="M364.938 88.5094C367.375 88.5094 368 85 368 80.5L9.5 81C9.49999 85 9.5 85.25 10.5 87C13.1671 89.4247 21.2382 89 34.7687 89C139.739 89 352.727 88.5094 364.938 88.5094Z" fill="#FFF9C8"/>
<path d="M9.5 81C9.49999 85 9.5 85.25 10.5 87C13.1671 89.4247 21.2382 89 34.7687 89C139.739 89 352.727 88.5094 364.938 88.5094C367.375 88.5094 368 85 368 80.5" stroke="#FFF392" stroke-width="2" stroke-linejoin="round"/>
<path fill-rule="evenodd" clip-rule="evenodd" d="M21.4397 54.2393C26.9942 46.3436 50.6009 6.86519 51.9896 4.43575C53.3782 2.00631 56.5026 -0.423135 64.1401 2.00631C71.7775 4.43575 272.087 5.65048 288.404 4.43575C291.949 4.17182 295.38 3.85054 298.624 3.54668C310.312 2.45204 319.587 1.58339 323.12 4.43575C327.633 8.07992 354.017 53.0246 355.405 56.0614C356.069 57.5129 357.606 59.8976 359.394 62.6702C364.824 71.0934 372.562 83.097 365.126 83.3927C352.906 83.8785 139.705 84 34.6317 84C22.0726 84 10 81.5 10 81.5C10 81.5 9.71896 73.4725 12.7608 68.816C14.7522 65.7674 15.8625 63.6853 16.9088 61.7234C18.1001 59.4894 19.2083 57.4113 21.4397 54.2393ZM135 25.5C135 29.6421 128.508 33 120.5 33C112.492 33 106 29.6421 106 25.5C106 21.3579 112.492 18 120.5 18C128.508 18 135 21.3579 135 25.5ZM77.5 63C89.3741 63 99 58.299 99 52.5C99 46.701 89.3741 42 77.5 42C65.6259 42 56 46.701 56 52.5C56 58.299 65.6259 63 77.5 63ZM286.5 68C298.374 68 308 63.299 308 57.5C308 51.701 298.374 47 286.5 47C274.626 47 265 51.701 265 57.5C265 63.299 274.626 68 286.5 68ZM290.5 33C298.508 33 305 29.6421 305 25.5C305 21.3579 298.508 18 290.5 18C282.492 18 276 21.3579 276 25.5C276 29.6421 282.492 33 290.5 33ZM200 53.5C200 57.6421 193.508 61 185.5 61C177.492 61 171 57.6421 171 53.5C171 49.3579 177.492 46 185.5 46C193.508 46 200 49.3579 200 53.5Z" fill="#FFF9C8"/>
<path d="M64.1401 2.00631C56.5026 -0.423135 53.3782 2.00631 51.9896 4.43575C39.5722 26.1602 26.4469 47.8648 12.7608 68.816C10.411 72.413 10 78.5 9.5 81.5C10.5555 82.5 19.085 84 34.6317 84C139.705 84 352.906 83.8785 365.126 83.3927C375.009 82.9997 358.085 61.9227 355.405 56.0614C354.017 53.0246 327.633 8.07992 323.12 4.43575C318.607 0.79159 304.72 3.22103 288.404 4.43575C272.087 5.65048 71.7775 4.43575 64.1401 2.00631Z" stroke="#FFF392" stroke-width="2" stroke-linejoin="round"/>
<g style="mix-blend-mode:overlay">
<path d="M366 80.5C366 80.5 60.5 80 36.5 80C12.5 80 13.5 76.5 13.5 76.5" stroke="white" stroke-width="2" stroke-linecap="round" stroke-linejoin="round"/>
</g>
<ellipse cx="77.5" cy="50" rx="21.5" ry="13" stroke="#FFF392" stroke-width="2" stroke-linejoin="round"/>
<ellipse cx="286.5" cy="55" rx="21.5" ry="13" stroke="#FFF392" stroke-width="2" stroke-linejoin="round"/>
<ellipse cx="120.5" cy="24" rx="14.5" ry="9" stroke="#FFF392" stroke-width="2" stroke-linejoin="round"/>
<ellipse cx="290.5" cy="24" rx="14.5" ry="9" stroke="#FFF392" stroke-width="2" stroke-linejoin="round"/>
<ellipse cx="185.5" cy="52" rx="14.5" ry="9" stroke="#FFF392" stroke-width="2" stroke-linejoin="round"/>
<path opacity="0.3" d="M48.2716 13.5C47.1318 15.6953 128.559 54.1448 124 61.2795C120.56 66.6629 82.5 72.741 48.2716 61.2795C43.6321 59.726 46.0056 72.741 46.0056 72.741C46.0056 72.741 55.9144 75 66.2226 75C152.463 75 327.452 74.8902 337.482 74.4512C345.594 74.0961 331.703 55.0506 329.504 49.7543C329.23 49.0954 322.151 48.0344 311.5 46.7569C311.5 98.5 243.5 61.2795 261.5 41.3527C227.5 72.741 158.711 62.8002 157 61.2795C153.296 57.9866 190.392 32.9024 177 34C163.608 35.0976 130.269 45.1953 124 43C117.731 40.8047 49.4113 11.3047 48.2716 13.5Z" fill="white"/>
</svg>
