<svg width="380" height="100" viewBox="0 0 380 100" fill="none" xmlns="http://www.w3.org/2000/svg">
<path fill-rule="evenodd" clip-rule="evenodd" d="M240 95C310.14 95 367 74.629 367 49.5C367 24.371 310.14 4 240 4C211.859 4 185.855 7.2792 164.804 12.8292C156.782 12.2852 148.488 12 140 12C69.8598 12 13 31.4756 13 55.5C13 79.5244 69.8598 99 140 99C163.251 99 185.042 96.8599 203.787 93.1235C215.263 94.3445 227.418 95 240 95Z" fill="black" fill-opacity="0.1"/>
<ellipse cx="140" cy="51.5" rx="127" ry="43.5" fill="#BE602E"/>
<ellipse cx="140" cy="47.5" rx="127" ry="43.5" fill="#FDDFCD"/>
<ellipse cx="140" cy="47" rx="127" ry="43" fill="#DFBAA3"/>
<ellipse cx="140" cy="47" rx="124" ry="41" fill="#DBB39A"/>
<ellipse cx="139" cy="46.5" rx="2" ry="0.5" fill="#D5A98D"/>
<ellipse cx="89" cy="36.5" rx="2" ry="0.5" fill="#D5A98D"/>
<ellipse cx="204" cy="45.5" rx="2" ry="0.5" fill="#D5A98D"/>
<ellipse cx="154" cy="35.5" rx="2" ry="0.5" fill="#D5A98D"/>
<ellipse cx="149" cy="26.5" rx="2" ry="0.5" fill="#D5A98D"/>
<ellipse cx="99" cy="16.5" rx="2" ry="0.5" fill="#D5A98D"/>
<ellipse cx="214" cy="25.5" rx="2" ry="0.5" fill="#D5A98D"/>
<ellipse cx="164" cy="15.5" rx="2" ry="0.5" fill="#D5A98D"/>
<ellipse cx="110" cy="57.5" rx="2" ry="0.5" fill="#D5A98D"/>
<ellipse cx="60" cy="47.5" rx="2" ry="0.5" fill="#D5A98D"/>
<ellipse cx="175" cy="56.5" rx="2" ry="0.5" fill="#D5A98D"/>
<ellipse cx="125" cy="46.5" rx="2" ry="0.5" fill="#D5A98D"/>
<ellipse cx="120" cy="37.5" rx="2" ry="0.5" fill="#D5A98D"/>
<ellipse cx="70" cy="27.5" rx="2" ry="0.5" fill="#D5A98D"/>
<ellipse cx="185" cy="36.5" rx="2" ry="0.5" fill="#D5A98D"/>
<ellipse cx="135" cy="26.5" rx="2" ry="0.5" fill="#D5A98D"/>
<ellipse cx="189" cy="46.5" rx="2" ry="0.5" fill="#D5A98D"/>
<ellipse cx="139" cy="36.5" rx="2" ry="0.5" fill="#D5A98D"/>
<ellipse cx="254" cy="45.5" rx="2" ry="0.5" fill="#D5A98D"/>
<ellipse cx="204" cy="35.5" rx="2" ry="0.5" fill="#D5A98D"/>
<ellipse cx="160" cy="57.5" rx="2" ry="0.5" fill="#D5A98D"/>
<ellipse cx="110" cy="47.5" rx="2" ry="0.5" fill="#D5A98D"/>
<ellipse cx="225" cy="56.5" rx="2" ry="0.5" fill="#D5A98D"/>
<ellipse cx="175" cy="46.5" rx="2" ry="0.5" fill="#D5A98D"/>
<ellipse cx="155" cy="63.5" rx="2" ry="0.5" fill="#D5A98D"/>
<ellipse cx="105" cy="53.5" rx="2" ry="0.5" fill="#D5A98D"/>
<ellipse cx="220" cy="62.5" rx="2" ry="0.5" fill="#D5A98D"/>
<ellipse cx="170" cy="52.5" rx="2" ry="0.5" fill="#D5A98D"/>
<ellipse cx="126" cy="74.5" rx="2" ry="0.5" fill="#D5A98D"/>
<ellipse cx="76" cy="64.5" rx="2" ry="0.5" fill="#D5A98D"/>
<ellipse cx="191" cy="73.5" rx="2" ry="0.5" fill="#D5A98D"/>
<ellipse cx="141" cy="63.5" rx="2" ry="0.5" fill="#D5A98D"/>
<ellipse cx="114" cy="38.5" rx="2" ry="0.5" fill="#D5A98D"/>
<ellipse cx="64" cy="28.5" rx="2" ry="0.5" fill="#D5A98D"/>
<ellipse cx="179" cy="37.5" rx="2" ry="0.5" fill="#D5A98D"/>
<ellipse cx="129" cy="27.5" rx="2" ry="0.5" fill="#D5A98D"/>
<ellipse cx="124" cy="18.5" rx="2" ry="0.5" fill="#D5A98D"/>
<ellipse cx="84" cy="18.5" rx="2" ry="0.5" fill="#D5A98D"/>
<ellipse cx="189" cy="17.5" rx="2" ry="0.5" fill="#D5A98D"/>
<ellipse cx="139" cy="7.5" rx="2" ry="0.5" fill="#D5A98D"/>
<ellipse cx="85" cy="49.5" rx="2" ry="0.5" fill="#D5A98D"/>
<ellipse cx="35" cy="39.5" rx="2" ry="0.5" fill="#D5A98D"/>
<ellipse cx="150" cy="48.5" rx="2" ry="0.5" fill="#D5A98D"/>
<ellipse cx="100" cy="38.5" rx="2" ry="0.5" fill="#D5A98D"/>
<ellipse cx="95" cy="29.5" rx="2" ry="0.5" fill="#D5A98D"/>
<ellipse cx="55" cy="29.5" rx="2" ry="0.5" fill="#D5A98D"/>
<ellipse cx="160" cy="28.5" rx="2" ry="0.5" fill="#D5A98D"/>
<ellipse cx="110" cy="18.5" rx="2" ry="0.5" fill="#D5A98D"/>
<ellipse cx="164" cy="38.5" rx="2" ry="0.5" fill="#D5A98D"/>
<ellipse cx="114" cy="28.5" rx="2" ry="0.5" fill="#D5A98D"/>
<ellipse cx="229" cy="37.5" rx="2" ry="0.5" fill="#D5A98D"/>
<ellipse cx="179" cy="27.5" rx="2" ry="0.5" fill="#D5A98D"/>
<ellipse cx="135" cy="49.5" rx="2" ry="0.5" fill="#D5A98D"/>
<ellipse cx="85" cy="39.5" rx="2" ry="0.5" fill="#D5A98D"/>
<ellipse cx="200" cy="48.5" rx="2" ry="0.5" fill="#D5A98D"/>
<ellipse cx="150" cy="38.5" rx="2" ry="0.5" fill="#D5A98D"/>
<ellipse cx="130" cy="55.5" rx="2" ry="0.5" fill="#D5A98D"/>
<ellipse cx="80" cy="45.5" rx="2" ry="0.5" fill="#D5A98D"/>
<ellipse cx="195" cy="54.5" rx="2" ry="0.5" fill="#D5A98D"/>
<ellipse cx="145" cy="44.5" rx="2" ry="0.5" fill="#D5A98D"/>
<ellipse cx="101" cy="66.5" rx="2" ry="0.5" fill="#D5A98D"/>
<ellipse cx="51" cy="56.5" rx="2" ry="0.5" fill="#D5A98D"/>
<ellipse cx="166" cy="65.5" rx="2" ry="0.5" fill="#D5A98D"/>
<ellipse cx="116" cy="55.5" rx="2" ry="0.5" fill="#D5A98D"/>
<ellipse cx="72" cy="46.5" rx="2" ry="0.5" fill="#D5A98D"/>
<ellipse cx="27" cy="35.5" rx="2" ry="0.5" fill="#D5A98D"/>
<ellipse cx="137" cy="45.5" rx="2" ry="0.5" fill="#D5A98D"/>
<ellipse cx="87" cy="35.5" rx="2" ry="0.5" fill="#D5A98D"/>
<ellipse cx="82" cy="26.5" rx="2" ry="0.5" fill="#D5A98D"/>
<ellipse cx="42" cy="26.5" rx="2" ry="0.5" fill="#D5A98D"/>
<ellipse cx="147" cy="25.5" rx="2" ry="0.5" fill="#D5A98D"/>
<ellipse cx="97" cy="15.5" rx="2" ry="0.5" fill="#D5A98D"/>
<ellipse cx="43" cy="57.5" rx="2" ry="0.5" fill="#D5A98D"/>
<ellipse cx="27" cy="47.5" rx="2" ry="0.5" fill="#D5A98D"/>
<ellipse cx="53" cy="37.5" rx="2" ry="0.5" fill="#D5A98D"/>
<ellipse cx="37" cy="27.5" rx="2" ry="0.5" fill="#D5A98D"/>
<ellipse cx="118" cy="36.5" rx="2" ry="0.5" fill="#D5A98D"/>
<ellipse cx="68" cy="26.5" rx="2" ry="0.5" fill="#D5A98D"/>
<ellipse cx="122" cy="46.5" rx="2" ry="0.5" fill="#D5A98D"/>
<ellipse cx="72" cy="36.5" rx="2" ry="0.5" fill="#D5A98D"/>
<ellipse cx="187" cy="45.5" rx="2" ry="0.5" fill="#D5A98D"/>
<ellipse cx="137" cy="35.5" rx="2" ry="0.5" fill="#D5A98D"/>
<ellipse cx="93" cy="57.5" rx="2" ry="0.5" fill="#D5A98D"/>
<ellipse cx="43" cy="47.5" rx="2" ry="0.5" fill="#D5A98D"/>
<ellipse cx="158" cy="56.5" rx="2" ry="0.5" fill="#D5A98D"/>
<ellipse cx="108" cy="46.5" rx="2" ry="0.5" fill="#D5A98D"/>
<ellipse cx="88" cy="63.5" rx="2" ry="0.5" fill="#D5A98D"/>
<ellipse cx="38" cy="53.5" rx="2" ry="0.5" fill="#D5A98D"/>
<ellipse cx="153" cy="62.5" rx="2" ry="0.5" fill="#D5A98D"/>
<ellipse cx="103" cy="52.5" rx="2" ry="0.5" fill="#D5A98D"/>
<ellipse cx="59" cy="74.5" rx="2" ry="0.5" fill="#D5A98D"/>
<ellipse cx="43" cy="64.5" rx="2" ry="0.5" fill="#D5A98D"/>
<ellipse cx="124" cy="73.5" rx="2" ry="0.5" fill="#D5A98D"/>
<ellipse cx="74" cy="63.5" rx="2" ry="0.5" fill="#D5A98D"/>
<ellipse cx="240" cy="49.3681" rx="127" ry="40.6319" fill="#BE602E"/>
<ellipse cx="240" cy="45.6319" rx="127" ry="40.6319" fill="#FDDFCD"/>
<ellipse cx="240" cy="45.1648" rx="127" ry="40.1648" fill="#DFBAA3"/>
<ellipse cx="240" cy="45.1648" rx="124" ry="38.2967" fill="#DBB39A"/>
<ellipse cx="239" cy="44.6978" rx="2" ry="0.467033" fill="#D5A98D"/>
<ellipse cx="189" cy="35.3571" rx="2" ry="0.467033" fill="#D5A98D"/>
<ellipse cx="304" cy="43.7637" rx="2" ry="0.467033" fill="#D5A98D"/>
<ellipse cx="254" cy="34.4231" rx="2" ry="0.467033" fill="#D5A98D"/>
<ellipse cx="249" cy="26.0165" rx="2" ry="0.467033" fill="#D5A98D"/>
<ellipse cx="199" cy="16.6758" rx="2" ry="0.467033" fill="#D5A98D"/>
<ellipse cx="314" cy="25.0824" rx="2" ry="0.467033" fill="#D5A98D"/>
<ellipse cx="264" cy="15.7418" rx="2" ry="0.467033" fill="#D5A98D"/>
<ellipse cx="210" cy="54.9725" rx="2" ry="0.467033" fill="#D5A98D"/>
<ellipse cx="160" cy="45.6319" rx="2" ry="0.467033" fill="#D5A98D"/>
<ellipse cx="275" cy="54.0385" rx="2" ry="0.467033" fill="#D5A98D"/>
<ellipse cx="225" cy="44.6978" rx="2" ry="0.467033" fill="#D5A98D"/>
<ellipse cx="220" cy="36.2912" rx="2" ry="0.467033" fill="#D5A98D"/>
<ellipse cx="170" cy="26.9506" rx="2" ry="0.467033" fill="#D5A98D"/>
<ellipse cx="285" cy="35.3571" rx="2" ry="0.467033" fill="#D5A98D"/>
<ellipse cx="235" cy="26.0165" rx="2" ry="0.467033" fill="#D5A98D"/>
<ellipse cx="289" cy="44.6978" rx="2" ry="0.467033" fill="#D5A98D"/>
<ellipse cx="239" cy="35.3571" rx="2" ry="0.467033" fill="#D5A98D"/>
<ellipse cx="354" cy="43.7637" rx="2" ry="0.467033" fill="#D5A98D"/>
<ellipse cx="304" cy="34.4231" rx="2" ry="0.467033" fill="#D5A98D"/>
<ellipse cx="260" cy="54.9725" rx="2" ry="0.467033" fill="#D5A98D"/>
<ellipse cx="210" cy="45.6319" rx="2" ry="0.467033" fill="#D5A98D"/>
<ellipse cx="325" cy="54.0385" rx="2" ry="0.467033" fill="#D5A98D"/>
<ellipse cx="275" cy="44.6978" rx="2" ry="0.467033" fill="#D5A98D"/>
<ellipse cx="255" cy="60.5769" rx="2" ry="0.467033" fill="#D5A98D"/>
<ellipse cx="205" cy="51.2363" rx="2" ry="0.467033" fill="#D5A98D"/>
<ellipse cx="320" cy="59.6429" rx="2" ry="0.467033" fill="#D5A98D"/>
<ellipse cx="270" cy="50.3022" rx="2" ry="0.467033" fill="#D5A98D"/>
<ellipse cx="226" cy="70.8516" rx="2" ry="0.467033" fill="#D5A98D"/>
<ellipse cx="176" cy="61.511" rx="2" ry="0.467033" fill="#D5A98D"/>
<ellipse cx="291" cy="69.9176" rx="2" ry="0.467033" fill="#D5A98D"/>
<ellipse cx="241" cy="60.5769" rx="2" ry="0.467033" fill="#D5A98D"/>
<ellipse cx="214" cy="37.2253" rx="2" ry="0.467033" fill="#D5A98D"/>
<ellipse cx="164" cy="27.8846" rx="2" ry="0.467033" fill="#D5A98D"/>
<ellipse cx="279" cy="36.2912" rx="2" ry="0.467033" fill="#D5A98D"/>
<ellipse cx="229" cy="26.9506" rx="2" ry="0.467033" fill="#D5A98D"/>
<ellipse cx="224" cy="18.544" rx="2" ry="0.467033" fill="#D5A98D"/>
<ellipse cx="184" cy="18.544" rx="2" ry="0.467033" fill="#D5A98D"/>
<ellipse cx="289" cy="17.6099" rx="2" ry="0.467033" fill="#D5A98D"/>
<ellipse cx="239" cy="8.26923" rx="2" ry="0.467033" fill="#D5A98D"/>
<ellipse cx="185" cy="47.5" rx="2" ry="0.467033" fill="#D5A98D"/>
<ellipse cx="135" cy="38.1593" rx="2" ry="0.467033" fill="#D5A98D"/>
<ellipse cx="250" cy="46.5659" rx="2" ry="0.467033" fill="#D5A98D"/>
<ellipse cx="200" cy="37.2253" rx="2" ry="0.467033" fill="#D5A98D"/>
<ellipse cx="195" cy="28.8187" rx="2" ry="0.467033" fill="#D5A98D"/>
<ellipse cx="155" cy="28.8187" rx="2" ry="0.467033" fill="#D5A98D"/>
<ellipse cx="260" cy="27.8846" rx="2" ry="0.467033" fill="#D5A98D"/>
<ellipse cx="210" cy="18.544" rx="2" ry="0.467033" fill="#D5A98D"/>
<ellipse cx="264" cy="37.2253" rx="2" ry="0.467033" fill="#D5A98D"/>
<ellipse cx="214" cy="27.8846" rx="2" ry="0.467033" fill="#D5A98D"/>
<ellipse cx="329" cy="36.2912" rx="2" ry="0.467033" fill="#D5A98D"/>
<ellipse cx="279" cy="26.9506" rx="2" ry="0.467033" fill="#D5A98D"/>
<ellipse cx="235" cy="47.5" rx="2" ry="0.467033" fill="#D5A98D"/>
<ellipse cx="185" cy="38.1593" rx="2" ry="0.467033" fill="#D5A98D"/>
<ellipse cx="300" cy="46.5659" rx="2" ry="0.467033" fill="#D5A98D"/>
<ellipse cx="250" cy="37.2253" rx="2" ry="0.467033" fill="#D5A98D"/>
<ellipse cx="230" cy="53.1044" rx="2" ry="0.467033" fill="#D5A98D"/>
<ellipse cx="180" cy="43.7637" rx="2" ry="0.467033" fill="#D5A98D"/>
<ellipse cx="295" cy="52.1703" rx="2" ry="0.467033" fill="#D5A98D"/>
<ellipse cx="245" cy="42.8297" rx="2" ry="0.467033" fill="#D5A98D"/>
<ellipse cx="201" cy="63.3791" rx="2" ry="0.467033" fill="#D5A98D"/>
<ellipse cx="151" cy="54.0385" rx="2" ry="0.467033" fill="#D5A98D"/>
<ellipse cx="266" cy="62.4451" rx="2" ry="0.467033" fill="#D5A98D"/>
<ellipse cx="216" cy="53.1044" rx="2" ry="0.467033" fill="#D5A98D"/>
<ellipse cx="172" cy="44.6978" rx="2" ry="0.467033" fill="#D5A98D"/>
<ellipse cx="127" cy="34.4231" rx="2" ry="0.467033" fill="#D5A98D"/>
<ellipse cx="237" cy="43.7637" rx="2" ry="0.467033" fill="#D5A98D"/>
<ellipse cx="187" cy="34.4231" rx="2" ry="0.467033" fill="#D5A98D"/>
<ellipse cx="182" cy="26.0165" rx="2" ry="0.467033" fill="#D5A98D"/>
<ellipse cx="142" cy="26.0165" rx="2" ry="0.467033" fill="#D5A98D"/>
<ellipse cx="247" cy="25.0824" rx="2" ry="0.467033" fill="#D5A98D"/>
<ellipse cx="197" cy="15.7418" rx="2" ry="0.467033" fill="#D5A98D"/>
<ellipse cx="143" cy="54.9725" rx="2" ry="0.467033" fill="#D5A98D"/>
<ellipse cx="127" cy="45.6319" rx="2" ry="0.467033" fill="#D5A98D"/>
<ellipse cx="153" cy="36.2912" rx="2" ry="0.467033" fill="#D5A98D"/>
<ellipse cx="137" cy="26.9506" rx="2" ry="0.467033" fill="#D5A98D"/>
<ellipse cx="218" cy="35.3571" rx="2" ry="0.467033" fill="#D5A98D"/>
<ellipse cx="168" cy="26.0165" rx="2" ry="0.467033" fill="#D5A98D"/>
<ellipse cx="222" cy="44.6978" rx="2" ry="0.467033" fill="#D5A98D"/>
<ellipse cx="172" cy="35.3571" rx="2" ry="0.467033" fill="#D5A98D"/>
<ellipse cx="287" cy="43.7637" rx="2" ry="0.467033" fill="#D5A98D"/>
<ellipse cx="237" cy="34.4231" rx="2" ry="0.467033" fill="#D5A98D"/>
<ellipse cx="193" cy="54.9725" rx="2" ry="0.467033" fill="#D5A98D"/>
<ellipse cx="143" cy="45.6319" rx="2" ry="0.467033" fill="#D5A98D"/>
<ellipse cx="258" cy="54.0385" rx="2" ry="0.467033" fill="#D5A98D"/>
<ellipse cx="208" cy="44.6978" rx="2" ry="0.467033" fill="#D5A98D"/>
<ellipse cx="188" cy="60.5769" rx="2" ry="0.467033" fill="#D5A98D"/>
<ellipse cx="138" cy="51.2363" rx="2" ry="0.467033" fill="#D5A98D"/>
<ellipse cx="253" cy="59.6429" rx="2" ry="0.467033" fill="#D5A98D"/>
<ellipse cx="203" cy="50.3022" rx="2" ry="0.467033" fill="#D5A98D"/>
<ellipse cx="159" cy="70.8516" rx="2" ry="0.467033" fill="#D5A98D"/>
<ellipse cx="143" cy="61.511" rx="2" ry="0.467033" fill="#D5A98D"/>
<ellipse cx="224" cy="69.9176" rx="2" ry="0.467033" fill="#D5A98D"/>
<ellipse cx="174" cy="60.5769" rx="2" ry="0.467033" fill="#D5A98D"/>
</svg>
