<svg width="380" height="100" viewBox="0 0 380 100" fill="none" xmlns="http://www.w3.org/2000/svg">
<path d="M255.5 20C319.5 8 302 7 337.5 22C420.5 63 290.5 63.5 321 80.5C351.5 97.5 86.5 99.5 52.5 94.5C6.5 87.7353 15.5 59.5 9.99996 42C4.49996 24.5 51 16 106 20C161 24 191.5 32 255.5 20Z" fill="black" fill-opacity="0.1"/>
<path d="M243 9C282 -3.5 301 5.5 336.5 20.5C419.5 61.5 286.5 53 313 76.5C339.5 100 86.5 95.5 52.5 90.5C18.5 85.5 15.5 55.5 9.99996 38C4.49996 20.5 51 12 106 16C161 20 180.992 28.8744 243 9Z" fill="#FFFDEF"/>
<g style="mix-blend-mode:color-burn">
<path d="M205.071 64.9509C203.728 85.1778 175.91 87.9341 141.97 85.6809C108.029 83.4276 80.8194 77.0181 82.1622 56.7912C83.5051 36.5643 112.108 21.9938 146.048 24.247C179.988 26.5003 206.414 44.724 205.071 64.9509Z" fill="black" fill-opacity="0.2"/>
</g>
<path d="M204.182 62.708C203.048 79.7912 176.497 86.9162 144.061 84.7628C111.625 82.6095 85.5875 71.9932 86.7216 54.91C87.8557 37.8267 115.07 20.7237 147.506 22.8771C179.941 25.0304 205.317 45.6248 204.182 62.708Z" fill="#FFE710"/>
<path d="M195.688 60.8759C194.697 75.7936 172.026 83.3172 144.328 81.4784C116.629 79.6396 94.3938 69.1347 95.3841 54.217C96.3745 39.2992 119.637 24.331 147.335 26.1698C175.034 28.0086 196.678 45.9582 195.688 60.8759Z" fill="#FBE410"/>
<path d="M172.957 40.3433C172.495 47.3016 160.381 48.0809 145.566 47.0974C130.751 46.1139 118.846 43.74 119.308 36.7816C119.77 29.8232 132.154 24.9796 146.969 25.9632C161.784 26.9467 173.419 33.3849 172.957 40.3433Z" fill="#FFEE58"/>
<path d="M185.437 66.8987C201.937 65.3987 187.937 48.8987 193.437 47.3987C198.437 50.8987 204.723 64.3987 195.08 70.3987C185.437 76.3987 160.937 81.8987 157.937 79.3987C154.937 76.8987 168.937 68.3987 185.437 66.8987Z" fill="#FFEE58"/>
<path d="M323.5 50.5C370.5 40.5 371 39 347 25.5C324 11 271 30.5 249.5 57C228 83.5 197.5 85 182.5 89C168.291 92.789 282.5 79.5 294 78C305.5 76.5 276.5 60.5 323.5 50.5Z" fill="white"/>
<path d="M29.5 28C11 27 9.49995 64.5 58 81C86.5 88.5 101.067 87.0711 137.5 89.5C175 92 101 83 84 76C57.9608 65.278 48 29 29.5 28Z" fill="white"/>
</svg>
