<svg width="380" height="100" viewBox="0 0 380 100" fill="none" xmlns="http://www.w3.org/2000/svg">
<g clip-path="url(#clip0_17_842)">
<path d="M338.388 52.8414L355 68.5L352.329 81.1437L337.42 85.1712L279.367 86.3165L254.852 88.2256L238.376 87.5664L219.68 85.0843L218.719 60.1914L338.388 52.8414Z" fill="#A96855"/>
<path d="M237.225 85.6616L222.535 81.7068L219.561 85.0773C223.114 86.7365 231.588 90.1003 237.058 90.2812C242.528 90.4621 265.951 80.0595 276.978 74.8356C292.277 72.4509 325.964 67.4369 338.322 66.4581C353.769 65.2347 352.295 74.4361 351.559 79.0369L351.559 79.037C350.822 83.6377 324.021 83.3293 311.527 81.7598C301.532 80.5042 271.924 83.1478 258.37 84.6266L254.805 88.5557C266.439 87.5915 293.013 85.7725 306.232 86.2098C322.756 86.7564 347.598 93.9376 355.547 79.1689C361.907 67.3539 346.797 63.4623 338.447 62.9934L277.145 70.216L237.225 85.6616Z" fill="#925B46"/>
<path d="M276.548 82.1366L278.187 79.967C294.146 75.0381 329.395 66.3289 342.727 70.9242C359.391 76.6683 345.27 79.7023 337.912 80.8075C332.026 81.6917 313.456 80.5477 304.907 79.8652L307.127 78.0974C313.026 78.8738 327.428 80.0809 337.848 78.6983C350.872 76.9701 347.993 75.8052 341.075 72.6719C335.54 70.1653 295.751 77.9373 276.548 82.1366Z" fill="#925B46"/>
<path d="M222.5 79.5L219.5 82V70L262.5 62L337 52.5L350 63.5L326 62L277 70L236.5 82L222.5 79.5Z" fill="black" fill-opacity="0.1"/>
<path d="M27.0914 54.107L10.6338 74.3188L14.5259 82.2386L28.1503 86.334L81.1199 87.7921L103.497 89.8285L118.525 89.2614L135.568 86.8895L136.31 62.0851L27.0914 54.107Z" fill="#A96855"/>
<path d="M277.75 10.013C283.966 11.2829 357.365 12.9516 361 13.0185C362.505 13.0462 361.296 18.3608 361.191 25.6796L361.249 29.5C361.434 33.4402 373.974 45.7427 375.5 50C377.793 56.3958 370.212 54.6893 378.21 59.4979L319.019 58.4082L231.56 75.286L132.498 77.4442L119.489 79.5156L114.878 81.4823C118.397 76.9252 126.006 65.0764 130.609 62.388C136.364 59.0275 180.613 11.6912 189.945 13.0185C199.276 14.3458 271.534 8.74303 277.75 10.013Z" fill="#A96855"/>
<path d="M266.026 54.4547C267.007 52.7019 268.432 48.6447 268.875 46.3402L217.905 43.6884L209.09 44.0211L122.628 67.3017L118.479 67.4583L24.5932 54.4157L8.5 61.2704L13.0229 65.719L24.8185 61.2704L118.667 73.1705L125.927 72.8965L211.333 49.0838L215.482 48.9272C227.927 48.4575 254.364 52.4165 266.026 54.4547Z" fill="#925B46"/>
<path d="M374.993 67.5271C376.054 65.8134 377.662 61.7987 378.21 59.4979L327.385 53.9402L318.558 53.7777L231.077 72.3884L226.923 72.3119L131.597 74.7549L114.896 81.3804L119.518 85.5097L131.51 81.6863L226.851 78.088L234.12 78.2218L320.57 59.0145L324.724 59.091C337.185 59.3204 363.429 64.8106 374.993 67.5271Z" fill="#925B46"/>
<path d="M118.99 86.8563L132.392 82.9513L135.103 86.2482C131.86 87.8813 124.128 91.1946 119.139 91.3829C114.149 91.5713 92.7907 81.4244 82.7354 76.3274C68.7819 74.0213 38.0572 69.1757 26.7855 68.2414C12.6961 67.0735 14.0331 76.0875 14.7016 80.5946L14.7016 80.5946C15.3701 85.1017 39.8178 84.7455 51.2155 83.1823C60.3337 81.9317 87.3395 84.4628 99.7026 85.8846L102.951 89.7277C92.3394 88.8063 68.1008 87.0773 56.0421 87.5324C40.9689 88.1013 18.3036 95.1885 11.0632 80.7319C5.27087 69.1667 19.0569 65.3227 26.674 64.8464L82.5866 71.8007L118.99 86.8563Z" fill="#925B46"/>
<path d="M83.4067 83.6257L81.9138 81.4585C67.3804 76.5508 35.2784 67.8884 23.1373 72.5004C7.9609 78.2655 20.8212 81.2808 27.5217 82.3763C32.8821 83.2528 49.7942 82.0848 57.5802 81.3913L55.5584 79.6266C50.1861 80.4105 37.0694 81.6362 27.5805 80.2673C15.7194 78.5562 18.3409 77.3877 24.6419 74.2458C29.6827 71.7323 65.9188 79.4517 83.4067 83.6257Z" fill="#925B46"/>
<path d="M191.479 9.86351C195.117 9.72621 238.526 39.5626 265 53.5L209.5 51.5L122.915 76.7931L27.3047 64.8905L16.5 67L13 65.5C16.3137 60.7791 20.2531 52.9776 24.7358 50.0509C30.3391 46.3926 69.3903 47.2167 78.7823 48.0112C88.1742 48.8057 138.698 18.7493 144.972 19.6615C151.246 20.5736 187.842 10.0008 191.479 9.86351Z" fill="black" fill-opacity="0.1"/>
<path d="M191.479 2.86351C195.117 2.72622 242.386 31.9642 268.861 45.9016L209.617 48.1375L122.915 69.7931L27.3046 57.8905L14.3881 60.6759L8.5 61.5C11.8137 56.7791 20.253 45.9776 24.7357 43.0509C30.339 39.3926 69.3903 40.2167 78.7822 41.0112C88.1741 41.8057 138.698 11.7493 144.972 12.6615C151.246 13.5736 187.842 3.0008 191.479 2.86351Z" fill="#A96855"/>
<path d="M148.515 68.0932L151.246 71.941L211.771 58.933L267.018 59.67L318.754 48.687L370.562 55.7622L375.059 49.9484L318.605 44.1774L266.925 56.8515L211.568 52.7323L148.515 68.0932Z" fill="#925B46"/>
<path d="M175 52.5L170.5 22L137 15.5L86.0001 11.5L35 15.5L23.6659 30.6842L21.3777 45.8683L25.9541 54.4346L42.0505 58.8208L104.678 60.2025L131.13 62.3252L148.901 61.6545L175 52.5Z" fill="black" fill-opacity="0.1"/>
<path d="M169.062 49.021L170.019 22.1437L137 5.50001L86.0001 1.50001L35 5.50001L23.6659 20.6842L21.3777 35.8683L25.9541 44.4346L42.0505 48.8208L104.678 50.2025L131.13 52.3252L148.901 51.6545L169.062 49.021Z" fill="#A96855"/>
<path d="M149.955 49.814L165.724 45.4555L168.904 49.0988C165.087 50.9155 155.988 54.6042 150.12 54.8256C144.252 55.0471 119.159 43.8676 107.347 38.2502C90.9438 35.7331 54.825 30.4475 41.5727 29.4423C25.0073 28.1858 26.5591 38.1629 27.335 43.1515L27.335 43.1516C28.111 48.1401 56.8602 47.6824 70.2664 45.9219C80.9914 44.5136 112.742 47.2459 127.277 48.7882L131.089 53.0349C118.612 52.0423 90.1133 50.1908 75.9323 50.726C58.2062 51.395 31.5377 59.301 23.0563 43.313C16.2711 30.5227 32.491 26.2308 41.4491 25.6836L107.182 33.2385L149.955 49.814Z" fill="#925B46"/>
<path d="M107.729 46.6576L105.97 44.3153C88.7872 39.0528 50.8264 29.7887 36.4436 34.8315C18.465 41.135 33.6739 44.3534 41.5996 45.5151C47.9402 46.4444 67.9576 45.1151 77.1738 44.3343L74.787 42.4299C68.4269 43.2996 52.9007 44.6771 41.6762 43.2298C27.6455 41.4207 30.7516 40.1447 38.2184 36.7168C44.1919 33.9745 87.0479 42.2014 107.729 46.6576Z" fill="#925B46"/>
</g>
<defs>
<clipPath id="clip0_17_842">
<rect width="380" height="100" fill="white"/>
</clipPath>
</defs>
</svg>
