<svg width="380" height="100" viewBox="0 0 380 100" fill="none" xmlns="http://www.w3.org/2000/svg">
<g clip-path="url(#clip0_17_1440)">
<g filter="url(#filter0_d_17_1440)">
<path d="M81.8273 3.21707C77.666 2.29816 64.8932 4.43839 59.027 5.62338L54.1751 7.77646L43.197 18.4983L29.1759 26.3158L20.1916 30.0367L19.5136 37.1628L36.3523 48.5704L54.4655 53.5624L72.722 50.07L85.8801 51.3221L90.9584 53.7664L112.854 53.8888L135.654 51.4824L148.381 57.2693L186.89 85.1201L197.582 91.3669L205.312 86.8729L206.606 73.2686L213.555 70.0077L225.787 60.0589L233.353 50.3197L233.784 45.785L227.205 45.1589L210.12 36.3426L178.869 22.9099L170.974 22.1587C159.248 22.1325 133.93 22.1638 126.463 22.4992C118.996 22.8345 116.621 18.948 116.368 16.9628L105.841 15.9611C99.5705 12.096 85.9885 4.13598 81.8273 3.21707Z" fill="#981F16"/>
<path d="M82.0738 0.625775C77.9126 -0.293137 65.1398 1.8471 59.2736 3.03208L54.4217 5.18517L43.4436 15.907L29.4225 23.7245L20.4382 27.4454L19.7601 34.5715L36.5989 45.9791L54.712 50.9711L72.9686 47.4787L86.1267 48.7308L91.205 51.1751L113.101 51.2975L135.901 48.8912L148.628 54.678L187.137 82.5288L197.828 88.7756L205.558 84.2816L206.853 70.6773L213.802 67.4164L226.034 57.4676L233.599 47.7284L234.031 43.1937L227.452 42.5676L210.366 33.7513L179.115 20.3186L171.22 19.5674C159.495 19.5412 134.177 19.5725 126.709 19.9079C119.242 20.2432 116.868 16.3567 116.614 14.3715L106.088 13.3698C99.8171 9.5047 86.2351 1.54469 82.0738 0.625775Z" fill="#D43B2B"/>
<path fill-rule="evenodd" clip-rule="evenodd" d="M51.8086 7.73728L55.7842 11.797L79.4889 6.86201L92.7501 14.0071L99.987 14.6957C101.566 14.8459 108.458 16.3733 111.706 17.1182L125.748 23.0302L151.961 19.6412L151.894 19.5819C141.587 19.6192 131.084 19.7114 126.709 19.9079C119.242 20.2432 116.868 16.3567 116.614 14.3715L106.088 13.3698C99.8171 9.50469 86.2351 1.54468 82.0739 0.625772C77.9126 -0.29314 65.1398 1.8471 59.2736 3.03208L54.4217 5.18517L51.8086 7.73728Z" fill="#981F16"/>
<path fill-rule="evenodd" clip-rule="evenodd" d="M221.753 60.9496L226.034 57.4676L229.899 52.4924L198.591 31.9225L154.614 33.6212L137.221 28.044L103.38 20.9017L63.8235 24.9821L40.9461 17.2994L30.2919 23.2397L37.6105 28.3711L63.1455 32.1082L97.7465 24.2879L132.883 38.744L161.173 41.4359C162.226 41.536 173.029 37.7702 178.299 35.8748L196.062 37.5651L205.068 47.5736L221.753 60.9496Z" fill="#981F16"/>
<path fill-rule="evenodd" clip-rule="evenodd" d="M206.762 71.6308L206.853 70.6773L213.802 67.4164L214.069 67.1987L199.764 61.4502L200.134 57.5632L198.407 54.7841L191.828 54.1581L172.049 45.7392L132.822 39.3918L121.637 38.3276L108.767 41.0251L93.6355 39.5852L80.6007 37.0375L97.5414 33.42L106.506 36.8877L115.058 37.7015L106.937 32.3529L97.9113 29.533L80.1894 34.3836L67.3193 37.0812L52.8454 35.7039L33.4782 29.9389L26.7249 24.8417L21.8229 26.8719L27.0022 35.2059L43.4498 36.771L49.0628 40.5735L63.5367 41.9507L75.6872 39.8385L86.0903 42.1357L96.4319 45.0808L115.696 44.9528L132.452 43.2787L154.821 45.4072L164.895 58.1323L170.693 59.9913C173.935 63.1325 180.945 69.4648 183.05 69.6651L190.287 70.3537L196.003 80.0493L202.625 85.9869L205.558 84.2816L205.97 79.9518L188.683 66.279C184.222 64.3292 174.929 60.1329 173.448 58.9461C171.968 57.7593 167.54 53.5902 165.512 51.654L174.065 52.4679L192.404 62.0572L203.815 67.7188L206.762 71.6308Z" fill="#F78636"/>
<path d="M53.9135 17.5022L46.2652 14.1597L49.3283 9.87533L54.1601 14.9109L72.1084 14.6577L85.5131 13.3184L101.714 17.4748L85.0816 17.8532L71.6769 19.1925L53.9135 17.5022Z" fill="#F78636"/>
<path d="M157.02 29.2742C152.496 27.9722 141.871 25.218 135.555 24.617L157.266 26.6829L163.434 24.655L181.197 26.3452L186.111 23.5443L195.671 27.7225L184.24 29.2496L157.02 29.2742Z" fill="#F78636"/>
<path d="M317.43 38.9893C321.688 39.1386 333.522 44.4008 338.906 47.0132L343.067 50.3097L351.02 63.4334L362.644 74.5047L370.415 80.3514L369.292 87.421L350.138 94.262L331.352 94.5725L314.546 86.6316L301.492 84.558L295.964 85.6566L274.731 80.3071L253.255 72.2832L239.486 74.7084L195.242 92.0599L183.329 95.4389L176.966 89.1569L179.11 75.6603L173.196 70.7674L163.836 58.0791L158.942 46.7592L159.657 42.2603L166.184 43.2971L184.929 39.0269L218.545 33.8241L226.377 35.0682C237.738 37.9711 262.246 44.3241 269.393 46.5136C276.54 48.7031 279.809 45.5326 280.551 43.6736L290.994 45.3325C298.031 43.1558 313.171 38.8399 317.43 38.9893Z" fill="#981F16"/>
<path d="M317.838 36.4185C322.097 36.5679 333.93 41.83 339.315 44.4424L343.475 47.739L351.428 60.8626L363.053 71.9339L370.823 77.7806L369.7 84.8502L350.546 91.6913L331.76 92.0017L314.954 84.0608L301.9 81.9872L296.372 83.0858L275.14 77.7363L253.663 69.7124L239.894 72.1376L195.65 89.4891L183.738 92.8681L177.375 86.5861L179.519 73.0896L173.604 68.1966L164.244 55.5083L159.351 44.1884L160.065 39.6896L166.592 40.7264L185.338 36.4561L218.953 31.2533L226.786 32.4975C238.146 35.4003 262.654 41.7533 269.801 43.9428C276.948 46.1324 280.218 42.9618 280.959 41.1029L291.402 42.7617C298.439 40.5851 313.579 36.2691 317.838 36.4185Z" fill="#D43B2B"/>
<path fill-rule="evenodd" clip-rule="evenodd" d="M345.368 50.8628L340.505 53.8011L318.784 43.1027L304.158 46.7096L296.979 45.5691C295.412 45.3203 288.357 45.0782 285.026 44.9883L269.952 47.2062L245.416 37.3785L245.496 37.3379C255.467 39.9479 265.614 42.66 269.801 43.9428C276.948 46.1323 280.218 42.9618 280.959 41.1029L291.402 42.7617C298.439 40.5851 313.579 36.2691 317.838 36.4185C322.097 36.5679 333.93 41.83 339.315 44.4424L343.475 47.739L345.368 50.8628Z" fill="#981F16"/>
<path fill-rule="evenodd" clip-rule="evenodd" d="M167.52 59.9491L164.244 55.5083L161.744 49.7256L197.197 37.6259L239.356 50.253L257.591 49.1961L292.144 50.7313L329.427 64.5607L353.499 62.8346L362.332 71.2474L353.964 74.3885L328.304 71.6304L296.753 55.4169L259.119 60.6403L231.053 56.1821C230.009 56.0162 220.489 49.6719 215.859 46.5205L198.236 43.7211L187.016 51.1636L167.52 59.9491Z" fill="#981F16"/>
<path fill-rule="evenodd" clip-rule="evenodd" d="M179.368 74.0355L179.519 73.0896L173.604 68.1966L173.399 67.9189L188.687 65.9249L189.299 62.0688L191.666 59.8091L198.193 60.8459L219.447 57.633L259.017 61.283L270.113 63.0456L281.901 68.8716L296.913 71.2563L310.171 72.0445L294.671 64.3109L285.125 65.4302L276.64 64.0824L285.839 60.9313L295.283 60.4548L311.232 69.5774L323.021 75.4034L337.38 77.6844L357.573 76.9386L365.386 73.6894L369.625 76.8795L362.529 83.656L346.212 81.064L339.827 83.3443L325.468 81.0634L314.23 75.9837L303.582 75.6102L292.833 75.8794L274.211 70.9446L258.404 65.1392L236.213 61.6141L223.279 71.42L217.201 71.7722C213.278 74.0043 204.909 78.3854 202.82 78.0536L195.64 76.9132L187.684 84.8741L179.789 88.9699L177.375 86.5861L178.057 82.2906L198.211 73.3681C203.018 72.5942 213.065 70.8516 214.794 70.0721C216.524 69.2927 221.852 66.3613 224.3 64.993L215.815 63.6452L195.662 68.3508L183.199 70.9834L179.368 74.0355Z" fill="#F78636"/>
<path d="M340.891 59.7927L349.132 58.4661L347.236 53.5525L341.3 57.2219L323.983 52.4945L311.338 47.8501L294.612 47.8289L310.623 52.349L323.269 56.9933L340.891 59.7927Z" fill="#F78636"/>
<path d="M238.112 45.443C242.817 45.3119 253.794 45.2984 260.06 46.2937L238.521 42.8723L233.055 39.3684L215.432 36.569L211.374 32.6298L201.073 34.2881L211.76 38.6214L238.112 45.443Z" fill="#F78636"/>
<path d="M114.032 30.8623C109.784 31.2041 98.2292 36.9926 92.9828 39.8442L88.9947 43.3234L81.7226 56.785L70.6756 68.3636L63.2112 74.552L64.6973 81.5591L84.1906 87.5226L102.98 86.9829L119.366 78.2951L132.304 75.6346L137.885 76.4815L158.828 70.1806L179.878 61.1987L193.762 62.9972L238.869 78.319L250.948 81.1536L256.983 74.5943L254.146 61.2171L259.805 56.0648L268.506 42.9742L272.814 31.4518L271.868 26.9927L265.399 28.323L246.446 24.9076L212.585 21.2337L204.822 22.83C193.618 26.2418 169.453 33.6926 162.424 36.2017C155.395 38.7108 151.964 35.6934 151.128 33.8711L140.777 35.9995C133.632 34.1447 118.281 30.5205 114.032 30.8623Z" fill="#981F16"/>
<path d="M113.492 28.3143C109.244 28.656 97.6888 34.4446 92.4424 37.2962L88.4543 40.7754L81.1822 54.237L70.1351 65.8156L62.6708 72.004L64.1569 79.0111L83.6502 84.9745L102.439 84.4349L118.826 75.7471L131.764 73.0866L137.345 73.9334L158.288 67.6326L179.337 58.6506L193.221 60.4492L238.329 75.7709L250.407 78.6056L256.443 72.0462L253.606 58.669L259.264 53.5167L267.965 40.4262L272.273 28.9038L271.327 24.4447L264.858 25.7749L245.905 22.3595L212.045 18.6856L204.282 20.2819C193.078 23.6937 168.913 31.1446 161.884 33.6537C154.854 36.1628 151.424 33.1454 150.587 31.323L140.237 33.4514C133.092 31.5967 117.74 27.9725 113.492 28.3143Z" fill="#D43B2B"/>
<path fill-rule="evenodd" clip-rule="evenodd" d="M86.7234 43.9796L91.7348 46.6931L112.891 35.0301L127.692 37.9697L134.808 36.5064C136.361 36.1871 143.398 35.6264 146.723 35.386L161.901 36.9185L185.915 25.9974L185.833 25.9605C176.003 29.0171 166.002 32.1836 161.884 33.6537C154.854 36.1628 151.424 33.1454 150.587 31.323L140.237 33.4514C133.092 31.5966 117.74 27.9725 113.492 28.3143C109.244 28.656 97.6889 34.4446 92.4425 37.2962L88.4544 40.7754L86.7234 43.9796Z" fill="#981F16"/>
<path fill-rule="evenodd" clip-rule="evenodd" d="M264.92 45.0078L267.965 40.4262L270.166 34.54L234.114 24.0637L192.633 38.5765L174.356 38.3461L139.905 41.4414L103.358 56.934L79.2145 56.2994L70.8201 65.0977L79.3442 67.8551L104.844 63.9411L135.541 46.3276L173.418 49.8404L201.235 44.1203C202.271 43.9075 211.458 37.1431 215.922 33.7876L233.389 30.1959L244.984 37.1186L264.92 45.0078Z" fill="#981F16"/>
<path fill-rule="evenodd" clip-rule="evenodd" d="M253.805 59.6066L253.606 58.669L259.264 53.5167L259.455 53.2302L244.075 51.9309L243.265 48.1089L240.784 45.9599L234.314 47.2902L212.909 45.0439L173.553 50.4773L162.556 52.7388L151.075 59.0883L136.195 62.1479L122.987 63.5344L138.079 55.1127L147.676 55.7984L156.086 54.069L146.731 51.3393L137.269 51.2906L121.8 61.1194L110.319 67.4689L96.0864 70.3955L75.8682 70.5642L67.894 67.6737L63.8213 71.0502L71.2617 77.4945L87.4348 74.1689L93.9325 76.1567L108.165 73.2301L119.134 67.6506L129.755 66.7962L140.511 66.5788L158.866 60.8101L174.364 54.2994L196.359 49.7765L209.788 58.9813L215.881 59.0581C219.917 61.109 228.505 65.1044 230.576 64.6787L237.692 63.2154L246.052 70.8033L254.153 74.5353L256.443 72.0462L255.54 67.7887L234.94 59.7924C230.097 59.2372 219.967 57.9519 218.198 57.2519C216.43 56.552 210.954 53.8665 208.438 52.6112L216.847 50.8819L237.229 54.6682L249.82 56.7328L253.805 59.6066Z" fill="#F78636"/>
<path d="M91.6568 52.6922L83.3533 51.7405L84.9954 46.7493L91.1164 50.1442L108.178 44.6415L120.576 39.4329L137.289 38.6553L121.522 43.892L109.124 49.1005L91.6568 52.6922Z" fill="#F78636"/>
<path d="M193.629 33.7183C188.92 33.8001 177.95 34.2831 171.74 35.5601L193.088 31.1703L198.37 27.425L215.837 23.8333L219.69 19.7171L230.069 20.9068L219.612 25.7162L193.629 33.7183Z" fill="#F78636"/>
<path d="M162.306 10.0695C166.535 9.54885 179.048 12.8894 184.776 14.6247L189.402 17.2277L199.315 28.9412L212.532 38.0517L221.124 42.607V49.7652L203.28 59.5265L184.776 62.7803L166.932 57.5742H153.714L148.427 59.5265L126.619 57.5742L104.149 53.019L90.9313 57.5742L49.9569 81.652L38.722 86.858L31.4524 81.652V67.9863L24.8437 64.0818L13.6088 53.019L7 42.607V38.0517H13.6088L31.4524 30.8935L63.8353 20.4815H71.7659C83.4413 21.566 108.643 23.9955 116.045 25.0367C123.446 26.0779 126.178 22.4337 126.619 20.4815H137.193C143.801 17.2277 158.076 10.5901 162.306 10.0695Z" fill="#981F16"/>
<path d="M162.306 7.46646C166.535 6.94585 179.048 10.2864 184.776 12.0217L189.402 14.6247L199.315 26.3382L212.532 35.4487L221.124 40.004V47.1622L203.28 56.9235L184.776 60.1773L166.932 54.9712H153.714L148.427 56.9235L126.619 54.9712L104.149 50.416L90.9313 54.9712L49.9569 79.049L38.722 84.255L31.4524 79.049V65.3833L24.8437 61.4788L13.6088 50.416L7 40.004V35.4487H13.6088L31.4524 28.2905L63.8353 17.8785H71.7659C83.4413 18.963 108.643 21.3925 116.045 22.4337C123.446 23.4749 126.178 19.8307 126.619 17.8785H137.193C143.801 14.6247 158.076 7.98706 162.306 7.46646Z" fill="#D43B2B"/>
<path fill-rule="evenodd" clip-rule="evenodd" d="M191.761 17.4129L187.419 21.0778L164.289 13.9195L150.41 19.7763H143.14C141.554 19.7763 134.549 20.6439 131.245 21.0778L116.705 25.633L90.9313 19.7763L91.004 19.7236C101.261 20.7371 111.708 21.8237 116.045 22.4337C123.446 23.4749 126.178 19.8307 126.619 17.8785H137.193C143.801 14.6247 158.076 7.98706 162.306 7.46646C166.535 6.94585 179.048 10.2864 184.776 12.0217L189.402 14.6247L191.761 17.4129Z" fill="#981F16"/>
<path fill-rule="evenodd" clip-rule="evenodd" d="M17.5409 54.2878L13.6089 50.416L10.2328 45.0971L43.3483 27.5853L86.9661 33.442L104.81 29.5375L139.175 25.633L178.167 33.442L201.669 27.961L211.713 34.8838L203.941 39.2988L178.167 40.6003L144.462 29.5375L108.114 40.6003H79.6965C78.6391 40.6003 68.2413 35.8281 63.1746 33.442H45.3309L35.4178 42.5525L17.5409 54.2878Z" fill="#981F16"/>
<path fill-rule="evenodd" clip-rule="evenodd" d="M31.4524 66.3411V65.3832L24.8437 61.4787L24.5978 61.2366L39.3829 56.869V52.9645L41.3656 50.3615H47.9743L68.4615 43.854L108.114 41.251H119.349L131.906 45.1555H147.106L160.323 43.854L143.801 38.648L134.549 41.251H125.958L134.549 36.6958L143.801 34.7435L160.984 41.251L173.541 45.1555H188.08L207.906 41.251L215.112 36.8165L219.8 39.3019L213.854 47.1078H197.332L191.384 50.3615H176.845L164.949 47.1078L154.375 48.4093L143.801 50.3615L124.636 48.4093L108.114 45.1555H85.6442L74.4094 56.869L68.4615 58.1706C64.9368 60.9905 57.3588 66.6303 55.244 66.6303H47.9743L41.3656 75.7408L34.211 81.0245L31.4524 79.049V74.6996L49.9569 62.7258C54.5831 61.2074 64.2319 57.9103 65.818 56.869C67.4041 55.8278 72.2064 52.0969 74.4094 50.3615H65.818L46.6526 58.1706L34.7568 62.7258L31.4524 66.3411Z" fill="#F78636"/>
<path d="M188.741 26.9345L196.671 24.3315L194.028 19.7763L188.741 24.3315L170.897 22.3793L157.68 19.7763L141.158 22.3793L157.68 24.3315L170.897 26.9345H188.741Z" fill="#F78636"/>
<path d="M84.9834 28.8868C89.6095 28.0191 100.448 26.2838 106.792 26.2838H84.9834L79.0355 23.6808H61.1919L56.5657 20.427L46.6526 23.6808L57.8875 26.2838L84.9834 28.8868Z" fill="#F78636"/>
<path d="M218.695 9.1956C214.382 8.93172 201.921 13.0567 196.229 15.1522L191.705 18.0523L182.385 30.4338L169.562 40.4017L161.143 45.5072L161.579 52.7022L180.234 61.4192L199.162 63.5548L216.905 57.2278L230.284 56.4172L235.754 58.0552L257.709 54.7555L280.174 48.7988L293.83 52.5668L336.769 74.2553L348.457 78.799L355.498 73.1204L354.666 59.3846L361.117 55.0547L371.815 43.2462L377.87 32.3755L377.592 27.7969L370.903 28.2022L352.407 22.1015L318.996 13.6221L310.969 14.1084C299.218 15.9146 273.858 19.9021 266.43 21.4025C259.001 22.903 256.015 19.4077 255.45 17.4724L244.747 18.1209C237.86 15.2557 223.007 9.45948 218.695 9.1956Z" fill="#981F16"/>
<path d="M218.536 6.57925C214.223 6.31537 201.762 10.4404 196.071 12.5359L191.547 15.436L182.227 27.8175L169.403 37.7853L160.985 42.8908L161.421 50.0858L180.076 58.8028L199.003 60.9384L216.747 54.6114L230.125 53.8008L235.595 55.4389L257.55 52.1391L280.016 46.1825L293.671 49.9505L336.61 71.6389L348.299 76.1826L355.34 70.5041L354.507 56.7682L360.959 52.4384L371.656 40.6299L377.711 29.7592L377.434 25.1805L370.745 25.5858L352.248 19.4852L318.838 11.0057L310.811 11.4921C299.059 13.2983 273.7 17.2857 266.271 18.7862C258.843 20.2867 255.856 16.7913 255.291 14.8561L244.589 15.5045C237.702 12.6394 222.849 6.84313 218.536 6.57925Z" fill="#D43B2B"/>
<path fill-rule="evenodd" clip-rule="evenodd" d="M189.328 18.3831L193.947 21.8005L216.922 13.187L231.326 18.2227L238.684 17.7768C240.29 17.6796 247.433 18.1221 250.804 18.3555L265.797 22.0424L291.528 14.575L291.451 14.5265C281.131 16.1742 270.623 17.9071 266.271 18.7862C258.843 20.2867 255.856 16.7913 255.291 14.8561L244.589 15.5045C237.701 12.6394 222.849 6.84313 218.536 6.57925C214.223 6.31537 201.762 10.4404 196.071 12.5359L191.547 15.436L189.328 18.3831Z" fill="#981F16"/>
<path fill-rule="evenodd" clip-rule="evenodd" d="M367.912 44.7627L371.656 40.6299L374.749 35.0766L340.165 19.5059L296.374 28.0677L278.075 25.2374L243.054 23.4205L204.064 33.6608L179.942 29.593L170.198 37.1672L178.333 41.1282L204.5 40.8558L237.941 27.6692L275.404 36.5596L304.168 34.8168C305.238 34.752 315.471 29.3176 320.454 26.6086L338.515 25.5143L349.103 34.0636L367.912 44.7627Z" fill="#981F16"/>
<path fill-rule="evenodd" clip-rule="evenodd" d="M354.566 57.7309L354.507 56.7682L360.959 52.4383L361.193 52.1799L345.962 48.6967L345.724 44.7721L343.559 42.2774L336.87 42.6827L315.737 37.3982L275.444 37.2137L264.073 37.9027L251.601 42.5973L236.216 43.5295L222.759 43.0319L239.165 36.7859L248.688 38.8349L257.384 38.308L248.41 34.2562L238.927 32.8614L221.932 40.456L209.46 45.1506L194.744 46.0423L174.439 43.3337L166.876 39.3182L162.282 42.1039L168.776 49.5852L185.498 48.572L191.717 51.4777L206.433 50.586L218.275 46.586L229.057 47.2457L239.878 48.5595L259.157 45.4219L275.682 41.1382L298.425 39.7602L310.51 50.8448L316.609 51.7882C320.348 54.4064 328.362 59.6104 330.503 59.4807L337.861 59.0349L345.104 67.7868L352.668 72.6589L355.34 70.504L355.075 66.1323L335.616 55.232C330.841 53.9895 320.874 51.2671 319.206 50.3179C317.537 49.3686 312.449 45.913 310.113 44.3039L318.809 43.777L338.683 50.4507L351.001 54.2998L354.566 57.7309Z" fill="#F78636"/>
<path d="M192.965 27.7684L184.78 25.6384L187.178 20.8976L192.807 25.152L210.749 22.0954L223.968 18.6685L240.849 20.2716L224.246 23.2471L211.026 26.6741L192.965 27.7684Z" fill="#F78636"/>
<path d="M298.103 23.3674C293.368 22.779 282.292 21.6995 275.87 22.0886L297.944 20.7511L303.806 17.77L321.867 16.6757L326.351 13.1215L336.583 15.784L325.37 19.0894L298.103 23.3674Z" fill="#F78636"/>
<path d="M34 81.5V78L40 74.5L46.5 66.5L59 63L73.5 53L85.5 45L76 59.5L68 58.5L59 69H50L42.5 74.5L34 81.5Z" fill="#FBAC59"/>
<path d="M52 58L34.5 63L50 55.5L65.5 50.5L52 58Z" fill="#FBAC59"/>
<path d="M108.5 73.5L94 76L106.5 71L119 67.5L108.5 73.5Z" fill="#FBAC59"/>
<path d="M144 51.5L158 48L144 49L124 47L108 45L124 51.5H144Z" fill="#FBAC59"/>
<path d="M203.5 81.5L212.5 73.5L203.5 77L195 75.5L189 80.5L182.5 87.5L186.5 89L195 80.5L203.5 81.5Z" fill="#FBAC59"/>
<path d="M231.5 68.5L222 62.5H238.5L252 73.5L238.5 68.5H231.5Z" fill="#FBAC59"/>
<path d="M315.5 80.5L292.5 76L315 75L331 82L343 80.5L353.5 82L338 88.5L333.5 85H323L315.5 80.5Z" fill="#FBAC59"/>
</g>
</g>
<defs>
<filter id="filter0_d_17_1440" x="7" y="0.402618" width="370.87" height="99.0363" filterUnits="userSpaceOnUse" color-interpolation-filters="sRGB">
<feFlood flood-opacity="0" result="BackgroundImageFix"/>
<feColorMatrix in="SourceAlpha" type="matrix" values="0 0 0 0 0 0 0 0 0 0 0 0 0 0 0 0 0 0 127 0" result="hardAlpha"/>
<feOffset dy="4"/>
<feComposite in2="hardAlpha" operator="out"/>
<feColorMatrix type="matrix" values="0 0 0 0 0 0 0 0 0 0 0 0 0 0 0 0 0 0 0.1 0"/>
<feBlend mode="normal" in2="BackgroundImageFix" result="effect1_dropShadow_17_1440"/>
<feBlend mode="normal" in="SourceGraphic" in2="effect1_dropShadow_17_1440" result="shape"/>
</filter>
<clipPath id="clip0_17_1440">
<rect width="380" height="100" fill="white"/>
</clipPath>
</defs>
</svg>
