<svg width="380" height="100" viewBox="0 0 380 100" fill="none" xmlns="http://www.w3.org/2000/svg">
<g clip-path="url(#clip0_18_1714)">
<path d="M45.3976 71.4256C40.2792 53.6478 58.188 45.3698 109.469 33.7274C160.749 22.085 179.197 8.44876 186.659 30.7547C196.019 58.7306 158.319 76.8969 113.634 89.7621C68.9497 102.627 51.2077 91.6059 45.3976 71.4256Z" fill="black" fill-opacity="0.1"/>
<path d="M45.3975 66.4256C40.279 48.6478 58.1878 40.3698 109.468 28.7274C160.749 17.085 179.196 3.44873 186.659 25.7547C196.019 53.7305 158.319 71.8968 113.634 84.7621C68.9495 97.6274 51.2076 86.6059 45.3975 66.4256Z" fill="#8B813A"/>
<path d="M45.4806 64.7143C40.5457 47.574 58.4807 39.4004 109.722 27.6574C160.963 15.9144 179.486 2.55491 186.716 24.0511C195.783 51.0113 158.021 68.9333 113.344 81.7961C68.668 94.659 51.0824 84.1709 45.4806 64.7143Z" fill="#97A455"/>
<path d="M340.958 38.5635C346.904 56.0819 329.403 65.19 278.724 79.2227C228.045 93.2554 210.257 107.741 201.757 85.8094C191.097 58.3029 227.904 38.3899 271.937 23.4448C315.97 8.49966 334.209 18.6777 340.958 38.5635Z" fill="black" fill-opacity="0.1"/>
<path d="M47.4888 64.4608C42.7367 47.9553 60.1916 40.0314 110.031 28.5806C159.87 17.1298 177.91 4.20672 184.881 24.9041C193.624 50.8623 156.871 68.2326 113.41 80.7455C69.9496 93.2583 52.8831 83.1967 47.4888 64.4608Z" fill="#D4E6AE"/>
<path d="M50.0799 66.2314C46.7899 54.8045 63.9721 47.851 112.202 35.9718C160.431 24.0926 178.541 13.5275 183.629 27.7812C190.009 45.6579 153.78 60.7887 111.535 72.9515C69.2897 85.1144 53.8144 79.2024 50.0799 66.2314Z" fill="#BFD584"/>
<path d="M53.283 66.5135C53.1002 65.8787 71.1282 64.7392 116.795 51.7027C162.462 38.6662 180.242 30.1279 181.344 30.684C182.725 31.3815 147.763 44.8304 107.342 56.4682C66.9202 68.106 53.4904 67.2341 53.283 66.5135Z" fill="#D4E5B0"/>
<path d="M340.958 33.5635C346.904 51.0819 329.403 60.19 278.724 74.2227C228.045 88.2553 210.257 102.741 201.758 80.8093C191.097 53.3029 227.904 33.3899 271.937 18.4448C315.97 3.49963 334.209 13.6776 340.958 33.5635Z" fill="#8B813A"/>
<path d="M340.862 31.279C346.594 48.1692 329.062 57.1742 278.427 71.3056C227.793 85.4369 209.916 99.6497 201.687 78.5159C191.367 52.0102 228.248 32.3384 272.272 17.3961C316.297 2.45378 334.354 12.1063 340.862 31.279Z" fill="#97A455"/>
<path d="M338.867 31.6264C344.388 47.891 327.323 56.6241 278.076 70.3978C228.828 84.1716 211.414 97.9258 203.48 77.5779C193.53 52.0579 229.429 32.9844 272.255 18.4487C315.082 3.91297 332.601 13.1638 338.867 31.6264Z" fill="#D4E6AE"/>
<path d="M336.196 29.9791C340.018 41.2392 323.181 48.9903 275.561 63.1165C227.941 77.2427 210.346 88.6449 204.596 74.6453C197.385 57.0872 232.865 40.2753 274.494 26.1462C316.123 12.0171 331.858 17.1973 336.196 29.9791Z" fill="#BFD584"/>
<path d="M332.984 29.8473C333.196 30.4729 315.241 32.4559 270.235 47.6181C225.23 62.7803 207.869 72.1425 206.743 71.6386C205.33 71.0066 239.623 55.9341 279.455 42.4149C319.287 28.8956 332.742 29.1372 332.984 29.8473Z" fill="#D4E5B0"/>
</g>
<defs>
<clipPath id="clip0_18_1714">
<rect width="380" height="100" fill="white"/>
</clipPath>
</defs>
</svg>
