<svg width="380" height="100" viewBox="0 0 380 100" fill="none" xmlns="http://www.w3.org/2000/svg">
<path d="M8.40543 65.919C4.69761 68.3945 7.75778 72.0245 21 74.5C21 77.4706 19.5289 81.2671 8.40543 84.7327C-2.71803 88.1984 11.0539 93.1494 8.40543 95.6249C5.75698 98.1004 35.9493 99.5857 49.1915 95.6249C62.4337 91.6641 69.3197 88.6543 88.9181 89.1494C108.517 89.6445 104.279 99.5857 117.521 99.5857C130.764 99.5857 151 77.8014 178.965 95.6249C205.45 106.517 203.331 81.7327 222.4 81.7327C241.469 81.7327 227.167 95.6249 240.939 99.5857C254.711 103.547 271.495 74.5 280.5 74.5C289.505 74.5 278.017 97.1102 299.205 95.6249C320.392 94.1396 364.356 84.7033 370.713 81.7327C377.069 78.7622 370.713 77.8014 374.95 65.919C379.188 54.0366 369.124 50.5709 370.713 43.6395C372.302 36.7081 355.352 31.7571 352.173 19.3797C348.995 7.00217 336.283 18.3895 333.105 15.4189C329.927 12.4483 326.748 8.98257 299.205 12.4483C271.661 15.914 258.419 15.4189 243.587 15.4189C228.756 15.4189 222.929 15.4189 209.158 12.4483C195.386 9.47767 173.668 15.4189 168.901 15.4189C164.134 15.4189 161.486 12.4483 156.189 12.4483C150.892 12.4483 129.704 15.914 120.17 12.4483C110.635 8.98257 100.042 13.9336 88.9181 12.4483C77.7947 10.963 64.5525 23.3404 57.6665 23.3404C52.1577 23.3404 47.6024 31.262 46.0134 35.2228C44.0712 34.2326 38.3858 32.1532 31.1821 31.7571C23.9783 31.3611 16.8805 39.5137 14.232 43.6395C14.0555 44.9598 12.643 49.8778 8.40543 58.9876C8.40543 63.4435 12.1133 63.4435 8.40543 65.919Z" fill="black" fill-opacity="0.1"/>
<path d="M8.40543 59.919C4.69761 62.3945 6.28668 69.3259 19.5289 71.8014C19.5289 74.7719 19.5289 75.2671 8.40543 78.7328C-2.71803 82.1985 11.0539 87.1494 8.40543 89.6249C5.75698 92.1004 35.9493 93.5857 49.1915 89.6249C62.4337 85.6641 69.3197 86.6543 88.9181 87.1494C108.517 87.6445 104.279 93.5857 117.521 93.5857C130.764 93.5857 152.481 78.7328 178.965 89.6249C205.45 100.517 203.331 78.7328 222.4 78.7328C241.469 78.7328 227.167 89.6249 240.939 93.5857C254.711 97.5465 273.25 71.8014 282.255 71.8014C291.259 71.8014 278.017 91.1102 299.205 89.6249C320.392 88.1396 364.356 81.7034 370.713 78.7328C377.069 75.7622 370.713 71.8014 374.95 59.919C379.188 48.0366 369.124 44.5709 370.713 37.6395C372.302 30.7081 355.352 25.7571 352.173 13.3797C348.995 1.00217 336.283 12.3895 333.105 9.41886C329.927 6.44826 326.748 2.98257 299.205 6.44826C271.661 9.91396 258.419 9.41886 243.587 9.41886C228.756 9.41886 222.929 9.41886 209.158 6.44826C195.386 3.47767 173.668 9.41886 168.901 9.41886C164.134 9.41886 161.486 6.44826 156.189 6.44826C150.892 6.44826 129.704 9.91396 120.17 6.44826C110.635 2.98257 100.042 7.93356 88.9181 6.44826C77.7947 4.96297 64.5525 17.3404 57.6665 17.3404C52.1577 17.3404 47.6024 25.262 46.0134 29.2228C44.0712 28.2326 38.3858 26.1532 31.1821 25.7571C23.9783 25.3611 16.8805 33.5137 14.232 37.6395C14.0555 38.9598 12.643 43.8778 8.40543 52.9876C8.40543 57.4435 12.1133 57.4435 8.40543 59.919Z" fill="#EAEB5F"/>
<path d="M22 88.5C8.5 90.5 13.5 87.5 11.5 84C28.5 80.3333 64.4 72.3 72 69.5C81.5 66 138.5 48.5 147 41.5C155.5 34.5 176.5 33 170 41.5C163.5 50 103 60.5 117 60.5C131 60.5 226 48.5 242 48.5C258 48.5 279 25 294.5 30.5C310 36 243.5 43.5 266.5 48.5C289.5 53.5 308 35.5 315.5 37.5C323 39.5 308.5 44.5 300.5 48.5C292.5 52.5 326.5 45.5 339.5 48.5C352.5 51.5 333.5 58 322 58C310.5 58 252 56.5 219.5 58C187 59.5 131 67.5 92 73C53 78.5 35.5 86.5 22 88.5Z" fill="#F7F87D"/>
<path d="M247 43C240.5 46.5 159 54.5 146.5 54.5C174.5 50.6667 233.3 42.1 244.5 38.5C258.5 34 293 14 302.5 13.5C312 13 293.5 21.5 285 24.5C276.5 27.5 253.5 39.5 247 43Z" fill="#F7F87D"/>
<path d="M236.552 33.7385C231.226 38.2624 185.454 45.5272 163.234 48.5942C181.584 44.0772 219.878 34.9295 226.248 34.4745C234.21 33.9057 248.509 16.6065 255.535 16.1047C262.56 15.6029 243.209 28.0836 236.552 33.7385Z" fill="#F7F87D"/>
<path d="M225 27C220.6 31 190.833 38.3333 176.5 41.5C180 39.6667 188.3 35.1 193.5 31.5C200 27 190.5 35 184 27C177.5 19 187 11 200 14C213 17 196 27 209.5 27C223 27 211 15 222 14C233 13 230.5 22 225 27Z" fill="#F7F87D"/>
<path d="M250 31C259.5 28 262.5 14.5 280 13C291.5 13 280 15.5 274 21.5C269.2 26.3 247.333 33.5 237 36.5C238.167 35.6667 242.4 33.4 250 31Z" fill="#CAD346"/>
<path d="M230.5 61.5C182.5 62.7 101.167 75 66.5 81C108.833 77 200.1 68.6 226.5 67C259.5 65 302.5 67 317 61.5C331.5 56 290.5 60 230.5 61.5Z" fill="#CAD346"/>
<path d="M96 58C61.6 69.6 35.6667 76.5 27 78.5C32 75.5 43.6 68.9 50 66.5C58 63.5 85 14.5 92 16.5C99 18.5 47 70.5 64.5 58C82 45.5 109.5 10.5 122 16.5C134.5 22.5 77 56.5 73 58C69 59.5 109 46.5 135.5 37C162 27.5 154 13.5 159.5 13C165 12.5 163 24.5 161 28.5C159 32.5 139 43.5 96 58Z" fill="#F7F87D"/>
<path d="M122 80.5C103 82.5 102.5 88 114 89C125.5 90 143.5 80.5 122 80.5Z" fill="#CAD346"/>
<path d="M195.844 74C176.623 77.2658 176.117 86.2467 187.751 87.8796C199.385 89.5125 217.594 74 195.844 74Z" fill="#CAD346"/>
<path d="M177 13C157.779 16.2658 165.366 31.8671 177 33.5C188.634 35.1329 167.751 29 177 13Z" fill="#CAD346"/>
<path d="M247 75C232.891 88.4547 240.629 92.8621 251.187 87.711C261.745 82.5599 265.032 62.8387 247 75Z" fill="#CAD346"/>
<path d="M307.844 71C288.623 74.2658 288.117 83.2467 299.751 84.8796C311.385 86.5125 329.594 71 307.844 71Z" fill="#CAD346"/>
<path d="M336.5 79C346.5 74.6 325 68.8333 313 66.5C329.667 66.5 363.5 67.7 365.5 72.5C368 78.5 324 84.5 336.5 79Z" fill="#F7F87D"/>
<path d="M367.5 67C364.3 67.8 344.167 65 334.5 63.5C342.833 61.8333 361.1 58.1 367.5 56.5C375.5 54.5 371.5 66 367.5 67Z" fill="#CAD346"/>
<path d="M361 44.2331C357.8 45.0331 325.667 45.7331 316 44.2331C324.333 42.5664 354.6 38.8331 361 37.2331C369 35.2331 365 43.2331 361 44.2331Z" fill="#CAD346"/>
<path d="M344.445 21.6172C341.953 23.7781 301.3 40.4656 292 43.5C298.678 38.2444 336.294 19.6958 341.279 15.3741C347.509 9.97203 347.56 18.9162 344.445 21.6172Z" fill="#CAD346"/>
<path d="M328 12.5C325.847 14.9987 308.763 24.1518 300 28.5C305.848 22.3333 316.194 18.9974 320.5 14C325.883 7.75319 330.692 9.37659 328 12.5Z" fill="#CAD346"/>
<path d="M157 81.5C174.5 82.5 182.5 73.5 157 76C131.5 78.5 136 87 157 81.5Z" fill="#F7F87D"/>
<path d="M226.478 74.9406C242.5 76.5 251.978 66.9406 226.478 69.4406C200.978 71.9406 210.456 73.3811 226.478 74.9406Z" fill="#F7F87D"/>
<path d="M18.5 43.5C20.5 32 20.5 30 36.5 31C40.5 31.1941 29 68 25.5 70.5C22 73 23 67.5 25.5 63C28 58.5 18.5 58.5 15.5 59C12.5 59.5 16.5 55 18.5 43.5Z" fill="#F7F87D"/>
<path d="M49.5 43C51.5 25 50.5 28 56 23V41.5C56 51.9 46.3333 62.5 41.5 66.5C43.5 64.6667 47.9 57.4 49.5 43Z" fill="#F7F87D"/>
<path d="M29 71.5C32.5 68.5 37.5 44.5 40.5 32C40.723 31.0656 46 30 46.5 49.5C47 69 25.5 74.5 29 71.5Z" fill="#CAD346"/>
<path d="M79.5 13.5C63.5 23.5 62 43.5 52 60.5C55.5096 55.5 88.5 15 79.5 13.5Z" fill="#CAD346"/>
<path d="M107.186 10C88.4598 18.7234 99.4273 20 74 47C78.1076 42.6383 117.72 11.3085 107.186 10Z" fill="#CAD346"/>
<path d="M150 13C131.273 21.7234 127 31.5 101 44C132.5 33.5 166.5 16 150 13Z" fill="#CAD346"/>
</svg>
