<svg width="380" height="100" viewBox="0 0 380 100" fill="none" xmlns="http://www.w3.org/2000/svg">
<path fill-rule="evenodd" clip-rule="evenodd" d="M174.337 24.1644C159.803 16.0439 139.485 11 117 11C72.8172 11 37 30.4756 37 54.5C37 78.5244 72.8172 98 117 98C146.164 98 171.684 89.5142 185.663 76.8356C200.197 84.9561 220.515 90 243 90C287.183 90 323 70.5244 323 46.5C323 22.4756 287.183 3 243 3C213.835 3 188.316 11.4858 174.337 24.1644Z" fill="black" fill-opacity="0.1"/>
<ellipse cx="80" cy="43.5" rx="80" ry="43.5" transform="matrix(-1 0 0 1 199 9)" fill="#E36B4E"/>
<ellipse cx="80" cy="40" rx="80" ry="40" transform="matrix(-1 0 0 1 199 9)" fill="#F78165"/>
<path d="M131.009 59.871L130.956 59.8411L130.907 59.8051C121.694 53.017 108.269 52.1265 96.8365 51.6868C96.1661 51.661 95.5019 51.6367 94.8455 51.6127C89.9837 51.435 85.5521 51.2731 82.2318 50.6302C80.3471 50.2653 78.6941 49.7248 77.4947 48.8499C76.2391 47.934 75.5 46.6605 75.5 45C75.5 39.861 79.0252 37.8164 81.1171 36.6032C81.4337 36.4195 81.7176 36.2549 81.9513 36.1015C82.4238 35.7914 82.5714 35.6159 82.6085 35.5457C82.6001 35.5136 82.5671 35.4215 82.4478 35.2611C82.1737 34.8927 81.5977 34.3646 80.5237 33.6195C79.4675 32.8868 77.9986 31.9903 76.0097 30.8716C72.2202 28.74 68.7458 28.4486 65.7393 29.3199C62.7098 30.1978 60.0523 32.2872 57.9936 35.0917C53.8476 40.7399 52.3338 48.9953 54.921 55.1104C57.5013 61.2094 64.5299 66.2077 74.9613 69.9333C85.3432 73.6411 98.8683 76.0056 114.065 77.0022C121.642 77.499 127.68 77.2465 132.166 76.4377C136.703 75.62 139.464 74.2667 140.73 72.7374C141.337 72.0036 141.601 71.2301 141.575 70.4054C141.547 69.5594 141.21 68.572 140.452 67.4502C138.925 65.1879 135.834 62.5931 131.009 59.871Z" fill="#A70502" stroke="#BF0601" stroke-width="2"/>
<path d="M107.576 18.3204L107.538 18.3233H107.5C106.454 18.3233 104.722 18.479 102.863 18.9082C100.996 19.3389 99.0805 20.0274 97.611 21.0482C96.1558 22.0589 95.2102 23.3382 95.0643 24.9832C94.9195 26.6157 95.5406 28.8266 97.6818 31.7613C100.515 32.5362 101.981 32.1248 103.908 31.5838C104.488 31.4209 105.111 31.2461 105.825 31.0885C109.047 30.3774 113.476 30.2694 122.832 33.5565C127.532 35.2081 130.279 36.9444 131.922 38.7836C133.594 40.6536 134.036 42.5342 134.337 44.1995C134.367 44.3666 134.396 44.53 134.424 44.6899C134.681 46.1486 134.887 47.3173 135.688 48.4446C136.561 49.6731 138.245 50.964 141.897 52.1814C147.921 54.1893 152.412 57.3269 156.279 60.0287C157.331 60.7637 158.337 61.4664 159.315 62.1054C161.628 63.6166 163.776 64.774 166.064 65.3043C168.326 65.8284 170.786 65.7533 173.742 64.6892C179.541 62.6015 183.995 56.0635 182.741 48.4169C181.491 40.7953 174.486 31.7552 156.649 25.0664C139.128 18.496 120.888 17.3016 107.576 18.3204Z" fill="#A70502" stroke="#BF0601" stroke-width="2"/>
<path d="M154.5 80C175.5 74 196 60 192 48C190.33 58 175 67.5 171 70C167 72.5 162.5 73 144 62.5C125.5 52 133.5 50 124 40C114.5 30 88.5 41.5 85 46.5C81.5 51.5 92 48 106 48C120 48 128 54 137 60C146 66 151 72.5 150.5 77C150 81.5 120 80 110.5 80C101 80 56.5 71 75.5 78C94.5 85 133.5 86 154.5 80Z" fill="#FF9C85"/>
<ellipse cx="3.5" cy="4.5" rx="3.5" ry="4.5" transform="matrix(-0.749684 0.661796 0.661796 0.749684 124.044 61)" fill="#F78165" stroke="#BF0601" stroke-width="2"/>
<ellipse cx="3.5" cy="5.93998" rx="3.5" ry="5.93998" transform="matrix(0.0593486 0.998237 0.998237 -0.0593486 162.698 52.4631)" fill="#F78165" stroke="#BF0601" stroke-width="2"/>
<ellipse cx="3.5" cy="5.93998" rx="3.5" ry="5.93998" transform="matrix(0.356474 0.934305 0.934305 -0.356474 159.065 43.6937)" fill="#F78165" stroke="#BF0601" stroke-width="2"/>
<ellipse cx="3.5" cy="5.93998" rx="3.5" ry="5.93998" transform="matrix(0.74448 0.667645 0.667645 -0.74448 147.857 38.8444)" fill="#F78165" stroke="#BF0601" stroke-width="2"/>
<ellipse cx="3.76132" cy="6.10216" rx="3.76132" ry="6.10216" transform="matrix(0.913794 0.406178 0.406178 -0.913794 137 36)" fill="#F78165" stroke="#BF0601" stroke-width="2"/>
<ellipse cx="3.45828" cy="4.20108" rx="3.45828" ry="4.20108" transform="matrix(0.978105 0.208114 0.208114 -0.978105 127.323 29.633)" fill="#F78165" stroke="#BF0601" stroke-width="2"/>
<ellipse cx="3.45828" cy="4.20108" rx="3.45828" ry="4.20108" transform="matrix(0.999977 0.00679892 0.00679892 -0.999977 116.256 28.0063)" fill="#F78165" stroke="#BF0601" stroke-width="2"/>
<ellipse cx="3.45828" cy="4.20108" rx="3.45828" ry="4.20108" transform="matrix(0.999977 0.00679892 0.00679892 -0.999977 104.026 28.402)" fill="#F78165" stroke="#BF0601" stroke-width="2"/>
<path d="M109.011 67.4503C109.637 70.4887 111.679 72.6359 113.572 72.2463C115.465 71.8566 116.493 69.0776 115.868 66.0392C115.242 63.0009 113.16 59.2591 111.267 59.6488C109.373 60.0384 108.386 64.4119 109.011 67.4503Z" fill="#F78165" stroke="#BF0601" stroke-width="2"/>
<path d="M96.6978 64.1311C96.1506 67.1846 97.2494 69.9363 99.1521 70.2773C101.055 70.6183 103.041 68.4194 103.588 65.366C104.135 62.3126 103.591 58.0652 101.688 57.7242C99.7852 57.3832 97.245 61.0777 96.6978 64.1311Z" fill="#F78165" stroke="#BF0601" stroke-width="2"/>
<path d="M84.842 63.0741C84.2947 66.1275 85.3935 68.8792 87.2962 69.2202C89.1989 69.5612 91.185 67.3623 91.7322 64.3089C92.2794 61.2555 91.7347 57.0081 89.8321 56.6671C87.9294 56.3261 85.3892 60.0206 84.842 63.0741Z" fill="#F78165" stroke="#BF0601" stroke-width="2"/>
<path d="M73.707 60.0549C73.3166 62.2337 74.4623 64.2621 76.2662 64.5854C78.0701 64.9087 79.849 63.4045 80.2395 61.2256C80.63 59.0468 79.9446 55.9628 78.1407 55.6395C76.3368 55.3162 74.0975 57.8761 73.707 60.0549Z" fill="#F78165" stroke="#BF0601" stroke-width="2"/>
<path d="M64.622 52.908C63.1887 54.5949 63.1589 56.9243 64.5555 58.1109C65.952 59.2976 68.2461 58.8921 69.6794 57.2053C71.1127 55.5184 72.0713 52.5081 70.6748 51.3215C69.2782 50.1348 66.0553 51.2212 64.622 52.908Z" fill="#F78165" stroke="#BF0601" stroke-width="2"/>
<path d="M61.9277 42.775C59.7396 43.1095 58.1903 44.8493 58.4672 46.6609C58.7442 48.4724 60.7425 49.6698 62.9306 49.3353C65.1187 49.0008 67.8158 47.3556 67.5389 45.5441C67.2619 43.7325 64.1158 42.4405 61.9277 42.775Z" fill="#F78165" stroke="#BF0601" stroke-width="2"/>
<path d="M70.6865 35.059C69.2563 33.3696 66.963 32.9599 65.5643 34.144C64.1656 35.3281 64.1911 37.6575 65.6213 39.347C67.0515 41.0365 69.8649 42.4737 71.2636 41.2896C72.6623 40.1055 72.1168 36.7485 70.6865 35.059Z" fill="#F78165" stroke="#BF0601" stroke-width="2"/>
<ellipse cx="243" cy="43.5" rx="80" ry="43.5" fill="#E36B4E"/>
<ellipse cx="243" cy="40" rx="80" ry="40" fill="#F78165"/>
<path d="M230.991 50.871L231.044 50.8411L231.093 50.8051C240.306 44.017 253.731 43.1265 265.163 42.6868C265.834 42.661 266.498 42.6367 267.155 42.6127C272.016 42.435 276.448 42.2731 279.768 41.6302C281.653 41.2653 283.306 40.7248 284.505 39.8499C285.761 38.934 286.5 37.6605 286.5 36C286.5 30.861 282.975 28.8164 280.883 27.6032C280.566 27.4195 280.282 27.2549 280.049 27.1015C279.576 26.7914 279.429 26.6159 279.392 26.5457C279.4 26.5136 279.433 26.4215 279.552 26.2611C279.826 25.8927 280.402 25.3646 281.476 24.6195C282.532 23.8868 284.001 22.9903 285.99 21.8716C289.78 19.74 293.254 19.4486 296.261 20.3199C299.29 21.1978 301.948 23.2872 304.006 26.0917C308.152 31.7399 309.666 39.9953 307.079 46.1104C304.499 52.2094 297.47 57.2077 287.039 60.9333C276.657 64.6411 263.132 67.0056 247.935 68.0022C240.358 68.499 234.32 68.2465 229.834 67.4377C225.297 66.62 222.536 65.2667 221.27 63.7374C220.663 63.0036 220.399 62.2301 220.425 61.4054C220.453 60.5594 220.79 59.572 221.548 58.4502C223.075 56.1879 226.166 53.5931 230.991 50.871Z" fill="#A70502" stroke="#BF0601" stroke-width="2"/>
<path d="M254.424 9.32039L254.462 9.3233H254.5C255.546 9.3233 257.278 9.47903 259.137 9.90819C261.004 10.3389 262.919 11.0274 264.389 12.0482C265.844 13.0589 266.79 14.3382 266.936 15.9832C267.08 17.6157 266.459 19.8266 264.318 22.7613C261.485 23.5362 260.019 23.1248 258.092 22.5838C257.512 22.4209 256.889 22.2461 256.175 22.0885C252.953 21.3774 248.524 21.2694 239.168 24.5565C234.468 26.2081 231.721 27.9444 230.078 29.7836C228.406 31.6536 227.964 33.5342 227.663 35.1995C227.633 35.3666 227.604 35.53 227.576 35.6899C227.319 37.1486 227.113 38.3173 226.312 39.4446C225.439 40.6731 223.755 41.964 220.103 43.1814C214.079 45.1893 209.588 48.3269 205.721 51.0287C204.669 51.7637 203.663 52.4664 202.685 53.1054C200.372 54.6166 198.224 55.774 195.936 56.3043C193.674 56.8284 191.214 56.7533 188.258 55.6892C182.459 53.6015 178.005 47.0635 179.259 39.4169C180.509 31.7953 187.514 22.7552 205.351 16.0664C222.872 9.49597 241.112 8.30158 254.424 9.32039Z" fill="#A70502" stroke="#BF0601" stroke-width="2"/>
<path d="M207.5 71C186.5 65 166 51 170 39C171.67 49 187 58.5 191 61C195 63.5 199.5 64 218 53.5C236.5 43 228.5 41 238 31C247.5 21 273.5 32.5 277 37.5C280.5 42.5 270 39 256 39C242 39 234 45 225 51C216 57 211 63.5 211.5 68C212 72.5 242 71 251.5 71C261 71 305.5 62 286.5 69C267.5 76 228.5 77 207.5 71Z" fill="#FF9C85"/>
<ellipse cx="237.602" cy="57.6899" rx="3.5" ry="4.5" transform="rotate(41.437 237.602 57.6899)" fill="#F78165" stroke="#BF0601" stroke-width="2"/>
<ellipse cx="193.165" cy="46.6044" rx="3.5" ry="5.93998" transform="rotate(93.4024 193.165 46.6044)" fill="#F78165" stroke="#BF0601" stroke-width="2"/>
<ellipse cx="196.137" cy="35.8464" rx="3.5" ry="5.93998" transform="rotate(110.884 196.137 35.8464)" fill="#F78165" stroke="#BF0601" stroke-width="2"/>
<ellipse cx="207.571" cy="27.759" rx="3.5" ry="5.93998" transform="rotate(138.114 207.571 27.759)" fill="#F78165" stroke="#BF0601" stroke-width="2"/>
<ellipse cx="219.084" cy="22.9517" rx="3.76132" ry="6.10216" transform="rotate(156.035 219.084 22.9517)" fill="#F78165" stroke="#BF0601" stroke-width="2"/>
<ellipse cx="230.42" cy="17.2436" rx="3.45828" ry="4.20108" transform="rotate(167.988 230.42 17.2436)" fill="#F78165" stroke="#BF0601" stroke-width="2"/>
<ellipse cx="242.257" cy="14.8288" rx="3.45828" ry="4.20108" transform="rotate(179.61 242.257 14.8288)" fill="#F78165" stroke="#BF0601" stroke-width="2"/>
<ellipse cx="254.487" cy="15.2245" rx="3.45828" ry="4.20108" transform="rotate(179.61 254.487 15.2245)" fill="#F78165" stroke="#BF0601" stroke-width="2"/>
<path d="M252.989 58.4503C252.363 61.4887 250.321 63.6359 248.428 63.2463C246.535 62.8566 245.507 60.0776 246.132 57.0392C246.758 54.0009 248.84 50.2591 250.733 50.6488C252.627 51.0384 253.614 55.4119 252.989 58.4503Z" fill="#F78165" stroke="#BF0601" stroke-width="2"/>
<path d="M265.302 55.1311C265.849 58.1846 264.751 60.9363 262.848 61.2773C260.945 61.6183 258.959 59.4194 258.412 56.366C257.865 53.3126 258.409 49.0652 260.312 48.7242C262.215 48.3832 264.755 52.0777 265.302 55.1311Z" fill="#F78165" stroke="#BF0601" stroke-width="2"/>
<path d="M277.158 54.0741C277.705 57.1275 276.606 59.8792 274.704 60.2202C272.801 60.5612 270.815 58.3623 270.268 55.3089C269.721 52.2555 270.265 48.0081 272.168 47.6671C274.071 47.3261 276.611 51.0206 277.158 54.0741Z" fill="#F78165" stroke="#BF0601" stroke-width="2"/>
<path d="M288.293 51.0549C288.683 53.2337 287.538 55.2621 285.734 55.5854C283.93 55.9087 282.151 54.4045 281.761 52.2256C281.37 50.0468 282.055 46.9628 283.859 46.6395C285.663 46.3162 287.902 48.8761 288.293 51.0549Z" fill="#F78165" stroke="#BF0601" stroke-width="2"/>
<path d="M297.378 43.908C298.811 45.5949 298.841 47.9243 297.445 49.1109C296.048 50.2976 293.754 49.8921 292.321 48.2053C290.887 46.5184 289.929 43.5081 291.325 42.3215C292.722 41.1348 295.945 42.2212 297.378 43.908Z" fill="#F78165" stroke="#BF0601" stroke-width="2"/>
<path d="M300.072 33.775C302.26 34.1095 303.81 35.8493 303.533 37.6609C303.256 39.4724 301.257 40.6698 299.069 40.3353C296.881 40.0008 294.184 38.3556 294.461 36.5441C294.738 34.7325 297.884 33.4405 300.072 33.775Z" fill="#F78165" stroke="#BF0601" stroke-width="2"/>
<path d="M291.313 26.059C292.744 24.3696 295.037 23.9599 296.436 25.144C297.834 26.3281 297.809 28.6575 296.379 30.347C294.949 32.0365 292.135 33.4737 290.736 32.2896C289.338 31.1055 289.883 27.7485 291.313 26.059Z" fill="#F78165" stroke="#BF0601" stroke-width="2"/>
</svg>
