<svg width="380" height="100" viewBox="0 0 380 100" fill="none" xmlns="http://www.w3.org/2000/svg">
<path fill-rule="evenodd" clip-rule="evenodd" d="M267.11 97.6359C250.769 97.6359 235.794 94.8909 224.16 90.3293C214.216 94.8721 201.067 97.6359 186.647 97.6359C162.85 97.6359 142.51 90.1079 134.333 79.479C125.332 86.193 110.821 90.551 94.4509 90.551C67.1399 90.551 45 78.4203 45 63.4564C45 48.4925 67.1399 33.6524 94.4509 33.6524C114.843 33.6524 132.351 41.9255 139.914 52.3462C149.984 43.84 167.156 37.6617 186.647 37.6617C198.179 37.6617 208.898 39.8241 217.816 43.3517C230.067 36.289 247.617 31.5105 267.11 31.5105C304.142 31.5105 334.162 48.7571 334.162 66.1476C334.162 83.5381 304.142 97.6359 267.11 97.6359ZM131.11 73.3308C130.703 71.9429 130.491 70.5223 130.491 69.0767C130.491 64.9752 132.191 60.8824 135.253 57.0713C130.778 47.5082 114.622 40.426 95.378 40.426C72.6758 40.426 54.272 50.2822 54.272 62.4404C54.272 74.5986 72.6758 84.4547 95.378 84.4547C110.683 84.4547 124.034 79.9752 131.11 73.3308ZM143.595 60.3866C149.937 51.3138 167.289 44.8015 187.7 44.8015C196.205 44.8015 204.179 45.9321 211.046 47.9076C204.1 53.4049 200.058 59.7666 200.058 66.1476C200.058 73.9022 206.027 81.0022 215.925 86.4893C208.087 89.4517 198.307 91.2101 187.7 91.2101C164.42 91.2101 145.12 82.7383 141.596 71.6582C143.094 69.0709 143.902 66.3154 143.902 63.4564C143.902 62.431 143.798 61.4061 143.595 60.3866ZM268.367 90.551C255.13 90.551 242.971 88.4329 233.41 84.8949C239.345 80.3664 242.803 74.927 242.803 69.0767C242.803 61.3553 236.778 53.6651 226.988 47.826C237.188 42.641 251.949 39.3825 268.367 39.3825C299.15 39.3825 324.104 50.837 324.104 64.9668C324.104 79.0965 299.15 90.551 268.367 90.551ZM212.63 64.9668C212.63 60.0827 215.612 55.5183 220.785 51.6361C229.187 55.8322 234.38 61.6175 234.38 68.0058C234.38 73.0187 231.182 77.6603 225.746 81.4541C217.562 77.0013 212.63 71.2484 212.63 64.9668Z" fill="black" fill-opacity="0.1"/>
<path fill-rule="evenodd" clip-rule="evenodd" d="M186.647 93.6998C155.633 93.6998 130.491 80.9134 130.491 65.1406C130.491 49.3679 155.633 33.7256 186.647 33.7256C217.662 33.7256 242.803 49.3679 242.803 65.1406C242.803 80.9134 217.662 93.6998 186.647 93.6998ZM187.7 87.2739C161.92 87.2739 141.021 76.885 141.021 64.0696C141.021 51.2543 161.92 40.8653 187.7 40.8653C213.481 40.8653 234.38 51.2543 234.38 64.0696C234.38 76.885 213.481 87.2739 187.7 87.2739Z" fill="#F8F5DC"/>
<path fill-rule="evenodd" clip-rule="evenodd" d="M186.647 89.4159C155.633 89.4159 130.491 76.6296 130.491 60.8568C130.491 45.084 155.633 32.2977 186.647 32.2977C217.662 32.2977 242.803 45.084 242.803 60.8568C242.803 76.6296 217.662 89.4159 186.647 89.4159ZM187.7 82.9901C161.92 82.9901 141.021 72.6012 141.021 59.7858C141.021 46.9704 161.92 36.5815 187.7 36.5815C213.481 36.5815 234.38 46.9704 234.38 59.7858C234.38 72.6012 213.481 82.9901 187.7 82.9901Z" fill="white"/>
<path fill-rule="evenodd" clip-rule="evenodd" d="M186.647 87.4159C155.633 87.4159 130.491 74.6296 130.491 58.8568C130.491 43.084 155.633 30.2977 186.647 30.2977C217.662 30.2977 242.803 43.084 242.803 58.8568C242.803 74.6296 217.662 87.4159 186.647 87.4159ZM187.7 80.9901C161.92 80.9901 141.021 70.6012 141.021 57.7858C141.021 44.9704 161.92 34.5815 187.7 34.5815C213.481 34.5815 234.38 44.9704 234.38 57.7858C234.38 70.6012 213.481 80.9901 187.7 80.9901Z" fill="#FDFCF4"/>
<path fill-rule="evenodd" clip-rule="evenodd" d="M267.948 93.6998C230.916 93.6998 200.896 79.602 200.896 62.2115C200.896 44.821 230.916 27.5744 267.948 27.5744C304.98 27.5744 335 44.821 335 62.2115C335 79.602 304.98 93.6998 267.948 93.6998ZM269.205 86.6149C238.423 86.6149 213.468 75.1605 213.468 61.0307C213.468 46.9009 238.423 35.4465 269.205 35.4465C299.988 35.4465 324.942 46.9009 324.942 61.0307C324.942 75.1605 299.988 86.6149 269.205 86.6149Z" fill="#F8F5DC"/>
<path fill-rule="evenodd" clip-rule="evenodd" d="M267.948 88.9766C230.916 88.9766 200.896 74.8788 200.896 57.4883C200.896 40.0978 230.916 26 267.948 26C304.98 26 335 40.0978 335 57.4883C335 74.8788 304.98 88.9766 267.948 88.9766ZM269.205 81.8917C238.423 81.8917 213.468 70.4373 213.468 56.3075C213.468 42.1777 238.423 30.7232 269.205 30.7232C299.988 30.7232 324.942 42.1777 324.942 56.3075C324.942 70.4373 299.988 81.8917 269.205 81.8917Z" fill="white"/>
<path fill-rule="evenodd" clip-rule="evenodd" d="M267.948 86.9766C230.916 86.9766 200.896 72.8788 200.896 55.4883C200.896 38.0978 230.916 24 267.948 24C304.98 24 335 38.0978 335 55.4883C335 72.8788 304.98 86.9766 267.948 86.9766ZM269.205 79.8917C238.423 79.8917 213.468 68.4373 213.468 54.3075C213.468 40.1777 238.423 28.7232 269.205 28.7232C299.988 28.7232 324.942 40.1777 324.942 54.3075C324.942 68.4373 299.988 79.8917 269.205 79.8917Z" fill="#FDFCF4"/>
<path fill-rule="evenodd" clip-rule="evenodd" d="M94.4509 86.6149C67.1399 86.6149 45 74.4843 45 59.5204C45 44.5564 67.1399 29.7163 94.4509 29.7163C121.762 29.7163 143.902 44.5564 143.902 59.5204C143.902 74.4843 121.762 86.6149 94.4509 86.6149ZM95.378 80.5187C72.6758 80.5187 54.272 70.6625 54.272 58.5043C54.272 46.3462 72.6758 36.49 95.378 36.49C118.08 36.49 136.484 46.3462 136.484 58.5043C136.484 70.6625 118.08 80.5187 95.378 80.5187Z" fill="#F8F5DC"/>
<path fill-rule="evenodd" clip-rule="evenodd" d="M94.4509 82.5508C67.1399 82.5508 45 70.4201 45 55.4562C45 40.4923 67.1399 28.3616 94.4509 28.3616C121.762 28.3616 143.902 40.4923 143.902 55.4562C143.902 70.4201 121.762 82.5508 94.4509 82.5508ZM95.378 76.4545C72.6758 76.4545 54.272 66.5983 54.272 54.4401C54.272 42.282 72.6758 32.4258 95.378 32.4258C118.08 32.4258 136.484 42.282 136.484 54.4401C136.484 66.5983 118.08 76.4545 95.378 76.4545Z" fill="white"/>
<path fill-rule="evenodd" clip-rule="evenodd" d="M94.4509 80.5508C67.1399 80.5508 45 68.4201 45 53.4562C45 38.4923 67.1399 26.3616 94.4509 26.3616C121.762 26.3616 143.902 38.4923 143.902 53.4562C143.902 68.4201 121.762 80.5508 94.4509 80.5508ZM95.378 74.4545C72.6758 74.4545 54.272 64.5983 54.272 52.4401C54.272 40.282 72.6758 30.4258 95.378 30.4258C118.08 30.4258 136.484 40.282 136.484 52.4401C136.484 64.5983 118.08 74.4545 95.378 74.4545Z" fill="#FDFCF4"/>
</svg>
