<svg width="380" height="100" viewBox="0 0 380 100" fill="none" xmlns="http://www.w3.org/2000/svg">
<path fill-rule="evenodd" clip-rule="evenodd" d="M111.429 91.125C122.883 91.125 133.709 89.8915 143.304 87.6989C151.645 89.8863 161.155 91.125 171.25 91.125C204.288 91.125 231.071 77.8561 231.071 61.4881C231.071 45.1201 204.288 28.8875 171.25 28.8875C165.435 28.8875 159.814 29.3904 154.499 30.3083C142.524 25.5134 127.604 22.5042 111.429 22.5042C71.9797 22.5042 40 40.4017 40 58.4484C40 76.4952 71.9797 91.125 111.429 91.125ZM110.089 83.7728C116.66 83.7728 122.981 83.2955 128.889 82.4144C118.099 77.0536 111.429 69.6568 111.429 61.4881C111.429 50.8667 122.707 40.3023 139.654 34.1935C130.948 31.9541 120.853 30.6734 110.089 30.6734C77.2974 30.6734 50.7143 42.5601 50.7143 57.2231C50.7143 71.8861 77.2974 83.7728 110.089 83.7728ZM120.402 60.3767C120.402 68.4078 128.521 75.5206 141.001 79.8954C158.071 75.2321 169.464 66.8225 169.464 57.2231C169.464 49.7076 162.481 42.9214 151.257 38.0913C133.152 41.6903 120.402 50.3125 120.402 60.3767ZM170.128 84.4567C165.586 84.4567 161.186 84.1618 157.006 83.6094C172.799 77.6156 182.857 68.5694 182.857 58.4484C182.857 50.5625 176.751 42.7051 166.583 36.357C167.754 36.3171 168.936 36.2967 170.128 36.2967C197.592 36.2967 219.855 47.0777 219.855 60.3767C219.855 73.6757 197.592 84.4567 170.128 84.4567ZM338.214 55.6557C338.214 71.1843 314.629 83.7728 285.536 83.7728C256.442 83.7728 232.857 71.1843 232.857 55.6557C232.857 40.1271 256.442 24.727 285.536 24.727C314.629 24.727 338.214 40.1271 338.214 55.6557ZM328.337 54.6013C328.337 67.2183 308.732 77.4464 284.548 77.4464C260.364 77.4464 240.759 67.2183 240.759 54.6013C240.759 41.9843 260.364 31.7562 284.548 31.7562C308.732 31.7562 328.337 41.9843 328.337 54.6013Z" fill="black" fill-opacity="0.1"/>
<path fill-rule="evenodd" clip-rule="evenodd" d="M171.25 87.0404C204.288 87.0404 231.071 73.7715 231.071 57.4035C231.071 41.0356 204.288 24.803 171.25 24.803C138.212 24.803 111.429 41.0356 111.429 57.4035C111.429 73.7715 138.212 87.0404 171.25 87.0404ZM170.128 80.3721C197.592 80.3721 219.855 69.5912 219.855 56.2922C219.855 42.9932 197.592 32.2122 170.128 32.2122C142.665 32.2122 120.402 42.9932 120.402 56.2922C120.402 69.5912 142.665 80.3721 170.128 80.3721Z" fill="#F0CBE4"/>
<path fill-rule="evenodd" clip-rule="evenodd" d="M171.25 82.5949C204.288 82.5949 231.071 69.326 231.071 52.958C231.071 36.59 204.288 23.3211 171.25 23.3211C138.212 23.3211 111.429 36.59 111.429 52.958C111.429 69.326 138.212 82.5949 171.25 82.5949ZM170.128 75.9266C197.592 75.9266 219.855 65.1456 219.855 51.8466C219.855 38.5476 197.592 27.7667 170.128 27.7667C142.665 27.7667 120.402 38.5476 120.402 51.8466C120.402 65.1456 142.665 75.9266 170.128 75.9266Z" fill="white"/>
<path fill-rule="evenodd" clip-rule="evenodd" d="M171.25 80.5949C204.288 80.5949 231.071 67.326 231.071 50.958C231.071 34.59 204.288 21.3211 171.25 21.3211C138.212 21.3211 111.429 34.59 111.429 50.958C111.429 67.326 138.212 80.5949 171.25 80.5949ZM170.128 73.9266C197.592 73.9266 219.855 63.1456 219.855 49.8466C219.855 36.5476 197.592 25.7667 170.128 25.7667C142.665 25.7667 120.402 36.5476 120.402 49.8466C120.402 63.1456 142.665 73.9266 170.128 73.9266Z" fill="#FDF4F6"/>
<path fill-rule="evenodd" clip-rule="evenodd" d="M111.429 87.0404C150.877 87.0404 182.857 72.4106 182.857 54.3639C182.857 36.3171 150.877 18.4196 111.429 18.4196C71.9797 18.4196 40 36.3171 40 54.3639C40 72.4106 71.9797 87.0404 111.429 87.0404ZM110.089 79.6882C142.881 79.6882 169.464 67.8015 169.464 53.1385C169.464 38.4755 142.881 26.5888 110.089 26.5888C77.2974 26.5888 50.7143 38.4755 50.7143 53.1385C50.7143 67.8015 77.2974 79.6882 110.089 79.6882Z" fill="#F0CBE4"/>
<path fill-rule="evenodd" clip-rule="evenodd" d="M111.429 82.1389C150.877 82.1389 182.857 67.5091 182.857 49.4624C182.857 31.4156 150.877 16.7858 111.429 16.7858C71.9797 16.7858 40 31.4156 40 49.4624C40 67.5091 71.9797 82.1389 111.429 82.1389ZM110.089 74.7867C142.881 74.7867 169.464 62.9 169.464 48.237C169.464 33.574 142.881 21.6873 110.089 21.6873C77.2974 21.6873 50.7143 33.574 50.7143 48.237C50.7143 62.9 77.2974 74.7867 110.089 74.7867Z" fill="white"/>
<path fill-rule="evenodd" clip-rule="evenodd" d="M111.429 80.1389C150.877 80.1389 182.857 65.5091 182.857 47.4624C182.857 29.4156 150.877 14.7858 111.429 14.7858C71.9797 14.7858 40 29.4156 40 47.4624C40 65.5091 71.9797 80.1389 111.429 80.1389ZM110.089 72.7867C142.881 72.7867 169.464 60.9 169.464 46.237C169.464 31.574 142.881 19.6873 110.089 19.6873C77.2974 19.6873 50.7143 31.574 50.7143 46.237C50.7143 60.9 77.2974 72.7867 110.089 72.7867Z" fill="#FDF4F6"/>
<path fill-rule="evenodd" clip-rule="evenodd" d="M287.321 79.6882C316.415 79.6882 340 67.0998 340 51.5712C340 36.0425 316.415 20.6424 287.321 20.6424C258.228 20.6424 234.643 36.0425 234.643 51.5712C234.643 67.0998 258.228 79.6882 287.321 79.6882ZM286.334 73.3619C310.518 73.3619 330.123 63.1338 330.123 50.5168C330.123 37.8998 310.518 27.6717 286.334 27.6717C262.15 27.6717 242.545 37.8998 242.545 50.5168C242.545 63.1338 262.15 73.3619 286.334 73.3619Z" fill="#F0CBE4"/>
<path fill-rule="evenodd" clip-rule="evenodd" d="M287.321 75.4706C316.415 75.4706 340 62.8822 340 47.3536C340 31.825 316.415 19.2366 287.321 19.2366C258.228 19.2366 234.643 31.825 234.643 47.3536C234.643 62.8822 258.228 75.4706 287.321 75.4706ZM286.334 69.1443C310.518 69.1443 330.123 58.9162 330.123 46.2992C330.123 33.6822 310.518 23.4541 286.334 23.4541C262.15 23.4541 242.545 33.6822 242.545 46.2992C242.545 58.9162 262.15 69.1443 286.334 69.1443Z" fill="white"/>
<path fill-rule="evenodd" clip-rule="evenodd" d="M287.321 73.4706C316.415 73.4706 340 60.8822 340 45.3536C340 29.825 316.415 17.2366 287.321 17.2366C258.228 17.2366 234.643 29.825 234.643 45.3536C234.643 60.8822 258.228 73.4706 287.321 73.4706ZM286.334 67.1443C310.518 67.1443 330.123 56.9162 330.123 44.2992C330.123 31.6822 310.518 21.4541 286.334 21.4541C262.15 21.4541 242.545 31.6822 242.545 44.2992C242.545 56.9162 262.15 67.1443 286.334 67.1443Z" fill="#FDF4F6"/>
</svg>
