<svg width="200" height="200" viewBox="0 0 200 200" fill="none" xmlns="http://www.w3.org/2000/svg">
<path d="M51.9693 103.605H33.7958C32.1769 103.605 30.8643 104.917 30.8643 106.537V142.417C30.8643 144.038 32.1769 145.349 33.7958 145.349H51.9693C53.5882 145.349 54.9009 144.038 54.9009 142.417V106.537C54.9009 104.917 53.5882 103.605 51.9693 103.605ZM49.0377 139.486H36.7274V109.469H49.0377V139.486Z" fill="#82A0CE"/>
<path d="M80.5806 67.7222H62.4072C60.7882 67.7222 59.4756 69.0334 59.4756 70.6537V142.417C59.4756 144.038 60.7882 145.349 62.4072 145.349H80.5806C82.1996 145.349 83.5122 144.038 83.5122 142.417V70.6537C83.5122 69.0334 82.1996 67.7222 80.5806 67.7222ZM77.6491 139.486H65.3387V73.5853H77.6491V139.486Z" fill="#82A0CE"/>
<path d="M42.8828 83.3734C48.0961 83.3734 52.3374 79.1307 52.3374 73.9174C52.3374 71.8398 51.6433 69.9335 50.5032 68.3713L68.0016 46.8037C69.0845 47.2364 70.2586 47.4903 71.4943 47.4903C72.7296 47.4903 73.9032 47.2366 74.9859 46.8039L92.4859 68.3706C91.3454 69.9328 90.6511 71.8395 90.6511 73.9174C90.6511 79.1307 94.8925 83.3734 100.106 83.3734C105.32 83.3734 109.562 79.1307 109.562 73.9174C109.562 71.8395 108.868 69.9328 107.727 68.3704L125.225 46.8035C126.308 47.2366 127.482 47.4903 128.717 47.4903C133.932 47.4903 138.173 43.2504 138.173 38.0371C138.173 32.8238 133.932 28.5811 128.717 28.5811C123.504 28.5811 119.263 32.8238 119.263 38.0371C119.263 39.8794 119.814 41.5865 120.729 43.0416L102.955 64.9482C102.05 64.6596 101.105 64.4613 100.106 64.4613C99.1068 64.4613 98.162 64.6594 97.2574 64.948L79.4822 43.0425C80.3976 41.5872 80.9489 39.8797 80.9489 38.0371C80.9489 32.8238 76.7076 28.5811 71.4943 28.5811C66.2796 28.5811 62.0382 32.8238 62.0382 38.0371C62.0382 39.8799 62.5895 41.5874 63.5049 43.0426L45.7322 64.9482C44.8274 64.6594 43.8821 64.4613 42.8828 64.4613C37.6681 64.4613 33.4268 68.7041 33.4268 73.9174C33.4268 79.1307 37.6681 83.3734 42.8828 83.3734ZM128.717 34.4442C130.698 34.4442 132.31 36.056 132.31 38.0371C132.31 40.0153 130.698 41.6271 128.717 41.6271C126.738 41.6271 125.126 40.0153 125.126 38.0371C125.126 36.056 126.738 34.4442 128.717 34.4442ZM103.699 73.9174C103.699 75.8985 102.087 77.5103 100.106 77.5103C98.1261 77.5103 96.5143 75.8985 96.5143 73.9174C96.5143 71.9363 98.1261 70.3245 100.106 70.3245C102.087 70.3245 103.699 71.9363 103.699 73.9174ZM71.4943 34.4442C73.4739 34.4442 75.0857 36.056 75.0857 38.0371C75.0857 40.0153 73.4739 41.6271 71.4943 41.6271C69.5132 41.6271 67.9014 40.0153 67.9014 38.0371C67.9014 36.056 69.5132 34.4442 71.4943 34.4442ZM42.8828 70.3245C44.8625 70.3245 46.4743 71.9363 46.4743 73.9174C46.4743 75.8985 44.8625 77.5103 42.8828 77.5103C40.9017 77.5103 39.2899 75.8985 39.2899 73.9174C39.2899 71.9363 40.9017 70.3245 42.8828 70.3245Z" fill="#F29453"/>
<path d="M167.004 159.342L155.707 148.044C157.944 144.175 159.246 139.701 159.246 134.919C159.246 123.123 151.447 113.117 140.736 109.781V70.6564C140.736 69.036 139.423 67.7249 137.804 67.7249H119.631C118.012 67.7249 116.699 69.036 116.699 70.6564V114.236C114.99 115.581 113.456 117.131 112.125 118.851V106.537C112.125 104.916 110.812 103.605 109.193 103.605H91.0195C89.4005 103.605 88.0879 104.916 88.0879 106.537V142.417C88.0879 144.037 89.4005 145.349 91.0195 145.349H108.77C112.817 154.687 122.116 161.24 132.925 161.24C137.706 161.24 142.18 159.939 146.048 157.702L157.345 168.999C158.635 170.29 160.351 171 162.175 171C164 171 165.716 170.29 167.004 168.999C168.295 167.708 169.005 165.993 169.005 164.169C169.005 162.345 168.294 160.631 167.004 159.342ZM122.563 73.588H134.873V108.697C134.227 108.649 133.582 108.598 132.925 108.598C129.246 108.598 125.745 109.362 122.563 110.731V73.588ZM106.261 139.485H93.951V109.468H106.261V139.485ZM112.468 134.919C112.468 123.639 121.645 114.461 132.925 114.461C144.206 114.461 153.383 123.639 153.383 134.919C153.383 146.199 144.206 155.377 132.925 155.377C121.645 155.377 112.468 146.199 112.468 134.919ZM162.857 164.853C162.371 165.343 161.987 165.349 161.492 164.853L150.811 154.174C151.284 153.735 151.739 153.279 152.179 152.807L162.86 163.491C163.105 163.734 163.142 164.02 163.142 164.169C163.142 164.318 163.105 164.607 162.857 164.853Z" fill="#82A0CE"/>
<path d="M151.446 134.919C151.446 124.705 143.137 116.397 132.922 116.397C131.303 116.397 129.99 117.708 129.99 119.328C129.99 120.949 131.303 122.26 132.922 122.26C139.903 122.26 145.583 127.94 145.583 134.919C145.583 136.54 146.895 137.851 148.514 137.851C150.133 137.851 151.446 136.54 151.446 134.919Z" fill="#82A0CE"/>
</svg>
