<svg width="200" height="200" viewBox="0 0 200 200" fill="none" xmlns="http://www.w3.org/2000/svg">
<path d="M160.333 127.179L131.999 98.8425L157.009 73.8309C161.558 69.2704 161.558 61.8632 157.009 57.3023L143.698 43.9908C139.144 39.436 131.726 39.436 127.171 43.9908L102.161 69.0024L73.8269 40.6662C72.9388 39.7779 71.4983 39.7779 70.6046 40.6662L43.9887 67.2839C43.1006 68.1721 43.1006 69.6127 43.9887 70.5064L72.323 98.8426L53.9737 117.193C53.9566 117.21 53.9509 117.233 53.9395 117.25C53.7175 117.484 53.5353 117.757 53.4272 118.081L40.1166 158.005C39.8433 158.825 40.0597 159.725 40.6688 160.334C41.1072 160.772 41.6822 161 42.28 161C42.5191 161 42.764 160.96 43.0031 160.886L82.924 147.575C83.2485 147.466 83.5218 147.279 83.7552 147.056C83.7723 147.039 83.795 147.039 83.8121 147.022L102.161 128.672L130.496 157.008C130.94 157.452 131.52 157.674 132.107 157.674C132.688 157.674 133.274 157.452 133.718 157.008L160.334 130.39C161.222 129.502 161.222 128.062 160.334 127.168L160.333 127.179ZM83.1965 141.202L81.0388 134.723C80.811 134.039 80.2759 133.51 79.5984 133.282L73.1139 131.119L128.781 75.4475L138.869 85.5366L83.2022 141.208L83.1965 141.202ZM62.8549 149.469L51.5427 138.156L57.0308 121.69L63.7658 123.933L66.732 132.832C66.7377 132.855 66.7605 132.867 66.7662 132.889C66.8687 133.18 67.0281 133.447 67.2558 133.681C67.2786 133.704 67.2957 133.726 67.3184 133.743C67.5519 133.971 67.8251 134.131 68.1098 134.233C68.1326 134.239 68.1439 134.261 68.1667 134.267L77.0652 137.234L79.3083 143.969L62.8435 149.458L62.8549 149.469ZM115.476 62.1414L125.564 72.2304L69.8972 127.902L67.7337 121.417C67.506 120.733 66.9709 120.204 66.2934 119.976L59.8146 117.818L115.482 62.1471L115.476 62.1414ZM130.392 47.2248C133.176 44.4465 137.696 44.4465 140.48 47.2248L153.79 60.5363C156.569 63.3147 156.569 67.8468 153.79 70.6254L142.091 82.3255L118.698 58.9304L130.397 47.2302L130.392 47.2248ZM68.7911 88.867L77.1601 80.4975C78.0482 79.6093 78.0482 78.1688 77.1601 77.275C76.2719 76.3868 74.8315 76.3868 73.9378 77.275L65.5689 85.6445L58.8054 78.8806L67.1744 70.5111C68.0625 69.6229 68.0625 68.1824 67.1744 67.2886C66.2863 66.4004 64.8458 66.4004 63.9521 67.2886L55.5832 75.6581L48.8197 68.8942L72.2132 45.4991L98.9369 72.2247L75.5435 95.6199L68.78 88.8559L68.7911 88.867ZM49.9347 142.99L58.0304 151.086L45.8869 155.135L49.9347 142.99ZM132.11 152.191L125.346 145.427L133.715 137.058C134.604 136.169 134.604 134.729 133.715 133.835C132.827 132.947 131.387 132.947 130.493 133.835L122.124 142.205L115.361 135.441L123.73 127.071C124.618 126.183 124.618 124.742 123.73 123.849C122.842 122.96 121.401 122.96 120.507 123.849L112.139 132.218L105.375 125.454L128.769 102.059L155.492 128.785L132.099 152.18L132.11 152.191Z" fill="#82A0CE"/>
</svg>
