<svg width="200" height="200" viewBox="0 0 200 200" fill="none" xmlns="http://www.w3.org/2000/svg">
<path d="M58.7089 57C53.3748 57 49 61.3756 49 66.7107V116.72C49 122.055 53.3748 126.449 58.7089 126.449H84.7296L78.0381 136.94H68.9918C68.1925 136.944 67.4268 137.262 66.8616 137.828C66.2964 138.393 65.9775 139.159 65.9744 139.958C65.9728 140.356 66.0496 140.751 66.2004 141.119C66.3512 141.487 66.5731 141.822 66.8533 142.104C67.1335 142.387 67.4665 142.611 67.8334 142.765C68.2004 142.919 68.594 142.998 68.9918 143H79.7065H121.276H131.985C132.384 143.002 132.78 142.924 133.15 142.772C133.52 142.619 133.856 142.395 134.138 142.113C134.421 141.83 134.645 141.494 134.797 141.124C134.95 140.754 135.027 140.358 135.026 139.958C135.024 139.56 134.944 139.167 134.791 138.8C134.637 138.433 134.412 138.1 134.13 137.819C133.848 137.539 133.513 137.317 133.145 137.166C132.777 137.016 132.382 136.939 131.985 136.94H122.944L116.253 126.449H142.273C147.607 126.449 152 122.055 152 116.72V66.7107C152 61.3756 147.607 57 142.273 57H58.7089ZM58.7089 63.0418H142.273C144.356 63.0418 145.942 64.6278 145.942 66.7107V116.72C145.942 118.803 144.356 120.389 142.273 120.389H110.709C110.652 120.387 110.594 120.387 110.537 120.389H90.439C90.3818 120.387 90.3246 120.387 90.2674 120.389H58.7089C56.6264 120.389 55.0644 118.803 55.0644 116.72V66.7107C55.0644 64.6278 56.6264 63.0418 58.7089 63.0418ZM82.5878 73.2852C81.785 73.279 81.0125 73.5918 80.4402 74.155C80.1572 74.4365 79.9326 74.7712 79.7794 75.1399C79.6261 75.5085 79.5472 75.9038 79.5472 76.303C79.5472 76.7023 79.6261 77.0976 79.7794 77.4662C79.9326 77.8349 80.1572 78.1696 80.4402 78.4511L82.7476 80.7531L80.4402 83.0609C80.1581 83.3424 79.9343 83.6767 79.7815 84.0448C79.6288 84.4129 79.5502 84.8075 79.5502 85.206C79.5502 85.6045 79.6288 85.9992 79.7815 86.3673C79.9343 86.7353 80.1581 87.0697 80.4402 87.3511C80.7217 87.6342 81.0563 87.8588 81.4249 88.0121C81.7935 88.1653 82.1887 88.2442 82.5879 88.2442C82.987 88.2442 83.3822 88.1653 83.7508 88.0121C84.1194 87.8588 84.454 87.6342 84.7355 87.3511L87.037 85.0492L89.3445 87.3511C89.6259 87.6333 89.9601 87.8572 90.3282 88.0099C90.6962 88.1626 91.0907 88.2413 91.4892 88.2413C91.8877 88.2413 92.2822 88.1626 92.6502 88.0099C93.0183 87.8572 93.3525 87.6333 93.6339 87.3511C93.916 87.0697 94.1399 86.7353 94.2926 86.3673C94.4453 85.9992 94.5239 85.6045 94.5239 85.206C94.5239 84.8075 94.4453 84.4129 94.2926 84.0448C94.1399 83.6767 93.916 83.3424 93.6339 83.0609L91.3324 80.7531L93.6339 78.4512C93.9169 78.1696 94.1415 77.8349 94.2947 77.4663C94.448 77.0976 94.5269 76.7023 94.5269 76.3031C94.5269 75.9039 94.448 75.5086 94.2947 75.1399C94.1415 74.7713 93.9169 74.4366 93.6339 74.155C93.0616 73.5919 92.2891 73.279 91.4862 73.2852C90.6854 73.2806 89.9154 73.5933 89.3445 74.155L87.037 76.4629L84.7355 74.155C84.1632 73.5919 83.3907 73.279 82.5878 73.2852ZM109.49 73.2852C108.695 73.2852 107.933 73.5976 107.366 74.155C107.083 74.4365 106.859 74.7712 106.705 75.1399C106.552 75.5085 106.473 75.9038 106.473 76.303C106.473 76.7023 106.552 77.0976 106.705 77.4662C106.859 77.8349 107.083 78.1696 107.366 78.4511L109.662 80.7531L107.366 83.0609C107.084 83.3424 106.86 83.6767 106.707 84.0448C106.555 84.4129 106.476 84.8075 106.476 85.206C106.476 85.6045 106.555 85.9992 106.707 86.3673C106.86 86.7353 107.084 87.0697 107.366 87.3511C107.934 87.9156 108.702 88.2324 109.502 88.2324C110.302 88.2324 111.07 87.9156 111.638 87.3511L113.945 85.0433L116.241 87.3511C116.522 87.6342 116.857 87.8588 117.226 88.0121C117.594 88.1653 117.989 88.2442 118.388 88.2442C118.788 88.2442 119.183 88.1653 119.551 88.0121C119.92 87.8588 120.255 87.6342 120.536 87.3511C120.818 87.0697 121.042 86.7353 121.195 86.3673C121.348 85.9992 121.426 85.6045 121.426 85.206C121.426 84.8075 121.348 84.4129 121.195 84.0448C121.042 83.6767 120.818 83.3424 120.536 83.0609L118.235 80.7531L120.536 78.4512C120.819 78.1696 121.044 77.8349 121.197 77.4663C121.35 77.0976 121.429 76.7023 121.429 76.3031C121.429 75.9039 121.35 75.5086 121.197 75.1399C121.044 74.7713 120.819 74.4366 120.536 74.155C119.964 73.5919 119.191 73.279 118.388 73.2852C117.586 73.279 116.813 73.5919 116.241 74.155L113.945 76.4629L111.638 74.155C111.065 73.5919 110.293 73.279 109.49 73.2852ZM100.503 96.7661C94.1437 96.7661 88.1991 100.062 84.6882 105.471C84.2538 106.145 84.1045 106.964 84.2731 107.749C84.4417 108.533 84.9144 109.218 85.5875 109.654C86.2584 110.089 87.074 110.241 87.8564 110.077C88.6388 109.913 89.3247 109.446 89.7645 108.779C92.1983 105.029 96.2286 102.832 100.503 102.832C104.777 102.832 108.778 105.029 111.212 108.779C111.652 109.448 112.339 109.916 113.123 110.08C113.906 110.244 114.723 110.091 115.395 109.654C116.067 109.217 116.538 108.532 116.706 107.747C116.873 106.963 116.723 106.144 116.288 105.471C112.777 100.062 106.862 96.7661 100.503 96.7661ZM91.9063 126.449H109.07L115.75 136.94H85.2266L91.9063 126.449Z" fill="#82A0CE"/>
<path d="M82.588 73.2852C81.7851 73.2791 81.0127 73.5919 80.4403 74.1551C80.1573 74.4366 79.9327 74.7713 79.7795 75.14C79.6263 75.5086 79.5474 75.9039 79.5474 76.3031C79.5474 76.7024 79.6263 77.0977 79.7795 77.4663C79.9327 77.8349 80.1573 78.1697 80.4403 78.4512L82.7477 80.7532L80.4403 83.061C80.1582 83.3425 79.9344 83.6768 79.7817 84.0449C79.6289 84.413 79.5503 84.8076 79.5503 85.2061C79.5503 85.6046 79.6289 85.9993 79.7817 86.3673C79.9344 86.7354 80.1582 87.0698 80.4403 87.3512C80.7218 87.6343 81.0565 87.8589 81.425 88.0122C81.7936 88.1654 82.1888 88.2443 82.588 88.2443C82.9871 88.2443 83.3824 88.1654 83.7509 88.0122C84.1195 87.8589 84.4542 87.6343 84.7357 87.3512L87.0372 85.0493L89.3446 87.3512C89.626 87.6334 89.9603 87.8573 90.3283 88.01C90.6963 88.1627 91.0909 88.2414 91.4893 88.2414C91.8878 88.2414 92.2823 88.1627 92.6503 88.01C93.0184 87.8573 93.3527 87.6334 93.6341 87.3512C93.9162 87.0698 94.14 86.7354 94.2927 86.3673C94.4454 85.9993 94.524 85.6046 94.524 85.2061C94.524 84.8076 94.4454 84.413 94.2927 84.0449C94.14 83.6768 93.9162 83.3425 93.6341 83.061L91.3325 80.7532L93.6341 78.4513C93.917 78.1697 94.1416 77.835 94.2949 77.4664C94.4481 77.0977 94.527 76.7024 94.527 76.3032C94.527 75.904 94.4481 75.5087 94.2949 75.14C94.1416 74.7714 93.917 74.4367 93.6341 74.1551C93.0617 73.592 92.2892 73.2791 91.4863 73.2853C90.6855 73.2807 89.9155 73.5934 89.3446 74.1551L87.0372 76.463L84.7357 74.1551C84.1633 73.592 83.3908 73.2791 82.588 73.2852ZM109.49 73.2852C108.696 73.2853 107.933 73.5977 107.366 74.1551C107.083 74.4366 106.859 74.7713 106.705 75.14C106.552 75.5086 106.473 75.9039 106.473 76.3031C106.473 76.7024 106.552 77.0977 106.705 77.4663C106.859 77.8349 107.083 78.1697 107.366 78.4512L109.662 80.7532L107.366 83.061C107.084 83.3425 106.86 83.6768 106.708 84.0449C106.555 84.413 106.476 84.8076 106.476 85.2061C106.476 85.6046 106.555 85.9993 106.708 86.3673C106.86 86.7354 107.084 87.0698 107.366 87.3512C107.934 87.9157 108.702 88.2325 109.502 88.2325C110.302 88.2325 111.07 87.9157 111.638 87.3512L113.945 85.0434L116.241 87.3512C116.522 87.6343 116.857 87.8589 117.226 88.0122C117.594 88.1654 117.989 88.2443 118.389 88.2443C118.788 88.2443 119.183 88.1654 119.552 88.0122C119.92 87.8589 120.255 87.6343 120.536 87.3512C120.818 87.0698 121.042 86.7354 121.195 86.3673C121.348 85.9993 121.426 85.6046 121.426 85.2061C121.426 84.8076 121.348 84.413 121.195 84.0449C121.042 83.6768 120.818 83.3425 120.536 83.061L118.235 80.7532L120.536 78.4513C120.819 78.1697 121.044 77.835 121.197 77.4664C121.35 77.0977 121.429 76.7024 121.429 76.3032C121.429 75.904 121.35 75.5087 121.197 75.14C121.044 74.7714 120.819 74.4367 120.536 74.1551C119.964 73.592 119.191 73.2791 118.389 73.2853C117.586 73.2791 116.813 73.592 116.241 74.1551L113.945 76.463L111.638 74.1551C111.066 73.592 110.293 73.2791 109.49 73.2852ZM100.503 96.7662C94.1438 96.7662 88.1992 100.062 84.6883 105.471C84.2539 106.145 84.1046 106.964 84.2732 107.749C84.4418 108.533 84.9145 109.218 85.5876 109.655C86.2585 110.089 87.0741 110.241 87.8565 110.077C88.639 109.913 89.3248 109.447 89.7647 108.779C92.1984 105.03 96.2287 102.832 100.503 102.832C104.777 102.832 108.778 105.03 111.212 108.779C111.652 109.448 112.339 109.916 113.123 110.08C113.907 110.244 114.723 110.091 115.395 109.655C116.067 109.217 116.538 108.532 116.706 107.747C116.873 106.963 116.723 106.145 116.288 105.471C112.777 100.062 106.862 96.7662 100.503 96.7662Z" fill="#F29453"/>
</svg>
