<svg width="200" height="200" viewBox="0 0 200 200" fill="none" xmlns="http://www.w3.org/2000/svg">
<path d="M57.8884 44.3738C52.0792 44.3738 47.374 49.079 47.374 54.8882C47.374 60.6974 52.0792 65.4025 57.8884 65.4025C63.6976 65.4025 68.4028 60.6974 68.4028 54.8882C68.4028 49.079 63.6976 44.3738 57.8884 44.3738ZM57.8884 60.1454C54.997 60.1454 52.6312 57.7796 52.6312 54.8882C52.6312 51.9967 54.997 49.631 57.8884 49.631C60.7799 49.631 63.1456 51.9967 63.1456 54.8882C63.1456 57.7796 60.7799 60.1454 57.8884 60.1454Z" fill="#82A0CE"/>
<path d="M142.003 110.089C126.941 110.089 114.561 121.655 113.22 136.375H83.9639C82.6759 127.464 75.0267 120.603 65.7741 120.603C56.5214 120.603 49.2665 127.122 47.6893 135.691C39.8561 133.51 34.2309 126.333 34.2309 117.975C34.2309 113.085 36.1498 108.459 39.5932 104.963C43.0893 101.493 47.7156 99.5744 52.6311 99.5744H81.7559C83.0439 108.485 90.6931 115.346 99.9458 115.346C109.198 115.346 116.848 108.485 118.136 99.5744H147.261C160.298 99.5744 170.918 88.9549 170.918 75.917C170.918 69.6084 168.473 63.6678 163.978 59.1729C160.798 56.0186 156.723 53.8105 152.386 52.838C151.361 43.6642 143.554 36.4881 134.118 36.4881C124.681 36.4881 117.216 43.3487 115.928 52.2597H86.8028V49.8414C86.8028 48.3956 85.6199 47.2128 84.1742 47.2128H80.4153C80.0999 46.2402 79.7056 45.3202 79.2587 44.4002L81.9136 41.7453C82.9388 40.7201 82.9388 39.0641 81.9136 38.039L74.7638 30.8892C73.7387 29.864 72.0827 29.864 71.0575 30.8892L68.4026 33.5441C67.4826 33.0972 66.5626 32.7029 65.5901 32.3875V28.6286C65.5901 27.1829 64.4072 26 62.9615 26H52.8414C51.3956 26 50.2128 27.1829 50.2128 28.6286V32.3875C49.2402 32.7029 48.3202 33.0972 47.4002 33.5441L44.7453 30.8892C43.7201 29.864 42.0641 29.864 41.039 30.8892L33.8892 38.039C32.864 39.0641 32.864 40.7201 33.8892 41.7453L36.5441 44.4002C36.0972 45.3202 35.7029 46.2402 35.3875 47.2128H31.6286C30.1829 47.2128 29 48.3956 29 49.8414V59.9615C29 61.4072 30.1829 62.5901 31.6286 62.5901H35.3875C35.7029 63.5626 36.0972 64.4826 36.5441 65.4026L33.8892 68.0575C32.864 69.0827 32.864 70.7387 33.8892 71.7638L41.039 78.9136C41.5647 79.4393 42.2218 79.6759 42.9053 79.6759C43.5887 79.6759 44.2459 79.4131 44.7716 78.9136L47.4265 76.2587C48.3465 76.7056 49.2665 77.0999 50.2391 77.4153V81.1742C50.2391 82.6199 51.4219 83.8028 52.8676 83.8028H62.9877C64.4335 83.8028 65.6163 82.6199 65.6163 81.1742V77.4153C66.5889 77.0999 67.5089 76.7056 68.4289 76.2587L71.0838 78.9136C71.6095 79.4393 72.2667 79.6759 72.9501 79.6759C73.6336 79.6759 74.2907 79.4131 74.8164 78.9136L81.9662 71.7638C82.9914 70.7387 82.9914 69.0827 81.9662 68.0575L79.3113 65.4026C79.7582 64.4826 80.1525 63.5626 80.4679 62.5901H84.2268C85.6725 62.5901 86.8554 61.4072 86.8554 59.9615V57.5431H115.98C117.268 66.4541 124.917 73.3147 134.17 73.3147C143.423 73.3147 150.678 66.7958 152.255 58.2529C155.278 59.094 158.09 60.6975 160.325 62.9318C163.794 66.4278 165.713 71.0541 165.713 75.9696C165.713 86.116 157.459 94.3698 147.313 94.3698H118.188C116.9 85.4588 109.251 78.5982 99.9984 78.5982C90.7457 78.5982 83.0965 85.4588 81.8085 94.3698H52.6836C46.375 94.3698 40.4344 96.8144 35.9395 101.309C31.4709 105.804 29.0263 111.745 29.0263 118.027C29.0263 129.199 36.8595 138.767 47.5579 141.132C48.583 150.306 56.39 157.456 65.8266 157.456C75.2633 157.456 82.7285 150.595 84.0165 141.684H113.273C114.613 156.405 126.994 167.97 142.056 167.97C158.011 167.97 170.97 155.011 170.97 139.056C170.97 123.1 158.011 110.141 142.056 110.141L142.003 110.089ZM81.5456 57.3066H78.5227C78.5227 57.3066 78.3913 57.3329 78.3125 57.3591C78.1285 57.3591 77.9707 57.4117 77.813 57.4643C77.629 57.5169 77.4713 57.5694 77.3136 57.6483C77.1822 57.7271 77.0507 57.806 76.9456 57.9111C76.8142 58.0163 76.6564 58.1214 76.5513 58.2792C76.4462 58.4106 76.3673 58.542 76.2884 58.6734C76.1833 58.8312 76.1044 58.9889 76.0519 59.1729C76.0519 59.2517 75.973 59.3043 75.973 59.3569C75.5261 61.1969 74.8164 62.9581 73.8176 64.5615C73.7913 64.6141 73.765 64.6929 73.7387 64.7718C73.6598 64.9295 73.6073 65.0872 73.5547 65.2712C73.5021 65.4289 73.4758 65.5866 73.4496 65.7444C73.4496 65.9021 73.4496 66.0861 73.4496 66.2438C73.4496 66.4015 73.5021 66.5592 73.5547 66.7432C73.6073 66.9009 73.6861 67.0324 73.765 67.1901C73.8438 67.3478 73.949 67.5055 74.0541 67.637C74.1067 67.6895 74.1067 67.7684 74.1593 67.821L76.3147 69.9764L72.8713 73.4199L70.7158 71.2644C70.7158 71.2644 70.5844 71.1856 70.5318 71.1593C70.4004 71.0278 70.2427 70.949 70.0849 70.8701C69.9272 70.7913 69.7958 70.7124 69.6381 70.6598C69.4804 70.6073 69.3227 70.581 69.1387 70.5547C68.9809 70.5547 68.7969 70.5284 68.6392 70.5547C68.4815 70.5547 68.3238 70.6073 68.1661 70.6598C67.9821 70.7124 67.8244 70.765 67.6666 70.8438C67.6141 70.8701 67.5352 70.8701 67.4564 70.9227C65.8529 71.9216 64.0918 72.6313 62.2517 73.0781C62.1729 73.0781 62.1203 73.157 62.0677 73.157C61.8837 73.2096 61.7523 73.2884 61.5946 73.3673C61.4369 73.4462 61.3054 73.525 61.2003 73.6301C61.0689 73.7353 60.9637 73.8667 60.8586 73.9982C60.7534 74.1296 60.6483 74.261 60.5694 74.4187C60.4906 74.5502 60.438 74.7079 60.4117 74.8656C60.3591 75.0496 60.3329 75.2073 60.3066 75.3913C60.3066 75.4702 60.254 75.5227 60.254 75.6016V78.6245H55.3911V75.6016C55.3911 75.6016 55.3648 75.4702 55.3385 75.3913C55.3385 75.2073 55.286 75.0496 55.2334 74.8656C55.1808 74.7079 55.1282 74.5502 55.0757 74.4187C54.9968 74.261 54.8917 74.1296 54.7865 73.9982C54.6814 73.8667 54.5762 73.7353 54.4448 73.6301C54.3134 73.525 54.1819 73.4462 54.0505 73.3673C53.8928 73.2884 53.7351 73.2096 53.5774 73.157C53.4985 73.157 53.4459 73.0781 53.3934 73.0781C51.5533 72.6313 49.7922 71.9216 48.1887 70.9227C48.1362 70.8964 48.0573 70.8701 47.9785 70.8438C47.8207 70.765 47.663 70.7124 47.479 70.6598C47.3213 70.6073 47.1636 70.581 47.0059 70.5547C46.8219 70.5547 46.6642 70.5547 46.5064 70.5547C46.3487 70.5547 46.191 70.6073 46.0333 70.6598C45.8756 70.7124 45.7179 70.7913 45.5864 70.8701C45.4287 70.949 45.2973 71.0541 45.1396 71.1593C45.087 71.2118 45.0081 71.2381 44.9556 71.2907L42.8001 73.4461L39.3567 70.0027L41.5121 67.8472C41.5121 67.8472 41.591 67.7158 41.6173 67.6632C41.7487 67.5318 41.8275 67.3741 41.9064 67.2164C41.9853 67.0587 42.0641 66.9272 42.1167 66.7695C42.1693 66.6118 42.1955 66.4541 42.2218 66.2701C42.2218 66.1124 42.2481 65.9284 42.2218 65.7706C42.2218 65.6129 42.1693 65.4552 42.1167 65.2975C42.0641 65.1135 42.0115 64.9558 41.9327 64.7981C41.9064 64.7455 41.9064 64.6666 41.8538 64.5878C40.855 62.9843 40.1452 61.2232 39.6984 59.3832C39.6984 59.3043 39.6195 59.2517 39.6195 59.1992C39.567 59.0152 39.4881 58.8574 39.383 58.6997C39.3041 58.5683 39.2252 58.4369 39.1201 58.3054C39.0149 58.174 38.8835 58.0689 38.7258 57.9637C38.5944 57.8586 38.4629 57.7797 38.3315 57.7009C38.1738 57.622 38.0424 57.5694 37.8584 57.5169C37.6744 57.4643 37.5166 57.438 37.3326 57.4117C37.2538 57.4117 37.2012 57.3591 37.1224 57.3591H34.0995V52.4962H37.1224C37.4641 52.4962 37.7532 52.4174 38.0687 52.3122C38.1738 52.2597 38.2527 52.2071 38.3578 52.1545C38.5418 52.0494 38.7258 51.9442 38.8572 51.8128C38.9361 51.734 39.0149 51.6551 39.0938 51.5499C39.2252 51.3922 39.3304 51.2345 39.4092 51.0768C39.4618 50.9717 39.5144 50.8402 39.567 50.7351C39.5932 50.6562 39.6458 50.6037 39.6721 50.4985C40.119 48.6585 40.8287 46.8973 41.8275 45.2939C41.8538 45.2413 41.8801 45.1625 41.9064 45.0836C41.9853 44.9259 42.0378 44.7682 42.0904 44.5842C42.143 44.4265 42.1693 44.2687 42.1955 44.111C42.1955 43.9533 42.1955 43.7693 42.1955 43.6116C42.1955 43.4539 42.143 43.2962 42.0904 43.1122C42.0378 42.9544 41.959 42.823 41.8801 42.6653C41.8013 42.5076 41.6961 42.3499 41.591 42.2184C41.5384 42.1659 41.5384 42.087 41.4858 42.0344L39.3304 39.879L42.7738 36.4355L44.9293 38.591C45.1659 38.8013 45.4024 38.9853 45.6916 39.0904C45.7704 39.1167 45.823 39.143 45.9019 39.1693C46.191 39.2744 46.4802 39.327 46.7693 39.327C47.0585 39.327 47.3476 39.2481 47.6367 39.1693C47.7156 39.143 47.7945 39.1167 47.8733 39.0641C47.9522 39.0115 48.0573 39.0115 48.1362 38.959C49.7396 37.9601 51.5008 37.2504 53.3408 36.8035C53.4197 36.8035 53.4722 36.7247 53.5248 36.7247C53.7088 36.6721 53.8402 36.5932 53.9979 36.5144C54.1557 36.4355 54.2871 36.3567 54.3922 36.2515C54.5237 36.1464 54.6288 36.0149 54.734 35.8835C54.8391 35.7521 54.9442 35.6207 55.0231 35.4629C55.102 35.3315 55.1545 35.1738 55.1808 35.0161C55.2334 34.8321 55.2597 34.6744 55.286 34.4904C55.286 34.4115 55.3385 34.3589 55.3385 34.2801V31.2572H60.2014V34.2801C60.2014 34.2801 60.2277 34.4115 60.254 34.4904C60.254 34.6744 60.3066 34.8321 60.3591 35.0161C60.4117 35.1738 60.4643 35.3315 60.5169 35.4629C60.5957 35.6207 60.7009 35.7521 60.806 35.8835C60.9112 36.0149 61.0163 36.1464 61.1477 36.2515C61.2792 36.3567 61.4106 36.4355 61.542 36.5144C61.6997 36.5932 61.8574 36.6721 62.0152 36.7247C62.094 36.7247 62.1466 36.8035 62.1992 36.8035C64.0392 37.2504 65.8003 37.9601 67.4038 38.959C67.4826 39.0115 67.5878 39.0378 67.6666 39.0641C67.7455 39.0904 67.8244 39.143 67.9032 39.1693C68.1924 39.2744 68.4815 39.327 68.7706 39.327C69.0598 39.327 69.3489 39.2481 69.6381 39.1693C69.7169 39.1693 69.7695 39.1167 69.8484 39.0904C70.1375 38.959 70.3741 38.8013 70.6107 38.591L72.7661 36.4355L76.2096 39.879L74.0541 42.0344C74.0541 42.0344 73.9753 42.1659 73.949 42.2184C73.8176 42.3499 73.7387 42.5076 73.6598 42.6653C73.581 42.823 73.5021 42.9544 73.4496 43.1122C73.397 43.2699 73.3707 43.4276 73.3444 43.6116C73.3444 43.7693 73.3181 43.9533 73.3444 44.111C73.3444 44.2687 73.397 44.4265 73.4496 44.5842C73.5021 44.7682 73.5547 44.9259 73.6336 45.0836C73.6598 45.1362 73.6598 45.215 73.7124 45.2939C74.7113 46.8973 75.421 48.6585 75.8679 50.4985C75.8679 50.5774 75.9467 50.6562 75.973 50.7351C76.0256 50.8665 76.0781 50.9717 76.1307 51.0768C76.2096 51.2608 76.341 51.4185 76.4461 51.5499C76.525 51.6551 76.6039 51.734 76.6827 51.8128C76.8404 51.9442 76.9982 52.0494 77.1822 52.1545C77.2873 52.2071 77.3662 52.2597 77.4713 52.3122C77.7604 52.4174 78.0759 52.4962 78.4176 52.4962H81.4405V57.3591L81.5456 57.3066ZM134.118 68.0312C126.863 68.0312 120.975 62.1432 120.975 54.8883C120.975 47.6333 126.863 41.7453 134.118 41.7453C141.372 41.7453 147.261 47.6333 147.261 54.8883C147.261 62.1432 141.372 68.0312 134.118 68.0312ZM99.9458 83.8028C107.201 83.8028 113.089 89.6909 113.089 96.9458C113.089 104.201 107.201 110.089 99.9458 110.089C92.6909 110.089 86.8028 104.201 86.8028 96.9458C86.8028 89.6909 92.6909 83.8028 99.9458 83.8028ZM65.7741 152.146C58.5191 152.146 52.6311 146.258 52.6311 139.003C52.6311 131.748 58.5191 125.86 65.7741 125.86C73.029 125.86 78.917 131.748 78.917 139.003C78.917 146.258 73.029 152.146 65.7741 152.146ZM142.003 162.661C128.965 162.661 118.346 152.041 118.346 139.003C118.346 125.965 128.965 115.346 142.003 115.346C155.041 115.346 165.661 125.965 165.661 139.003C165.661 152.041 155.041 162.661 142.003 162.661Z" fill="#82A0CE"/>
<path d="M150.493 129.435L139.19 142.998L133.329 137.137C132.304 136.111 130.648 136.111 129.622 137.137C128.597 138.162 128.597 139.818 129.622 140.843L137.508 148.729C138.008 149.228 138.665 149.491 139.374 149.491C139.427 149.491 139.453 149.491 139.506 149.491C140.242 149.465 140.925 149.123 141.398 148.545L154.541 132.773C155.461 131.669 155.33 130.013 154.2 129.067C153.069 128.121 151.44 128.278 150.493 129.409V129.435Z" fill="#F29453"/>
<path d="M99.9977 99.5743C101.443 99.5743 102.626 98.3915 102.626 96.9457C102.626 95.5 101.443 94.3171 99.9977 94.3171H99.9714C98.5257 94.3171 97.3691 95.5 97.3691 96.9457C97.3691 98.3915 98.552 99.5743 99.9977 99.5743Z" fill="#82A0CE"/>
<path d="M107.883 99.5743C109.329 99.5743 110.512 98.3915 110.512 96.9457C110.512 95.5 109.329 94.3171 107.883 94.3171H107.857C106.411 94.3171 105.255 95.5 105.255 96.9457C105.255 98.3915 106.438 99.5743 107.883 99.5743Z" fill="#82A0CE"/>
<path d="M94.7406 96.9457C94.7406 95.5 93.5577 94.3171 92.112 94.3171H92.0857C90.64 94.3171 89.4834 95.5 89.4834 96.9457C89.4834 98.3915 90.6663 99.5743 92.112 99.5743C93.5577 99.5743 94.7406 98.3915 94.7406 96.9457Z" fill="#82A0CE"/>
<path d="M134.17 52.2598H134.143C132.698 52.2598 131.541 53.4426 131.541 54.8884C131.541 56.3341 132.724 57.517 134.17 57.517C135.615 57.517 136.798 56.3341 136.798 54.8884C136.798 53.4426 135.615 52.2598 134.17 52.2598Z" fill="#82A0CE"/>
<path d="M142.029 52.2598C140.583 52.2598 139.427 53.4426 139.427 54.8884C139.427 56.3341 140.61 57.517 142.055 57.517C143.501 57.517 144.684 56.3341 144.684 54.8884C144.684 53.4426 143.501 52.2598 142.055 52.2598H142.029Z" fill="#82A0CE"/>
<path d="M126.284 52.2598H126.258C124.812 52.2598 123.655 53.4426 123.655 54.8884C123.655 56.3341 124.838 57.517 126.284 57.517C127.73 57.517 128.912 56.3341 128.912 54.8884C128.912 53.4426 127.73 52.2598 126.284 52.2598Z" fill="#82A0CE"/>
<path d="M65.8259 136.375H65.7996C64.3538 136.375 63.1973 137.558 63.1973 139.003C63.1973 140.449 64.3801 141.632 65.8259 141.632C67.2716 141.632 68.4545 140.449 68.4545 139.003C68.4545 137.558 67.2716 136.375 65.8259 136.375Z" fill="#82A0CE"/>
<path d="M57.9401 136.375H57.9138C56.4681 136.375 55.3115 137.558 55.3115 139.003C55.3115 140.449 56.4944 141.632 57.9401 141.632C59.3858 141.632 60.5687 140.449 60.5687 139.003C60.5687 137.558 59.3858 136.375 57.9401 136.375Z" fill="#82A0CE"/>
<path d="M73.6853 136.375C72.2396 136.375 71.083 137.558 71.083 139.003C71.083 140.449 72.2659 141.632 73.7116 141.632C75.1573 141.632 76.3402 140.449 76.3402 139.003C76.3402 137.558 75.1573 136.375 73.7116 136.375H73.6853Z" fill="#82A0CE"/>
</svg>
