<svg width="200" height="200" viewBox="0 0 200 200" fill="none" xmlns="http://www.w3.org/2000/svg">
<path d="M153.3 23.0054C153.071 23.0129 152.844 23.0521 152.626 23.1257L138.54 27.6753C137.246 28.0992 136.541 29.4918 136.965 30.7854L137.721 33.1299L55.5725 59.662C54.2745 60.0822 53.5643 61.4758 53.9877 62.7721L54.744 65.112L35.9663 71.1782L35.21 68.8383C35.1886 68.7544 35.1627 68.6763 35.1329 68.598C34.6249 67.4368 33.3188 66.8496 32.1125 67.2401L22.7189 70.2735C21.4119 70.6899 20.6955 72.0909 21.1243 73.393L30.2241 101.528C30.6404 102.835 32.0428 103.551 33.3457 103.122L42.7345 100.084C44.0287 99.6602 44.7339 98.2675 44.3098 96.974L43.5535 94.6389L62.3311 88.5728L63.0922 90.9223C63.5127 92.2196 64.9071 92.929 66.2042 92.506L88.6622 85.246C90.7898 89.5648 94.7851 92.7996 99.5926 93.8832L71.2334 167.567C69.9305 170.691 74.7209 172.524 75.8387 169.329L89.4619 133.939H100.672V168.439C100.597 171.799 105.679 171.799 105.604 168.439V133.939C109.285 133.94 113.035 133.948 116.689 133.911L130.423 169.325C131.56 172.507 136.33 170.662 135.028 167.544L106.481 93.9272C113.77 92.378 119.281 85.8962 119.281 78.1652C119.281 77.2307 119.18 76.3178 119.025 75.4258L148.343 65.9653L149.099 68.3003C149.512 69.6002 150.902 70.3187 152.202 69.9036L166.283 65.3492C167.587 64.9327 168.303 63.5349 167.877 62.2342L155.742 24.7159C155.406 23.6613 154.407 22.964 153.3 23.0054ZM151.807 28.5757L162.429 61.4194L153.04 64.4524L142.413 31.6088L151.807 28.5757ZM139.234 37.8242L146.826 61.2798L117.455 70.7642C114.758 65.5885 109.344 62.0261 103.128 62.0261C94.2438 62.0261 87.0002 69.2893 87.0002 78.1686C87.0002 78.9726 87.0782 79.7548 87.1929 80.5278L67.0231 87.0463C64.5014 79.2269 61.9751 71.409 59.4503 63.5907L139.234 37.8242ZM103.128 66.9609C109.347 66.9609 114.343 71.9536 114.343 78.1686C114.343 84.3835 109.347 89.3572 103.128 89.3572C96.9097 89.3572 91.9331 84.3835 91.9331 78.1686C91.9331 71.9536 96.9097 66.9609 103.128 66.9609ZM56.2614 69.8012L60.8137 83.8785L42.036 89.9446L37.4837 75.8722L56.2614 69.8012ZM103.128 70.6536C99.0114 70.6536 95.628 74.0543 95.628 78.1689C95.628 82.2834 99.0114 85.6651 103.128 85.6651C107.245 85.6651 110.629 82.2834 110.629 78.1689C110.629 74.0543 107.245 70.6536 103.128 70.6536ZM31.2743 72.695C34.0417 81.2498 36.3743 88.4625 38.8615 96.1554L34.1646 97.6717L26.5775 74.2112L31.2743 72.695ZM103.128 75.5836C104.579 75.5836 105.696 76.7187 105.696 78.1689C105.696 79.6191 104.579 80.7351 103.128 80.7351C101.677 80.7351 100.561 79.6191 100.561 78.1689C100.561 76.7187 101.677 75.5836 103.128 75.5836ZM100.672 104.812V129.009H91.3599L100.672 104.812ZM105.604 105.332L114.786 129.009H105.604V105.332Z" fill="#82A0CE"/>
</svg>
