<svg width="200" height="200" viewBox="0 0 200 200" fill="none" xmlns="http://www.w3.org/2000/svg">
<path d="M109.392 50.4347C108.769 50.4347 108.172 50.6821 107.731 51.1224C107.291 51.5627 107.044 52.1599 107.044 52.7825C107.044 53.4052 107.291 54.0024 107.731 54.4427C108.172 54.883 108.769 55.1304 109.392 55.1304H128.174C128.483 55.1305 128.788 55.0699 129.073 54.952C129.358 54.8341 129.617 54.6612 129.835 54.4431C130.053 54.225 130.226 53.9662 130.344 53.6812C130.462 53.3963 130.522 53.0909 130.522 52.7825V33.9999C130.522 33.6916 130.462 33.3862 130.344 33.1012C130.226 32.8163 130.053 32.5574 129.835 32.3394C129.617 32.1213 129.358 31.9484 129.073 31.8305C128.788 31.7125 128.483 31.6519 128.174 31.6521H71.8263C71.518 31.6519 71.2126 31.7125 70.9277 31.8305C70.6427 31.9484 70.3838 32.1213 70.1658 32.3394C69.9477 32.5574 69.7748 32.8163 69.6569 33.1012C69.5389 33.3862 69.4783 33.6916 69.4785 33.9999V52.7825C69.4783 53.0909 69.5389 53.3963 69.6569 53.6812C69.7748 53.9662 69.9477 54.225 70.1658 54.4431C70.3838 54.6612 70.6427 54.8341 70.9277 54.952C71.2126 55.0699 71.518 55.1305 71.8263 55.1304H90.6089C91.2316 55.1304 91.8288 54.883 92.2691 54.4427C92.7094 54.0024 92.9568 53.4052 92.9568 52.7825C92.9568 52.1599 92.7094 51.5627 92.2691 51.1224C91.8288 50.6821 91.2316 50.4347 90.6089 50.4347H74.1742V36.3478H125.826V50.4347H109.392Z" fill="#82A0CE"/>
<path d="M67.1304 144.348H48.3478C48.0395 144.348 47.7341 144.408 47.4491 144.526C47.1642 144.644 46.9053 144.817 46.6873 145.035C46.4692 145.253 46.2963 145.512 46.1784 145.797C46.0604 146.082 45.9998 146.387 46 146.696V165.478C45.9998 165.787 46.0604 166.092 46.1784 166.377C46.2963 166.662 46.4692 166.921 46.6873 167.139C46.9053 167.357 47.1642 167.53 47.4491 167.648C47.7341 167.766 48.0395 167.826 48.3478 167.826H67.1304C67.4388 167.826 67.7442 167.766 68.0291 167.648C68.3141 167.53 68.5729 167.357 68.791 167.139C69.0091 166.921 69.182 166.662 69.2999 166.377C69.4178 166.092 69.4784 165.787 69.4783 165.478V146.696C69.4784 146.387 69.4178 146.082 69.2999 145.797C69.182 145.512 69.0091 145.253 68.791 145.035C68.5729 144.817 68.3141 144.644 68.0291 144.526C67.7442 144.408 67.4388 144.348 67.1304 144.348ZM64.7826 163.131H50.6957V149.044H64.7826V163.131Z" fill="#F29453"/>
<path d="M151.652 144.348H132.869C132.561 144.348 132.256 144.408 131.971 144.526C131.686 144.644 131.427 144.817 131.209 145.035C130.991 145.253 130.818 145.512 130.7 145.797C130.582 146.082 130.521 146.387 130.521 146.696V165.478C130.521 165.787 130.582 166.092 130.7 166.377C130.818 166.662 130.991 166.921 131.209 167.139C131.427 167.357 131.686 167.53 131.971 167.648C132.256 167.766 132.561 167.826 132.869 167.826H151.652C151.96 167.826 152.266 167.766 152.551 167.648C152.836 167.53 153.094 167.357 153.312 167.139C153.531 166.921 153.703 166.662 153.821 166.377C153.939 166.092 154 165.787 154 165.478V146.696C154 146.387 153.939 146.082 153.821 145.797C153.703 145.512 153.531 145.253 153.312 145.035C153.094 144.817 152.836 144.644 152.551 144.526C152.266 144.408 151.96 144.348 151.652 144.348ZM149.304 163.131H135.217V149.044H149.304V163.131Z" fill="#F29453"/>
<path d="M100.001 144.348C97.6791 144.348 95.4094 145.036 93.4789 146.326C91.5485 147.616 90.0438 149.45 89.1553 151.595C88.2668 153.74 88.0343 156.1 88.4873 158.377C88.9402 160.654 90.0583 162.746 91.7 164.388C93.3418 166.03 95.4335 167.148 97.7107 167.601C99.9878 168.054 102.348 167.821 104.493 166.933C106.638 166.044 108.472 164.539 109.762 162.609C111.051 160.678 111.74 158.409 111.74 156.087C111.737 152.975 110.499 149.991 108.298 147.79C106.097 145.589 103.113 144.351 100.001 144.348ZM100.001 163.131C98.6078 163.131 97.246 162.717 96.0877 161.943C94.9294 161.17 94.0266 160.069 93.4935 158.782C92.9604 157.495 92.8209 156.079 93.0927 154.713C93.3645 153.347 94.0353 152.092 95.0204 151.107C96.0054 150.121 97.2604 149.451 98.6267 149.179C99.993 148.907 101.409 149.047 102.696 149.58C103.983 150.113 105.083 151.016 105.857 152.174C106.631 153.332 107.044 154.694 107.044 156.087C107.042 157.954 106.3 159.745 104.979 161.065C103.659 162.386 101.868 163.128 100.001 163.131Z" fill="#F29453"/>
<path d="M55.3916 132.609V137.304C55.3916 137.927 55.639 138.524 56.0793 138.964C56.5196 139.405 57.1167 139.652 57.7394 139.652C58.3621 139.652 58.9593 139.405 59.3996 138.964C59.8399 138.524 60.0873 137.927 60.0873 137.304V134.956H97.6525V137.304C97.6525 137.927 97.8998 138.524 98.3401 138.964C98.7804 139.405 99.3776 139.652 100 139.652C100.623 139.652 101.22 139.405 101.66 138.964C102.101 138.524 102.348 137.927 102.348 137.304V134.956H139.913V137.304C139.913 137.927 140.161 138.524 140.601 138.964C141.041 139.405 141.638 139.652 142.261 139.652C142.884 139.652 143.481 139.405 143.921 138.964C144.362 138.524 144.609 137.927 144.609 137.304V132.609C144.609 132.3 144.549 131.995 144.431 131.71C144.313 131.425 144.14 131.166 143.922 130.948C143.704 130.73 143.445 130.557 143.16 130.439C142.875 130.321 142.57 130.261 142.261 130.261H102.348V119.494L125.139 96.7032C125.357 96.4852 125.53 96.2265 125.648 95.9416C125.766 95.6568 125.826 95.3516 125.826 95.0433C125.826 94.735 125.766 94.4297 125.648 94.1449C125.53 93.8601 125.357 93.6013 125.139 93.3834L102.348 70.5931V62.1738C102.348 61.5511 102.101 60.9539 101.66 60.5136C101.22 60.0733 100.623 59.8259 100 59.8259C99.3776 59.8259 98.7804 60.0733 98.3401 60.5136C97.8998 60.9539 97.6525 61.5511 97.6525 62.1738V70.5931L74.862 93.3835C74.644 93.6014 74.471 93.8602 74.353 94.145C74.235 94.4298 74.1743 94.7351 74.1743 95.0434C74.1743 95.3517 74.235 95.6569 74.353 95.9417C74.471 96.2265 74.644 96.4853 74.862 96.7033L97.6525 119.494V130.261H57.7394C57.4311 130.261 57.1257 130.321 56.8407 130.439C56.5558 130.557 56.2969 130.73 56.0789 130.948C55.8608 131.166 55.6879 131.425 55.57 131.71C55.452 131.995 55.3914 132.3 55.3916 132.609ZM100 74.8849L120.159 95.0433L100 115.202L79.8419 95.0433L100 74.8849Z" fill="#82A0CE"/>
<path d="M100 55.1302C101.297 55.1302 102.348 54.0791 102.348 52.7824C102.348 51.4857 101.297 50.4346 100 50.4346C98.7035 50.4346 97.6523 51.4857 97.6523 52.7824C97.6523 54.0791 98.7035 55.1302 100 55.1302Z" fill="#82A0CE"/>
</svg>
