<svg width="80" height="80" viewBox="0 0 80 80" fill="none" xmlns="http://www.w3.org/2000/svg">
<path d="M62.4142 41.4142C63.1953 40.6332 63.1953 39.3668 62.4142 38.5858L49.6863 25.8579C48.9052 25.0768 47.6389 25.0768 46.8579 25.8579C46.0768 26.6389 46.0768 27.9052 46.8579 28.6863L58.1716 40L46.8579 51.3137C46.0768 52.0948 46.0768 53.3611 46.8579 54.1421C47.6389 54.9232 48.9052 54.9232 49.6863 54.1421L62.4142 41.4142ZM13 42H61V38H13V42Z" fill="black"/>
<path d="M13 62.4C13 65.48 15.52 68 18.6 68H63.4C66.48 68 69 65.48 69 62.4V17.6C69 14.52 66.48 12 63.4 12H18.6C15.52 12 13 14.52 13 17.6" stroke="black" stroke-width="4" stroke-linejoin="round"/>
</svg>
