<svg width="80" height="80" viewBox="0 0 80 80" fill="none" xmlns="http://www.w3.org/2000/svg">
<path d="M60.152 19.5049C54.6581 14.0512 47.2398 10.9946 39.5109 11H39.199C32.2643 11.068 25.5754 13.5859 20.3078 18.1112C15.0403 22.6365 11.5311 28.8796 10.397 35.7432C9.26293 42.6069 10.5765 49.652 14.107 55.6403C17.6374 61.6286 23.1588 66.177 29.7007 68.4861C31.0688 68.968 32.5321 69.1138 33.968 68.9115C35.4039 68.7092 36.7705 68.1646 37.9534 67.3234C39.1363 66.4821 40.1009 65.3687 40.7666 64.0764C41.4322 62.7841 41.7795 61.3505 41.7792 59.8959V58.7866C41.7792 57.5796 42.2571 56.422 43.1079 55.5685C43.9586 54.715 45.1125 54.2355 46.3157 54.2355H59.4148C61.4752 54.251 63.4783 53.5558 65.0887 52.2665C66.6991 50.9771 67.8191 49.1718 68.261 47.1528C68.7765 44.9148 69.024 42.623 68.9982 40.3262C68.9752 36.4402 68.1812 32.5978 66.6624 29.023C65.1436 25.4482 62.9304 22.2125 60.152 19.5049ZM28.4532 50.9359C27.8702 51.2729 27.2008 51.4289 26.5295 51.3843C25.8582 51.3396 25.2152 51.0963 24.6817 50.6851C24.1482 50.2739 23.7482 49.7133 23.5322 49.0741C23.3163 48.4349 23.2941 47.7458 23.4684 47.0939C23.6427 46.442 24.0058 45.8566 24.5117 45.4117C25.0176 44.9668 25.6436 44.6823 26.3106 44.5943C26.9776 44.5062 27.6557 44.6185 28.2591 44.9169C28.8625 45.2154 29.3642 45.6866 29.7007 46.271C29.9244 46.6595 30.0695 47.0883 30.1279 47.533C30.1862 47.9778 30.1566 48.4297 30.0407 48.8629C29.9249 49.2961 29.725 49.7022 29.4526 50.0579C29.1802 50.4136 28.8406 50.712 28.4532 50.9359ZM29.7007 34.8933C29.3642 35.4777 28.8625 35.9489 28.2591 36.2474C27.6557 36.5459 26.9776 36.6581 26.3106 36.5701C25.6436 36.482 25.0176 36.1975 24.5117 35.7526C24.0058 35.3077 23.6427 34.7223 23.4684 34.0704C23.2941 33.4185 23.3163 32.7295 23.5322 32.0902C23.7482 31.451 24.1482 30.8904 24.6817 30.4792C25.2152 30.068 25.8582 29.8247 26.5295 29.7801C27.2008 29.7354 27.8702 29.8915 28.4532 30.2284C29.2299 30.686 29.7961 31.4317 30.0295 32.3045C30.2629 33.1772 30.1448 34.1071 29.7007 34.8933ZM39.5109 29.2044C38.838 29.2044 38.1802 29.0042 37.6206 28.6292C37.0611 28.2541 36.625 27.721 36.3675 27.0973C36.11 26.4736 36.0426 25.7873 36.1739 25.1252C36.3052 24.4631 36.6292 23.8549 37.1051 23.3775C37.5809 22.9001 38.1871 22.5751 38.8471 22.4433C39.5071 22.3116 40.1912 22.3792 40.8129 22.6376C41.4346 22.8959 41.966 23.3334 42.3399 23.8947C42.7137 24.4561 42.9133 25.116 42.9133 25.7911C42.9133 26.6964 42.5548 27.5646 41.9167 28.2047C41.2787 28.8448 40.4133 29.2044 39.5109 29.2044ZM53.971 36.1448C53.3881 36.4818 52.7187 36.6378 52.0474 36.5932C51.3761 36.5485 50.733 36.3052 50.1995 35.8941C49.666 35.4829 49.266 34.9222 49.0501 34.283C48.8341 33.6438 48.8119 32.9547 48.9862 32.3028C49.1606 31.651 49.5236 31.0656 50.0295 30.6206C50.5354 30.1757 51.1614 29.8912 51.8284 29.8032C52.4955 29.7151 53.1735 29.8274 53.7769 30.1259C54.3803 30.4243 54.882 30.8955 55.2185 31.48C55.6627 32.2661 55.7808 33.196 55.5473 34.0688C55.3139 34.9416 54.7477 35.6873 53.971 36.1448Z" stroke="black" stroke-width="4" stroke-linejoin="round"/>
</svg>
