<svg width="1200" height="400" viewBox="0 0 1200 400" fill="none" xmlns="http://www.w3.org/2000/svg">
<rect x="600" width="600" height="400" rx="4" fill="#5D2E59"/>
<path fill-rule="evenodd" clip-rule="evenodd" d="M737.874 139.078C714.12 164.313 713.05 206.62 737.52 241.449C753.368 264.007 766.796 275.951 778.751 281.387C790.07 286.533 801.32 286.403 814.772 281.691C828.762 276.791 844.366 267.192 863.523 254.016C869.668 249.789 876.182 245.192 883.06 240.338C897.121 230.415 912.704 219.419 929.766 208.318C933.243 206.056 936.683 203.934 940.09 201.948C940.277 201.832 940.468 201.72 940.663 201.615C958.907 191.046 976.126 184.37 992.092 180.967C985.406 177.759 978.709 174.531 972.086 171.336C968.97 169.833 965.868 168.337 962.792 166.855C936.864 154.367 912.744 142.883 894.58 135.446C811.095 101.268 761.165 114.335 737.874 139.078ZM1049.39 183.56C1028.4 174.15 1005.07 162.9 982.225 151.882C979.11 150.38 976.001 148.881 972.91 147.392C947.133 134.976 922.358 123.168 903.429 115.419C816.064 79.6513 753.883 89.6565 721.118 124.465C688.817 158.78 689.887 212.503 718.789 253.641C735.537 277.478 751.755 293.183 769.094 301.067C787.071 309.239 804.764 308.357 822.503 302.145C839.704 296.118 857.54 284.881 876.669 271.724C883.234 267.208 889.959 262.461 896.948 257.528C910.803 247.747 925.696 237.235 942.427 226.349C944.939 224.716 947.414 223.171 949.856 221.71C964.628 220.738 979.584 224.991 994.435 232.246C1010.12 239.908 1024.79 250.464 1038.06 260.359C1039.36 261.327 1040.65 262.293 1041.93 263.252C1047.07 267.094 1052.03 270.81 1056.57 273.965C1062.13 277.835 1067.87 281.468 1073.28 283.6C1078.35 285.596 1086.49 287.569 1093.85 282.738C1100.67 278.264 1102.79 270.439 1103.57 263.882C1106.92 235.591 1090.68 203.526 1059.49 187.86C1056.26 186.235 1052.89 184.797 1049.39 183.56ZM985.838 205.138C992.367 207.263 998.66 209.904 1004.67 212.839C1022.46 221.53 1038.63 233.251 1051.91 243.152C1053.3 244.192 1054.66 245.206 1055.98 246.194C1061.07 250.007 1065.63 253.418 1069.82 256.33C1074.58 259.644 1078.19 261.831 1080.86 263.04C1080.95 262.577 1081.03 262.039 1081.1 261.418C1083.37 242.234 1072.08 218.732 1049.03 207.154C1034 199.607 1012.81 196.675 985.838 205.138ZM1083.61 263.992C1083.61 263.992 1083.57 263.993 1083.48 263.976C1083.56 263.98 1083.61 263.992 1083.61 263.992Z" fill="url(#paint0_linear_218_2)"/>
<path fill-rule="evenodd" clip-rule="evenodd" d="M137.874 139.078C114.12 164.313 113.05 206.62 137.52 241.449C153.368 264.007 166.796 275.951 178.751 281.387C190.07 286.533 201.32 286.403 214.772 281.691C228.762 276.791 244.366 267.192 263.523 254.016C269.668 249.789 276.182 245.192 283.06 240.338C297.121 230.415 312.704 219.419 329.766 208.318C333.243 206.056 336.683 203.934 340.09 201.948C340.277 201.832 340.468 201.72 340.663 201.615C358.907 191.046 376.126 184.37 392.092 180.967C385.406 177.759 378.709 174.531 372.086 171.336C368.97 169.833 365.868 168.337 362.792 166.855C336.864 154.367 312.744 142.883 294.58 135.446C211.095 101.268 161.165 114.335 137.874 139.078ZM449.391 183.56C428.399 174.15 405.072 162.9 382.225 151.882C379.11 150.38 376.001 148.881 372.91 147.392C347.133 134.976 322.358 123.168 303.429 115.419C216.064 79.6513 153.883 89.6565 121.118 124.465C88.817 158.78 89.8871 212.503 118.789 253.641C135.537 277.478 151.755 293.183 169.094 301.067C187.071 309.239 204.764 308.357 222.503 302.145C239.704 296.118 257.54 284.881 276.669 271.724C283.234 267.208 289.959 262.461 296.948 257.528C310.803 247.747 325.696 237.235 342.427 226.349C344.939 224.716 347.414 223.171 349.856 221.71C364.628 220.738 379.584 224.991 394.435 232.246C410.117 239.908 424.79 250.464 438.064 260.359C439.36 261.327 440.653 262.293 441.932 263.252C447.068 267.094 452.034 270.81 456.566 273.965C462.125 277.835 467.869 281.468 473.284 283.6C478.353 285.596 486.491 287.569 493.854 282.738C500.671 278.264 502.792 270.439 503.568 263.882C506.916 235.591 490.676 203.526 459.49 187.86C456.255 186.235 452.888 184.797 449.391 183.56ZM385.838 205.138C392.367 207.263 398.66 209.904 404.669 212.839C422.459 221.53 438.628 233.251 451.908 243.152C453.303 244.192 454.659 245.206 455.978 246.194C461.074 250.007 465.635 253.418 469.816 256.33C474.578 259.644 478.189 261.831 480.864 263.04C480.948 262.577 481.028 262.039 481.101 261.418C483.373 242.234 472.076 218.732 449.028 207.154C434.004 199.607 412.811 196.675 385.838 205.138ZM483.61 263.992C483.61 263.992 483.57 263.993 483.476 263.976C483.562 263.98 483.61 263.992 483.61 263.992Z" fill="url(#paint1_linear_218_2)"/>
<defs>
<linearGradient id="paint0_linear_218_2" x1="794.981" y1="118.377" x2="964.11" y2="278.972" gradientUnits="userSpaceOnUse">
<stop stop-color="#FF9E67"/>
<stop offset="0.525" stop-color="#A566AF"/>
<stop offset="1" stop-color="#F636B5"/>
</linearGradient>
<linearGradient id="paint1_linear_218_2" x1="194.981" y1="118.377" x2="364.11" y2="278.972" gradientUnits="userSpaceOnUse">
<stop stop-color="#FF9E67"/>
<stop offset="0.525" stop-color="#A566AF"/>
<stop offset="1" stop-color="#F636B5"/>
</linearGradient>
</defs>
</svg>
