<svg width="1200" height="140" viewBox="0 0 1200 140" fill="none" xmlns="http://www.w3.org/2000/svg">
<g clip-path="url(#clip0_218_57)">
<rect y="38" width="1200" height="1" fill="#D9D9D9" fill-opacity="0.2"/>
<rect y="101" width="1200" height="1" fill="#D9D9D9" fill-opacity="0.2"/>
<rect x="928" width="1" height="140" fill="#D9D9D9" fill-opacity="0.2"/>
<rect x="1048" width="1" height="140" fill="#D9D9D9" fill-opacity="0.2"/>
<rect x="688" width="1" height="140" fill="#D9D9D9" fill-opacity="0.2"/>
<rect x="808" width="1" height="140" fill="#D9D9D9" fill-opacity="0.2"/>
<rect x="568" width="1" height="140" fill="#D9D9D9" fill-opacity="0.2"/>
<rect x="448" width="1" height="140" fill="#D9D9D9" fill-opacity="0.2"/>
<rect x="328" width="1" height="140" fill="#D9D9D9" fill-opacity="0.2"/>
<rect x="208" width="1" height="140" fill="#D9D9D9" fill-opacity="0.2"/>
<rect x="88" width="1" height="140" fill="#D9D9D9" fill-opacity="0.2"/>
<rect x="991" width="1" height="140" fill="#D9D9D9" fill-opacity="0.2"/>
<rect x="1111" width="1" height="140" fill="#D9D9D9" fill-opacity="0.2"/>
<rect x="751" width="1" height="140" fill="#D9D9D9" fill-opacity="0.2"/>
<rect x="871" width="1" height="140" fill="#D9D9D9" fill-opacity="0.2"/>
<rect x="631" width="1" height="140" fill="#D9D9D9" fill-opacity="0.2"/>
<rect x="511" width="1" height="140" fill="#D9D9D9" fill-opacity="0.2"/>
<rect x="391" width="1" height="140" fill="#D9D9D9" fill-opacity="0.2"/>
<rect x="271" width="1" height="140" fill="#D9D9D9" fill-opacity="0.2"/>
<rect x="151" width="1" height="140" fill="#D9D9D9" fill-opacity="0.2"/>
<path d="M121.902 43.382C121.634 42.5579 120.866 42 120 42C119.134 42 118.366 42.5579 118.098 43.382L112.036 62.0385L92.4194 62.0385C91.5529 62.0385 90.785 62.5964 90.5172 63.4205C90.2495 64.2445 90.5428 65.1473 91.2438 65.6565L107.114 77.1869L101.052 95.8435C100.784 96.6675 101.078 97.5702 101.779 98.0795C102.48 98.5888 103.429 98.5888 104.13 98.0795L120 86.5492L135.87 98.0795C136.571 98.5888 137.52 98.5888 138.221 98.0795C138.922 97.5702 139.216 96.6675 138.948 95.8435L132.886 77.1869L148.756 65.6565C149.457 65.1473 149.75 64.2445 149.483 63.4205C149.215 62.5964 148.447 62.0385 147.581 62.0385L127.964 62.0385L121.902 43.382Z" stroke="url(#paint0_linear_218_57)" stroke-width="4" stroke-linejoin="round"/>
<path d="M240.204 99.6341L240.181 99.6339C234.669 99.6339 229.376 97.4139 225.47 93.4531C221.565 89.4931 219.365 84.1169 219.363 78.5049C219.407 72.7072 221.386 67.0988 224.974 62.594C224.983 62.5827 224.992 62.5714 225.001 62.5599C229.76 56.3127 232.446 48.7035 232.681 40.8206C232.692 40.6773 232.736 40.54 232.808 40.4198C232.883 40.2943 232.985 40.1923 233.103 40.1203C233.222 40.0485 233.354 40.0082 233.488 40.0011C233.622 39.9941 233.756 40.0202 233.88 40.0786C233.898 40.0869 233.915 40.0949 233.933 40.1026C238.388 42.0471 242.253 45.1661 245.124 49.1396C247.996 53.1133 249.768 57.7959 250.255 62.7024C250.337 63.5276 250.92 64.2166 251.72 64.4345C252.52 64.6524 253.372 64.3541 253.861 63.6844C254.601 62.6705 255.235 61.5812 255.752 60.4345C255.774 60.3854 255.794 60.3354 255.812 60.2847C255.868 60.1289 255.963 59.9951 256.084 59.8954C256.203 59.797 256.344 59.7352 256.49 59.7133C256.638 59.6936 256.788 59.7145 256.926 59.7751C257.066 59.8364 257.191 59.937 257.284 60.0695C257.313 60.1103 257.343 60.15 257.375 60.1886C257.372 60.1848 257.373 60.1871 257.379 60.1958C257.418 60.2511 257.633 60.5617 257.949 61.1928C258.3 61.8961 258.756 62.9583 259.208 64.4267C260.111 67.3614 260.999 71.9264 260.999 78.4977L260.999 78.5203C261.03 81.3057 260.512 84.0687 259.476 86.6468C258.44 89.2249 256.907 91.5652 254.968 93.5309C253.029 95.4965 250.725 97.0479 248.189 98.0954C245.654 99.1429 242.94 99.6658 240.204 99.6341Z" stroke="url(#paint1_linear_218_57)" stroke-width="4" stroke-linejoin="round"/>
<path d="M337.6 100H382.4C386.585 100 390 96.5846 390 92.4V47.6C390 43.4154 386.585 40 382.4 40H337.6C333.415 40 330 43.4154 330 47.6V92.4C330 96.5846 333.415 100 337.6 100Z" stroke="url(#paint2_linear_218_57)" stroke-width="4" stroke-linejoin="round"/>
<path fill-rule="evenodd" clip-rule="evenodd" d="M362 53.5294C362 52.4248 361.105 51.5294 360 51.5294C358.895 51.5294 358 52.4248 358 53.5294V68H343.529C342.425 68 341.529 68.8954 341.529 70C341.529 71.1046 342.425 72 343.529 72H358V86.4706C358 87.5752 358.895 88.4706 360 88.4706C361.105 88.4706 362 87.5752 362 86.4706V72H376.471C377.575 72 378.471 71.1046 378.471 70C378.471 68.8954 377.575 68 376.471 68H362V53.5294Z" fill="url(#paint3_linear_218_57)"/>
<path d="M817.6 100H862.4C866.585 100 870 96.5846 870 92.4V47.6C870 43.4154 866.585 40 862.4 40H817.6C813.415 40 810 43.4154 810 47.6V92.4C810 96.5846 813.415 100 817.6 100Z" stroke="url(#paint4_linear_218_57)" stroke-width="4" stroke-linejoin="round"/>
<path d="M455.74 59.1138C455.272 59.4935 455 60.064 455 60.6667V98C455 99.1046 455.895 100 457 100H503C504.105 100 505 99.1046 505 98V60.6667C505 60.064 504.728 59.4935 504.26 59.1138L481.26 40.4471C480.526 39.851 479.474 39.851 478.74 40.4471L455.74 59.1138Z" stroke="url(#paint5_linear_218_57)" stroke-width="4" stroke-linejoin="round"/>
<mask id="path-27-inside-1_218_57" fill="white">
<path fill-rule="evenodd" clip-rule="evenodd" d="M572 38C569.791 38 568 39.7909 568 42V52.7879C568 54.997 569.791 56.7879 572 56.7879H582.788C584.997 56.7879 586.788 54.997 586.788 52.7879V42C586.788 39.7909 584.997 38 582.788 38H572ZM600.061 43.6364C597.985 43.6364 596.303 45.3187 596.303 47.3939C596.303 49.4692 597.985 51.1515 600.061 51.1515H628.242C630.318 51.1515 632 49.4692 632 47.3939C632 45.3187 630.318 43.6364 628.242 43.6364H600.061ZM572 60.5455C569.791 60.5455 568 62.3364 568 64.5455V75.3334C568 77.5425 569.791 79.3334 572 79.3334H582.788C584.997 79.3334 586.788 77.5425 586.788 75.3334V64.5455C586.788 62.3364 584.997 60.5455 582.788 60.5455H572ZM600.061 66.1819C597.985 66.1819 596.303 67.8642 596.303 69.9394C596.303 72.0147 597.985 73.697 600.061 73.697H628.242C630.318 73.697 632 72.0147 632 69.9394C632 67.8642 630.318 66.1819 628.242 66.1819H600.061ZM568 87.0909C568 84.8817 569.791 83.0909 572 83.0909H582.788C584.997 83.0909 586.788 84.8817 586.788 87.0909V97.8788C586.788 100.088 584.997 101.879 582.788 101.879H572C569.791 101.879 568 100.088 568 97.8788V87.0909ZM596.303 92.4849C596.303 90.4097 597.985 88.7273 600.061 88.7273H628.242C630.318 88.7273 632 90.4097 632 92.4849C632 94.5602 630.318 96.2425 628.242 96.2425H600.061C597.985 96.2425 596.303 94.5602 596.303 92.4849Z"/>
</mask>
<path d="M572 42V42V34C567.582 34 564 37.5817 564 42H572ZM572 52.7879V42H564V52.7879H572ZM572 52.7879H572H564C564 57.2062 567.582 60.7879 572 60.7879V52.7879ZM582.788 52.7879H572V60.7879H582.788V52.7879ZM582.788 52.7879V52.7879V60.7879C587.206 60.7879 590.788 57.2062 590.788 52.7879H582.788ZM582.788 42V52.7879H590.788V42H582.788ZM582.788 42H582.788H590.788C590.788 37.5817 587.206 34 582.788 34V42ZM572 42H582.788V34H572V42ZM600.303 47.3939C600.303 47.5278 600.194 47.6364 600.061 47.6364V39.6364C595.776 39.6364 592.303 43.1095 592.303 47.3939H600.303ZM600.061 47.1515C600.194 47.1515 600.303 47.26 600.303 47.3939H592.303C592.303 51.6783 595.776 55.1515 600.061 55.1515V47.1515ZM628.242 47.1515H600.061V55.1515H628.242V47.1515ZM628 47.3939C628 47.26 628.108 47.1515 628.242 47.1515V55.1515C632.527 55.1515 636 51.6783 636 47.3939H628ZM628.242 47.6364C628.108 47.6364 628 47.5278 628 47.3939H636C636 43.1095 632.527 39.6364 628.242 39.6364V47.6364ZM600.061 47.6364H628.242V39.6364H600.061V47.6364ZM572 64.5455V64.5455V56.5455C567.582 56.5455 564 60.1272 564 64.5455H572ZM572 75.3334V64.5455H564V75.3334H572ZM572 75.3334H572H564C564 79.7517 567.582 83.3334 572 83.3334V75.3334ZM582.788 75.3334H572V83.3334H582.788V75.3334ZM582.788 75.3334V83.3334C587.206 83.3334 590.788 79.7517 590.788 75.3334H582.788ZM582.788 64.5455V75.3334H590.788V64.5455H582.788ZM582.788 64.5455H582.788H590.788C590.788 60.1272 587.206 56.5455 582.788 56.5455V64.5455ZM572 64.5455H582.788V56.5455H572V64.5455ZM600.303 69.9394C600.303 70.0733 600.194 70.1819 600.061 70.1819V62.1819C595.776 62.1819 592.303 65.655 592.303 69.9394H600.303ZM600.061 69.697C600.194 69.697 600.303 69.8055 600.303 69.9394H592.303C592.303 74.2238 595.776 77.697 600.061 77.697V69.697ZM628.242 69.697H600.061V77.697H628.242V69.697ZM628 69.9394C628 69.8055 628.108 69.697 628.242 69.697V77.697C632.527 77.697 636 74.2238 636 69.9394H628ZM628.242 70.1819C628.108 70.1819 628 70.0733 628 69.9394H636C636 65.655 632.527 62.1819 628.242 62.1819V70.1819ZM600.061 70.1819H628.242V62.1819H600.061V70.1819ZM572 79.0909C567.582 79.0909 564 82.6726 564 87.0909H572V87.0909V79.0909ZM582.788 79.0909H572V87.0909H582.788V79.0909ZM590.788 87.0909C590.788 82.6726 587.206 79.0909 582.788 79.0909V87.0909H582.788H590.788ZM590.788 97.8788V87.0909H582.788V97.8788H590.788ZM582.788 105.879C587.206 105.879 590.788 102.297 590.788 97.8788H582.788V105.879ZM572 105.879H582.788V97.8788H572V105.879ZM564 97.8788C564 102.297 567.582 105.879 572 105.879V97.8788H572H564ZM564 87.0909V97.8788H572V87.0909H564ZM600.061 84.7273C595.776 84.7273 592.303 88.2005 592.303 92.4849H600.303C600.303 92.6188 600.194 92.7273 600.061 92.7273V84.7273ZM628.242 84.7273H600.061V92.7273H628.242V84.7273ZM636 92.4849C636 88.2005 632.527 84.7273 628.242 84.7273V92.7273C628.108 92.7273 628 92.6188 628 92.4849H636ZM628.242 100.243C632.527 100.243 636 96.7693 636 92.4849H628C628 92.351 628.108 92.2425 628.242 92.2425V100.243ZM600.061 100.243H628.242V92.2425H600.061V100.243ZM592.303 92.4849C592.303 96.7693 595.776 100.243 600.061 100.243V92.2425C600.194 92.2425 600.303 92.351 600.303 92.4849H592.303Z" fill="url(#paint6_linear_218_57)" mask="url(#path-27-inside-1_218_57)"/>
<mask id="path-29-inside-2_218_57" fill="white">
<path fill-rule="evenodd" clip-rule="evenodd" d="M728.267 38C726.058 38 724.267 39.7909 724.267 42V61.7333C724.267 63.9425 726.058 65.7333 728.267 65.7333H748C750.209 65.7333 752 63.9425 752 61.7333V42C752 39.7909 750.209 38 748 38H728.267ZM728.267 74.2667C726.058 74.2667 724.267 76.0576 724.267 78.2667V98.0001C724.267 100.209 726.058 102 728.267 102H748C750.209 102 752 100.209 752 98.0001V78.2667C752 76.0576 750.209 74.2667 748 74.2667H728.267ZM688 78.2667C688 76.0576 689.791 74.2667 692 74.2667H711.733C713.942 74.2667 715.733 76.0576 715.733 78.2667V98.0001C715.733 100.209 713.942 102 711.733 102H692C689.791 102 688 100.209 688 98.0001V78.2667ZM692 38C689.791 38 688 39.7909 688 42V61.7333C688 63.9425 689.791 65.7333 692 65.7333H711.733C713.942 65.7333 715.733 63.9425 715.733 61.7333V42C715.733 39.7909 713.942 38 711.733 38H692Z"/>
</mask>
<path d="M728.267 42V42V34C723.848 34 720.267 37.5817 720.267 42H728.267ZM728.267 61.7333V42H720.267V61.7333H728.267ZM728.267 61.7333H720.267C720.267 66.1516 723.848 69.7333 728.267 69.7333V61.7333ZM748 61.7333H728.267V69.7333H748V61.7333ZM748 61.7333L748 61.7333V69.7333C752.418 69.7333 756 66.1516 756 61.7333H748ZM748 42V61.7333H756V42H748ZM748 42H756C756 37.5817 752.418 34 748 34V42ZM728.267 42H748V34H728.267V42ZM728.267 78.2667V70.2667C723.848 70.2667 720.267 73.8485 720.267 78.2667H728.267ZM728.267 98.0001V78.2667H720.267V98.0001H728.267ZM728.267 98.0001V98.0001H720.267C720.267 102.418 723.848 106 728.267 106V98.0001ZM748 98.0001H728.267V106H748V98.0001ZM748 98.0001H748V106C752.418 106 756 102.418 756 98.0001H748ZM748 78.2667V98.0001H756V78.2667H748ZM748 78.2667H756C756 73.8485 752.418 70.2667 748 70.2667V78.2667ZM728.267 78.2667H748V70.2667H728.267V78.2667ZM692 70.2667C687.582 70.2667 684 73.8485 684 78.2667H692V70.2667ZM711.733 70.2667H692V78.2667H711.733V70.2667ZM719.733 78.2667C719.733 73.8485 716.152 70.2667 711.733 70.2667V78.2667H711.733H719.733ZM719.733 98.0001V78.2667H711.733V98.0001H719.733ZM711.733 106C716.152 106 719.733 102.418 719.733 98.0001H711.733V106ZM692 106H711.733V98.0001H692V106ZM684 98.0001C684 102.418 687.582 106 692 106V98.0001L692 98.0001H684ZM684 78.2667V98.0001H692V78.2667H684ZM692 42V42V34C687.582 34 684 37.5817 684 42H692ZM692 61.7333V42H684V61.7333H692ZM692 61.7333H692H684C684 66.1516 687.582 69.7333 692 69.7333V61.7333ZM711.733 61.7333H692V69.7333H711.733V61.7333ZM711.733 61.7333V61.7333V69.7333C716.152 69.7333 719.733 66.1516 719.733 61.7333H711.733ZM711.733 42V61.7333H719.733V42H711.733ZM711.733 42H711.733H719.733C719.733 37.5817 716.152 34 711.733 34V42ZM692 42H711.733V34H692V42Z" fill="url(#paint7_linear_218_57)" mask="url(#path-29-inside-2_218_57)"/>
<path d="M930.579 84.32C930.208 84.6946 930 85.2005 930 85.7278V97.55C930 98.6546 930.895 99.55 932 99.55H943.822C944.356 99.55 944.867 99.3368 945.243 98.9579L979.465 64.4245C980.24 63.6425 980.237 62.3811 979.459 61.6025L967.636 49.7803C967.26 49.4041 966.75 49.1933 966.218 49.1945C965.686 49.1957 965.176 49.4088 964.802 49.7867L930.579 84.32ZM968.541 46.6692C968.166 47.0442 967.956 47.5529 967.956 48.0834C967.956 48.6138 968.166 49.1225 968.541 49.4976L980.364 61.3198C980.752 61.7085 981.284 61.9201 981.833 61.9048C982.383 61.8896 982.902 61.6488 983.268 61.2392L988.524 55.3649C990.506 53.3382 990.492 50.2357 988.481 48.2247L981.325 41.0692C979.3 39.0437 976.167 39.0437 974.141 41.0692L968.541 46.6692Z" stroke="url(#paint8_linear_218_57)" stroke-width="4" stroke-linejoin="round"/>
<path d="M1102.22 51.2H1093.11V50.4C1093.11 47.6469 1092.03 45.0033 1090.09 43.0517C1088.15 41.0996 1085.52 40 1082.78 40H1077.22C1074.48 40 1071.85 41.0996 1069.91 43.0517C1067.97 45.0033 1066.89 47.6469 1066.89 50.4V51.2H1057.78C1056.51 51.2 1055.29 51.7096 1054.39 52.6115C1053.5 53.5129 1053 54.7321 1053 56C1053 57.2679 1053.5 58.4871 1054.39 59.3885L1055.8 57.9935L1054.39 59.3885C1055.29 60.2904 1056.51 60.8 1057.78 60.8H1058.56V89.6C1058.56 92.3531 1059.64 94.9967 1061.58 96.9483C1063.51 98.9004 1066.14 100 1068.89 100H1091.11C1093.86 100 1096.49 98.9004 1098.42 96.9483C1100.36 94.9967 1101.44 92.3531 1101.44 89.6V60.8H1102.22C1103.49 60.8 1104.71 60.2904 1105.61 59.3885C1106.5 58.4871 1107 57.2679 1107 56C1107 54.7321 1106.5 53.5129 1105.61 52.6115C1104.71 51.7096 1103.49 51.2 1102.22 51.2Z" stroke="url(#paint9_linear_218_57)" stroke-width="4" stroke-linejoin="round"/>
</g>
<defs>
<linearGradient id="paint0_linear_218_57" x1="120" y1="44" x2="120" y2="102" gradientUnits="userSpaceOnUse">
<stop stop-color="#FF9F68"/>
<stop offset="1" stop-color="#F737B6"/>
</linearGradient>
<linearGradient id="paint1_linear_218_57" x1="240.182" y1="38" x2="240.182" y2="101.635" gradientUnits="userSpaceOnUse">
<stop stop-color="#FF9F68"/>
<stop offset="1" stop-color="#F737B6"/>
</linearGradient>
<linearGradient id="paint2_linear_218_57" x1="360" y1="42" x2="360" y2="98" gradientUnits="userSpaceOnUse">
<stop stop-color="#FF9F68"/>
<stop offset="1" stop-color="#F737B6"/>
</linearGradient>
<linearGradient id="paint3_linear_218_57" x1="360" y1="51.5294" x2="360" y2="88.4706" gradientUnits="userSpaceOnUse">
<stop stop-color="#FF9F68"/>
<stop offset="1" stop-color="#F737B6"/>
</linearGradient>
<linearGradient id="paint4_linear_218_57" x1="840" y1="42" x2="840" y2="98" gradientUnits="userSpaceOnUse">
<stop stop-color="#FF9F68"/>
<stop offset="1" stop-color="#F737B6"/>
</linearGradient>
<linearGradient id="paint5_linear_218_57" x1="480" y1="60.6667" x2="480" y2="98" gradientUnits="userSpaceOnUse">
<stop stop-color="#FF9F68"/>
<stop offset="1" stop-color="#F737B6"/>
</linearGradient>
<linearGradient id="paint6_linear_218_57" x1="599" y1="59.2929" x2="599" y2="101.879" gradientUnits="userSpaceOnUse">
<stop stop-color="#FF9F68"/>
<stop offset="1" stop-color="#F737B6"/>
</linearGradient>
<linearGradient id="paint7_linear_218_57" x1="720" y1="59.3333" x2="720" y2="102" gradientUnits="userSpaceOnUse">
<stop stop-color="#FF9F68"/>
<stop offset="1" stop-color="#F737B6"/>
</linearGradient>
<linearGradient id="paint8_linear_218_57" x1="960" y1="60.2167" x2="960" y2="97.55" gradientUnits="userSpaceOnUse">
<stop stop-color="#FF9F68"/>
<stop offset="1" stop-color="#F737B6"/>
</linearGradient>
<linearGradient id="paint9_linear_218_57" x1="1080" y1="60.6667" x2="1080" y2="98" gradientUnits="userSpaceOnUse">
<stop stop-color="#FF9F68"/>
<stop offset="1" stop-color="#F737B6"/>
</linearGradient>
<clipPath id="clip0_218_57">
<rect width="1200" height="140" fill="white"/>
</clipPath>
</defs>
</svg>
