<svg width="80" height="80" viewBox="0 0 80 80" fill="none" xmlns="http://www.w3.org/2000/svg">
<path d="M48.3544 68C49.459 68 50.3544 67.1046 50.3544 66V60.2443C50.3544 59.1397 49.459 58.2443 48.3544 58.2443H45.0741V22.7557H52.2857V26.22C52.2857 27.3246 53.1811 28.22 54.2857 28.22H60C61.1046 28.22 62 27.3246 62 26.22V15C62 13.8954 61.1046 13 60 13H20C18.8954 13 18 13.8954 18 15V26.22C18 27.3246 18.8954 28.22 20 28.22H25.7143C26.8189 28.22 27.7143 27.3246 27.7143 26.22V22.7557H35.0705V58.2443H30.8499C29.7453 58.2443 28.8499 59.1397 28.8499 60.2443V66C28.8499 67.1046 29.7453 68 30.8499 68H48.3544Z" stroke="black" stroke-width="4" stroke-linejoin="round"/>
</svg>
