<svg width="80" height="80" viewBox="0 0 80 80" fill="none" xmlns="http://www.w3.org/2000/svg">
<path d="M49.3838 10.556C49.0115 10.1992 48.5157 10 48 10H24C22.0813 10 20.5348 11.1003 19.5475 12.4825C18.5556 13.8712 18 15.6876 18 17.6V62.4C18 64.3124 18.5556 66.1288 19.5475 67.5175C20.5348 68.8997 22.0813 70 24 70H56C57.9187 70 59.4652 68.8997 60.4525 67.5175C61.4444 66.1288 62 64.3124 62 62.4V23.5C62 22.9548 61.7774 22.4332 61.3838 22.056L49.3838 10.556Z" stroke="black" stroke-width="4" stroke-linejoin="round"/>
<path d="M60 25H46V11" stroke="black" stroke-width="4" stroke-linejoin="round"/>
</svg>
