<svg width="141" height="140" viewBox="0 0 141 140" fill="none" xmlns="http://www.w3.org/2000/svg">
<path d="M70.3072 0C31.4846 0 0 31.2846 0 69.8614C0 108.438 31.4846 139.723 70.3072 139.723C73.5747 139.723 76.7592 139.417 79.8883 138.999C70.1134 130.983 63.8829 118.848 63.8829 105.265C63.8829 81.1061 83.5989 61.5393 107.911 61.5393C120.76 61.5393 132.279 67.0503 140.338 75.7621C140.504 73.8138 140.642 71.8654 140.642 69.8614C140.642 31.2846 109.158 0 70.3072 0Z" fill="white"/>
<path d="M108.008 78.1348C93.0235 78.1348 80.8906 90.0598 80.8906 104.792C80.8906 119.525 93.0235 131.45 108.008 131.45C122.992 131.45 135.125 119.525 135.125 104.792C135.125 90.0598 122.992 78.1348 108.008 78.1348Z" fill="white"/>
</svg>
