<svg width="400" height="400" viewBox="0 0 400 400" fill="none" xmlns="http://www.w3.org/2000/svg">
<mask id="path-1-inside-1_290_72" fill="white">
<path fill-rule="evenodd" clip-rule="evenodd" d="M234.29 64.2298C244.914 66.9046 245.377 81.0195 236.584 87.5537C202.247 113.067 180 153.936 180 200C180 246.064 202.247 286.933 236.584 312.446C245.377 318.98 244.914 333.095 234.29 335.77C223.317 338.533 211.83 340 200 340C122.68 340 60 277.32 60 200C60 122.68 122.68 60 200 60C211.83 60 223.317 61.4673 234.29 64.2298Z"/>
</mask>
<path d="M234.29 335.77L237.952 350.316L234.29 335.77ZM236.584 87.5537L227.637 75.5137L236.584 87.5537ZM195 200C195 158.881 214.838 122.399 245.53 99.5938L227.637 75.5137C189.656 103.735 165 148.99 165 200H195ZM245.53 300.406C214.838 277.601 195 241.119 195 200H165C165 251.01 189.656 296.265 227.637 324.486L245.53 300.406ZM230.627 321.224C220.843 323.688 210.585 325 200 325V355C213.075 355 225.792 353.378 237.952 350.316L230.627 321.224ZM200 325C130.964 325 75 269.036 75 200H45C45 285.604 114.396 355 200 355V325ZM75 200C75 130.964 130.964 75 200 75V45C114.396 45 45 114.396 45 200H75ZM200 75C210.585 75 220.843 76.3124 230.627 78.7759L237.952 49.6837C225.792 46.6222 213.075 45 200 45V75ZM227.637 324.486C227.794 324.603 227.737 324.746 227.759 324.454C227.777 324.214 227.894 323.521 228.523 322.712C229.233 321.798 230.125 321.351 230.627 321.224L237.952 350.316C250.422 347.177 256.929 336.821 257.678 326.657C258.389 317.005 254.167 306.824 245.53 300.406L227.637 324.486ZM245.53 99.5938C254.167 93.1762 258.389 82.995 257.678 73.3426C256.929 63.1789 250.422 52.8234 237.952 49.6837L230.627 78.7759C230.125 78.6493 229.233 78.2016 228.523 77.2883C227.894 76.479 227.777 75.7863 227.759 75.5463C227.737 75.2537 227.794 75.397 227.637 75.5137L245.53 99.5938Z" fill="white" mask="url(#path-1-inside-1_290_72)"/>
</svg>
