<svg width="23" height="23" viewBox="0 0 23 23" fill="none" xmlns="http://www.w3.org/2000/svg">
<path fill-rule="evenodd" clip-rule="evenodd" d="M6.38156 5.12789C7.39549 4.11327 8.65665 3.38998 10.0244 3.02454C10.5487 2.88464 11.0295 3.36546 10.8862 3.89384C10.5826 5.03208 10.584 6.23486 10.8889 7.37312C11.5062 9.67676 13.3243 11.4948 15.6272 12.1122C16.7688 12.4178 17.9735 12.4185 19.1132 12.1142C19.6374 11.9743 20.121 12.4551 19.9729 12.9876C19.7923 13.6599 19.5227 14.3153 19.1648 14.936C17.689 17.4909 14.9915 19 12.1271 19C7.63881 19 4 15.3618 4 10.8735C4 8.79392 4.79322 6.71438 6.38026 5.12722L6.38156 5.12789ZM7.3792 15.6219C10.0027 18.244 14.254 18.244 16.8754 15.6219C17.4425 15.0555 17.8907 14.413 18.218 13.708C15.8051 13.9586 13.3847 13.1281 11.6278 11.3724C9.87225 9.61678 9.04174 7.1963 9.29296 4.78278C8.58803 5.11013 7.94625 5.55903 7.37915 6.12545C4.75775 8.7476 4.75775 12.999 7.37915 15.6211L7.3792 15.6219Z" fill="white"/>
</svg>
