<svg width="80" height="80" viewBox="0 0 80 80" fill="none" xmlns="http://www.w3.org/2000/svg">
<path d="M58 65.4463L58.6684 66.7891C59.1779 66.5355 59.5 66.0154 59.5 65.4463C59.5 64.8771 59.1779 64.357 58.6684 64.1034L58 65.4463ZM58 14.6908L58.6684 16.0337C59.1779 15.7801 59.5 15.26 59.5 14.6908C59.5 14.1217 59.1779 13.6016 58.6684 13.348L58 14.6908ZM44.5098 70.0947C49.6062 70.0947 54.4209 68.9032 58.6684 66.7891L57.3316 64.1034C53.4928 66.0141 49.1349 67.0947 44.5098 67.0947V70.0947ZM13.5 40.0685C13.5 56.6991 27.4319 70.0947 44.5098 70.0947V67.0947C28.9921 67.0947 16.5 54.9472 16.5 40.0685H13.5ZM44.5098 10.0424C27.4319 10.0424 13.5 23.438 13.5 40.0685H16.5C16.5 25.1899 28.9921 13.0424 44.5098 13.0424V10.0424ZM58.6684 13.348C54.4209 11.2339 49.6062 10.0424 44.5098 10.0424V13.0424C49.1349 13.0424 53.4928 14.123 57.3316 16.0337L58.6684 13.348ZM57.3316 13.348C47.347 18.3177 40.4805 28.4022 40.4805 40.0685H43.4805C43.4805 29.6232 49.6266 20.5341 58.6684 16.0337L57.3316 13.348ZM40.4805 40.0685C40.4805 51.7349 47.347 61.8194 57.3316 66.7891L58.6684 64.1034C49.6266 59.603 43.4805 50.5139 43.4805 40.0685H40.4805Z" fill="white"/>
</svg>
