<svg width="28" height="28" viewBox="0 0 28 28" fill="none" xmlns="http://www.w3.org/2000/svg">
<path d="M16.5625 19.4007L16.9058 20.0675C17.1556 19.9389 17.3125 19.6816 17.3125 19.4007C17.3125 19.1198 17.1556 18.8625 16.9058 18.7339L16.5625 19.4007ZM16.5625 7.72431L16.9058 8.39111C17.1556 8.26253 17.3125 8.00519 17.3125 7.72431C17.3125 7.44343 17.1556 7.18609 16.9058 7.05751L16.5625 7.72431ZM13.5625 20.875C14.7657 20.875 15.903 20.5838 16.9058 20.0675L16.2192 18.7339C15.4237 19.1435 14.5213 19.375 13.5625 19.375V20.875ZM6.25 13.5625C6.25 17.6011 9.52392 20.875 13.5625 20.875V19.375C10.3523 19.375 7.75 16.7727 7.75 13.5625H6.25ZM13.5625 6.25C9.52392 6.25 6.25 9.52392 6.25 13.5625H7.75C7.75 10.3523 10.3523 7.75 13.5625 7.75V6.25ZM16.9058 7.05751C15.903 6.54116 14.7657 6.25 13.5625 6.25V7.75C14.5213 7.75 15.4237 7.98154 16.2192 8.39111L16.9058 7.05751ZM16.2192 7.05751C13.8637 8.27035 12.25 10.7273 12.25 13.5625H13.75C13.75 11.3108 15.0302 9.35689 16.9058 8.39111L16.2192 7.05751ZM12.25 13.5625C12.25 16.3977 13.8637 18.8547 16.2192 20.0675L16.9058 18.7339C15.0302 17.7681 13.75 15.8142 13.75 13.5625H12.25Z" fill="white"/>
</svg>
