<svg width="80" height="80" viewBox="0 0 80 80" fill="none" xmlns="http://www.w3.org/2000/svg">
<path d="M40 73C35.6239 73 31.4271 71.2616 28.3327 68.1673C25.2384 65.0729 23.5 60.8761 23.5 56.5C23.5 52.1239 25.2384 47.9271 28.3327 44.8327C31.4271 41.7384 35.6239 40 40 40C44.3761 40 48.5729 38.2616 51.6673 35.1673C54.7616 32.0729 56.5 27.8761 56.5 23.5C56.5 19.1239 54.7616 14.9271 51.6673 11.8327C48.5729 8.73839 44.3761 7 40 7C48.7521 7 57.1458 10.4768 63.3345 16.6655C69.5232 22.8542 73 31.2479 73 40C73 48.7521 69.5232 57.1458 63.3345 63.3345C57.1458 69.5232 48.7521 73 40 73Z" fill="#0000F8"/>
<path d="M40 73C58.2254 73 73 58.2254 73 40C73 21.7746 58.2254 7 40 7C21.7746 7 7 21.7746 7 40C7 58.2254 21.7746 73 40 73Z" stroke="url(#paint0_linear_14_17)" stroke-width="3" stroke-linecap="round" stroke-linejoin="round"/>
<path d="M40 60.625C42.2782 60.625 44.125 58.7782 44.125 56.5C44.125 54.2218 42.2782 52.375 40 52.375C37.7218 52.375 35.875 54.2218 35.875 56.5C35.875 58.7782 37.7218 60.625 40 60.625Z" fill="white"/>
<path d="M40 73C35.6239 73 31.4271 71.2616 28.3327 68.1673C25.2384 65.0729 23.5 60.8761 23.5 56.5C23.5 52.1239 25.2384 47.9271 28.3327 44.8327C31.4271 41.7384 35.6239 40 40 40C44.3761 40 48.5729 38.2616 51.6673 35.1673C54.7616 32.0729 56.5 27.8761 56.5 23.5C56.5 19.1239 54.7616 14.9271 51.6673 11.8327C48.5729 8.73839 44.3761 7 40 7" stroke="white" stroke-width="3" stroke-linecap="round" stroke-linejoin="round"/>
<path d="M40 27.625C42.2782 27.625 44.125 25.7782 44.125 23.5C44.125 21.2218 42.2782 19.375 40 19.375C37.7218 19.375 35.875 21.2218 35.875 23.5C35.875 25.7782 37.7218 27.625 40 27.625Z" fill="white"/>
<defs>
<linearGradient id="paint0_linear_14_17" x1="36.8571" y1="51" x2="67.5" y2="58.0714" gradientUnits="userSpaceOnUse">
<stop stop-color="white"/>
<stop offset="1" stop-color="#0000F8"/>
</linearGradient>
</defs>
</svg>
