<svg width="80" height="80" viewBox="0 0 80 80" fill="none" xmlns="http://www.w3.org/2000/svg">
<path d="M40 14C43.4478 14 46.7544 15.3696 49.1924 17.8076C51.6304 20.2456 53 23.5522 53 27C53 30.4478 51.6304 33.7544 49.1924 36.1924C46.7544 38.6304 43.4478 40 40 40C36.5522 40 33.2456 41.3696 30.8076 43.8076C28.3696 46.2456 27 49.5522 27 53C27 56.4478 28.3696 59.7544 30.8076 62.1924C33.2456 64.6304 36.5522 66 40 66C33.1044 66 26.4912 63.2607 21.6152 58.3848C16.7393 53.5088 14 46.8956 14 40C14 33.1044 16.7393 26.4912 21.6152 21.6152C26.4912 16.7393 33.1044 14 40 14Z" fill="#0000F8"/>
<path d="M40 66C36.5522 66 33.2456 64.6304 30.8076 62.1924C28.3696 59.7544 27 56.4478 27 53C27 49.5522 28.3696 46.2456 30.8076 43.8076C33.2456 41.3696 36.5522 40 40 40C43.4478 40 46.7544 38.6304 49.1924 36.1924C51.6304 33.7544 53 30.4478 53 27C53 23.5522 51.6304 20.2456 49.1924 17.8076C46.7544 15.3696 43.4478 14 40 14C46.8956 14 53.5088 16.7393 58.3848 21.6152C63.2607 26.4912 66 33.1044 66 40C66 46.8956 63.2607 53.5088 58.3848 58.3848C53.5088 63.2607 46.8956 66 40 66Z" fill="white"/>
<path d="M40 23.75C38.2051 23.75 36.75 25.2051 36.75 27C36.75 28.7949 38.2051 30.25 40 30.25C41.7949 30.25 43.25 28.7949 43.25 27C43.25 25.2051 41.7949 23.75 40 23.75Z" fill="white"/>
<path d="M40 49.75C38.2051 49.75 36.75 51.2051 36.75 53C36.75 54.7949 38.2051 56.25 40 56.25C41.7949 56.25 43.25 54.7949 43.25 53C43.25 51.2051 41.7949 49.75 40 49.75Z" fill="#0000F8"/>
<path d="M40 73C58.2254 73 73 58.2254 73 40C73 21.7746 58.2254 7 40 7C21.7746 7 7 21.7746 7 40C7 58.2254 21.7746 73 40 73Z" stroke="white" stroke-width="3" stroke-linecap="round" stroke-linejoin="round"/>
</svg>
