<svg width="28" height="28" viewBox="0 0 28 28" fill="none" xmlns="http://www.w3.org/2000/svg">
<path d="M11.5 19.8333C7.33332 21.0833 7.33332 17.75 5.66666 17.3333M17.3333 22.3333V19.1083C17.3646 18.711 17.3109 18.3115 17.1758 17.9365C17.0408 17.5615 16.8274 17.2195 16.55 16.9333C19.1667 16.6417 21.9167 15.65 21.9167 11.1C21.9164 9.93652 21.4689 8.81766 20.6667 7.975C21.0465 6.95709 21.0197 5.83196 20.5917 4.83333C20.5917 4.83333 19.6083 4.54167 17.3333 6.06667C15.4233 5.54902 13.41 5.54902 11.5 6.06667C9.22499 4.54167 8.24166 4.83333 8.24166 4.83333C7.81364 5.83196 7.78678 6.95709 8.16666 7.975C7.35843 8.82392 6.91043 9.95288 6.91666 11.125C6.91666 15.6417 9.66666 16.6333 12.2833 16.9583C12.0092 17.2416 11.7977 17.5795 11.6627 17.9499C11.5278 18.3204 11.4723 18.7151 11.5 19.1083V22.3333" stroke="#220932" stroke-width="1.5" stroke-linecap="round" stroke-linejoin="round"/>
</svg>
