<svg width="140" height="140" viewBox="0 0 140 140" fill="none" xmlns="http://www.w3.org/2000/svg">
<rect width="140" height="140" fill="#8C00EC"/>
<path d="M37.3745 83.1795L20 97V23.9487C20 22.9015 20.4109 21.8971 21.1423 21.1566C21.8737 20.416 22.8657 20 23.9 20H94.1C95.1343 20 96.1263 20.416 96.8577 21.1566C97.5891 21.8971 98 22.9015 98 23.9487V79.2308C98 80.278 97.5891 81.2824 96.8577 82.0229C96.1263 82.7635 95.1343 83.1795 94.1 83.1795H37.3745Z" fill="white" fill-opacity="0.4"/>
<path d="M37.3745 83.1795L20 97V23.9487C20 22.9015 20.4109 21.8971 21.1423 21.1566C21.8737 20.416 22.8657 20 23.9 20H94.1C95.1343 20 96.1263 20.416 96.8577 21.1566C97.5891 21.8971 98 22.9015 98 23.9487V79.2308C98 80.278 97.5891 81.2824 96.8577 82.0229C96.1263 82.7635 95.1343 83.1795 94.1 83.1795H37.3745Z" fill="url(#paint0_linear_56_2)" fill-opacity="0.6"/>
<path d="M37.3745 82.6795H37.1999L37.0632 82.7882L20.5 95.9634V23.9487C20.5 23.0321 20.8597 22.1542 21.498 21.5079C22.1361 20.8618 23.0003 20.5 23.9 20.5H94.1C94.9997 20.5 95.8639 20.8618 96.502 21.5079C97.1403 22.1542 97.5 23.0321 97.5 23.9487V79.2308C97.5 80.1474 97.1403 81.0253 96.502 81.6716C95.8639 82.3177 94.9997 82.6795 94.1 82.6795H37.3745Z" stroke="white" stroke-opacity="0.1"/>
<g filter="url(#filter0_b_56_2)">
<path d="M102.625 106.179L120 120V46.9487C120 45.9015 119.589 44.8971 118.858 44.1566C118.126 43.416 117.134 43 116.1 43H45.9C44.8657 43 43.8737 43.416 43.1423 44.1566C42.4109 44.8971 42 45.9015 42 46.9487V102.231C42 103.278 42.4109 104.282 43.1423 105.023C43.8737 105.763 44.8657 106.179 45.9 106.179H102.625Z" fill="white" fill-opacity="0.7"/>
<path d="M102.625 106.179L120 120V46.9487C120 45.9015 119.589 44.8971 118.858 44.1566C118.126 43.416 117.134 43 116.1 43H45.9C44.8657 43 43.8737 43.416 43.1423 44.1566C42.4109 44.8971 42 45.9015 42 46.9487V102.231C42 103.278 42.4109 104.282 43.1423 105.023C43.8737 105.763 44.8657 106.179 45.9 106.179H102.625Z" fill="url(#paint1_linear_56_2)" fill-opacity="0.6"/>
<path d="M102.625 105.679H102.8L102.937 105.788L119.5 118.963V46.9487C119.5 46.0321 119.14 45.1542 118.502 44.5079C117.864 43.8618 117 43.5 116.1 43.5H45.9C45.0003 43.5 44.1361 43.8618 43.498 44.5079C42.8597 45.1542 42.5 46.0321 42.5 46.9487V102.231C42.5 103.147 42.8597 104.025 43.498 104.672C44.1361 105.318 45.0003 105.679 45.9 105.679H102.625Z" stroke="white" stroke-opacity="0.2"/>
</g>
<defs>
<filter id="filter0_b_56_2" x="36" y="37" width="90" height="89" filterUnits="userSpaceOnUse" color-interpolation-filters="sRGB">
<feFlood flood-opacity="0" result="BackgroundImageFix"/>
<feGaussianBlur in="BackgroundImageFix" stdDeviation="3"/>
<feComposite in2="SourceAlpha" operator="in" result="effect1_backgroundBlur_56_2"/>
<feBlend mode="normal" in="SourceGraphic" in2="effect1_backgroundBlur_56_2" result="shape"/>
</filter>
<linearGradient id="paint0_linear_56_2" x1="59" y1="20" x2="78.5" y2="74" gradientUnits="userSpaceOnUse">
<stop stop-color="white" stop-opacity="0"/>
<stop offset="1" stop-color="white"/>
</linearGradient>
<linearGradient id="paint1_linear_56_2" x1="81" y1="43" x2="61.5" y2="97" gradientUnits="userSpaceOnUse">
<stop stop-color="white" stop-opacity="0"/>
<stop offset="1" stop-color="white"/>
</linearGradient>
</defs>
</svg>
