<svg width="140" height="140" viewBox="0 0 140 140" fill="none" xmlns="http://www.w3.org/2000/svg">
<rect width="140" height="140" fill="#E700EC"/>
<g filter="url(#filter0_b_56_4)">
<path d="M109.888 112.517L17.8602 96.7615C13.9999 96.1006 11.4065 92.4353 12.0673 88.5754L21.4336 33.8663C22.0944 30.006 25.7598 27.4121 29.6201 28.073L121.647 43.8282C125.508 44.489 128.102 48.1545 127.441 52.0148L118.075 106.724C117.414 110.584 113.748 113.178 109.888 112.517Z" fill="white" fill-opacity="0.7"/>
<path d="M109.888 112.517L17.8602 96.7615C13.9999 96.1006 11.4065 92.4353 12.0673 88.5754L21.4336 33.8663C22.0944 30.006 25.7598 27.4121 29.6201 28.073L121.647 43.8282C125.508 44.489 128.102 48.1545 127.441 52.0148L118.075 106.724C117.414 110.584 113.748 113.178 109.888 112.517Z" fill="url(#paint0_linear_56_4)" fill-opacity="0.6"/>
<path d="M109.972 112.024L17.9446 96.2687C14.3565 95.6544 11.9459 92.2476 12.5601 88.6597L21.9264 33.9507C22.5407 30.3625 25.9476 27.9515 29.5358 28.5658L121.563 44.321C125.151 44.9353 127.562 48.3423 126.948 51.9304L117.582 106.639C116.967 110.227 113.56 112.638 109.972 112.024Z" stroke="white" stroke-opacity="0.2"/>
</g>
<g filter="url(#filter1_b_56_4)">
<path d="M46.9851 42.0041L34.5498 39.8752C32.8168 39.5785 31.1711 40.7431 30.8744 42.4761L29.1708 52.4273C28.8741 54.1603 30.0387 55.8057 31.7717 56.1024L44.207 58.2313C45.94 58.528 47.5857 57.3638 47.8824 55.6308L49.586 45.6795C49.8827 43.9465 48.7182 42.3008 46.9851 42.0041Z" fill="white" fill-opacity="0.7"/>
<path d="M46.9851 42.0041L34.5498 39.8752C32.8168 39.5785 31.1711 40.7431 30.8744 42.4761L29.1708 52.4273C28.8741 54.1603 30.0387 55.8057 31.7717 56.1024L44.207 58.2313C45.94 58.528 47.5857 57.3638 47.8824 55.6308L49.586 45.6795C49.8827 43.9465 48.7182 42.3008 46.9851 42.0041Z" fill="url(#paint1_linear_56_4)" fill-opacity="0.6"/>
<path d="M34.4654 40.368L46.9008 42.497C48.3616 42.7471 49.3433 44.1343 49.0932 45.5952L47.3895 55.5464C47.1394 57.0072 45.7523 57.9886 44.2914 57.7385L31.8561 55.6096C30.3952 55.3595 29.4135 53.9725 29.6636 52.5117L31.3673 42.5605C31.6174 41.0996 33.0046 40.1179 34.4654 40.368Z" stroke="white" stroke-opacity="0.7"/>
</g>
<g filter="url(#filter2_b_56_4)">
<mask id="path-5-inside-1_56_4" fill="white">
<path d="M38.0821 40.4831C37.5965 41.1844 36.9895 42.2378 36.4989 43.5931C36.0219 44.9124 35.6605 46.5334 35.6363 48.4105C35.6206 49.9235 35.8217 51.5951 36.3765 53.4262"/>
</mask>
<path d="M38.0821 40.4831C37.5965 41.1844 36.9895 42.2378 36.4989 43.5931C36.0219 44.9124 35.6605 46.5334 35.6363 48.4105C35.6206 49.9235 35.8217 51.5951 36.3765 53.4262" fill="white" fill-opacity="0.7"/>
<path d="M38.0821 40.4831C37.5965 41.1844 36.9895 42.2378 36.4989 43.5931C36.0219 44.9124 35.6605 46.5334 35.6363 48.4105C35.6206 49.9235 35.8217 51.5951 36.3765 53.4262" fill="url(#paint2_linear_56_4)" fill-opacity="0.6"/>
<path d="M36.4989 43.5931L35.5586 43.2527L35.5585 43.2531L36.4989 43.5931ZM35.6363 48.4105L34.6364 48.3976L34.6363 48.4001L35.6363 48.4105ZM37.2599 39.9139C36.7315 40.6771 36.082 41.8068 35.5586 43.2527L37.4392 43.9334C37.8969 42.6689 38.4616 41.6917 38.9043 41.0523L37.2599 39.9139ZM35.5585 43.2531C35.0473 44.667 34.6622 46.3984 34.6364 48.3976L36.6362 48.4234C36.6589 46.6684 36.9966 45.1578 37.4393 43.9331L35.5585 43.2531ZM34.6363 48.4001C34.6196 50.012 34.8343 51.7851 35.4195 53.7162L37.3336 53.1361C36.809 51.4051 36.6215 49.835 36.6362 48.4209L34.6363 48.4001Z" fill="white" fill-opacity="0.7" mask="url(#path-5-inside-1_56_4)"/>
</g>
<g filter="url(#filter3_b_56_4)">
<path d="M29.2101 52.1975L47.9218 55.4009" stroke="white" stroke-opacity="0.7"/>
</g>
<g filter="url(#filter4_b_56_4)">
<path d="M36.4989 43.5931L30.8464 42.6254" stroke="white" stroke-opacity="0.7"/>
</g>
<g filter="url(#filter5_b_56_4)">
<path d="M35.6364 48.4105L30.0206 47.4491" stroke="white" stroke-opacity="0.7"/>
</g>
<g filter="url(#filter6_b_56_4)">
<mask id="path-10-inside-2_56_4" fill="white">
<path d="M43.8526 41.471C44.07 42.2927 44.2918 43.488 44.3042 44.9294C44.3152 46.3322 44.1168 47.9812 43.5152 49.7594C43.0264 51.1914 42.2803 52.7009 41.1486 54.2431"/>
</mask>
<path d="M43.8526 41.471C44.07 42.2927 44.2918 43.488 44.3042 44.9294C44.3152 46.3322 44.1168 47.9812 43.5152 49.7594C43.0264 51.1914 42.2803 52.7009 41.1486 54.2431" fill="white" fill-opacity="0.7"/>
<path d="M43.8526 41.471C44.07 42.2927 44.2918 43.488 44.3042 44.9294C44.3152 46.3322 44.1168 47.9812 43.5152 49.7594C43.0264 51.1914 42.2803 52.7009 41.1486 54.2431" fill="url(#paint3_linear_56_4)" fill-opacity="0.6"/>
<path d="M44.3042 44.9294L45.3042 44.9216L45.3042 44.9207L44.3042 44.9294ZM43.5152 49.7594L44.4616 50.0824L44.4625 50.0798L43.5152 49.7594ZM42.8859 41.7268C43.0855 42.4814 43.2926 43.593 43.3043 44.938L45.3042 44.9207C45.2909 43.3829 45.0545 42.104 44.8194 41.2153L42.8859 41.7268ZM43.3043 44.9371C43.3144 46.2394 43.1304 47.7764 42.568 49.4389L44.4625 50.0798C45.1032 48.1859 45.3159 46.425 45.3042 44.9216L43.3043 44.9371ZM42.5688 49.4363C42.112 50.7748 41.4125 52.1933 40.3424 53.6515L41.9549 54.8347C43.1482 53.2084 43.9409 51.608 44.4616 50.0824L42.5688 49.4363Z" fill="white" fill-opacity="0.7" mask="url(#path-10-inside-2_56_4)"/>
</g>
<g filter="url(#filter7_b_56_4)">
<path d="M49.557 45.8286L44.3043 44.9294" stroke="white" stroke-opacity="0.7"/>
</g>
<g filter="url(#filter8_b_56_4)">
<path d="M48.7311 50.6523L43.5152 49.7594" stroke="white" stroke-opacity="0.7"/>
</g>
<g filter="url(#filter9_b_56_4)">
<path d="M81.6958 49.6773L114.58 55.3071" stroke="white" stroke-opacity="0.7"/>
</g>
<g filter="url(#filter10_b_56_4)">
<path d="M24.4407 77.9944L60.9088 84.2378" stroke="white" stroke-opacity="0.7"/>
</g>
<g filter="url(#filter11_b_56_4)">
<path d="M25.3799 64.0086C25.416 63.798 25.4979 63.6173 25.6239 63.4692C25.7501 63.3215 25.9059 63.2036 26.0911 63.1125C26.2763 63.0217 26.4823 62.9667 26.7084 62.9406C26.9344 62.9176 27.1657 62.9254 27.4004 62.9656C27.6371 63.0061 27.8561 63.0754 28.0633 63.1725C28.2679 63.2724 28.4425 63.3926 28.5869 63.5398C28.733 63.6876 28.8386 63.8503 28.9103 64.0318C28.9784 64.2131 28.9952 64.4108 28.9592 64.6214L28.3267 68.3158C28.29 68.5298 28.2084 68.7106 28.0839 68.859C27.9559 69.0067 27.8021 69.1249 27.6152 69.2154C27.4306 69.3028 27.2255 69.3614 26.9992 69.3879C26.7716 69.4102 26.5418 69.4035 26.3051 69.363C26.0705 69.3228 25.8499 69.2524 25.6443 69.156C25.4398 69.0557 25.2645 68.9319 25.1195 68.7881C24.975 68.6409 24.8673 68.4779 24.7975 68.2963C24.7279 68.1148 24.7108 67.9171 24.7474 67.7031L25.3799 64.0086ZM25.9499 67.909C25.9277 68.039 25.9635 68.1567 26.0591 68.2598C26.1532 68.3662 26.2881 68.4325 26.4595 68.4618C26.6332 68.4916 26.7821 68.4739 26.9062 68.4049C27.0307 68.3394 27.1036 68.2403 27.1259 68.1103L27.7584 64.4158C27.78 64.2895 27.7443 64.1715 27.6492 64.0652C27.5546 63.962 27.42 63.8957 27.2463 63.866C27.0749 63.8367 26.9256 63.8543 26.8021 63.9202C26.677 63.9888 26.6041 64.0882 26.5824 64.2145L25.9499 67.909Z" fill="white" fill-opacity="0.7"/>
<path d="M25.3799 64.0086C25.416 63.798 25.4979 63.6173 25.6239 63.4692C25.7501 63.3215 25.9059 63.2036 26.0911 63.1125C26.2763 63.0217 26.4823 62.9667 26.7084 62.9406C26.9344 62.9176 27.1657 62.9254 27.4004 62.9656C27.6371 63.0061 27.8561 63.0754 28.0633 63.1725C28.2679 63.2724 28.4425 63.3926 28.5869 63.5398C28.733 63.6876 28.8386 63.8503 28.9103 64.0318C28.9784 64.2131 28.9952 64.4108 28.9592 64.6214L28.3267 68.3158C28.29 68.5298 28.2084 68.7106 28.0839 68.859C27.9559 69.0067 27.8021 69.1249 27.6152 69.2154C27.4306 69.3028 27.2255 69.3614 26.9992 69.3879C26.7716 69.4102 26.5418 69.4035 26.3051 69.363C26.0705 69.3228 25.8499 69.2524 25.6443 69.156C25.4398 69.0557 25.2645 68.9319 25.1195 68.7881C24.975 68.6409 24.8673 68.4779 24.7975 68.2963C24.7279 68.1148 24.7108 67.9171 24.7474 67.7031L25.3799 64.0086ZM25.9499 67.909C25.9277 68.039 25.9635 68.1567 26.0591 68.2598C26.1532 68.3662 26.2881 68.4325 26.4595 68.4618C26.6332 68.4916 26.7821 68.4739 26.9062 68.4049C27.0307 68.3394 27.1036 68.2403 27.1259 68.1103L27.7584 64.4158C27.78 64.2895 27.7443 64.1715 27.6492 64.0652C27.5546 63.962 27.42 63.8957 27.2463 63.866C27.0749 63.8367 26.9256 63.8543 26.8021 63.9202C26.677 63.9888 26.6041 64.0882 26.5824 64.2145L25.9499 67.909Z" fill="url(#paint4_linear_56_4)" fill-opacity="0.6"/>
<path d="M28.2299 63.8899L28.2299 63.8899L28.2313 63.8913C28.3299 63.9911 28.3974 64.0957 28.4436 64.2113C28.4767 64.3014 28.4885 64.4074 28.4663 64.537L27.8338 68.2315C27.8109 68.3652 27.7642 68.4612 27.7033 68.5346C27.6218 68.6279 27.5242 68.7036 27.3993 68.7644C27.3116 68.8057 27.2154 68.8391 27.1094 68.8629C27.121 68.8571 27.1326 68.851 27.1442 68.8446C27.3962 68.7103 27.5692 68.484 27.6187 68.1947L28.2512 64.5002C28.301 64.2093 28.2085 63.9405 28.0218 63.7319L28.0219 63.7318L28.0178 63.7274C28.0114 63.7205 28.005 63.7136 27.9985 63.7069C28.0894 63.7635 28.1657 63.8244 28.2299 63.8899ZM25.6885 68.5954C25.6974 68.6054 25.7064 68.6151 25.7156 68.6246C25.6228 68.5668 25.5426 68.5032 25.474 68.4355C25.3743 68.3333 25.307 68.2281 25.2643 68.1172C25.2302 68.028 25.2172 67.9222 25.2403 67.7874L25.8728 64.093C25.8951 63.9626 25.9421 63.8669 26.0044 63.7935C26.0822 63.7026 26.1818 63.6252 26.3115 63.5614C26.3938 63.521 26.4867 63.4889 26.5925 63.4658C26.5839 63.47 26.5753 63.4745 26.5668 63.479L26.5668 63.479L26.5616 63.4818C26.316 63.6166 26.1394 63.8393 26.0896 64.1301L25.4571 67.8246C25.4076 68.114 25.4955 68.3849 25.6885 68.5954Z" stroke="white" stroke-opacity="0.7"/>
</g>
<g filter="url(#filter12_b_56_4)">
<path d="M29.7602 64.7585C29.7962 64.5479 29.8779 64.3671 30.0041 64.2191C30.1307 64.0715 30.2858 63.9535 30.471 63.8624C30.6562 63.7716 30.8622 63.7165 31.0887 63.6905C31.3143 63.6675 31.546 63.6753 31.7807 63.7155C32.017 63.7559 32.2361 63.8253 32.4436 63.9224C32.6485 64.0223 32.8228 64.1425 32.9668 64.2897C33.1133 64.4376 33.2186 64.6001 33.2902 64.7817C33.3587 64.963 33.3755 65.1607 33.3394 65.3713L32.7069 69.0657C32.6703 69.2797 32.5887 69.4605 32.4638 69.6088C32.3358 69.7565 32.1824 69.8748 31.9952 69.9652C31.8109 70.0527 31.6061 70.1114 31.3795 70.1378C31.1515 70.1601 30.9218 70.1533 30.6854 70.1129C30.4508 70.0727 30.2298 70.0023 30.0246 69.9059C29.8198 69.8056 29.6444 69.6818 29.4994 69.538C29.355 69.3907 29.2479 69.2279 29.1777 69.0462C29.1079 68.8647 29.0911 68.667 29.1277 68.453L29.7602 64.7585ZM30.3302 68.6589C30.3079 68.7889 30.3437 68.9066 30.4397 69.0098C30.5331 69.1161 30.668 69.1823 30.8397 69.2117C31.0135 69.2415 31.1624 69.2238 31.2861 69.1547C31.411 69.0893 31.4839 68.9902 31.5061 68.8602L32.1386 65.1657C32.1603 65.0394 32.1245 64.9214 32.0291 64.815C31.9348 64.7119 31.8003 64.6456 31.6265 64.6159C31.4548 64.5865 31.3055 64.6041 31.1827 64.6701C31.0573 64.7387 30.9843 64.8381 30.9627 64.9644L30.3302 68.6589Z" fill="white" fill-opacity="0.7"/>
<path d="M29.7602 64.7585C29.7962 64.5479 29.8779 64.3671 30.0041 64.2191C30.1307 64.0715 30.2858 63.9535 30.471 63.8624C30.6562 63.7716 30.8622 63.7165 31.0887 63.6905C31.3143 63.6675 31.546 63.6753 31.7807 63.7155C32.017 63.7559 32.2361 63.8253 32.4436 63.9224C32.6485 64.0223 32.8228 64.1425 32.9668 64.2897C33.1133 64.4376 33.2186 64.6001 33.2902 64.7817C33.3587 64.963 33.3755 65.1607 33.3394 65.3713L32.7069 69.0657C32.6703 69.2797 32.5887 69.4605 32.4638 69.6088C32.3358 69.7565 32.1824 69.8748 31.9952 69.9652C31.8109 70.0527 31.6061 70.1114 31.3795 70.1378C31.1515 70.1601 30.9218 70.1533 30.6854 70.1129C30.4508 70.0727 30.2298 70.0023 30.0246 69.9059C29.8198 69.8056 29.6444 69.6818 29.4994 69.538C29.355 69.3907 29.2479 69.2279 29.1777 69.0462C29.1079 68.8647 29.0911 68.667 29.1277 68.453L29.7602 64.7585ZM30.3302 68.6589C30.3079 68.7889 30.3437 68.9066 30.4397 69.0098C30.5331 69.1161 30.668 69.1823 30.8397 69.2117C31.0135 69.2415 31.1624 69.2238 31.2861 69.1547C31.411 69.0893 31.4839 68.9902 31.5061 68.8602L32.1386 65.1657C32.1603 65.0394 32.1245 64.9214 32.0291 64.815C31.9348 64.7119 31.8003 64.6456 31.6265 64.6159C31.4548 64.5865 31.3055 64.6041 31.1827 64.6701C31.0573 64.7387 30.9843 64.8381 30.9627 64.9644L30.3302 68.6589Z" fill="url(#paint5_linear_56_4)" fill-opacity="0.6"/>
<path d="M30.0966 69.3751C30.0872 69.3653 30.0779 69.3554 30.0688 69.3451C29.8756 69.1345 29.7879 68.8637 29.8374 68.5745L30.4699 64.88C30.5197 64.589 30.6965 64.3661 30.9429 64.2314L30.946 64.2297L30.946 64.2297C30.9552 64.2248 30.9644 64.22 30.9737 64.2154C30.8672 64.2385 30.7739 64.2708 30.6912 64.3113L30.0966 69.3751ZM30.0966 69.3751C30.0033 69.3171 29.9228 69.2533 29.8539 69.1854M32.6095 64.6394L32.6095 64.6394L32.6116 64.6415C32.7101 64.741 32.7773 64.8455 32.8237 64.9615C32.8569 65.0513 32.8688 65.1571 32.8466 65.2869L32.2141 68.9814C32.1912 69.1153 32.1444 69.211 32.0835 69.2842C32.0016 69.378 31.9042 69.4537 31.7792 69.5143C31.6915 69.5558 31.5951 69.5893 31.4887 69.613C31.5005 69.6072 31.5122 69.601 31.5239 69.5946C31.7765 69.4603 31.9494 69.2339 31.999 68.9446L32.6315 65.2501C32.6813 64.959 32.5886 64.69 32.4012 64.4811L32.4012 64.4811L32.3983 64.4778C32.3915 64.4705 32.3847 64.4633 32.3779 64.4562C32.4691 64.5129 32.5453 64.5738 32.6095 64.6394Z" stroke="white" stroke-opacity="0.7"/>
</g>
<g filter="url(#filter13_b_56_4)">
<path d="M34.14 65.5083C34.1761 65.2978 34.2577 65.117 34.3839 64.9689C34.5105 64.8213 34.666 64.7033 34.8512 64.6123C35.0364 64.5215 35.2423 64.4664 35.4688 64.4404C35.6945 64.4174 35.9258 64.4251 36.1605 64.4653C36.3975 64.5059 36.6165 64.5752 36.8234 64.6723C37.0283 64.7722 37.2025 64.8923 37.347 65.0396C37.4931 65.1874 37.5987 65.35 37.6707 65.5316C37.7385 65.7128 37.7553 65.9105 37.7192 66.1211L37.0867 69.8156C37.0501 70.0296 36.9685 70.2104 36.8443 70.3588C36.7159 70.5064 36.5622 70.6246 36.3753 70.7151C36.1907 70.8025 35.9859 70.8612 35.7593 70.8877C35.532 70.91 35.3023 70.9033 35.0652 70.8627C34.8306 70.8225 34.6099 70.7522 34.4048 70.6558C34.1999 70.5554 34.0245 70.4317 33.8795 70.2878C33.7351 70.1406 33.6277 69.9777 33.5575 69.7961C33.4877 69.6145 33.4709 69.4168 33.5075 69.2028L34.14 65.5083ZM34.7104 69.4088C34.6881 69.5388 34.7236 69.6565 34.8196 69.7596C34.9129 69.8659 35.0482 69.9322 35.2195 69.9615C35.3933 69.9913 35.5422 69.9737 35.6663 69.9046C35.7912 69.8392 35.8637 69.7401 35.886 69.61L36.5185 65.9156C36.5401 65.7892 36.5047 65.6713 36.4092 65.5649C36.3147 65.4617 36.1801 65.3955 36.0063 65.3657C35.835 65.3364 35.6854 65.354 35.5625 65.42C35.4371 65.4885 35.3645 65.5879 35.3429 65.7143L34.7104 69.4088Z" fill="white" fill-opacity="0.7"/>
<path d="M34.14 65.5083C34.1761 65.2978 34.2577 65.117 34.3839 64.9689C34.5105 64.8213 34.666 64.7033 34.8512 64.6123C35.0364 64.5215 35.2423 64.4664 35.4688 64.4404C35.6945 64.4174 35.9258 64.4251 36.1605 64.4653C36.3975 64.5059 36.6165 64.5752 36.8234 64.6723C37.0283 64.7722 37.2025 64.8923 37.347 65.0396C37.4931 65.1874 37.5987 65.35 37.6707 65.5316C37.7385 65.7128 37.7553 65.9105 37.7192 66.1211L37.0867 69.8156C37.0501 70.0296 36.9685 70.2104 36.8443 70.3588C36.7159 70.5064 36.5622 70.6246 36.3753 70.7151C36.1907 70.8025 35.9859 70.8612 35.7593 70.8877C35.532 70.91 35.3023 70.9033 35.0652 70.8627C34.8306 70.8225 34.6099 70.7522 34.4048 70.6558C34.1999 70.5554 34.0245 70.4317 33.8795 70.2878C33.7351 70.1406 33.6277 69.9777 33.5575 69.7961C33.4877 69.6145 33.4709 69.4168 33.5075 69.2028L34.14 65.5083ZM34.7104 69.4088C34.6881 69.5388 34.7236 69.6565 34.8196 69.7596C34.9129 69.8659 35.0482 69.9322 35.2195 69.9615C35.3933 69.9913 35.5422 69.9737 35.6663 69.9046C35.7912 69.8392 35.8637 69.7401 35.886 69.61L36.5185 65.9156C36.5401 65.7892 36.5047 65.6713 36.4092 65.5649C36.3147 65.4617 36.1801 65.3955 36.0063 65.3657C35.835 65.3364 35.6854 65.354 35.5625 65.42C35.4371 65.4885 35.3645 65.5879 35.3429 65.7143L34.7104 69.4088Z" fill="url(#paint6_linear_56_4)" fill-opacity="0.6"/>
<path d="M36.99 65.3897L36.99 65.3897L36.9914 65.391C37.0898 65.4906 37.1573 65.5952 37.204 65.7111C37.2369 65.8014 37.2485 65.9075 37.2264 66.0367L36.5939 69.7312C36.5711 69.8646 36.5244 69.9607 36.4637 70.0345C36.3816 70.1279 36.284 70.2035 36.1593 70.2642C36.0715 70.3056 35.9753 70.339 35.8693 70.3627C35.8809 70.3569 35.8924 70.3509 35.9039 70.3445C36.1574 70.2098 36.3294 69.9829 36.3788 69.6944L37.0113 65.9999C37.061 65.7097 36.9695 65.4406 36.7814 65.231L36.7814 65.231L36.7779 65.2272C36.7715 65.2201 36.765 65.2132 36.7584 65.2064C36.8494 65.263 36.9256 65.324 36.99 65.3897ZM34.4486 70.095C34.4576 70.1051 34.4668 70.1149 34.4761 70.1246C34.3831 70.0667 34.3028 70.003 34.2341 69.9353C34.1347 69.8334 34.0674 69.7282 34.0241 69.6162C33.9901 69.5278 33.9772 69.4225 34.0003 69.2872L34.6328 65.5927C34.6553 65.4618 34.7021 65.3665 34.764 65.2938C34.8427 65.2021 34.9423 65.1247 35.0716 65.0611C35.154 65.0207 35.247 64.9886 35.3531 64.9654C35.344 64.97 35.3349 64.9747 35.3258 64.9795L35.3258 64.9795L35.3227 64.9812C35.0755 65.1164 34.8997 65.3398 34.85 65.6299L34.2175 69.3244C34.1682 69.6127 34.2548 69.8837 34.4486 70.095Z" stroke="white" stroke-opacity="0.7"/>
</g>
<g filter="url(#filter14_b_56_4)">
<path d="M38.5203 66.2582C38.5563 66.0477 38.6379 65.8669 38.7642 65.7188C38.8907 65.5712 39.0459 65.4532 39.2311 65.3621C39.4163 65.2713 39.6223 65.2162 39.8488 65.1902C40.0744 65.1672 40.3061 65.175 40.5411 65.2152C40.7775 65.2557 40.9965 65.3251 41.2037 65.4222C41.4086 65.5221 41.5825 65.6422 41.7269 65.7894C41.873 65.9372 41.9786 66.0999 42.0506 66.2815C42.1188 66.4627 42.1356 66.6604 42.0995 66.871L41.467 70.5655C41.4304 70.7795 41.3488 70.9603 41.2242 71.1086C41.0959 71.2563 40.9421 71.3744 40.7552 71.465C40.5706 71.5524 40.3661 71.6111 40.1396 71.6376C39.9119 71.6599 39.6822 71.6531 39.4458 71.6126C39.2109 71.5724 38.9899 71.502 38.7847 71.4056C38.5798 71.3053 38.4045 71.1815 38.2595 71.0377C38.115 70.8904 38.008 70.7276 37.9378 70.546C37.8679 70.3644 37.8511 70.1667 37.8878 69.9527L38.5203 66.2582ZM39.0903 70.1586C39.068 70.2886 39.1038 70.4063 39.1998 70.5095C39.2935 70.6159 39.4281 70.682 39.6001 70.7115C39.7735 70.7412 39.9228 70.7236 40.0462 70.6544C40.1711 70.589 40.244 70.49 40.2662 70.3599L40.8987 66.6654C40.9203 66.5391 40.8846 66.4211 40.7891 66.3148C40.6952 66.2116 40.5603 66.1454 40.3869 66.1157C40.2149 66.0862 40.066 66.1039 39.9428 66.1699C39.8173 66.2384 39.7444 66.3378 39.7228 66.4641L39.0903 70.1586Z" fill="white" fill-opacity="0.7"/>
<path d="M38.5203 66.2582C38.5563 66.0477 38.6379 65.8669 38.7642 65.7188C38.8907 65.5712 39.0459 65.4532 39.2311 65.3621C39.4163 65.2713 39.6223 65.2162 39.8488 65.1902C40.0744 65.1672 40.3061 65.175 40.5411 65.2152C40.7775 65.2557 40.9965 65.3251 41.2037 65.4222C41.4086 65.5221 41.5825 65.6422 41.7269 65.7894C41.873 65.9372 41.9786 66.0999 42.0506 66.2815C42.1188 66.4627 42.1356 66.6604 42.0995 66.871L41.467 70.5655C41.4304 70.7795 41.3488 70.9603 41.2242 71.1086C41.0959 71.2563 40.9421 71.3744 40.7552 71.465C40.5706 71.5524 40.3661 71.6111 40.1396 71.6376C39.9119 71.6599 39.6822 71.6531 39.4458 71.6126C39.2109 71.5724 38.9899 71.502 38.7847 71.4056C38.5798 71.3053 38.4045 71.1815 38.2595 71.0377C38.115 70.8904 38.008 70.7276 37.9378 70.546C37.8679 70.3644 37.8511 70.1667 37.8878 69.9527L38.5203 66.2582ZM39.0903 70.1586C39.068 70.2886 39.1038 70.4063 39.1998 70.5095C39.2935 70.6159 39.4281 70.682 39.6001 70.7115C39.7735 70.7412 39.9228 70.7236 40.0462 70.6544C40.1711 70.589 40.244 70.49 40.2662 70.3599L40.8987 66.6654C40.9203 66.5391 40.8846 66.4211 40.7891 66.3148C40.6952 66.2116 40.5603 66.1454 40.3869 66.1157C40.2149 66.0862 40.066 66.1039 39.9428 66.1699C39.8173 66.2384 39.7444 66.3378 39.7228 66.4641L39.0903 70.1586Z" fill="url(#paint7_linear_56_4)" fill-opacity="0.6"/>
<path d="M39.7338 65.7151C39.7248 65.7196 39.7158 65.7243 39.7068 65.7291L39.7068 65.729L39.7029 65.7311C39.4566 65.8658 39.2798 66.0887 39.2299 66.3797L38.5974 70.0742C38.5479 70.3635 38.6357 70.6345 38.8291 70.8451C38.8382 70.8553 38.8474 70.8652 38.8568 70.8749C38.7635 70.8168 38.6829 70.7531 38.614 70.6851C38.515 70.5836 38.4478 70.4785 38.4043 70.3661C38.3704 70.2777 38.3574 70.1723 38.3806 70.0371L39.0131 66.3426C39.0355 66.2117 39.0824 66.1164 39.1442 66.0437C39.2233 65.9517 39.3227 65.8742 39.4517 65.8108L39.2311 65.3621M39.7338 65.7151C39.6273 65.7383 39.534 65.7705 39.4513 65.811L39.2311 65.3621M39.7338 65.7151C39.7869 65.6886 39.841 65.6673 39.8957 65.6506L39.8488 65.1902C39.6223 65.2162 39.4163 65.2713 39.2311 65.3621M41.3699 66.1395L41.3699 66.1395L41.3713 66.1409C41.4698 66.2406 41.5374 66.3452 41.5841 66.4613C41.6171 66.5513 41.6288 66.6572 41.6067 66.7866L40.9742 70.4811C40.9513 70.6147 40.9046 70.7105 40.8439 70.784C40.7618 70.8776 40.6641 70.9533 40.5393 71.014C40.4512 71.0555 40.355 71.089 40.249 71.1127C40.2609 71.1067 40.2727 71.1005 40.2845 71.094C40.5368 70.9597 40.7095 70.7335 40.759 70.4443L41.3915 66.7498C41.4414 66.4587 41.3487 66.1897 41.1613 65.9809L41.1613 65.9808L41.1588 65.9781C41.152 65.9706 41.1451 65.9633 41.1381 65.956C41.2291 66.0127 41.3053 66.0736 41.3699 66.1395Z" stroke="white" stroke-opacity="0.7"/>
</g>
<g filter="url(#filter15_b_56_4)">
<path d="M47.2789 67.7577C47.315 67.5472 47.3962 67.3663 47.5225 67.2183C47.6487 67.0706 47.8042 66.9526 47.9894 66.8615C48.1746 66.7707 48.3809 66.7157 48.607 66.6896C48.833 66.6667 49.0644 66.6744 49.2994 66.7147C49.5357 66.7551 49.7548 66.8245 49.9619 66.9216C50.1665 67.0214 50.3411 67.1416 50.4855 67.2889C50.6313 67.4367 50.7373 67.5994 50.8089 67.7809C50.8774 67.9622 50.8935 68.1598 50.8575 68.3704L50.225 72.0648C50.1883 72.2788 50.1074 72.4598 49.9825 72.608C49.8545 72.7557 49.7004 72.8739 49.5139 72.9645C49.3293 73.0518 49.1241 73.1105 48.8979 73.137C48.6702 73.1593 48.4405 73.1525 48.2041 73.1121C47.9691 73.0718 47.7485 73.0015 47.543 72.905C47.3384 72.8048 47.1627 72.6809 47.0177 72.5371C46.8733 72.3899 46.7659 72.227 46.6961 72.0454C46.6263 71.8638 46.6098 71.6662 46.6464 71.4522L47.2789 67.7577ZM47.8486 71.658C47.8263 71.7881 47.8621 71.9058 47.9581 72.009C48.0518 72.1153 48.1867 72.1815 48.3584 72.2109C48.5315 72.2406 48.6811 72.223 48.8048 72.1539C48.9294 72.0885 49.0026 71.9895 49.0249 71.8594L49.6574 68.1649C49.679 68.0386 49.6429 67.9206 49.5478 67.8143C49.4536 67.7111 49.3183 67.6447 49.1452 67.6151C48.9736 67.5857 48.8243 67.6034 48.7011 67.6693C48.5757 67.7379 48.5027 67.8372 48.4811 67.9636L47.8486 71.658Z" fill="white" fill-opacity="0.7"/>
<path d="M47.2789 67.7577C47.315 67.5472 47.3962 67.3663 47.5225 67.2183C47.6487 67.0706 47.8042 66.9526 47.9894 66.8615C48.1746 66.7707 48.3809 66.7157 48.607 66.6896C48.833 66.6667 49.0644 66.6744 49.2994 66.7147C49.5357 66.7551 49.7548 66.8245 49.9619 66.9216C50.1665 67.0214 50.3411 67.1416 50.4855 67.2889C50.6313 67.4367 50.7373 67.5994 50.8089 67.7809C50.8774 67.9622 50.8935 68.1598 50.8575 68.3704L50.225 72.0648C50.1883 72.2788 50.1074 72.4598 49.9825 72.608C49.8545 72.7557 49.7004 72.8739 49.5139 72.9645C49.3293 73.0518 49.1241 73.1105 48.8979 73.137C48.6702 73.1593 48.4405 73.1525 48.2041 73.1121C47.9691 73.0718 47.7485 73.0015 47.543 72.905C47.3384 72.8048 47.1627 72.6809 47.0177 72.5371C46.8733 72.3899 46.7659 72.227 46.6961 72.0454C46.6263 71.8638 46.6098 71.6662 46.6464 71.4522L47.2789 67.7577ZM47.8486 71.658C47.8263 71.7881 47.8621 71.9058 47.9581 72.009C48.0518 72.1153 48.1867 72.1815 48.3584 72.2109C48.5315 72.2406 48.6811 72.223 48.8048 72.1539C48.9294 72.0885 49.0026 71.9895 49.0249 71.8594L49.6574 68.1649C49.679 68.0386 49.6429 67.9206 49.5478 67.8143C49.4536 67.7111 49.3183 67.6447 49.1452 67.6151C48.9736 67.5857 48.8243 67.6034 48.7011 67.6693C48.5757 67.7379 48.5027 67.8372 48.4811 67.9636L47.8486 71.658Z" fill="url(#paint8_linear_56_4)" fill-opacity="0.6"/>
<path d="M50.1286 67.639L50.1286 67.639L50.1296 67.64C50.2285 67.7404 50.2963 67.8454 50.3424 67.9608C50.3752 68.0495 50.387 68.1551 50.3646 68.286L49.7321 71.9805C49.709 72.1156 49.6624 72.2111 49.6022 72.2834C49.5209 72.3765 49.423 72.4524 49.2977 72.5136C49.2101 72.5548 49.114 72.5882 49.0081 72.6119C49.0198 72.606 49.0315 72.5999 49.0431 72.5935C49.2942 72.4596 49.468 72.2339 49.5177 71.9438L50.1502 68.2493C50.2002 67.9575 50.1065 67.6889 49.9205 67.4809L49.9205 67.4809L49.917 67.4771C49.9105 67.4699 49.9039 67.4629 49.8972 67.456C49.9881 67.5126 50.0643 67.5735 50.1286 67.639ZM47.5875 72.3446C47.5965 72.3547 47.6057 72.3646 47.615 72.3742C47.5217 72.3162 47.4411 72.2524 47.3723 72.1845C47.2728 72.0825 47.2056 71.9774 47.1628 71.8659C47.1289 71.778 47.116 71.6727 47.1393 71.5366L47.7718 67.8421C47.7943 67.7103 47.8413 67.615 47.9029 67.5427L47.5225 67.2183L47.9026 67.5431C47.9808 67.4516 48.0802 67.3741 48.2098 67.3104C48.2923 67.2699 48.3856 67.2378 48.492 67.2146C48.483 67.2191 48.474 67.2237 48.4651 67.2285L48.4651 67.2285L48.4612 67.2306C48.2149 67.3652 48.0381 67.5881 47.9882 67.8792L47.3558 71.5737C47.3062 71.863 47.3941 72.134 47.5875 72.3446Z" stroke="white" stroke-opacity="0.7"/>
</g>
<g filter="url(#filter16_b_56_4)">
<path d="M51.6588 68.5075C51.6949 68.297 51.7765 68.1162 51.9027 67.9682C52.0289 67.8205 52.1848 67.7026 52.37 67.6115C52.5548 67.5206 52.7608 67.4656 52.987 67.4395C53.2129 67.4165 53.4446 67.4244 53.6793 67.4645C53.916 67.505 54.135 67.5744 54.3422 67.6715C54.5468 67.7713 54.7214 67.8916 54.8658 68.0388C55.0119 68.1866 55.1172 68.3492 55.1888 68.5307C55.2573 68.7121 55.2741 68.9098 55.238 69.1203L54.6055 72.8148C54.5689 73.0288 54.4873 73.2096 54.3624 73.3579C54.2344 73.5056 54.081 73.6238 53.8941 73.7144C53.7095 73.8018 53.5044 73.8604 53.2781 73.8869C53.0505 73.9092 52.8207 73.9024 52.584 73.8619C52.3494 73.8218 52.1284 73.7513 51.9229 73.6549C51.7184 73.5546 51.543 73.4308 51.3983 73.2871C51.2539 73.1398 51.1462 72.9769 51.0763 72.7953C51.0065 72.6137 50.9897 72.416 51.0263 72.202L51.6588 68.5075ZM52.2285 72.4079C52.2062 72.5379 52.2424 72.6557 52.338 72.7588C52.4317 72.8651 52.5666 72.9314 52.7383 72.9608C52.9121 72.9905 53.061 72.9729 53.1847 72.9038C53.3093 72.8383 53.3825 72.7393 53.4048 72.6093L54.0373 68.9148C54.0589 68.7884 54.0228 68.6704 53.9277 68.5641C53.8335 68.4609 53.6989 68.3947 53.5251 68.3649C53.3534 68.3356 53.2042 68.3532 53.081 68.4191C52.9559 68.4878 52.8826 68.5871 52.861 68.7134L52.2285 72.4079Z" fill="white" fill-opacity="0.7"/>
<path d="M51.6588 68.5075C51.6949 68.297 51.7765 68.1162 51.9027 67.9682C52.0289 67.8205 52.1848 67.7026 52.37 67.6115C52.5548 67.5206 52.7608 67.4656 52.987 67.4395C53.2129 67.4165 53.4446 67.4244 53.6793 67.4645C53.916 67.505 54.135 67.5744 54.3422 67.6715C54.5468 67.7713 54.7214 67.8916 54.8658 68.0388C55.0119 68.1866 55.1172 68.3492 55.1888 68.5307C55.2573 68.7121 55.2741 68.9098 55.238 69.1203L54.6055 72.8148C54.5689 73.0288 54.4873 73.2096 54.3624 73.3579C54.2344 73.5056 54.081 73.6238 53.8941 73.7144C53.7095 73.8018 53.5044 73.8604 53.2781 73.8869C53.0505 73.9092 52.8207 73.9024 52.584 73.8619C52.3494 73.8218 52.1284 73.7513 51.9229 73.6549C51.7184 73.5546 51.543 73.4308 51.3983 73.2871C51.2539 73.1398 51.1462 72.9769 51.0763 72.7953C51.0065 72.6137 50.9897 72.416 51.0263 72.202L51.6588 68.5075ZM52.2285 72.4079C52.2062 72.5379 52.2424 72.6557 52.338 72.7588C52.4317 72.8651 52.5666 72.9314 52.7383 72.9608C52.9121 72.9905 53.061 72.9729 53.1847 72.9038C53.3093 72.8383 53.3825 72.7393 53.4048 72.6093L54.0373 68.9148C54.0589 68.7884 54.0228 68.6704 53.9277 68.5641C53.8335 68.4609 53.6989 68.3947 53.5251 68.3649C53.3534 68.3356 53.2042 68.3532 53.081 68.4191C52.9559 68.4878 52.8826 68.5871 52.861 68.7134L52.2285 72.4079Z" fill="url(#paint9_linear_56_4)" fill-opacity="0.6"/>
<path d="M52.5906 68.0602C52.6727 68.0198 52.7657 67.9877 52.8717 67.9645C52.8628 67.969 52.8539 67.9736 52.845 67.9783L52.845 67.9783L52.8405 67.9808C52.5958 68.115 52.4181 68.3373 52.3681 68.629L51.7356 72.3235C51.686 72.6137 51.7749 72.8843 51.9671 73.0941C51.9762 73.1043 51.9854 73.1142 51.9947 73.1239C51.9017 73.0659 51.8215 73.0023 51.753 72.9347C51.6531 72.8322 51.5857 72.7269 51.543 72.6158C51.509 72.5274 51.496 72.4219 51.5191 72.2864L52.1516 68.5919C52.1741 68.4607 52.2211 68.3653 52.2832 68.2926L51.9028 67.9682L52.2829 68.293C52.3608 68.2018 52.4605 68.1242 52.5906 68.0602ZM52.5906 68.0602L52.3705 67.6125L52.5906 68.0602ZM54.5088 68.3889L54.5088 68.3889L54.5102 68.3903C54.6086 68.4899 54.6759 68.5945 54.7223 68.7106C54.7555 68.8004 54.7674 68.9062 54.7452 69.0359L54.1127 72.7304C54.0898 72.8644 54.043 72.9601 53.9821 73.0332C53.9003 73.127 53.8029 73.2027 53.6782 73.2634C53.5903 73.3048 53.4938 73.3383 53.3875 73.362C53.3994 73.3561 53.4112 73.3499 53.423 73.3434C53.6741 73.2094 53.8479 72.9838 53.8976 72.6936L54.5301 68.9992C54.58 68.7074 54.4864 68.4387 54.3003 68.2307L54.3003 68.2307L54.2969 68.2269C54.2902 68.2196 54.2835 68.2124 54.2766 68.2054C54.3679 68.2621 54.4444 68.3232 54.5088 68.3889Z" stroke="white" stroke-opacity="0.7"/>
</g>
<g filter="url(#filter17_b_56_4)">
<path d="M56.039 69.2574C56.0751 69.0469 56.1567 68.8661 56.2826 68.718C56.4091 68.5704 56.5646 68.4524 56.7498 68.3613C56.935 68.2705 57.141 68.2155 57.3675 68.1894C57.5931 68.1664 57.8245 68.1742 58.0591 68.2144C58.2961 68.2549 58.5152 68.3243 58.722 68.4213C58.927 68.5212 59.1012 68.6414 59.2456 68.7886C59.3917 68.9364 59.4974 69.0991 59.569 69.2806C59.6371 69.4619 59.6539 69.6596 59.6179 69.8701L58.9854 73.5646C58.9487 73.7786 58.8671 73.9594 58.7426 74.1078C58.6146 74.2555 58.4609 74.3737 58.2739 74.4642C58.0894 74.5516 57.8845 74.6103 57.6579 74.6367C57.4306 74.6591 57.2009 74.6523 56.9639 74.6118C56.7292 74.5716 56.5086 74.5012 56.3034 74.4048C56.0985 74.3045 55.9232 74.1807 55.7782 74.0369C55.6337 73.8897 55.5263 73.7268 55.4562 73.5451C55.3867 73.3636 55.3699 73.1659 55.4065 72.9519L56.039 69.2574ZM56.609 73.1578C56.5867 73.2879 56.6222 73.4055 56.7185 73.5088C56.8119 73.615 56.9468 73.6813 57.1181 73.7106C57.2919 73.7403 57.4412 73.7228 57.5649 73.6537C57.6898 73.5883 57.7627 73.4892 57.7849 73.3591L58.4174 69.6647C58.4391 69.5383 58.4033 69.4204 58.3078 69.314C58.2136 69.2108 58.0787 69.1445 57.9049 69.1148C57.7336 69.0854 57.5843 69.1031 57.4615 69.1691C57.3357 69.2376 57.2631 69.337 57.2415 69.4633L56.609 73.1578Z" fill="white" fill-opacity="0.7"/>
<path d="M56.039 69.2574C56.0751 69.0469 56.1567 68.8661 56.2826 68.718C56.4091 68.5704 56.5646 68.4524 56.7498 68.3613C56.935 68.2705 57.141 68.2155 57.3675 68.1894C57.5931 68.1664 57.8245 68.1742 58.0591 68.2144C58.2961 68.2549 58.5152 68.3243 58.722 68.4213C58.927 68.5212 59.1012 68.6414 59.2456 68.7886C59.3917 68.9364 59.4974 69.0991 59.569 69.2806C59.6371 69.4619 59.6539 69.6596 59.6179 69.8701L58.9854 73.5646C58.9487 73.7786 58.8671 73.9594 58.7426 74.1078C58.6146 74.2555 58.4609 74.3737 58.2739 74.4642C58.0894 74.5516 57.8845 74.6103 57.6579 74.6367C57.4306 74.6591 57.2009 74.6523 56.9639 74.6118C56.7292 74.5716 56.5086 74.5012 56.3034 74.4048C56.0985 74.3045 55.9232 74.1807 55.7782 74.0369C55.6337 73.8897 55.5263 73.7268 55.4562 73.5451C55.3867 73.3636 55.3699 73.1659 55.4065 72.9519L56.039 69.2574ZM56.609 73.1578C56.5867 73.2879 56.6222 73.4055 56.7185 73.5088C56.8119 73.615 56.9468 73.6813 57.1181 73.7106C57.2919 73.7403 57.4412 73.7228 57.5649 73.6537C57.6898 73.5883 57.7627 73.4892 57.7849 73.3591L58.4174 69.6647C58.4391 69.5383 58.4033 69.4204 58.3078 69.314C58.2136 69.2108 58.0787 69.1445 57.9049 69.1148C57.7336 69.0854 57.5843 69.1031 57.4615 69.1691C57.3357 69.2376 57.2631 69.337 57.2415 69.4633L56.609 73.1578Z" fill="url(#paint10_linear_56_4)" fill-opacity="0.6"/>
<path d="M58.8887 69.1388L58.8887 69.1388L58.89 69.1401C58.9887 69.2399 59.0561 69.3445 59.1023 69.4601C59.1354 69.5502 59.1472 69.6562 59.125 69.7858L58.4925 73.4803C58.4696 73.6141 58.4228 73.71 58.362 73.7834C58.2805 73.8767 58.1829 73.9524 58.058 74.0132C57.9702 74.0546 57.8739 74.088 57.768 74.1118C57.7796 74.1059 57.7913 74.0998 57.8028 74.0934C58.0553 73.9591 58.2282 73.7328 58.2778 73.4435L58.9103 69.749C58.9601 69.4579 58.8674 69.189 58.68 68.9801L58.68 68.9801L58.677 68.9768C58.6704 68.9696 58.6638 68.9625 58.657 68.9555C58.748 69.0121 58.8242 69.0731 58.8887 69.1388ZM56.3478 73.8444C56.3569 73.8545 56.3661 73.8644 56.3754 73.874C56.2821 73.816 56.2016 73.7523 56.1327 73.6843C56.0335 73.5826 55.9662 73.4775 55.9229 73.3657C55.8891 73.277 55.8762 73.1714 55.8993 73.0363L56.5318 69.3418C56.5542 69.2111 56.6011 69.1156 56.6629 69.0426C56.7416 68.951 56.8411 68.8737 56.9702 68.8101C57.0528 68.7697 57.1461 68.7375 57.2525 68.7143C57.2432 68.7189 57.234 68.7237 57.2248 68.7287L57.2248 68.7286L57.2223 68.73C56.9743 68.8651 56.7983 69.0887 56.7486 69.379L56.1161 73.0735C56.0668 73.3618 56.1534 73.6329 56.3478 73.8444Z" stroke="white" stroke-opacity="0.7"/>
</g>
<g filter="url(#filter18_b_56_4)">
<path d="M60.4189 70.0073C60.4549 69.7967 60.5365 69.6159 60.6628 69.4679C60.7894 69.3203 60.9448 69.2023 61.1297 69.1112C61.3149 69.0204 61.5209 68.9653 61.7474 68.9393C61.973 68.9163 62.2047 68.9241 62.4394 68.9643C62.6764 69.0048 62.8954 69.0742 63.1023 69.1712C63.3072 69.2711 63.4814 69.3913 63.6259 69.5385C63.772 69.6863 63.8773 69.8489 63.9493 70.0305C64.0174 70.2118 64.0342 70.4095 63.9981 70.6201L63.3656 74.3145C63.329 74.5285 63.2474 74.7093 63.1228 74.8577C62.9945 75.0053 62.8411 75.1236 62.6542 75.2141C62.4696 75.3015 62.2648 75.3602 62.0382 75.3866C61.8109 75.409 61.5812 75.4022 61.3441 75.3617C61.1095 75.3215 60.8885 75.2511 60.6833 75.1547C60.4784 75.0544 60.3031 74.9306 60.1581 74.7868C60.014 74.6396 59.9066 74.4767 59.8364 74.295C59.7666 74.1135 59.7497 73.9158 59.7864 73.7018L60.4189 70.0073ZM60.9889 73.9077C60.9666 74.0377 61.0024 74.1554 61.0984 74.2586C61.1918 74.3649 61.3267 74.4311 61.4984 74.4605C61.6721 74.4903 61.8211 74.4726 61.9448 74.4035C62.07 74.3382 62.1426 74.239 62.1648 74.109L62.7973 70.4145C62.819 70.2882 62.7835 70.1703 62.6878 70.0638C62.5935 69.9607 62.459 69.8944 62.2852 69.8647C62.1135 69.8353 61.9642 69.8529 61.8414 69.9189C61.716 69.9875 61.643 70.0868 61.6214 70.2132L60.9889 73.9077Z" fill="white" fill-opacity="0.7"/>
<path d="M60.4189 70.0073C60.4549 69.7967 60.5365 69.6159 60.6628 69.4679C60.7894 69.3203 60.9448 69.2023 61.1297 69.1112C61.3149 69.0204 61.5209 68.9653 61.7474 68.9393C61.973 68.9163 62.2047 68.9241 62.4394 68.9643C62.6764 69.0048 62.8954 69.0742 63.1023 69.1712C63.3072 69.2711 63.4814 69.3913 63.6259 69.5385C63.772 69.6863 63.8773 69.8489 63.9493 70.0305C64.0174 70.2118 64.0342 70.4095 63.9981 70.6201L63.3656 74.3145C63.329 74.5285 63.2474 74.7093 63.1228 74.8577C62.9945 75.0053 62.8411 75.1236 62.6542 75.2141C62.4696 75.3015 62.2648 75.3602 62.0382 75.3866C61.8109 75.409 61.5812 75.4022 61.3441 75.3617C61.1095 75.3215 60.8885 75.2511 60.6833 75.1547C60.4784 75.0544 60.3031 74.9306 60.1581 74.7868C60.014 74.6396 59.9066 74.4767 59.8364 74.295C59.7666 74.1135 59.7497 73.9158 59.7864 73.7018L60.4189 70.0073ZM60.9889 73.9077C60.9666 74.0377 61.0024 74.1554 61.0984 74.2586C61.1918 74.3649 61.3267 74.4311 61.4984 74.4605C61.6721 74.4903 61.8211 74.4726 61.9448 74.4035C62.07 74.3382 62.1426 74.239 62.1648 74.109L62.7973 70.4145C62.819 70.2882 62.7835 70.1703 62.6878 70.0638C62.5935 69.9607 62.459 69.8944 62.2852 69.8647C62.1135 69.8353 61.9642 69.8529 61.8414 69.9189C61.716 69.9875 61.643 70.0868 61.6214 70.2132L60.9889 73.9077Z" fill="url(#paint11_linear_56_4)" fill-opacity="0.6"/>
<path d="M63.2689 69.8886L63.2689 69.8886L63.2702 69.89C63.3685 69.9894 63.4359 70.0939 63.4827 70.2104C63.5157 70.3004 63.5275 70.4063 63.5053 70.5357L62.8728 74.2302C62.8499 74.3638 62.8033 74.4596 62.7425 74.5331C62.6601 74.627 62.5626 74.7026 62.4382 74.7631C62.3502 74.8046 62.2537 74.8381 62.1474 74.8619C62.1591 74.856 62.1708 74.8499 62.1824 74.8435C62.4363 74.7088 62.6083 74.4818 62.6577 74.1934L63.2902 70.4989C63.3399 70.2085 63.2482 69.9392 63.0594 69.7294L63.0594 69.7293L63.0569 69.7266C63.0502 69.7193 63.0434 69.7121 63.0366 69.705C63.1279 69.7617 63.2043 69.8228 63.2689 69.8886ZM60.7275 74.5939C60.7366 74.6042 60.7459 74.6141 60.7553 74.6239C60.6621 74.5659 60.5816 74.5022 60.5128 74.4344C60.4136 74.3324 60.3463 74.2271 60.3029 74.1151C60.269 74.0268 60.2561 73.9214 60.2792 73.7861L60.9117 70.0917C60.9341 69.9607 60.981 69.8654 61.0428 69.7928C61.1215 69.7011 61.2212 69.6236 61.3503 69.5599C61.4329 69.5195 61.5261 69.4873 61.6324 69.4642C61.6231 69.4688 61.6139 69.4736 61.6047 69.4785L61.6047 69.4785L61.6016 69.4802C61.3552 69.6149 61.1784 69.8378 61.1286 70.1288L60.4961 73.8233C60.4466 74.1125 60.5343 74.3833 60.7275 74.5939Z" stroke="white" stroke-opacity="0.7"/>
</g>
<g filter="url(#filter19_b_56_4)">
<path d="M69.1776 71.5068C69.2136 71.2962 69.2949 71.1154 69.4215 70.9674C69.5473 70.8196 69.7028 70.7017 69.8881 70.6106C70.0732 70.5198 70.2796 70.4648 70.5057 70.4387C70.7317 70.4158 70.963 70.4235 71.198 70.4638C71.4344 70.5042 71.6534 70.5736 71.8609 70.6707C72.0655 70.7706 72.2394 70.8907 72.3838 71.0379C72.5299 71.1857 72.6359 71.3484 72.7076 71.53C72.776 71.7113 72.7925 71.9089 72.7564 72.1195L72.1239 75.814C72.0873 76.028 72.006 76.2088 71.8812 76.3571C71.7532 76.5048 71.5991 76.6229 71.4122 76.7135C71.2276 76.8009 71.0231 76.8596 70.7969 76.8861C70.5689 76.9084 70.3391 76.9016 70.1028 76.8612C69.8678 76.8209 69.6471 76.7506 69.4416 76.6541C69.2371 76.5538 69.0614 76.43 68.9164 76.2862C68.772 76.1389 68.6646 75.9761 68.5951 75.7945C68.5249 75.6129 68.5084 75.4153 68.5451 75.2013L69.1776 71.5068ZM69.7472 75.4071C69.7249 75.5371 69.7607 75.6548 69.8567 75.758C69.9504 75.8644 70.085 75.9305 70.257 75.96C70.4304 75.9897 70.5797 75.9721 70.7034 75.903C70.828 75.8375 70.9012 75.7385 70.9235 75.6085L71.556 71.914C71.5776 71.7877 71.5415 71.6697 71.4464 71.5633C71.3522 71.4601 71.2172 71.3939 71.0438 71.3642C70.8718 71.3347 70.7229 71.3524 70.5997 71.4184C70.4742 71.4869 70.4013 71.5863 70.3797 71.7126L69.7472 75.4071Z" fill="white" fill-opacity="0.7"/>
<path d="M69.1776 71.5068C69.2136 71.2962 69.2949 71.1154 69.4215 70.9674C69.5473 70.8196 69.7028 70.7017 69.8881 70.6106C70.0732 70.5198 70.2796 70.4648 70.5057 70.4387C70.7317 70.4158 70.963 70.4235 71.198 70.4638C71.4344 70.5042 71.6534 70.5736 71.8609 70.6707C72.0655 70.7706 72.2394 70.8907 72.3838 71.0379C72.5299 71.1857 72.6359 71.3484 72.7076 71.53C72.776 71.7113 72.7925 71.9089 72.7564 72.1195L72.1239 75.814C72.0873 76.028 72.006 76.2088 71.8812 76.3571C71.7532 76.5048 71.5991 76.6229 71.4122 76.7135C71.2276 76.8009 71.0231 76.8596 70.7969 76.8861C70.5689 76.9084 70.3391 76.9016 70.1028 76.8612C69.8678 76.8209 69.6471 76.7506 69.4416 76.6541C69.2371 76.5538 69.0614 76.43 68.9164 76.2862C68.772 76.1389 68.6646 75.9761 68.5951 75.7945C68.5249 75.6129 68.5084 75.4153 68.5451 75.2013L69.1776 71.5068ZM69.7472 75.4071C69.7249 75.5371 69.7607 75.6548 69.8567 75.758C69.9504 75.8644 70.085 75.9305 70.257 75.96C70.4304 75.9897 70.5797 75.9721 70.7034 75.903C70.828 75.8375 70.9012 75.7385 70.9235 75.6085L71.556 71.914C71.5776 71.7877 71.5415 71.6697 71.4464 71.5633C71.3522 71.4601 71.2172 71.3939 71.0438 71.3642C70.8718 71.3347 70.7229 71.3524 70.5997 71.4184C70.4742 71.4869 70.4013 71.5863 70.3797 71.7126L69.7472 75.4071Z" fill="url(#paint12_linear_56_4)" fill-opacity="0.6"/>
<path d="M70.3905 70.9637C70.3815 70.9682 70.3726 70.9728 70.3637 70.9776L70.3637 70.9775L70.3598 70.9796C70.1135 71.1143 69.9367 71.3372 69.8868 71.6282L69.2543 75.3227C69.2048 75.612 69.2926 75.883 69.486 76.0936C69.4951 76.1037 69.5042 76.1136 69.5135 76.1232L70.3905 70.9637Z" stroke="white" stroke-opacity="0.7"/>
</g>
<g filter="url(#filter20_b_56_4)">
<path d="M73.5574 72.2566C73.5935 72.0461 73.6747 71.8652 73.8014 71.7172C73.9276 71.5695 74.083 71.4516 74.2683 71.3605C74.4531 71.2696 74.6598 71.2147 74.8859 71.1886C75.1119 71.1657 75.3433 71.1734 75.5779 71.2136C75.8146 71.2541 76.0337 71.3235 76.2408 71.4206C76.4454 71.5204 76.62 71.6406 76.7644 71.7879C76.9102 71.9356 77.0158 72.0983 77.0878 72.2799C77.1559 72.4611 77.1724 72.6588 77.1363 72.8693L76.5038 76.5638C76.4672 76.7778 76.3859 76.9587 76.2614 77.107C76.133 77.2547 75.9793 77.3728 75.7928 77.4634C75.6082 77.5508 75.403 77.6095 75.1768 77.636C74.9491 77.6583 74.7194 77.6515 74.4827 77.611C74.248 77.5708 74.0274 77.5005 73.8219 77.404C73.6173 77.3037 73.4413 77.1798 73.2966 77.0361C73.1522 76.8888 73.0448 76.726 72.9749 76.5444C72.9048 76.3627 72.8883 76.1651 72.9249 75.9511L73.5574 72.2566ZM74.1271 76.1569C74.1048 76.287 74.141 76.4047 74.2366 76.5079C74.3303 76.6142 74.4652 76.6804 74.6369 76.7098C74.8103 76.7395 74.9596 76.7219 75.0833 76.6528C75.2082 76.5874 75.2811 76.4884 75.3034 76.3583L75.9359 72.6638C75.9575 72.5375 75.9217 72.4195 75.8263 72.3132C75.732 72.21 75.5971 72.1437 75.4237 72.114C75.252 72.0846 75.1027 72.1023 74.9796 72.1682C74.8545 72.2368 74.7812 72.3361 74.7596 72.4625L74.1271 76.1569Z" fill="white" fill-opacity="0.7"/>
<path d="M73.5574 72.2566C73.5935 72.0461 73.6747 71.8652 73.8014 71.7172C73.9276 71.5695 74.083 71.4516 74.2683 71.3605C74.4531 71.2696 74.6598 71.2147 74.8859 71.1886C75.1119 71.1657 75.3433 71.1734 75.5779 71.2136C75.8146 71.2541 76.0337 71.3235 76.2408 71.4206C76.4454 71.5204 76.62 71.6406 76.7644 71.7879C76.9102 71.9356 77.0158 72.0983 77.0878 72.2799C77.1559 72.4611 77.1724 72.6588 77.1363 72.8693L76.5038 76.5638C76.4672 76.7778 76.3859 76.9587 76.2614 77.107C76.133 77.2547 75.9793 77.3728 75.7928 77.4634C75.6082 77.5508 75.403 77.6095 75.1768 77.636C74.9491 77.6583 74.7194 77.6515 74.4827 77.611C74.248 77.5708 74.0274 77.5005 73.8219 77.404C73.6173 77.3037 73.4413 77.1798 73.2966 77.0361C73.1522 76.8888 73.0448 76.726 72.9749 76.5444C72.9048 76.3627 72.8883 76.1651 72.9249 75.9511L73.5574 72.2566ZM74.1271 76.1569C74.1048 76.287 74.141 76.4047 74.2366 76.5079C74.3303 76.6142 74.4652 76.6804 74.6369 76.7098C74.8103 76.7395 74.9596 76.7219 75.0833 76.6528C75.2082 76.5874 75.2811 76.4884 75.3034 76.3583L75.9359 72.6638C75.9575 72.5375 75.9217 72.4195 75.8263 72.3132C75.732 72.21 75.5971 72.1437 75.4237 72.114C75.252 72.0846 75.1027 72.1023 74.9796 72.1682C74.8545 72.2368 74.7812 72.3361 74.7596 72.4625L74.1271 76.1569Z" fill="url(#paint13_linear_56_4)" fill-opacity="0.6"/>
<path d="M74.4889 71.8092C74.5707 71.769 74.6638 71.7369 74.77 71.7137C74.7612 71.7181 74.7523 71.7227 74.7436 71.7274L74.7436 71.7274L74.7391 71.7298C74.4943 71.8641 74.3167 72.0863 74.2667 72.3781L73.6342 76.0726C73.5846 76.3627 73.6735 76.6334 73.8657 76.8432C73.8747 76.8533 73.8838 76.8631 73.8931 76.8727C73.7999 76.8147 73.7195 76.7511 73.6514 76.6837C73.5518 76.5816 73.4845 76.4764 73.4416 76.3648L73.4413 76.3642C73.4075 76.2766 73.3945 76.1715 73.4178 76.0355L74.0503 72.341C74.0728 72.2092 74.1197 72.1142 74.1813 72.0423L74.1815 72.042C74.2597 71.9505 74.3592 71.873 74.4889 71.8092ZM74.4889 71.8092L74.2698 71.3635L74.4889 71.8092ZM76.1955 71.976C76.1888 71.9687 76.182 71.9615 76.1752 71.9544C76.2665 72.0112 76.343 72.0722 76.4075 72.138L76.4075 72.138L76.4085 72.139C76.5069 72.2388 76.5746 72.3436 76.6212 72.4597C76.6541 72.5492 76.6658 72.655 76.6435 72.785L76.011 76.4794C75.988 76.6136 75.9414 76.7094 75.8811 76.7824C75.799 76.876 75.7012 76.9517 75.5765 77.0126C75.4887 77.0539 75.3923 77.0874 75.286 77.1111C75.2978 77.1052 75.3096 77.099 75.3213 77.0926C75.5738 76.9583 75.7467 76.732 75.7962 76.4427L76.4287 72.7482C76.4785 72.4571 76.3858 72.1881 76.1984 71.9793L76.1985 71.9792L76.1955 71.976Z" stroke="white" stroke-opacity="0.7"/>
</g>
<g filter="url(#filter21_b_56_4)">
<path d="M77.9376 73.0065C77.9737 72.796 78.0552 72.6152 78.1812 72.4671C78.3074 72.3194 78.4632 72.2015 78.6484 72.1104C78.8336 72.0196 79.0396 71.9645 79.2658 71.9385C79.4917 71.9155 79.7231 71.9233 79.9581 71.9635C80.1945 72.004 80.4135 72.0733 80.6207 72.1704C80.8253 72.2702 80.9998 72.3905 81.1442 72.5377C81.2904 72.6855 81.396 72.8482 81.4676 73.0297C81.5361 73.211 81.5529 73.4087 81.5168 73.6193L80.8843 77.3138C80.8477 77.5278 80.7661 77.7086 80.6412 77.8568C80.5132 78.0046 80.3595 78.1227 80.1726 78.2133C79.988 78.3007 79.7828 78.3593 79.5566 78.3858C79.3289 78.4081 79.0992 78.4014 78.8629 78.3609C78.6279 78.3207 78.4072 78.2503 78.2017 78.1538C77.9972 78.0536 77.8218 77.9298 77.6768 77.786C77.5324 77.6387 77.4246 77.4758 77.3548 77.2942C77.2853 77.1127 77.2685 76.915 77.3051 76.701L77.9376 73.0065ZM78.5073 76.9068C78.485 77.0369 78.5208 77.1546 78.6168 77.2578C78.7105 77.3641 78.8454 77.4303 79.0171 77.4597C79.1909 77.4895 79.3398 77.4718 79.4635 77.4027C79.5881 77.3373 79.6613 77.2383 79.6836 77.1082L80.3161 73.4137C80.3377 73.2874 80.3016 73.1694 80.2065 73.0631C80.1123 72.9599 79.9777 72.8937 79.8039 72.8639C79.6322 72.8345 79.483 72.8522 79.3598 72.9181C79.2343 72.9867 79.1614 73.086 79.1398 73.2124L78.5073 76.9068Z" fill="white" fill-opacity="0.7"/>
<path d="M77.9376 73.0065C77.9737 72.796 78.0552 72.6152 78.1812 72.4671C78.3074 72.3194 78.4632 72.2015 78.6484 72.1104C78.8336 72.0196 79.0396 71.9645 79.2658 71.9385C79.4917 71.9155 79.7231 71.9233 79.9581 71.9635C80.1945 72.004 80.4135 72.0733 80.6207 72.1704C80.8253 72.2702 80.9998 72.3905 81.1442 72.5377C81.2904 72.6855 81.396 72.8482 81.4676 73.0297C81.5361 73.211 81.5529 73.4087 81.5168 73.6193L80.8843 77.3138C80.8477 77.5278 80.7661 77.7086 80.6412 77.8568C80.5132 78.0046 80.3595 78.1227 80.1726 78.2133C79.988 78.3007 79.7828 78.3593 79.5566 78.3858C79.3289 78.4081 79.0992 78.4014 78.8629 78.3609C78.6279 78.3207 78.4072 78.2503 78.2017 78.1538C77.9972 78.0536 77.8218 77.9298 77.6768 77.786C77.5324 77.6387 77.4246 77.4758 77.3548 77.2942C77.2853 77.1127 77.2685 76.915 77.3051 76.701L77.9376 73.0065ZM78.5073 76.9068C78.485 77.0369 78.5208 77.1546 78.6168 77.2578C78.7105 77.3641 78.8454 77.4303 79.0171 77.4597C79.1909 77.4895 79.3398 77.4718 79.4635 77.4027C79.5881 77.3373 79.6613 77.2383 79.6836 77.1082L80.3161 73.4137C80.3377 73.2874 80.3016 73.1694 80.2065 73.0631C80.1123 72.9599 79.9777 72.8937 79.8039 72.8639C79.6322 72.8345 79.483 72.8522 79.3598 72.9181C79.2343 72.9867 79.1614 73.086 79.1398 73.2124L78.5073 76.9068Z" fill="url(#paint14_linear_56_4)" fill-opacity="0.6"/>
<path d="M80.7873 72.8878L80.7873 72.8878L80.7886 72.8892C80.8874 72.9891 80.9549 73.0938 81.0011 73.2096C81.0343 73.2994 81.0462 73.4052 81.024 73.5349L80.3915 77.2294C80.3686 77.3633 80.3218 77.459 80.2609 77.5322C80.1793 77.6256 80.0817 77.7014 79.9566 77.7623C79.869 77.8036 79.7728 77.837 79.6668 77.8607C79.6785 77.8549 79.6902 77.8487 79.7018 77.8423C79.9529 77.7084 80.1267 77.4827 80.1764 77.1926L80.8089 73.4981C80.8589 73.2063 80.7651 72.9377 80.5792 72.7297L80.5792 72.7297L80.5757 72.7259C80.5691 72.7187 80.5625 72.7117 80.5558 72.7047C80.6468 72.7614 80.723 72.8223 80.7873 72.8878ZM78.2462 77.5934C78.2551 77.6034 78.2643 77.6133 78.2735 77.6229C78.1805 77.5649 78.1001 77.5013 78.0313 77.4334C77.9316 77.3311 77.8643 77.226 77.8216 77.115C77.7877 77.0264 77.7748 76.9207 77.798 76.7854L78.4305 73.0909C78.4529 72.9599 78.4998 72.8643 78.5617 72.7914C78.6396 72.7005 78.7391 72.623 78.8688 72.5592C78.9513 72.5188 79.0445 72.4866 79.1505 72.4635C79.1416 72.4679 79.1327 72.4725 79.1238 72.4773L79.1238 72.4773L79.1199 72.4794C78.8736 72.614 78.6968 72.8369 78.6469 73.128L78.0144 76.8225C77.9649 77.1118 78.0527 77.3827 78.2462 77.5934Z" stroke="white" stroke-opacity="0.7"/>
</g>
<g filter="url(#filter22_b_56_4)">
<path d="M82.3175 73.7563C82.3536 73.5458 82.4352 73.365 82.5614 73.217C82.688 73.0693 82.8435 72.9514 83.0287 72.8603C83.2135 72.7694 83.4195 72.7144 83.6463 72.6884C83.8716 72.6653 84.1033 72.6731 84.3379 72.7133C84.575 72.7539 84.794 72.8233 85.0009 72.9203C85.2058 73.0202 85.38 73.1403 85.5245 73.2876C85.6706 73.4354 85.7759 73.598 85.8475 73.7795C85.916 73.9609 85.9327 74.1586 85.8967 74.3691L85.2642 78.0636C85.2276 78.2776 85.146 78.4584 85.0211 78.6067C84.8931 78.7544 84.7397 78.8726 84.5528 78.9631C84.3682 79.0505 84.1634 79.1092 83.9368 79.1357C83.7095 79.1581 83.4798 79.1513 83.2427 79.1107C83.0081 79.0705 82.7871 79.0001 82.5822 78.9038C82.377 78.8034 82.2017 78.6796 82.057 78.5359C81.9126 78.3886 81.8052 78.2257 81.735 78.0441C81.6652 77.8625 81.6484 77.6648 81.685 77.4508L82.3175 73.7563ZM82.8875 77.6567C82.8652 77.7868 82.901 77.9045 82.997 78.0077C83.0904 78.1139 83.2253 78.1802 83.397 78.2096C83.5707 78.2393 83.7197 78.2217 83.8434 78.1526C83.9686 78.0872 84.0412 77.9881 84.0634 77.8581L84.6959 74.1636C84.7176 74.0372 84.6821 73.9193 84.5863 73.8129C84.4921 73.7097 84.3575 73.6435 84.1838 73.6137C84.0121 73.5843 83.8628 73.602 83.74 73.668C83.6145 73.7366 83.5416 73.8359 83.52 73.9622L82.8875 77.6567Z" fill="white" fill-opacity="0.7"/>
<path d="M82.3175 73.7563C82.3536 73.5458 82.4352 73.365 82.5614 73.217C82.688 73.0693 82.8435 72.9514 83.0287 72.8603C83.2135 72.7694 83.4195 72.7144 83.6463 72.6884C83.8716 72.6653 84.1033 72.6731 84.3379 72.7133C84.575 72.7539 84.794 72.8233 85.0009 72.9203C85.2058 73.0202 85.38 73.1403 85.5245 73.2876C85.6706 73.4354 85.7759 73.598 85.8475 73.7795C85.916 73.9609 85.9327 74.1586 85.8967 74.3691L85.2642 78.0636C85.2276 78.2776 85.146 78.4584 85.0211 78.6067C84.8931 78.7544 84.7397 78.8726 84.5528 78.9631C84.3682 79.0505 84.1634 79.1092 83.9368 79.1357C83.7095 79.1581 83.4798 79.1513 83.2427 79.1107C83.0081 79.0705 82.7871 79.0001 82.5822 78.9038C82.377 78.8034 82.2017 78.6796 82.057 78.5359C81.9126 78.3886 81.8052 78.2257 81.735 78.0441C81.6652 77.8625 81.6484 77.6648 81.685 77.4508L82.3175 73.7563ZM82.8875 77.6567C82.8652 77.7868 82.901 77.9045 82.997 78.0077C83.0904 78.1139 83.2253 78.1802 83.397 78.2096C83.5707 78.2393 83.7197 78.2217 83.8434 78.1526C83.9686 78.0872 84.0412 77.9881 84.0634 77.8581L84.6959 74.1636C84.7176 74.0372 84.6821 73.9193 84.5863 73.8129C84.4921 73.7097 84.3575 73.6435 84.1838 73.6137C84.0121 73.5843 83.8628 73.602 83.74 73.668C83.6145 73.7366 83.5416 73.8359 83.52 73.9622L82.8875 77.6567Z" fill="url(#paint15_linear_56_4)" fill-opacity="0.6"/>
<path d="M83.2493 73.309C83.3314 73.2686 83.4245 73.2364 83.5308 73.2133C83.5216 73.2179 83.5124 73.2227 83.5033 73.2276L83.5033 73.2275L83.5001 73.2293C83.2538 73.3639 83.077 73.5868 83.0271 73.8779L82.3946 77.5724C82.3451 77.8615 82.4329 78.1324 82.6261 78.343C82.6352 78.3532 82.6444 78.3631 82.6537 78.3728C82.5605 78.3148 82.4802 78.2512 82.4118 78.1835C82.3123 78.0815 82.2449 77.9763 82.2016 77.8643C82.1676 77.7759 82.1547 77.6705 82.1778 77.5352L82.8103 73.8407C82.8328 73.7098 82.8796 73.6145 82.9415 73.5419C83.0202 73.4501 83.1199 73.3726 83.2493 73.309ZM83.2493 73.309L83.0292 72.8613L83.2493 73.309ZM85.1675 73.6377L85.1675 73.6377L85.1688 73.6391C85.2673 73.7387 85.3346 73.8433 85.3809 73.9594C85.4142 74.0492 85.4261 74.155 85.4039 74.2847L84.7714 77.9792C84.7484 78.1132 84.7016 78.2089 84.6408 78.282C84.5589 78.3758 84.4615 78.4515 84.3368 78.5122C84.2488 78.5537 84.1523 78.5872 84.046 78.6109C84.0577 78.605 84.0694 78.5989 84.081 78.5925C84.3349 78.4578 84.5069 78.2309 84.5563 77.9424L85.1888 74.2479C85.2385 73.9576 85.1468 73.6882 84.958 73.4784L84.958 73.4784L84.9555 73.4756C84.9488 73.4683 84.942 73.4611 84.9351 73.454C85.0265 73.5108 85.1029 73.5718 85.1675 73.6377Z" stroke="white" stroke-opacity="0.7"/>
</g>
<g filter="url(#filter23_b_56_4)">
<path d="M91.0758 75.2558C91.1119 75.0452 91.1934 74.8644 91.3201 74.7164C91.4463 74.5688 91.6018 74.4508 91.7867 74.3597C91.9718 74.2689 92.1778 74.2138 92.4043 74.1878C92.6303 74.1648 92.8613 74.1725 93.0966 74.2128C93.333 74.2533 93.5524 74.3227 93.7592 74.4197C93.9641 74.5196 94.1384 74.6398 94.2824 74.787C94.4289 74.9348 94.5345 75.0975 94.6062 75.279C94.6743 75.4603 94.6911 75.658 94.6551 75.8686L94.0226 79.563C93.9859 79.777 93.9043 79.9578 93.7798 80.1062C93.6518 80.2539 93.498 80.3721 93.3108 80.4625C93.1265 80.55 92.9217 80.6087 92.6951 80.6351C92.4678 80.6575 92.2377 80.6507 92.0014 80.6102C91.7661 80.5699 91.5458 80.4996 91.3402 80.4032C91.1354 80.3029 90.96 80.1791 90.815 80.0353C90.6709 79.8881 90.5635 79.7252 90.4937 79.5436C90.4235 79.362 90.4067 79.1643 90.4433 78.9503L91.0758 75.2558ZM91.6458 79.1562C91.6235 79.2862 91.6593 79.4039 91.7553 79.5071C91.849 79.6134 91.9836 79.6796 92.1556 79.7091C92.329 79.7387 92.4783 79.7212 92.6017 79.652C92.7266 79.5866 92.7995 79.4875 92.8217 79.3575L93.4542 75.663C93.4759 75.5367 93.4401 75.4187 93.3446 75.3123C93.2508 75.2092 93.1158 75.1429 92.9424 75.1132C92.7704 75.0838 92.6215 75.1015 92.4983 75.1674C92.3728 75.236 92.2999 75.3353 92.2783 75.4617L91.6458 79.1562Z" fill="white" fill-opacity="0.7"/>
<path d="M91.0758 75.2558C91.1119 75.0452 91.1934 74.8644 91.3201 74.7164C91.4463 74.5688 91.6018 74.4508 91.7867 74.3597C91.9718 74.2689 92.1778 74.2138 92.4043 74.1878C92.6303 74.1648 92.8613 74.1725 93.0966 74.2128C93.333 74.2533 93.5524 74.3227 93.7592 74.4197C93.9641 74.5196 94.1384 74.6398 94.2824 74.787C94.4289 74.9348 94.5345 75.0975 94.6062 75.279C94.6743 75.4603 94.6911 75.658 94.6551 75.8686L94.0226 79.563C93.9859 79.777 93.9043 79.9578 93.7798 80.1062C93.6518 80.2539 93.498 80.3721 93.3108 80.4625C93.1265 80.55 92.9217 80.6087 92.6951 80.6351C92.4678 80.6575 92.2377 80.6507 92.0014 80.6102C91.7661 80.5699 91.5458 80.4996 91.3402 80.4032C91.1354 80.3029 90.96 80.1791 90.815 80.0353C90.6709 79.8881 90.5635 79.7252 90.4937 79.5436C90.4235 79.362 90.4067 79.1643 90.4433 78.9503L91.0758 75.2558ZM91.6458 79.1562C91.6235 79.2862 91.6593 79.4039 91.7553 79.5071C91.849 79.6134 91.9836 79.6796 92.1556 79.7091C92.329 79.7387 92.4783 79.7212 92.6017 79.652C92.7266 79.5866 92.7995 79.4875 92.8217 79.3575L93.4542 75.663C93.4759 75.5367 93.4401 75.4187 93.3446 75.3123C93.2508 75.2092 93.1158 75.1429 92.9424 75.1132C92.7704 75.0838 92.6215 75.1015 92.4983 75.1674C92.3728 75.236 92.2999 75.3353 92.2783 75.4617L91.6458 79.1562Z" fill="url(#paint16_linear_56_4)" fill-opacity="0.6"/>
<path d="M91.6999 75.0416L91.7002 75.0413C91.7784 74.9498 91.8779 74.8722 92.0072 74.8084C92.0898 74.768 92.183 74.7358 92.2893 74.7127C92.2803 74.7172 92.2713 74.7218 92.2623 74.7266L92.2623 74.7266L92.2584 74.7287C92.0121 74.8634 91.8353 75.0863 91.7854 75.3773L91.1529 79.0718C91.1034 79.3611 91.1912 79.632 91.3846 79.8427C91.3937 79.8528 91.4029 79.8627 91.4123 79.8724C91.319 79.8144 91.2386 79.7507 91.1697 79.6829C91.0704 79.5808 91.0032 79.4756 90.9603 79.364L90.9601 79.3634C90.926 79.2753 90.913 79.1701 90.9361 79.0346L91.5686 75.3402C91.5911 75.2089 91.6381 75.1139 91.6999 75.0416ZM93.7144 74.9757C93.7075 74.9682 93.7005 74.9608 93.6935 74.9535C93.7847 75.0102 93.8609 75.0711 93.9251 75.1367L93.9251 75.1367L93.9272 75.1388C94.0259 75.2385 94.0933 75.343 94.1395 75.4585C94.1726 75.5486 94.1844 75.6547 94.1622 75.7842L93.5297 79.4787C93.5068 79.6124 93.4601 79.7084 93.3992 79.7818C93.3176 79.8752 93.22 79.9509 93.0948 80.0116C93.0071 80.0531 92.9107 80.0866 92.8044 80.1103C92.8163 80.1044 92.8281 80.0981 92.84 80.0916C93.0923 79.9572 93.2651 79.731 93.3146 79.4419L93.9471 75.7474C93.9969 75.4563 93.9042 75.1873 93.7168 74.9784L93.7168 74.9784L93.7144 74.9757Z" stroke="white" stroke-opacity="0.7"/>
</g>
<g filter="url(#filter24_b_56_4)">
<path d="M95.4561 76.0057C95.4921 75.7951 95.5734 75.6143 95.7 75.4663C95.8262 75.3186 95.9817 75.2006 96.1669 75.1096C96.352 75.0188 96.5584 74.9638 96.7845 74.9377C97.0105 74.9147 97.2419 74.9225 97.4765 74.9627C97.7132 75.0032 97.9322 75.0725 98.1395 75.1696C98.344 75.2695 98.5183 75.3896 98.6627 75.5369C98.8088 75.6847 98.9148 75.8474 98.9864 76.0289C99.0545 76.2102 99.071 76.4078 99.035 76.6184L98.4025 80.3129C98.3658 80.5269 98.2846 80.7077 98.16 80.8561C98.032 81.0038 97.8779 81.1219 97.691 81.2124C97.5064 81.2998 97.3016 81.3585 97.0754 81.385C96.8477 81.4073 96.618 81.4006 96.3813 81.3601C96.1466 81.3199 95.926 81.2495 95.7204 81.1531C95.5159 81.0528 95.3402 80.929 95.1952 80.7851C95.0508 80.6379 94.9434 80.475 94.8736 80.2934C94.8034 80.1118 94.7869 79.9142 94.8236 79.7002L95.4561 76.0057ZM96.0257 79.906C96.0034 80.036 96.0396 80.1538 96.1352 80.2569C96.2289 80.3633 96.3638 80.4295 96.5355 80.4589C96.7089 80.4886 96.8582 80.471 96.9823 80.402C97.1069 80.3365 97.1797 80.2374 97.202 80.1074L97.8345 76.4129C97.8561 76.2866 97.8204 76.1686 97.7253 76.0623C97.6307 75.9591 97.4958 75.8928 97.3223 75.8631C97.1507 75.8337 97.0014 75.8513 96.8782 75.9173C96.7531 75.9859 96.6798 76.0852 96.6582 76.2115L96.0257 79.906Z" fill="white" fill-opacity="0.7"/>
<path d="M95.4561 76.0057C95.4921 75.7951 95.5734 75.6143 95.7 75.4663C95.8262 75.3186 95.9817 75.2006 96.1669 75.1096C96.352 75.0188 96.5584 74.9638 96.7845 74.9377C97.0105 74.9147 97.2419 74.9225 97.4765 74.9627C97.7132 75.0032 97.9322 75.0725 98.1395 75.1696C98.344 75.2695 98.5183 75.3896 98.6627 75.5369C98.8088 75.6847 98.9148 75.8474 98.9864 76.0289C99.0545 76.2102 99.071 76.4078 99.035 76.6184L98.4025 80.3129C98.3658 80.5269 98.2846 80.7077 98.16 80.8561C98.032 81.0038 97.8779 81.1219 97.691 81.2124C97.5064 81.2998 97.3016 81.3585 97.0754 81.385C96.8477 81.4073 96.618 81.4006 96.3813 81.3601C96.1466 81.3199 95.926 81.2495 95.7204 81.1531C95.5159 81.0528 95.3402 80.929 95.1952 80.7851C95.0508 80.6379 94.9434 80.475 94.8736 80.2934C94.8034 80.1118 94.7869 79.9142 94.8236 79.7002L95.4561 76.0057ZM96.0257 79.906C96.0034 80.036 96.0396 80.1538 96.1352 80.2569C96.2289 80.3633 96.3638 80.4295 96.5355 80.4589C96.7089 80.4886 96.8582 80.471 96.9823 80.402C97.1069 80.3365 97.1797 80.2374 97.202 80.1074L97.8345 76.4129C97.8561 76.2866 97.8204 76.1686 97.7253 76.0623C97.6307 75.9591 97.4958 75.8928 97.3223 75.8631C97.1507 75.8337 97.0014 75.8513 96.8782 75.9173C96.7531 75.9859 96.6798 76.0852 96.6582 76.2115L96.0257 79.906Z" fill="url(#paint17_linear_56_4)" fill-opacity="0.6"/>
<path d="M96.0799 75.7913L96.0801 75.7911C96.1583 75.6996 96.2577 75.6221 96.3873 75.5584C96.4695 75.5181 96.5625 75.486 96.6685 75.4628C96.6597 75.4672 96.651 75.4718 96.6422 75.4764L96.6422 75.4764L96.6377 75.4789C96.393 75.6132 96.2153 75.8354 96.1653 76.1271L95.5328 79.8216C95.4832 80.1118 95.5721 80.3825 95.7643 80.5923C95.7733 80.6023 95.7824 80.6121 95.7916 80.6217C95.6987 80.5638 95.6183 80.5002 95.5498 80.4326C95.4503 80.3305 95.3831 80.2254 95.3402 80.114L95.34 80.1132C95.3061 80.0256 95.2931 79.9206 95.3164 79.7845L95.9489 76.0901C95.9715 75.9582 96.0183 75.8633 96.0799 75.7913ZM98.0939 75.7245C98.0876 75.7176 98.0811 75.7108 98.0746 75.704C98.1654 75.7606 98.2414 75.8214 98.3057 75.887L98.3057 75.887L98.3071 75.8883C98.406 75.9885 98.4737 76.0932 98.5197 76.2084C98.5526 76.298 98.5644 76.4039 98.5421 76.534L97.9096 80.2285C97.8866 80.3629 97.8399 80.4587 97.7794 80.5317C97.6982 80.6247 97.6005 80.7004 97.475 80.7615C97.3874 80.8028 97.2913 80.8362 97.1856 80.8599C97.1972 80.8541 97.2087 80.8481 97.2202 80.8417C97.4723 80.7074 97.6453 80.4811 97.6948 80.1918L98.3273 76.4973C98.3771 76.2064 98.2846 75.9376 98.0979 75.729L98.098 75.7289L98.0939 75.7245Z" stroke="white" stroke-opacity="0.7"/>
</g>
<g filter="url(#filter25_b_56_4)">
<path d="M99.8362 76.7556C99.8723 76.545 99.9535 76.3642 100.08 76.2162C100.206 76.0684 100.361 75.9505 100.547 75.8594C100.732 75.7686 100.938 75.7136 101.164 75.6875C101.39 75.6646 101.622 75.6723 101.857 75.7126C102.093 75.753 102.312 75.8224 102.52 75.9195C102.724 76.0194 102.899 76.1396 103.043 76.2868C103.189 76.4346 103.295 76.5972 103.366 76.7788C103.435 76.9601 103.451 77.1577 103.415 77.3683L102.783 81.0628C102.746 81.2768 102.665 81.4576 102.54 81.6059C102.412 81.7536 102.258 81.8718 102.071 81.9623C101.887 82.0498 101.682 82.1084 101.456 82.1349C101.228 82.1572 100.998 82.1504 100.761 82.11C100.526 82.0697 100.306 81.9994 100.1 81.9029C99.8958 81.8026 99.7201 81.6788 99.5751 81.535C99.4307 81.3877 99.3233 81.2249 99.2537 81.0433C99.1836 80.8617 99.1671 80.6641 99.2037 80.4501L99.8362 76.7556ZM100.406 80.6559C100.384 80.7859 100.42 80.9037 100.515 81.0068C100.609 81.1132 100.744 81.1794 100.916 81.2088C101.089 81.2385 101.238 81.2209 101.362 81.1518C101.487 81.0863 101.56 80.9873 101.582 80.8573L102.215 77.1628C102.236 77.0365 102.2 76.9185 102.105 76.8121C102.011 76.709 101.876 76.6427 101.703 76.613C101.531 76.5836 101.382 76.6012 101.258 76.6672C101.133 76.7358 101.06 76.8351 101.038 76.9614L100.406 80.6559Z" fill="white" fill-opacity="0.7"/>
<path d="M99.8362 76.7556C99.8723 76.545 99.9535 76.3642 100.08 76.2162C100.206 76.0684 100.361 75.9505 100.547 75.8594C100.732 75.7686 100.938 75.7136 101.164 75.6875C101.39 75.6646 101.622 75.6723 101.857 75.7126C102.093 75.753 102.312 75.8224 102.52 75.9195C102.724 76.0194 102.899 76.1396 103.043 76.2868C103.189 76.4346 103.295 76.5972 103.366 76.7788C103.435 76.9601 103.451 77.1577 103.415 77.3683L102.783 81.0628C102.746 81.2768 102.665 81.4576 102.54 81.6059C102.412 81.7536 102.258 81.8718 102.071 81.9623C101.887 82.0498 101.682 82.1084 101.456 82.1349C101.228 82.1572 100.998 82.1504 100.761 82.11C100.526 82.0697 100.306 81.9994 100.1 81.9029C99.8958 81.8026 99.7201 81.6788 99.5751 81.535C99.4307 81.3877 99.3233 81.2249 99.2537 81.0433C99.1836 80.8617 99.1671 80.6641 99.2037 80.4501L99.8362 76.7556ZM100.406 80.6559C100.384 80.7859 100.42 80.9037 100.515 81.0068C100.609 81.1132 100.744 81.1794 100.916 81.2088C101.089 81.2385 101.238 81.2209 101.362 81.1518C101.487 81.0863 101.56 80.9873 101.582 80.8573L102.215 77.1628C102.236 77.0365 102.2 76.9185 102.105 76.8121C102.011 76.709 101.876 76.6427 101.703 76.613C101.531 76.5836 101.382 76.6012 101.258 76.6672C101.133 76.7358 101.06 76.8351 101.038 76.9614L100.406 80.6559Z" fill="url(#paint18_linear_56_4)" fill-opacity="0.6"/>
<path d="M101.049 76.2125C101.04 76.217 101.031 76.2216 101.022 76.2264L101.022 76.2263L101.018 76.2288C100.773 76.3631 100.596 76.5853 100.546 76.877L99.9131 80.5715C99.8634 80.8616 99.9522 81.1323 100.145 81.3422C100.154 81.3524 100.163 81.3623 100.172 81.372L101.049 76.2125Z" stroke="white" stroke-opacity="0.7"/>
</g>
<g filter="url(#filter26_b_56_4)">
<path d="M104.216 77.5054C104.252 77.2949 104.334 77.1141 104.46 76.966C104.586 76.8183 104.742 76.7004 104.927 76.6094C105.112 76.5185 105.318 76.4635 105.545 76.4374C105.771 76.4145 106.002 76.4222 106.237 76.4624C106.473 76.5029 106.692 76.5723 106.9 76.6694C107.104 76.7692 107.279 76.8894 107.423 77.0367C107.569 77.1845 107.675 77.3471 107.746 77.5287C107.815 77.7099 107.831 77.9076 107.795 78.1182L107.163 81.8127C107.126 82.0267 107.045 82.2075 106.92 82.3558C106.792 82.5035 106.638 82.6217 106.451 82.7122C106.267 82.7996 106.062 82.8582 105.835 82.8848C105.608 82.9071 105.378 82.9003 105.141 82.8598C104.907 82.8196 104.686 82.7493 104.481 82.6528C104.276 82.5525 104.101 82.4288 103.956 82.2849C103.811 82.1377 103.703 81.9747 103.634 81.7932C103.564 81.6116 103.547 81.4139 103.584 81.1999L104.216 77.5054ZM104.786 81.4057C104.763 81.5358 104.8 81.6535 104.895 81.7567C104.989 81.863 105.124 81.9293 105.296 81.9586C105.469 81.9884 105.618 81.9707 105.742 81.9016C105.867 81.8362 105.94 81.7372 105.962 81.6071L106.595 77.9126C106.616 77.7863 106.58 77.6683 106.485 77.562C106.391 77.4588 106.256 77.3925 106.082 77.3628C105.911 77.3335 105.761 77.3511 105.638 77.417C105.513 77.4856 105.44 77.5849 105.418 77.7113L104.786 81.4057Z" fill="white" fill-opacity="0.7"/>
<path d="M104.216 77.5054C104.252 77.2949 104.334 77.1141 104.46 76.966C104.586 76.8183 104.742 76.7004 104.927 76.6094C105.112 76.5185 105.318 76.4635 105.545 76.4374C105.771 76.4145 106.002 76.4222 106.237 76.4624C106.473 76.5029 106.692 76.5723 106.9 76.6694C107.104 76.7692 107.279 76.8894 107.423 77.0367C107.569 77.1845 107.675 77.3471 107.746 77.5287C107.815 77.7099 107.831 77.9076 107.795 78.1182L107.163 81.8127C107.126 82.0267 107.045 82.2075 106.92 82.3558C106.792 82.5035 106.638 82.6217 106.451 82.7122C106.267 82.7996 106.062 82.8582 105.835 82.8848C105.608 82.9071 105.378 82.9003 105.141 82.8598C104.907 82.8196 104.686 82.7493 104.481 82.6528C104.276 82.5525 104.101 82.4288 103.956 82.2849C103.811 82.1377 103.703 81.9747 103.634 81.7932C103.564 81.6116 103.547 81.4139 103.584 81.1999L104.216 77.5054ZM104.786 81.4057C104.763 81.5358 104.8 81.6535 104.895 81.7567C104.989 81.863 105.124 81.9293 105.296 81.9586C105.469 81.9884 105.618 81.9707 105.742 81.9016C105.867 81.8362 105.94 81.7372 105.962 81.6071L106.595 77.9126C106.616 77.7863 106.58 77.6683 106.485 77.562C106.391 77.4588 106.256 77.3925 106.082 77.3628C105.911 77.3335 105.761 77.3511 105.638 77.417C105.513 77.4856 105.44 77.5849 105.418 77.7113L104.786 81.4057Z" fill="url(#paint19_linear_56_4)" fill-opacity="0.6"/>
<path d="M107.066 77.3868L107.066 77.3868L107.067 77.3881C107.166 77.488 107.234 77.5926 107.28 77.7082C107.313 77.7983 107.325 77.9043 107.303 78.0338L106.67 81.7283C106.647 81.8621 106.6 81.958 106.54 82.0315C106.458 82.1248 106.36 82.2004 106.235 82.2613C106.148 82.3027 106.051 82.3361 105.945 82.3599C105.957 82.354 105.968 82.3478 105.98 82.3414C106.232 82.2071 106.405 81.9808 106.455 81.6915L107.087 77.997C107.137 77.7059 107.045 77.4369 106.857 77.228L106.857 77.228L106.854 77.2247C106.847 77.2174 106.841 77.2102 106.834 77.2032C106.925 77.26 107.002 77.321 107.066 77.3868ZM104.524 82.092C104.533 82.102 104.542 82.1118 104.552 82.1213C104.459 82.0635 104.379 82 104.31 81.9323C104.21 81.83 104.143 81.7248 104.1 81.6137C104.066 81.5252 104.053 81.4197 104.076 81.2843L104.709 77.5898C104.731 77.4586 104.778 77.3632 104.84 77.2905L104.46 76.966L104.84 77.2908C104.918 77.1997 105.018 77.1221 105.148 77.0582C105.23 77.0179 105.323 76.9858 105.428 76.9626C105.42 76.967 105.411 76.9715 105.402 76.9762L105.402 76.9761L105.398 76.9786C105.153 77.1129 104.975 77.3351 104.925 77.6269L104.293 81.3214C104.243 81.6115 104.332 81.8821 104.524 82.092Z" stroke="white" stroke-opacity="0.7"/>
</g>
<defs>
<filter id="filter0_b_56_4" x="5.96448" y="21.9702" width="127.579" height="96.6494" filterUnits="userSpaceOnUse" color-interpolation-filters="sRGB">
<feFlood flood-opacity="0" result="BackgroundImageFix"/>
<feGaussianBlur in="BackgroundImageFix" stdDeviation="3"/>
<feComposite in2="SourceAlpha" operator="in" result="effect1_backgroundBlur_56_4"/>
<feBlend mode="normal" in="SourceGraphic" in2="effect1_backgroundBlur_56_4" result="shape"/>
</filter>
<filter id="filter1_b_56_4" x="23.1246" y="33.829" width="32.5076" height="30.4485" filterUnits="userSpaceOnUse" color-interpolation-filters="sRGB">
<feFlood flood-opacity="0" result="BackgroundImageFix"/>
<feGaussianBlur in="BackgroundImageFix" stdDeviation="3"/>
<feComposite in2="SourceAlpha" operator="in" result="effect1_backgroundBlur_56_4"/>
<feBlend mode="normal" in="SourceGraphic" in2="effect1_backgroundBlur_56_4" result="shape"/>
</filter>
<filter id="filter2_b_56_4" x="29.6354" y="34.4831" width="14.4467" height="24.943" filterUnits="userSpaceOnUse" color-interpolation-filters="sRGB">
<feFlood flood-opacity="0" result="BackgroundImageFix"/>
<feGaussianBlur in="BackgroundImageFix" stdDeviation="3"/>
<feComposite in2="SourceAlpha" operator="in" result="effect1_backgroundBlur_56_4"/>
<feBlend mode="normal" in="SourceGraphic" in2="effect1_backgroundBlur_56_4" result="shape"/>
</filter>
<filter id="filter3_b_56_4" x="23.1258" y="45.7046" width="30.8804" height="16.1891" filterUnits="userSpaceOnUse" color-interpolation-filters="sRGB">
<feFlood flood-opacity="0" result="BackgroundImageFix"/>
<feGaussianBlur in="BackgroundImageFix" stdDeviation="3"/>
<feComposite in2="SourceAlpha" operator="in" result="effect1_backgroundBlur_56_4"/>
<feBlend mode="normal" in="SourceGraphic" in2="effect1_backgroundBlur_56_4" result="shape"/>
</filter>
<filter id="filter4_b_56_4" x="24.762" y="36.1325" width="17.8212" height="13.9534" filterUnits="userSpaceOnUse" color-interpolation-filters="sRGB">
<feFlood flood-opacity="0" result="BackgroundImageFix"/>
<feGaussianBlur in="BackgroundImageFix" stdDeviation="3"/>
<feComposite in2="SourceAlpha" operator="in" result="effect1_backgroundBlur_56_4"/>
<feBlend mode="normal" in="SourceGraphic" in2="effect1_backgroundBlur_56_4" result="shape"/>
</filter>
<filter id="filter5_b_56_4" x="23.9363" y="40.9562" width="17.7844" height="13.9471" filterUnits="userSpaceOnUse" color-interpolation-filters="sRGB">
<feFlood flood-opacity="0" result="BackgroundImageFix"/>
<feGaussianBlur in="BackgroundImageFix" stdDeviation="3"/>
<feComposite in2="SourceAlpha" operator="in" result="effect1_backgroundBlur_56_4"/>
<feBlend mode="normal" in="SourceGraphic" in2="effect1_backgroundBlur_56_4" result="shape"/>
</filter>
<filter id="filter6_b_56_4" x="35.1486" y="35.471" width="15.1561" height="24.7721" filterUnits="userSpaceOnUse" color-interpolation-filters="sRGB">
<feFlood flood-opacity="0" result="BackgroundImageFix"/>
<feGaussianBlur in="BackgroundImageFix" stdDeviation="3"/>
<feComposite in2="SourceAlpha" operator="in" result="effect1_backgroundBlur_56_4"/>
<feBlend mode="normal" in="SourceGraphic" in2="effect1_backgroundBlur_56_4" result="shape"/>
</filter>
<filter id="filter7_b_56_4" x="38.2199" y="38.4365" width="17.4214" height="13.8849" filterUnits="userSpaceOnUse" color-interpolation-filters="sRGB">
<feFlood flood-opacity="0" result="BackgroundImageFix"/>
<feGaussianBlur in="BackgroundImageFix" stdDeviation="3"/>
<feComposite in2="SourceAlpha" operator="in" result="effect1_backgroundBlur_56_4"/>
<feBlend mode="normal" in="SourceGraphic" in2="effect1_backgroundBlur_56_4" result="shape"/>
</filter>
<filter id="filter8_b_56_4" x="37.4308" y="43.2665" width="17.3846" height="13.8786" filterUnits="userSpaceOnUse" color-interpolation-filters="sRGB">
<feFlood flood-opacity="0" result="BackgroundImageFix"/>
<feGaussianBlur in="BackgroundImageFix" stdDeviation="3"/>
<feComposite in2="SourceAlpha" operator="in" result="effect1_backgroundBlur_56_4"/>
<feBlend mode="normal" in="SourceGraphic" in2="effect1_backgroundBlur_56_4" result="shape"/>
</filter>
<filter id="filter9_b_56_4" x="75.6115" y="43.1845" width="45.0527" height="18.6154" filterUnits="userSpaceOnUse" color-interpolation-filters="sRGB">
<feFlood flood-opacity="0" result="BackgroundImageFix"/>
<feGaussianBlur in="BackgroundImageFix" stdDeviation="3"/>
<feComposite in2="SourceAlpha" operator="in" result="effect1_backgroundBlur_56_4"/>
<feBlend mode="normal" in="SourceGraphic" in2="effect1_backgroundBlur_56_4" result="shape"/>
</filter>
<filter id="filter10_b_56_4" x="18.3564" y="71.5016" width="48.6368" height="19.229" filterUnits="userSpaceOnUse" color-interpolation-filters="sRGB">
<feFlood flood-opacity="0" result="BackgroundImageFix"/>
<feGaussianBlur in="BackgroundImageFix" stdDeviation="3"/>
<feComposite in2="SourceAlpha" operator="in" result="effect1_backgroundBlur_56_4"/>
<feBlend mode="normal" in="SourceGraphic" in2="effect1_backgroundBlur_56_4" result="shape"/>
</filter>
<filter id="filter11_b_56_4" x="18.7287" y="56.9278" width="16.249" height="18.4727" filterUnits="userSpaceOnUse" color-interpolation-filters="sRGB">
<feFlood flood-opacity="0" result="BackgroundImageFix"/>
<feGaussianBlur in="BackgroundImageFix" stdDeviation="3"/>
<feComposite in2="SourceAlpha" operator="in" result="effect1_backgroundBlur_56_4"/>
<feBlend mode="normal" in="SourceGraphic" in2="effect1_backgroundBlur_56_4" result="shape"/>
</filter>
<filter id="filter12_b_56_4" x="23.1088" y="57.6777" width="16.2491" height="18.4727" filterUnits="userSpaceOnUse" color-interpolation-filters="sRGB">
<feFlood flood-opacity="0" result="BackgroundImageFix"/>
<feGaussianBlur in="BackgroundImageFix" stdDeviation="3"/>
<feComposite in2="SourceAlpha" operator="in" result="effect1_backgroundBlur_56_4"/>
<feBlend mode="normal" in="SourceGraphic" in2="effect1_backgroundBlur_56_4" result="shape"/>
</filter>
<filter id="filter13_b_56_4" x="27.4886" y="58.4276" width="16.2491" height="18.4727" filterUnits="userSpaceOnUse" color-interpolation-filters="sRGB">
<feFlood flood-opacity="0" result="BackgroundImageFix"/>
<feGaussianBlur in="BackgroundImageFix" stdDeviation="3"/>
<feComposite in2="SourceAlpha" operator="in" result="effect1_backgroundBlur_56_4"/>
<feBlend mode="normal" in="SourceGraphic" in2="effect1_backgroundBlur_56_4" result="shape"/>
</filter>
<filter id="filter14_b_56_4" x="31.8689" y="59.1774" width="16.2491" height="18.4727" filterUnits="userSpaceOnUse" color-interpolation-filters="sRGB">
<feFlood flood-opacity="0" result="BackgroundImageFix"/>
<feGaussianBlur in="BackgroundImageFix" stdDeviation="3"/>
<feComposite in2="SourceAlpha" operator="in" result="effect1_backgroundBlur_56_4"/>
<feBlend mode="normal" in="SourceGraphic" in2="effect1_backgroundBlur_56_4" result="shape"/>
</filter>
<filter id="filter15_b_56_4" x="40.6275" y="60.6769" width="16.2487" height="18.4727" filterUnits="userSpaceOnUse" color-interpolation-filters="sRGB">
<feFlood flood-opacity="0" result="BackgroundImageFix"/>
<feGaussianBlur in="BackgroundImageFix" stdDeviation="3"/>
<feComposite in2="SourceAlpha" operator="in" result="effect1_backgroundBlur_56_4"/>
<feBlend mode="normal" in="SourceGraphic" in2="effect1_backgroundBlur_56_4" result="shape"/>
</filter>
<filter id="filter16_b_56_4" x="45.0074" y="61.4267" width="16.2491" height="18.4727" filterUnits="userSpaceOnUse" color-interpolation-filters="sRGB">
<feFlood flood-opacity="0" result="BackgroundImageFix"/>
<feGaussianBlur in="BackgroundImageFix" stdDeviation="3"/>
<feComposite in2="SourceAlpha" operator="in" result="effect1_backgroundBlur_56_4"/>
<feBlend mode="normal" in="SourceGraphic" in2="effect1_backgroundBlur_56_4" result="shape"/>
</filter>
<filter id="filter17_b_56_4" x="49.3876" y="62.1766" width="16.2487" height="18.4727" filterUnits="userSpaceOnUse" color-interpolation-filters="sRGB">
<feFlood flood-opacity="0" result="BackgroundImageFix"/>
<feGaussianBlur in="BackgroundImageFix" stdDeviation="3"/>
<feComposite in2="SourceAlpha" operator="in" result="effect1_backgroundBlur_56_4"/>
<feBlend mode="normal" in="SourceGraphic" in2="effect1_backgroundBlur_56_4" result="shape"/>
</filter>
<filter id="filter18_b_56_4" x="53.7675" y="62.9265" width="16.2491" height="18.4728" filterUnits="userSpaceOnUse" color-interpolation-filters="sRGB">
<feFlood flood-opacity="0" result="BackgroundImageFix"/>
<feGaussianBlur in="BackgroundImageFix" stdDeviation="3"/>
<feComposite in2="SourceAlpha" operator="in" result="effect1_backgroundBlur_56_4"/>
<feBlend mode="normal" in="SourceGraphic" in2="effect1_backgroundBlur_56_4" result="shape"/>
</filter>
<filter id="filter19_b_56_4" x="62.5261" y="64.4259" width="16.2489" height="18.4727" filterUnits="userSpaceOnUse" color-interpolation-filters="sRGB">
<feFlood flood-opacity="0" result="BackgroundImageFix"/>
<feGaussianBlur in="BackgroundImageFix" stdDeviation="3"/>
<feComposite in2="SourceAlpha" operator="in" result="effect1_backgroundBlur_56_4"/>
<feBlend mode="normal" in="SourceGraphic" in2="effect1_backgroundBlur_56_4" result="shape"/>
</filter>
<filter id="filter20_b_56_4" x="66.906" y="65.1758" width="16.249" height="18.4727" filterUnits="userSpaceOnUse" color-interpolation-filters="sRGB">
<feFlood flood-opacity="0" result="BackgroundImageFix"/>
<feGaussianBlur in="BackgroundImageFix" stdDeviation="3"/>
<feComposite in2="SourceAlpha" operator="in" result="effect1_backgroundBlur_56_4"/>
<feBlend mode="normal" in="SourceGraphic" in2="effect1_backgroundBlur_56_4" result="shape"/>
</filter>
<filter id="filter21_b_56_4" x="71.2863" y="65.9257" width="16.2491" height="18.4727" filterUnits="userSpaceOnUse" color-interpolation-filters="sRGB">
<feFlood flood-opacity="0" result="BackgroundImageFix"/>
<feGaussianBlur in="BackgroundImageFix" stdDeviation="3"/>
<feComposite in2="SourceAlpha" operator="in" result="effect1_backgroundBlur_56_4"/>
<feBlend mode="normal" in="SourceGraphic" in2="effect1_backgroundBlur_56_4" result="shape"/>
</filter>
<filter id="filter22_b_56_4" x="75.6661" y="66.6756" width="16.2491" height="18.4728" filterUnits="userSpaceOnUse" color-interpolation-filters="sRGB">
<feFlood flood-opacity="0" result="BackgroundImageFix"/>
<feGaussianBlur in="BackgroundImageFix" stdDeviation="3"/>
<feComposite in2="SourceAlpha" operator="in" result="effect1_backgroundBlur_56_4"/>
<feBlend mode="normal" in="SourceGraphic" in2="effect1_backgroundBlur_56_4" result="shape"/>
</filter>
<filter id="filter23_b_56_4" x="84.4245" y="68.175" width="16.2491" height="18.4728" filterUnits="userSpaceOnUse" color-interpolation-filters="sRGB">
<feFlood flood-opacity="0" result="BackgroundImageFix"/>
<feGaussianBlur in="BackgroundImageFix" stdDeviation="3"/>
<feComposite in2="SourceAlpha" operator="in" result="effect1_backgroundBlur_56_4"/>
<feBlend mode="normal" in="SourceGraphic" in2="effect1_backgroundBlur_56_4" result="shape"/>
</filter>
<filter id="filter24_b_56_4" x="88.8046" y="68.9249" width="16.2489" height="18.4727" filterUnits="userSpaceOnUse" color-interpolation-filters="sRGB">
<feFlood flood-opacity="0" result="BackgroundImageFix"/>
<feGaussianBlur in="BackgroundImageFix" stdDeviation="3"/>
<feComposite in2="SourceAlpha" operator="in" result="effect1_backgroundBlur_56_4"/>
<feBlend mode="normal" in="SourceGraphic" in2="effect1_backgroundBlur_56_4" result="shape"/>
</filter>
<filter id="filter25_b_56_4" x="93.1848" y="69.6747" width="16.2489" height="18.4727" filterUnits="userSpaceOnUse" color-interpolation-filters="sRGB">
<feFlood flood-opacity="0" result="BackgroundImageFix"/>
<feGaussianBlur in="BackgroundImageFix" stdDeviation="3"/>
<feComposite in2="SourceAlpha" operator="in" result="effect1_backgroundBlur_56_4"/>
<feBlend mode="normal" in="SourceGraphic" in2="effect1_backgroundBlur_56_4" result="shape"/>
</filter>
<filter id="filter26_b_56_4" x="97.5648" y="70.4246" width="16.2491" height="18.4727" filterUnits="userSpaceOnUse" color-interpolation-filters="sRGB">
<feFlood flood-opacity="0" result="BackgroundImageFix"/>
<feGaussianBlur in="BackgroundImageFix" stdDeviation="3"/>
<feComposite in2="SourceAlpha" operator="in" result="effect1_backgroundBlur_56_4"/>
<feBlend mode="normal" in="SourceGraphic" in2="effect1_backgroundBlur_56_4" result="shape"/>
</filter>
<linearGradient id="paint0_linear_56_4" x1="75.6338" y1="35.9506" x2="79.0275" y2="89.599" gradientUnits="userSpaceOnUse">
<stop stop-color="white" stop-opacity="0"/>
<stop offset="1" stop-color="white"/>
</linearGradient>
<linearGradient id="paint1_linear_56_4" x1="40.7675" y1="40.9397" x2="42.4743" y2="53.2623" gradientUnits="userSpaceOnUse">
<stop stop-color="white" stop-opacity="0"/>
<stop offset="1" stop-color="white"/>
</linearGradient>
<linearGradient id="paint2_linear_56_4" x1="37.7093" y1="40.4193" x2="40.8127" y2="42.21" gradientUnits="userSpaceOnUse">
<stop stop-color="white" stop-opacity="0"/>
<stop offset="1" stop-color="white"/>
</linearGradient>
<linearGradient id="paint3_linear_56_4" x1="44.2186" y1="41.5337" x2="47.3219" y2="43.3244" gradientUnits="userSpaceOnUse">
<stop stop-color="white" stop-opacity="0"/>
<stop offset="1" stop-color="white"/>
</linearGradient>
<linearGradient id="paint4_linear_56_4" x1="27.4006" y1="62.9656" x2="29.1152" y2="66.916" gradientUnits="userSpaceOnUse">
<stop stop-color="white" stop-opacity="0"/>
<stop offset="1" stop-color="white"/>
</linearGradient>
<linearGradient id="paint5_linear_56_4" x1="31.7808" y1="63.7155" x2="33.4955" y2="67.6659" gradientUnits="userSpaceOnUse">
<stop stop-color="white" stop-opacity="0"/>
<stop offset="1" stop-color="white"/>
</linearGradient>
<linearGradient id="paint6_linear_56_4" x1="36.1606" y1="64.4653" x2="37.8753" y2="68.4158" gradientUnits="userSpaceOnUse">
<stop stop-color="white" stop-opacity="0"/>
<stop offset="1" stop-color="white"/>
</linearGradient>
<linearGradient id="paint7_linear_56_4" x1="40.5409" y1="65.2152" x2="42.2555" y2="69.1657" gradientUnits="userSpaceOnUse">
<stop stop-color="white" stop-opacity="0"/>
<stop offset="1" stop-color="white"/>
</linearGradient>
<linearGradient id="paint8_linear_56_4" x1="49.2992" y1="66.7147" x2="51.0141" y2="70.6647" gradientUnits="userSpaceOnUse">
<stop stop-color="white" stop-opacity="0"/>
<stop offset="1" stop-color="white"/>
</linearGradient>
<linearGradient id="paint9_linear_56_4" x1="53.6794" y1="67.4646" x2="55.3941" y2="71.415" gradientUnits="userSpaceOnUse">
<stop stop-color="white" stop-opacity="0"/>
<stop offset="1" stop-color="white"/>
</linearGradient>
<linearGradient id="paint10_linear_56_4" x1="58.0594" y1="68.2144" x2="59.7742" y2="72.1647" gradientUnits="userSpaceOnUse">
<stop stop-color="white" stop-opacity="0"/>
<stop offset="1" stop-color="white"/>
</linearGradient>
<linearGradient id="paint11_linear_56_4" x1="62.4395" y1="68.9643" x2="64.1542" y2="72.9148" gradientUnits="userSpaceOnUse">
<stop stop-color="white" stop-opacity="0"/>
<stop offset="1" stop-color="white"/>
</linearGradient>
<linearGradient id="paint12_linear_56_4" x1="71.198" y1="70.4638" x2="72.9128" y2="74.414" gradientUnits="userSpaceOnUse">
<stop stop-color="white" stop-opacity="0"/>
<stop offset="1" stop-color="white"/>
</linearGradient>
<linearGradient id="paint13_linear_56_4" x1="75.5779" y1="71.2136" x2="77.2927" y2="75.1639" gradientUnits="userSpaceOnUse">
<stop stop-color="white" stop-opacity="0"/>
<stop offset="1" stop-color="white"/>
</linearGradient>
<linearGradient id="paint14_linear_56_4" x1="79.9583" y1="71.9635" x2="81.6729" y2="75.914" gradientUnits="userSpaceOnUse">
<stop stop-color="white" stop-opacity="0"/>
<stop offset="1" stop-color="white"/>
</linearGradient>
<linearGradient id="paint15_linear_56_4" x1="84.3381" y1="72.7133" x2="86.0528" y2="76.6638" gradientUnits="userSpaceOnUse">
<stop stop-color="white" stop-opacity="0"/>
<stop offset="1" stop-color="white"/>
</linearGradient>
<linearGradient id="paint16_linear_56_4" x1="93.0965" y1="74.2128" x2="94.8111" y2="78.1633" gradientUnits="userSpaceOnUse">
<stop stop-color="white" stop-opacity="0"/>
<stop offset="1" stop-color="white"/>
</linearGradient>
<linearGradient id="paint17_linear_56_4" x1="97.4765" y1="74.9627" x2="99.1913" y2="78.9129" gradientUnits="userSpaceOnUse">
<stop stop-color="white" stop-opacity="0"/>
<stop offset="1" stop-color="white"/>
</linearGradient>
<linearGradient id="paint18_linear_56_4" x1="101.857" y1="75.7126" x2="103.571" y2="79.6628" gradientUnits="userSpaceOnUse">
<stop stop-color="white" stop-opacity="0"/>
<stop offset="1" stop-color="white"/>
</linearGradient>
<linearGradient id="paint19_linear_56_4" x1="106.237" y1="76.4624" x2="107.951" y2="80.4129" gradientUnits="userSpaceOnUse">
<stop stop-color="white" stop-opacity="0"/>
<stop offset="1" stop-color="white"/>
</linearGradient>
</defs>
</svg>
