<svg width="28" height="28" viewBox="0 0 28 28" fill="none" xmlns="http://www.w3.org/2000/svg">
<path d="M20 4H21C22.6569 4 24 5.34315 24 7V10.3944C24 11.3975 24.5013 12.3342 25.3359 12.8906L27 14L25.3359 15.1094C24.5013 15.6658 24 16.6025 24 17.6056V21C24 22.6569 22.6569 24 21 24H20" stroke="white" stroke-width="1.5" stroke-linecap="round" stroke-linejoin="round"/>
<path d="M8 4H7C5.34315 4 4 5.34315 4 7V10.3944C4 11.3975 3.4987 12.3342 2.6641 12.8906L1 14L2.6641 15.1094C3.4987 15.6658 4 16.6025 4 17.6056V21C4 22.6569 5.34315 24 7 24H8" stroke="white" stroke-width="1.5" stroke-linecap="round" stroke-linejoin="round"/>
<path d="M18 19H10C9.44772 19 9 18.5523 9 18V12.79C9 12.4999 9.12591 12.2242 9.34507 12.0343L13.3451 8.56761C13.7209 8.24186 14.2791 8.24186 14.6549 8.56761L18.6549 12.0343C18.8741 12.2242 19 12.4999 19 12.79V18C19 18.5523 18.5523 19 18 19Z" stroke="white" stroke-width="1.5" stroke-linecap="round"/>
</svg>
