<svg width="400" height="693" viewBox="0 0 400 693" fill="none" xmlns="http://www.w3.org/2000/svg">
<rect x="20" y="20" width="360" height="224" rx="10" fill="white" fill-opacity="0.1"/>
<rect x="20" y="263" width="360" height="20" rx="10" fill="white" fill-opacity="0.1"/>
<rect x="20" y="365" width="360" height="20" rx="10" fill="white" fill-opacity="0.1"/>
<rect x="20" y="405" width="340" height="20" rx="10" fill="white" fill-opacity="0.1"/>
<rect x="20" y="445" width="360" height="20" rx="10" fill="white" fill-opacity="0.1"/>
<rect x="20" y="485" width="326" height="20" rx="10" fill="white" fill-opacity="0.1"/>
<rect x="20" y="525" width="326" height="20" rx="10" fill="white" fill-opacity="0.1"/>
<rect x="20" y="565" width="340" height="20" rx="10" fill="white" fill-opacity="0.1"/>
<rect x="20" y="605" width="326" height="20" rx="10" fill="white" fill-opacity="0.1"/>
<rect x="20" y="645" width="360" height="20" rx="10" fill="white" fill-opacity="0.1"/>
<rect x="20" y="343" width="360" height="2" rx="1" fill="white" fill-opacity="0.1"/>
<path fill-rule="evenodd" clip-rule="evenodd" d="M350.103 302.696C351.172 302.172 352.106 302 353.553 302C357.258 302.015 360 305.14 360 309.12C360 312.158 358.306 315.092 355.151 317.93C353.495 319.419 351.381 320.893 349.866 321.677V321.677C349.323 321.959 348.677 321.959 348.134 321.677V321.677C346.619 320.893 344.505 319.419 342.849 317.93C339.694 315.092 338 312.158 338 309.12C338 305.097 340.716 302 344.455 302C345.85 302 346.831 302.189 347.922 302.728V302.728C348.586 303.057 349.39 303.052 350.053 302.721C350.07 302.712 350.086 302.704 350.103 302.696ZM353.814 316.443C356.586 313.949 358 311.5 358 309.12C358 306.189 356.088 304.011 353.549 304C352.387 304 351.746 304.118 350.982 304.492C350.512 304.722 350.095 305.033 349.731 305.428V305.428C349.338 305.855 348.664 305.858 348.267 305.434V305.434C347.911 305.054 347.5 304.751 347.035 304.521C346.248 304.132 345.564 304 344.455 304C341.884 304 340 306.148 340 309.12C340 311.5 341.414 313.949 344.186 316.443C344.352 316.592 344.523 316.741 344.698 316.889C347.203 319.013 350.797 319.013 353.302 316.889C353.477 316.741 353.648 316.592 353.814 316.443Z" fill="white" fill-opacity="0.1"/>
<path d="M56.1968 319.82C56.7813 319.82 57.3485 320.018 57.806 320.382V320.382C59.4996 321.729 62 320.523 62 318.359V303.114C62 302.818 61.8841 302.535 61.6778 302.326C61.4715 302.117 61.1917 302 60.9 302H41.1C40.8083 302 40.5285 302.117 40.3222 302.326C40.1159 302.535 40 302.818 40 303.114V318.706C40 319.001 40.1159 319.285 40.3222 319.494C40.5285 319.703 40.8083 319.82 41.1 319.82H56.1968Z" fill="white" fill-opacity="0.1"/>
<path d="M167 130C167 126.686 169.686 124 173 124H384C387.314 124 390 126.686 390 130V186C390 189.314 387.314 192 384 192H173C169.686 192 167 189.314 167 186V130Z" fill="#40CD0E"/>
<path d="M173 124.5H384C387.038 124.5 389.5 126.962 389.5 130V186C389.5 189.038 387.038 191.5 384 191.5H173C169.962 191.5 167.5 189.038 167.5 186V130C167.5 126.962 169.962 124.5 173 124.5Z" stroke="white" stroke-opacity="0.2"/>
<path d="M187.497 145.593V143.818H195.859V145.593H192.742V154H190.614V145.593H187.497ZM199.315 149.585V154H197.197V143.818H199.255V147.711H199.344C199.517 147.26 199.795 146.907 200.18 146.652C200.564 146.393 201.046 146.264 201.626 146.264C202.157 146.264 202.619 146.38 203.013 146.612C203.411 146.841 203.719 147.171 203.938 147.602C204.16 148.029 204.27 148.541 204.266 149.138V154H202.148V149.516C202.152 149.045 202.032 148.679 201.79 148.417C201.552 148.155 201.217 148.024 200.786 148.024C200.498 148.024 200.243 148.085 200.021 148.208C199.802 148.331 199.629 148.51 199.504 148.745C199.381 148.977 199.318 149.257 199.315 149.585ZM205.933 154V146.364H208.051V154H205.933ZM206.997 145.379C206.682 145.379 206.412 145.275 206.187 145.066C205.965 144.854 205.854 144.6 205.854 144.305C205.854 144.014 205.965 143.763 206.187 143.555C206.412 143.343 206.682 143.237 206.997 143.237C207.312 143.237 207.58 143.343 207.802 143.555C208.028 143.763 208.14 144.014 208.14 144.305C208.14 144.6 208.028 144.854 207.802 145.066C207.58 145.275 207.312 145.379 206.997 145.379ZM216.101 148.541L214.162 148.661C214.129 148.495 214.058 148.346 213.949 148.213C213.839 148.077 213.695 147.969 213.516 147.89C213.34 147.807 213.13 147.766 212.885 147.766C212.556 147.766 212.28 147.835 212.054 147.974C211.829 148.11 211.716 148.293 211.716 148.521C211.716 148.704 211.789 148.858 211.935 148.984C212.081 149.11 212.331 149.211 212.686 149.287L214.068 149.565C214.81 149.718 215.364 149.963 215.728 150.301C216.093 150.639 216.275 151.083 216.275 151.634C216.275 152.134 216.128 152.573 215.833 152.951C215.541 153.329 215.14 153.624 214.63 153.836C214.123 154.045 213.538 154.149 212.875 154.149C211.864 154.149 211.058 153.939 210.458 153.518C209.862 153.094 209.512 152.517 209.409 151.788L211.493 151.678C211.556 151.987 211.708 152.222 211.95 152.384C212.192 152.543 212.502 152.623 212.88 152.623C213.251 152.623 213.549 152.552 213.775 152.409C214.003 152.263 214.119 152.076 214.123 151.847C214.119 151.655 214.038 151.498 213.879 151.375C213.72 151.249 213.475 151.153 213.143 151.087L211.821 150.823C211.075 150.674 210.52 150.415 210.155 150.048C209.794 149.68 209.613 149.211 209.613 148.641C209.613 148.15 209.746 147.728 210.011 147.373C210.279 147.018 210.656 146.745 211.14 146.553C211.627 146.36 212.197 146.264 212.85 146.264C213.814 146.264 214.573 146.468 215.127 146.876C215.684 147.283 216.008 147.839 216.101 148.541ZM222.967 143.818V154H220.849V143.818H222.967ZM228.114 154.149C227.342 154.149 226.674 153.985 226.11 153.657C225.55 153.326 225.118 152.865 224.813 152.275C224.508 151.682 224.355 150.994 224.355 150.212C224.355 149.423 224.508 148.733 224.813 148.143C225.118 147.55 225.55 147.089 226.11 146.761C226.674 146.43 227.342 146.264 228.114 146.264C228.886 146.264 229.552 146.43 230.112 146.761C230.676 147.089 231.11 147.55 231.415 148.143C231.72 148.733 231.872 149.423 231.872 150.212C231.872 150.994 231.72 151.682 231.415 152.275C231.11 152.865 230.676 153.326 230.112 153.657C229.552 153.985 228.886 154.149 228.114 154.149ZM228.124 152.509C228.475 152.509 228.768 152.409 229.004 152.21C229.239 152.008 229.416 151.733 229.536 151.385C229.658 151.037 229.72 150.641 229.72 150.197C229.72 149.753 229.658 149.357 229.536 149.009C229.416 148.661 229.239 148.385 229.004 148.183C228.768 147.981 228.475 147.88 228.124 147.88C227.769 147.88 227.471 147.981 227.229 148.183C226.99 148.385 226.81 148.661 226.687 149.009C226.568 149.357 226.508 149.753 226.508 150.197C226.508 150.641 226.568 151.037 226.687 151.385C226.81 151.733 226.99 152.008 227.229 152.21C227.471 152.409 227.769 152.509 228.124 152.509ZM236.7 154.149C235.927 154.149 235.26 153.985 234.696 153.657C234.136 153.326 233.704 152.865 233.399 152.275C233.094 151.682 232.941 150.994 232.941 150.212C232.941 149.423 233.094 148.733 233.399 148.143C233.704 147.55 234.136 147.089 234.696 146.761C235.26 146.43 235.927 146.264 236.7 146.264C237.472 146.264 238.138 146.43 238.698 146.761C239.262 147.089 239.696 147.55 240.001 148.143C240.306 148.733 240.458 149.423 240.458 150.212C240.458 150.994 240.306 151.682 240.001 152.275C239.696 152.865 239.262 153.326 238.698 153.657C238.138 153.985 237.472 154.149 236.7 154.149ZM236.71 152.509C237.061 152.509 237.354 152.409 237.59 152.21C237.825 152.008 238.002 151.733 238.122 151.385C238.244 151.037 238.306 150.641 238.306 150.197C238.306 149.753 238.244 149.357 238.122 149.009C238.002 148.661 237.825 148.385 237.59 148.183C237.354 147.981 237.061 147.88 236.71 147.88C236.355 147.88 236.057 147.981 235.815 148.183C235.576 148.385 235.396 148.661 235.273 149.009C235.154 149.357 235.094 149.753 235.094 150.197C235.094 150.641 235.154 151.037 235.273 151.385C235.396 151.733 235.576 152.008 235.815 152.21C236.057 152.409 236.355 152.509 236.71 152.509ZM243.754 151.803L243.759 149.262H244.068L246.514 146.364H248.945L245.659 150.202H245.156L243.754 151.803ZM241.835 154V143.818H243.953V154H241.835ZM246.608 154L244.361 150.674L245.773 149.178L249.089 154H246.608ZM256.338 148.541L254.399 148.661C254.365 148.495 254.294 148.346 254.185 148.213C254.075 148.077 253.931 147.969 253.752 147.89C253.577 147.807 253.366 147.766 253.121 147.766C252.793 147.766 252.516 147.835 252.291 147.974C252.065 148.11 251.953 148.293 251.953 148.521C251.953 148.704 252.026 148.858 252.171 148.984C252.317 149.11 252.567 149.211 252.922 149.287L254.304 149.565C255.047 149.718 255.6 149.963 255.965 150.301C256.329 150.639 256.512 151.083 256.512 151.634C256.512 152.134 256.364 152.573 256.069 152.951C255.777 153.329 255.376 153.624 254.866 153.836C254.359 154.045 253.774 154.149 253.111 154.149C252.1 154.149 251.295 153.939 250.695 153.518C250.098 153.094 249.749 152.517 249.646 151.788L251.729 151.678C251.792 151.987 251.944 152.222 252.186 152.384C252.428 152.543 252.738 152.623 253.116 152.623C253.487 152.623 253.785 152.552 254.011 152.409C254.24 152.263 254.356 152.076 254.359 151.847C254.356 151.655 254.274 151.498 254.115 151.375C253.956 151.249 253.711 151.153 253.379 151.087L252.057 150.823C251.311 150.674 250.756 150.415 250.392 150.048C250.03 149.68 249.85 149.211 249.85 148.641C249.85 148.15 249.982 147.728 250.247 147.373C250.516 147.018 250.892 146.745 251.376 146.553C251.863 146.36 252.433 146.264 253.086 146.264C254.051 146.264 254.81 146.468 255.363 146.876C255.92 147.283 256.245 147.839 256.338 148.541ZM264.526 157.023C263.84 157.023 263.251 156.928 262.761 156.739C262.274 156.554 261.886 156.3 261.597 155.979C261.309 155.657 261.122 155.296 261.036 154.895L262.994 154.631C263.054 154.784 263.149 154.926 263.278 155.059C263.407 155.192 263.578 155.298 263.79 155.377C264.005 155.46 264.267 155.501 264.575 155.501C265.036 155.501 265.416 155.389 265.714 155.163C266.016 154.941 266.166 154.568 266.166 154.045V152.648H266.077C265.984 152.86 265.845 153.06 265.659 153.249C265.474 153.438 265.235 153.592 264.943 153.712C264.652 153.831 264.304 153.891 263.899 153.891C263.326 153.891 262.804 153.758 262.333 153.493C261.866 153.224 261.493 152.815 261.215 152.265C260.94 151.711 260.802 151.012 260.802 150.167C260.802 149.302 260.943 148.579 261.225 147.999C261.506 147.419 261.881 146.985 262.348 146.697C262.819 146.408 263.334 146.264 263.894 146.264C264.322 146.264 264.68 146.337 264.968 146.483C265.257 146.625 265.489 146.804 265.664 147.02C265.843 147.232 265.981 147.441 266.077 147.646H266.156V146.364H268.259V154.075C268.259 154.724 268.1 155.268 267.782 155.705C267.464 156.143 267.023 156.471 266.46 156.69C265.9 156.912 265.255 157.023 264.526 157.023ZM264.57 152.3C264.912 152.3 265.2 152.215 265.436 152.046C265.674 151.874 265.856 151.629 265.982 151.31C266.112 150.989 266.176 150.604 266.176 150.157C266.176 149.71 266.113 149.322 265.987 148.994C265.861 148.662 265.679 148.405 265.441 148.223C265.202 148.041 264.912 147.95 264.57 147.95C264.222 147.95 263.929 148.044 263.691 148.233C263.452 148.419 263.271 148.677 263.149 149.009C263.026 149.34 262.965 149.723 262.965 150.157C262.965 150.598 263.026 150.979 263.149 151.3C263.275 151.619 263.455 151.866 263.691 152.041C263.929 152.214 264.222 152.3 264.57 152.3ZM269.945 154V146.364H271.998V147.696H272.078C272.217 147.222 272.45 146.864 272.779 146.622C273.107 146.377 273.485 146.254 273.912 146.254C274.018 146.254 274.133 146.261 274.255 146.274C274.378 146.287 274.485 146.306 274.578 146.329V148.208C274.479 148.178 274.341 148.152 274.166 148.129C273.99 148.105 273.829 148.094 273.683 148.094C273.372 148.094 273.093 148.162 272.848 148.298C272.606 148.43 272.414 148.616 272.271 148.854C272.132 149.093 272.063 149.368 272.063 149.68V154H269.945ZM278.798 154.149C278.012 154.149 277.336 153.99 276.77 153.672C276.206 153.35 275.772 152.896 275.467 152.31C275.162 151.72 275.01 151.022 275.01 150.217C275.01 149.431 275.162 148.742 275.467 148.148C275.772 147.555 276.201 147.093 276.755 146.761C277.311 146.43 277.964 146.264 278.713 146.264C279.217 146.264 279.686 146.345 280.12 146.508C280.558 146.667 280.939 146.907 281.264 147.229C281.592 147.55 281.847 147.955 282.029 148.442C282.212 148.926 282.303 149.492 282.303 150.142V150.724H275.855V149.411H280.309C280.309 149.106 280.243 148.836 280.11 148.601C279.978 148.366 279.794 148.182 279.559 148.049C279.327 147.913 279.056 147.845 278.748 147.845C278.427 147.845 278.142 147.92 277.893 148.069C277.648 148.215 277.456 148.412 277.316 148.661C277.177 148.906 277.106 149.179 277.103 149.481V150.729C277.103 151.107 277.172 151.433 277.311 151.708C277.454 151.983 277.654 152.195 277.913 152.344C278.172 152.494 278.478 152.568 278.833 152.568C279.068 152.568 279.283 152.535 279.479 152.469C279.675 152.402 279.842 152.303 279.981 152.17C280.12 152.038 280.226 151.875 280.299 151.683L282.258 151.812C282.159 152.283 281.955 152.694 281.647 153.045C281.342 153.393 280.947 153.665 280.463 153.861C279.983 154.053 279.428 154.149 278.798 154.149ZM285.863 154.144C285.375 154.144 284.941 154.06 284.56 153.891C284.179 153.718 283.877 153.465 283.655 153.13C283.436 152.792 283.327 152.371 283.327 151.867C283.327 151.443 283.405 151.087 283.561 150.798C283.717 150.51 283.929 150.278 284.197 150.102C284.466 149.927 284.77 149.794 285.112 149.705C285.457 149.615 285.818 149.552 286.196 149.516C286.64 149.469 286.998 149.426 287.27 149.386C287.541 149.343 287.739 149.28 287.861 149.197C287.984 149.115 288.045 148.992 288.045 148.83V148.8C288.045 148.485 287.946 148.241 287.747 148.069C287.551 147.897 287.273 147.81 286.912 147.81C286.53 147.81 286.227 147.895 286.002 148.064C285.776 148.23 285.627 148.438 285.554 148.69L283.596 148.531C283.695 148.067 283.891 147.666 284.182 147.328C284.474 146.987 284.85 146.725 285.311 146.543C285.775 146.357 286.312 146.264 286.922 146.264C287.346 146.264 287.752 146.314 288.14 146.413C288.531 146.513 288.877 146.667 289.179 146.876C289.484 147.085 289.724 147.353 289.9 147.681C290.075 148.006 290.163 148.395 290.163 148.849V154H288.154V152.941H288.095C287.972 153.18 287.808 153.39 287.603 153.572C287.397 153.751 287.15 153.892 286.862 153.995C286.574 154.094 286.24 154.144 285.863 154.144ZM286.469 152.683C286.781 152.683 287.056 152.621 287.294 152.499C287.533 152.373 287.72 152.204 287.856 151.991C287.992 151.779 288.06 151.539 288.06 151.271V150.46C287.994 150.503 287.903 150.543 287.787 150.58C287.674 150.613 287.546 150.644 287.404 150.674C287.261 150.701 287.119 150.725 286.976 150.749C286.834 150.768 286.704 150.787 286.588 150.803C286.34 150.84 286.123 150.898 285.937 150.977C285.752 151.057 285.607 151.165 285.505 151.3C285.402 151.433 285.35 151.599 285.35 151.798C285.35 152.086 285.455 152.306 285.664 152.459C285.876 152.608 286.144 152.683 286.469 152.683ZM295.868 146.364V147.955H291.269V146.364H295.868ZM292.313 144.534H294.431V151.653C294.431 151.849 294.461 152.001 294.521 152.111C294.58 152.217 294.663 152.291 294.769 152.335C294.879 152.378 295.004 152.399 295.147 152.399C295.246 152.399 295.346 152.391 295.445 152.374C295.545 152.354 295.621 152.339 295.674 152.33L296.007 153.906C295.901 153.939 295.752 153.977 295.56 154.02C295.367 154.066 295.134 154.094 294.859 154.104C294.348 154.124 293.901 154.056 293.516 153.901C293.135 153.745 292.839 153.503 292.626 153.175C292.414 152.847 292.31 152.432 292.313 151.932V144.534ZM299.549 152.608L299.495 153.155C299.452 153.592 299.369 154.028 299.246 154.462C299.127 154.9 299.001 155.296 298.868 155.651C298.739 156.005 298.635 156.284 298.555 156.486H297.183C297.233 156.29 297.301 156.017 297.387 155.665C297.473 155.317 297.554 154.926 297.63 154.492C297.707 154.058 297.755 153.616 297.775 153.165L297.799 152.608H299.549ZM304.287 154V143.818H306.405V147.646H306.47C306.563 147.441 306.697 147.232 306.873 147.02C307.051 146.804 307.283 146.625 307.569 146.483C307.857 146.337 308.215 146.264 308.642 146.264C309.199 146.264 309.713 146.41 310.184 146.702C310.654 146.99 311.03 147.426 311.312 148.009C311.594 148.589 311.735 149.317 311.735 150.192C311.735 151.044 311.597 151.763 311.322 152.349C311.05 152.933 310.679 153.375 310.208 153.677C309.741 153.975 309.217 154.124 308.637 154.124C308.226 154.124 307.877 154.056 307.588 153.92C307.303 153.785 307.07 153.614 306.887 153.408C306.705 153.2 306.566 152.989 306.47 152.777H306.375V154H304.287ZM306.36 150.182C306.36 150.636 306.423 151.032 306.549 151.37C306.675 151.708 306.858 151.972 307.096 152.161C307.335 152.346 307.625 152.439 307.966 152.439C308.311 152.439 308.603 152.344 308.841 152.156C309.08 151.963 309.261 151.698 309.383 151.36C309.509 151.019 309.572 150.626 309.572 150.182C309.572 149.741 309.511 149.353 309.388 149.018C309.266 148.684 309.085 148.422 308.846 148.233C308.608 148.044 308.314 147.95 307.966 147.95C307.622 147.95 307.33 148.041 307.091 148.223C306.856 148.405 306.675 148.664 306.549 148.999C306.423 149.333 306.36 149.728 306.36 150.182ZM318.045 150.749V146.364H320.163V154H318.129V152.613H318.05C317.878 153.06 317.591 153.42 317.19 153.692C316.792 153.964 316.307 154.099 315.733 154.099C315.223 154.099 314.774 153.983 314.386 153.751C313.998 153.519 313.695 153.19 313.476 152.762C313.261 152.335 313.151 151.822 313.148 151.226V146.364H315.266V150.848C315.269 151.299 315.39 151.655 315.629 151.917C315.867 152.179 316.187 152.31 316.588 152.31C316.843 152.31 317.082 152.252 317.304 152.136C317.526 152.016 317.705 151.841 317.841 151.609C317.98 151.377 318.048 151.09 318.045 150.749ZM325.919 146.364V147.955H321.32V146.364H325.919ZM322.364 144.534H324.482V151.653C324.482 151.849 324.512 152.001 324.571 152.111C324.631 152.217 324.714 152.291 324.82 152.335C324.929 152.378 325.055 152.399 325.198 152.399C325.297 152.399 325.397 152.391 325.496 152.374C325.596 152.354 325.672 152.339 325.725 152.33L326.058 153.906C325.952 153.939 325.803 153.977 325.61 154.02C325.418 154.066 325.185 154.094 324.909 154.104C324.399 154.124 323.952 154.056 323.567 153.901C323.186 153.745 322.889 153.503 322.677 153.175C322.465 152.847 322.361 152.432 322.364 151.932V144.534ZM333.989 154.149C333.207 154.149 332.534 153.983 331.97 153.652C331.41 153.317 330.979 152.853 330.678 152.26C330.379 151.667 330.23 150.984 330.23 150.212C330.23 149.429 330.381 148.743 330.683 148.153C330.988 147.56 331.42 147.098 331.98 146.766C332.54 146.432 333.207 146.264 333.979 146.264C334.645 146.264 335.228 146.385 335.729 146.627C336.229 146.869 336.625 147.209 336.917 147.646C337.209 148.084 337.369 148.598 337.399 149.188H335.401C335.344 148.806 335.195 148.5 334.953 148.268C334.715 148.032 334.401 147.915 334.014 147.915C333.686 147.915 333.399 148.004 333.154 148.183C332.912 148.359 332.723 148.616 332.587 148.954C332.451 149.292 332.383 149.701 332.383 150.182C332.383 150.669 332.449 151.083 332.582 151.425C332.718 151.766 332.908 152.026 333.154 152.205C333.399 152.384 333.686 152.474 334.014 152.474C334.256 152.474 334.473 152.424 334.665 152.325C334.86 152.225 335.021 152.081 335.147 151.892C335.276 151.7 335.361 151.469 335.401 151.201H337.399C337.366 151.784 337.207 152.298 336.922 152.742C336.64 153.183 336.251 153.528 335.754 153.776C335.257 154.025 334.668 154.149 333.989 154.149ZM340.933 154.144C340.446 154.144 340.011 154.06 339.63 153.891C339.249 153.718 338.948 153.465 338.725 153.13C338.507 152.792 338.397 152.371 338.397 151.867C338.397 151.443 338.475 151.087 338.631 150.798C338.787 150.51 338.999 150.278 339.267 150.102C339.536 149.927 339.841 149.794 340.182 149.705C340.527 149.615 340.888 149.552 341.266 149.516C341.71 149.469 342.068 149.426 342.34 149.386C342.612 149.343 342.809 149.28 342.931 149.197C343.054 149.115 343.115 148.992 343.115 148.83V148.8C343.115 148.485 343.016 148.241 342.817 148.069C342.622 147.897 342.343 147.81 341.982 147.81C341.601 147.81 341.297 147.895 341.072 148.064C340.847 148.23 340.698 148.438 340.625 148.69L338.666 148.531C338.765 148.067 338.961 147.666 339.252 147.328C339.544 146.987 339.92 146.725 340.381 146.543C340.845 146.357 341.382 146.264 341.992 146.264C342.416 146.264 342.822 146.314 343.21 146.413C343.601 146.513 343.947 146.667 344.249 146.876C344.554 147.085 344.794 147.353 344.97 147.681C345.145 148.006 345.233 148.395 345.233 148.849V154H343.225V152.941H343.165C343.042 153.18 342.878 153.39 342.673 153.572C342.467 153.751 342.221 153.892 341.932 153.995C341.644 154.094 341.311 154.144 340.933 154.144ZM341.539 152.683C341.851 152.683 342.126 152.621 342.365 152.499C342.603 152.373 342.791 152.204 342.926 151.991C343.062 151.779 343.13 151.539 343.13 151.271V150.46C343.064 150.503 342.973 150.543 342.857 150.58C342.744 150.613 342.617 150.644 342.474 150.674C342.332 150.701 342.189 150.725 342.047 150.749C341.904 150.768 341.775 150.787 341.659 150.803C341.41 150.84 341.193 150.898 341.007 150.977C340.822 151.057 340.678 151.165 340.575 151.3C340.472 151.433 340.421 151.599 340.421 151.798C340.421 152.086 340.525 152.306 340.734 152.459C340.946 152.608 341.215 152.683 341.539 152.683ZM348.994 149.585V154H346.876V146.364H348.895V147.711H348.984C349.153 147.267 349.437 146.915 349.835 146.657C350.232 146.395 350.714 146.264 351.281 146.264C351.812 146.264 352.274 146.38 352.668 146.612C353.063 146.844 353.369 147.176 353.588 147.607C353.807 148.034 353.916 148.545 353.916 149.138V154H351.798V149.516C351.802 149.048 351.682 148.684 351.44 148.422C351.198 148.157 350.865 148.024 350.441 148.024C350.156 148.024 349.904 148.085 349.685 148.208C349.47 148.331 349.301 148.51 349.178 148.745C349.059 148.977 348.998 149.257 348.994 149.585ZM189.352 171L187.273 163.364H189.416L190.599 168.494H190.669L191.902 163.364H194.005L195.258 168.464H195.322L196.486 163.364H198.624L196.55 171H194.308L192.996 166.197H192.901L191.589 171H189.352ZM203.042 171.149C202.257 171.149 201.58 170.99 201.014 170.672C200.45 170.35 200.016 169.896 199.711 169.31C199.406 168.72 199.254 168.022 199.254 167.217C199.254 166.431 199.406 165.742 199.711 165.148C200.016 164.555 200.445 164.093 200.999 163.761C201.556 163.43 202.209 163.264 202.958 163.264C203.461 163.264 203.93 163.345 204.365 163.508C204.802 163.667 205.183 163.907 205.508 164.229C205.836 164.55 206.091 164.955 206.274 165.442C206.456 165.926 206.547 166.492 206.547 167.142V167.724H200.099V166.411H204.553C204.553 166.106 204.487 165.836 204.355 165.601C204.222 165.366 204.038 165.182 203.803 165.049C203.571 164.913 203.301 164.845 202.992 164.845C202.671 164.845 202.386 164.92 202.137 165.069C201.892 165.215 201.7 165.412 201.561 165.661C201.421 165.906 201.35 166.179 201.347 166.481V167.729C201.347 168.107 201.416 168.433 201.556 168.708C201.698 168.983 201.899 169.195 202.157 169.344C202.416 169.494 202.722 169.568 203.077 169.568C203.312 169.568 203.528 169.535 203.723 169.469C203.919 169.402 204.086 169.303 204.225 169.17C204.365 169.038 204.471 168.875 204.544 168.683L206.502 168.812C206.403 169.283 206.199 169.694 205.891 170.045C205.586 170.393 205.191 170.665 204.708 170.861C204.227 171.053 203.672 171.149 203.042 171.149ZM211.169 171V163.364H213.188V164.711H213.277C213.436 164.263 213.702 163.911 214.073 163.652C214.444 163.393 214.888 163.264 215.405 163.264C215.929 163.264 216.375 163.395 216.743 163.657C217.11 163.915 217.356 164.267 217.478 164.711H217.558C217.714 164.273 217.995 163.924 218.403 163.662C218.814 163.397 219.3 163.264 219.86 163.264C220.572 163.264 221.151 163.491 221.595 163.945C222.042 164.396 222.266 165.036 222.266 165.864V171H220.153V166.282C220.153 165.858 220.04 165.54 219.815 165.327C219.59 165.115 219.308 165.009 218.97 165.009C218.585 165.009 218.285 165.132 218.07 165.377C217.855 165.619 217.747 165.939 217.747 166.337V171H215.694V166.237C215.694 165.863 215.586 165.564 215.37 165.342C215.158 165.12 214.878 165.009 214.53 165.009C214.295 165.009 214.083 165.069 213.894 165.188C213.708 165.304 213.561 165.468 213.451 165.68C213.342 165.889 213.287 166.134 213.287 166.416V171H211.169ZM226.116 171.144C225.629 171.144 225.195 171.06 224.814 170.891C224.433 170.718 224.131 170.465 223.909 170.13C223.69 169.792 223.581 169.371 223.581 168.867C223.581 168.443 223.659 168.087 223.815 167.798C223.97 167.51 224.183 167.278 224.451 167.102C224.719 166.927 225.024 166.794 225.366 166.705C225.71 166.615 226.072 166.552 226.45 166.516C226.894 166.469 227.252 166.426 227.523 166.386C227.795 166.343 227.992 166.28 228.115 166.197C228.238 166.115 228.299 165.992 228.299 165.83V165.8C228.299 165.485 228.2 165.241 228.001 165.069C227.805 164.897 227.527 164.81 227.165 164.81C226.784 164.81 226.481 164.895 226.256 165.064C226.03 165.23 225.881 165.438 225.808 165.69L223.849 165.531C223.949 165.067 224.144 164.666 224.436 164.328C224.728 163.987 225.104 163.725 225.565 163.543C226.029 163.357 226.566 163.264 227.175 163.264C227.6 163.264 228.006 163.314 228.393 163.413C228.785 163.513 229.131 163.667 229.433 163.876C229.737 164.085 229.978 164.353 230.153 164.681C230.329 165.006 230.417 165.395 230.417 165.849V171H228.408V169.941H228.349C228.226 170.18 228.062 170.39 227.857 170.572C227.651 170.751 227.404 170.892 227.116 170.995C226.827 171.094 226.494 171.144 226.116 171.144ZM226.723 169.683C227.035 169.683 227.31 169.621 227.548 169.499C227.787 169.373 227.974 169.204 228.11 168.991C228.246 168.779 228.314 168.539 228.314 168.271V167.46C228.248 167.503 228.156 167.543 228.04 167.58C227.928 167.613 227.8 167.644 227.658 167.674C227.515 167.701 227.373 167.725 227.23 167.749C227.088 167.768 226.958 167.787 226.842 167.803C226.594 167.84 226.377 167.898 226.191 167.977C226.005 168.057 225.861 168.165 225.759 168.3C225.656 168.433 225.604 168.599 225.604 168.798C225.604 169.086 225.709 169.306 225.918 169.459C226.13 169.608 226.398 169.683 226.723 169.683ZM233.979 168.803L233.984 166.262H234.292L236.738 163.364H239.169L235.883 167.202H235.381L233.979 168.803ZM232.06 171V160.818H234.178V171H232.06ZM236.833 171L234.586 167.674L235.998 166.178L239.314 171H236.833ZM243.374 171.149C242.589 171.149 241.912 170.99 241.346 170.672C240.782 170.35 240.348 169.896 240.043 169.31C239.738 168.72 239.586 168.022 239.586 167.217C239.586 166.431 239.738 165.742 240.043 165.148C240.348 164.555 240.777 164.093 241.331 163.761C241.888 163.43 242.541 163.264 243.29 163.264C243.793 163.264 244.262 163.345 244.697 163.508C245.134 163.667 245.515 163.907 245.84 164.229C246.168 164.55 246.423 164.955 246.606 165.442C246.788 165.926 246.879 166.492 246.879 167.142V167.724H240.431V166.411H244.885C244.885 166.106 244.819 165.836 244.687 165.601C244.554 165.366 244.37 165.182 244.135 165.049C243.903 164.913 243.633 164.845 243.324 164.845C243.003 164.845 242.718 164.92 242.469 165.069C242.224 165.215 242.032 165.412 241.893 165.661C241.753 165.906 241.682 166.179 241.679 166.481V167.729C241.679 168.107 241.748 168.433 241.888 168.708C242.03 168.983 242.231 169.195 242.489 169.344C242.748 169.494 243.054 169.568 243.409 169.568C243.644 169.568 243.86 169.535 244.055 169.469C244.251 169.402 244.418 169.303 244.557 169.17C244.697 169.038 244.803 168.875 244.876 168.683L246.834 168.812C246.735 169.283 246.531 169.694 246.223 170.045C245.918 170.393 245.523 170.665 245.04 170.861C244.559 171.053 244.004 171.149 243.374 171.149ZM251.501 171V163.364H253.619V171H251.501ZM252.565 162.379C252.25 162.379 251.98 162.275 251.755 162.066C251.533 161.854 251.422 161.6 251.422 161.305C251.422 161.014 251.533 160.763 251.755 160.555C251.98 160.343 252.25 160.237 252.565 160.237C252.88 160.237 253.149 160.343 253.371 160.555C253.596 160.763 253.709 161.014 253.709 161.305C253.709 161.6 253.596 161.854 253.371 162.066C253.149 162.275 252.88 162.379 252.565 162.379ZM259.378 163.364V164.955H254.779V163.364H259.378ZM255.823 161.534H257.941V168.653C257.941 168.849 257.971 169.001 258.03 169.111C258.09 169.217 258.173 169.291 258.279 169.335C258.388 169.378 258.514 169.399 258.657 169.399C258.756 169.399 258.856 169.391 258.955 169.374C259.055 169.354 259.131 169.339 259.184 169.33L259.517 170.906C259.411 170.939 259.262 170.977 259.069 171.02C258.877 171.066 258.644 171.094 258.368 171.104C257.858 171.124 257.411 171.056 257.026 170.901C256.645 170.745 256.348 170.503 256.136 170.175C255.924 169.847 255.82 169.432 255.823 168.932V161.534ZM263.998 173.864V163.364H266.086V164.646H266.18C266.273 164.441 266.407 164.232 266.583 164.02C266.762 163.804 266.994 163.625 267.279 163.483C267.567 163.337 267.925 163.264 268.353 163.264C268.909 163.264 269.423 163.41 269.894 163.702C270.364 163.99 270.741 164.426 271.022 165.009C271.304 165.589 271.445 166.317 271.445 167.192C271.445 168.044 271.307 168.763 271.032 169.349C270.761 169.933 270.389 170.375 269.919 170.677C269.451 170.975 268.928 171.124 268.348 171.124C267.937 171.124 267.587 171.056 267.299 170.92C267.014 170.785 266.78 170.614 266.598 170.408C266.415 170.2 266.276 169.989 266.18 169.777H266.115V173.864H263.998ZM266.071 167.182C266.071 167.636 266.134 168.032 266.26 168.37C266.386 168.708 266.568 168.972 266.806 169.161C267.045 169.346 267.335 169.439 267.676 169.439C268.021 169.439 268.313 169.344 268.551 169.156C268.79 168.963 268.971 168.698 269.093 168.36C269.219 168.019 269.282 167.626 269.282 167.182C269.282 166.741 269.221 166.353 269.098 166.018C268.976 165.684 268.795 165.422 268.556 165.233C268.318 165.044 268.025 164.95 267.676 164.95C267.332 164.95 267.04 165.041 266.801 165.223C266.566 165.405 266.386 165.664 266.26 165.999C266.134 166.333 266.071 166.728 266.071 167.182ZM276.307 171.149C275.535 171.149 274.867 170.985 274.304 170.657C273.743 170.326 273.311 169.865 273.006 169.275C272.701 168.682 272.549 167.994 272.549 167.212C272.549 166.423 272.701 165.733 273.006 165.143C273.311 164.55 273.743 164.089 274.304 163.761C274.867 163.43 275.535 163.264 276.307 163.264C277.079 163.264 277.746 163.43 278.306 163.761C278.869 164.089 279.303 164.55 279.608 165.143C279.913 165.733 280.066 166.423 280.066 167.212C280.066 167.994 279.913 168.682 279.608 169.275C279.303 169.865 278.869 170.326 278.306 170.657C277.746 170.985 277.079 171.149 276.307 171.149ZM276.317 169.509C276.668 169.509 276.962 169.409 277.197 169.21C277.432 169.008 277.61 168.733 277.729 168.385C277.852 168.037 277.913 167.641 277.913 167.197C277.913 166.753 277.852 166.357 277.729 166.009C277.61 165.661 277.432 165.385 277.197 165.183C276.962 164.981 276.668 164.88 276.317 164.88C275.962 164.88 275.664 164.981 275.422 165.183C275.184 165.385 275.003 165.661 274.88 166.009C274.761 166.357 274.701 166.753 274.701 167.197C274.701 167.641 274.761 168.037 274.88 168.385C275.003 168.733 275.184 169.008 275.422 169.21C275.664 169.409 275.962 169.509 276.317 169.509ZM281.443 173.864V163.364H283.531V164.646H283.625C283.718 164.441 283.852 164.232 284.028 164.02C284.207 163.804 284.439 163.625 284.724 163.483C285.012 163.337 285.37 163.264 285.798 163.264C286.355 163.264 286.868 163.41 287.339 163.702C287.81 163.99 288.186 164.426 288.468 165.009C288.749 165.589 288.89 166.317 288.89 167.192C288.89 168.044 288.753 168.763 288.478 169.349C288.206 169.933 287.835 170.375 287.364 170.677C286.897 170.975 286.373 171.124 285.793 171.124C285.382 171.124 285.032 171.056 284.744 170.92C284.459 170.785 284.225 170.614 284.043 170.408C283.861 170.2 283.721 169.989 283.625 169.777H283.561V173.864H281.443ZM283.516 167.182C283.516 167.636 283.579 168.032 283.705 168.37C283.831 168.708 284.013 168.972 284.252 169.161C284.49 169.346 284.78 169.439 285.122 169.439C285.467 169.439 285.758 169.344 285.997 169.156C286.235 168.963 286.416 168.698 286.539 168.36C286.665 168.019 286.728 167.626 286.728 167.182C286.728 166.741 286.666 166.353 286.544 166.018C286.421 165.684 286.24 165.422 286.002 165.233C285.763 165.044 285.47 164.95 285.122 164.95C284.777 164.95 284.485 165.041 284.247 165.223C284.011 165.405 283.831 165.664 283.705 165.999C283.579 166.333 283.516 166.728 283.516 167.182ZM293.542 171V163.364H295.561V164.711H295.65C295.809 164.263 296.075 163.911 296.446 163.652C296.817 163.393 297.261 163.264 297.778 163.264C298.302 163.264 298.748 163.395 299.116 163.657C299.483 163.915 299.729 164.267 299.851 164.711H299.931C300.087 164.273 300.368 163.924 300.776 163.662C301.187 163.397 301.673 163.264 302.233 163.264C302.945 163.264 303.524 163.491 303.968 163.945C304.415 164.396 304.639 165.036 304.639 165.864V171H302.526V166.282C302.526 165.858 302.413 165.54 302.188 165.327C301.963 165.115 301.681 165.009 301.343 165.009C300.958 165.009 300.658 165.132 300.443 165.377C300.228 165.619 300.12 165.939 300.12 166.337V171H298.067V166.237C298.067 165.863 297.959 165.564 297.743 165.342C297.531 165.12 297.251 165.009 296.903 165.009C296.668 165.009 296.456 165.069 296.267 165.188C296.081 165.304 295.934 165.468 295.824 165.68C295.715 165.889 295.66 166.134 295.66 166.416V171H293.542ZM309.762 171.149C308.99 171.149 308.322 170.985 307.759 170.657C307.199 170.326 306.766 169.865 306.461 169.275C306.156 168.682 306.004 167.994 306.004 167.212C306.004 166.423 306.156 165.733 306.461 165.143C306.766 164.55 307.199 164.089 307.759 163.761C308.322 163.43 308.99 163.264 309.762 163.264C310.535 163.264 311.201 163.43 311.761 163.761C312.324 164.089 312.758 164.55 313.063 165.143C313.368 165.733 313.521 166.423 313.521 167.212C313.521 167.994 313.368 168.682 313.063 169.275C312.758 169.865 312.324 170.326 311.761 170.657C311.201 170.985 310.535 171.149 309.762 171.149ZM309.772 169.509C310.124 169.509 310.417 169.409 310.652 169.21C310.887 169.008 311.065 168.733 311.184 168.385C311.307 168.037 311.368 167.641 311.368 167.197C311.368 166.753 311.307 166.357 311.184 166.009C311.065 165.661 310.887 165.385 310.652 165.183C310.417 164.981 310.124 164.88 309.772 164.88C309.418 164.88 309.119 164.981 308.877 165.183C308.639 165.385 308.458 165.661 308.335 166.009C308.216 166.357 308.156 166.753 308.156 167.197C308.156 167.641 308.216 168.037 308.335 168.385C308.458 168.733 308.639 169.008 308.877 169.21C309.119 169.409 309.418 169.509 309.772 169.509ZM314.898 171V163.364H316.951V164.696H317.031C317.17 164.222 317.404 163.864 317.732 163.622C318.06 163.377 318.438 163.254 318.865 163.254C318.971 163.254 319.086 163.261 319.208 163.274C319.331 163.287 319.439 163.306 319.531 163.329V165.208C319.432 165.178 319.294 165.152 319.119 165.129C318.943 165.105 318.782 165.094 318.637 165.094C318.325 165.094 318.047 165.162 317.801 165.298C317.559 165.43 317.367 165.616 317.225 165.854C317.085 166.093 317.016 166.368 317.016 166.68V171H314.898ZM323.751 171.149C322.966 171.149 322.289 170.99 321.723 170.672C321.159 170.35 320.725 169.896 320.42 169.31C320.115 168.72 319.963 168.022 319.963 167.217C319.963 166.431 320.115 165.742 320.42 165.148C320.725 164.555 321.154 164.093 321.708 163.761C322.265 163.43 322.917 163.264 323.667 163.264C324.17 163.264 324.639 163.345 325.074 163.508C325.511 163.667 325.892 163.907 326.217 164.229C326.545 164.55 326.8 164.955 326.983 165.442C327.165 165.926 327.256 166.492 327.256 167.142V167.724H320.808V166.411H325.262C325.262 166.106 325.196 165.836 325.064 165.601C324.931 165.366 324.747 165.182 324.512 165.049C324.28 164.913 324.01 164.845 323.701 164.845C323.38 164.845 323.095 164.92 322.846 165.069C322.601 165.215 322.409 165.412 322.27 165.661C322.13 165.906 322.059 166.179 322.056 166.481V167.729C322.056 168.107 322.125 168.433 322.265 168.708C322.407 168.983 322.608 169.195 322.866 169.344C323.125 169.494 323.431 169.568 323.786 169.568C324.021 169.568 324.237 169.535 324.432 169.469C324.628 169.402 324.795 169.303 324.934 169.17C325.074 169.038 325.18 168.875 325.252 168.683L327.211 168.812C327.112 169.283 326.908 169.694 326.6 170.045C326.295 170.393 325.9 170.665 325.417 170.861C324.936 171.053 324.381 171.149 323.751 171.149ZM330.458 167.947V167.778C330.461 167.198 330.512 166.736 330.612 166.391C330.715 166.047 330.864 165.768 331.059 165.556C331.255 165.344 331.49 165.152 331.765 164.979C331.971 164.847 332.155 164.709 332.317 164.567C332.48 164.424 332.609 164.267 332.705 164.094C332.801 163.919 332.849 163.723 332.849 163.508C332.849 163.279 332.794 163.079 332.685 162.906C332.576 162.734 332.428 162.601 332.243 162.509C332.06 162.416 331.858 162.369 331.636 162.369C331.421 162.369 331.217 162.417 331.025 162.513C330.832 162.606 330.675 162.746 330.552 162.931C330.43 163.113 330.363 163.34 330.353 163.612H328.325C328.342 162.949 328.501 162.402 328.802 161.972C329.104 161.537 329.503 161.214 330 161.002C330.498 160.787 331.046 160.679 331.646 160.679C332.306 160.679 332.889 160.788 333.396 161.007C333.903 161.223 334.301 161.536 334.589 161.947C334.877 162.358 335.022 162.853 335.022 163.433C335.022 163.821 334.957 164.166 334.828 164.467C334.702 164.766 334.525 165.031 334.296 165.263C334.067 165.491 333.797 165.699 333.485 165.884C333.224 166.04 333.008 166.202 332.839 166.371C332.673 166.54 332.549 166.736 332.466 166.958C332.387 167.18 332.345 167.454 332.342 167.778V167.947H330.458ZM331.442 171.129C331.111 171.129 330.827 171.013 330.592 170.781C330.36 170.546 330.246 170.264 330.249 169.936C330.246 169.611 330.36 169.333 330.592 169.101C330.827 168.869 331.111 168.753 331.442 168.753C331.757 168.753 332.034 168.869 332.272 169.101C332.511 169.333 332.632 169.611 332.635 169.936C332.632 170.155 332.574 170.355 332.461 170.538C332.352 170.717 332.208 170.861 332.029 170.97C331.85 171.076 331.654 171.129 331.442 171.129Z" fill="white"/>
<path d="M164.624 197H164.785C166.629 197 167.233 199.475 165.596 200.325L148.844 209.023C147.974 209.475 147.04 208.535 147.499 207.668L156.283 191.077C157.116 189.503 159.5 190.095 159.5 191.876C159.5 194.706 161.794 197 164.624 197Z" fill="#40CD0E"/>
<path d="M164.785 197.5H164.624C161.518 197.5 159 194.982 159 191.876C159 190.617 157.314 190.198 156.725 191.311L147.941 207.902C147.712 208.335 148.178 208.806 148.613 208.58L165.366 199.881C166.538 199.273 166.105 197.5 164.785 197.5Z" stroke="white" stroke-opacity="0.2"/>
<path d="M123 483C123 479.686 125.686 477 129 477H340C343.314 477 346 479.686 346 483V539C346 542.314 343.314 545 340 545H129C125.686 545 123 542.314 123 539V483Z" fill="#E700EC"/>
<path d="M129 477.5H340C343.038 477.5 345.5 479.962 345.5 483V539C345.5 542.038 343.038 544.5 340 544.5H129C125.962 544.5 123.5 542.038 123.5 539V483C123.5 479.962 125.962 477.5 129 477.5Z" stroke="white" stroke-opacity="0.2"/>
<path d="M146.038 496.818V507H143.885V496.818H146.038ZM153.127 496.818V507H151.009V496.818H153.127ZM158.274 507.149C157.502 507.149 156.834 506.985 156.27 506.657C155.71 506.326 155.278 505.865 154.973 505.275C154.668 504.682 154.515 503.994 154.515 503.212C154.515 502.423 154.668 501.733 154.973 501.143C155.278 500.55 155.71 500.089 156.27 499.761C156.834 499.43 157.502 499.264 158.274 499.264C159.046 499.264 159.712 499.43 160.273 499.761C160.836 500.089 161.27 500.55 161.575 501.143C161.88 501.733 162.032 502.423 162.032 503.212C162.032 503.994 161.88 504.682 161.575 505.275C161.27 505.865 160.836 506.326 160.273 506.657C159.712 506.985 159.046 507.149 158.274 507.149ZM158.284 505.509C158.635 505.509 158.929 505.409 159.164 505.21C159.399 505.008 159.577 504.733 159.696 504.385C159.818 504.037 159.88 503.641 159.88 503.197C159.88 502.753 159.818 502.357 159.696 502.009C159.577 501.661 159.399 501.385 159.164 501.183C158.929 500.981 158.635 500.88 158.284 500.88C157.929 500.88 157.631 500.981 157.389 501.183C157.15 501.385 156.97 501.661 156.847 502.009C156.728 502.357 156.668 502.753 156.668 503.197C156.668 503.641 156.728 504.037 156.847 504.385C156.97 504.733 157.15 505.008 157.389 505.21C157.631 505.409 157.929 505.509 158.284 505.509ZM170.283 499.364L167.613 507H165.227L162.557 499.364H164.794L166.38 504.827H166.46L168.041 499.364H170.283ZM174.601 507.149C173.815 507.149 173.139 506.99 172.572 506.672C172.009 506.35 171.575 505.896 171.27 505.31C170.965 504.72 170.812 504.022 170.812 503.217C170.812 502.431 170.965 501.742 171.27 501.148C171.575 500.555 172.004 500.093 172.557 499.761C173.114 499.43 173.767 499.264 174.516 499.264C175.02 499.264 175.489 499.345 175.923 499.508C176.361 499.667 176.742 499.907 177.067 500.229C177.395 500.55 177.65 500.955 177.832 501.442C178.015 501.926 178.106 502.492 178.106 503.142V503.724H171.657V502.411H176.112C176.112 502.106 176.046 501.836 175.913 501.601C175.781 501.366 175.597 501.182 175.361 501.049C175.129 500.913 174.859 500.845 174.551 500.845C174.229 500.845 173.944 500.92 173.696 501.069C173.451 501.215 173.258 501.412 173.119 501.661C172.98 501.906 172.909 502.179 172.905 502.481V503.729C172.905 504.107 172.975 504.433 173.114 504.708C173.257 504.983 173.457 505.195 173.716 505.344C173.974 505.494 174.281 505.568 174.635 505.568C174.871 505.568 175.086 505.535 175.282 505.469C175.477 505.402 175.645 505.303 175.784 505.17C175.923 505.038 176.029 504.875 176.102 504.683L178.061 504.812C177.961 505.283 177.758 505.694 177.449 506.045C177.144 506.393 176.75 506.665 176.266 506.861C175.786 507.053 175.23 507.149 174.601 507.149ZM184.846 502.585V507H182.728V496.818H184.786V500.711H184.876C185.048 500.26 185.326 499.907 185.711 499.652C186.095 499.393 186.578 499.264 187.158 499.264C187.688 499.264 188.15 499.38 188.545 499.612C188.942 499.841 189.251 500.171 189.469 500.602C189.692 501.029 189.801 501.541 189.798 502.138V507H187.68V502.516C187.683 502.045 187.564 501.679 187.322 501.417C187.083 501.155 186.748 501.024 186.317 501.024C186.029 501.024 185.774 501.085 185.552 501.208C185.333 501.331 185.161 501.51 185.035 501.745C184.912 501.977 184.849 502.257 184.846 502.585ZM194.915 507.149C194.142 507.149 193.474 506.985 192.911 506.657C192.351 506.326 191.918 505.865 191.613 505.275C191.309 504.682 191.156 503.994 191.156 503.212C191.156 502.423 191.309 501.733 191.613 501.143C191.918 500.55 192.351 500.089 192.911 499.761C193.474 499.43 194.142 499.264 194.915 499.264C195.687 499.264 196.353 499.43 196.913 499.761C197.477 500.089 197.911 500.55 198.216 501.143C198.521 501.733 198.673 502.423 198.673 503.212C198.673 503.994 198.521 504.682 198.216 505.275C197.911 505.865 197.477 506.326 196.913 506.657C196.353 506.985 195.687 507.149 194.915 507.149ZM194.925 505.509C195.276 505.509 195.569 505.409 195.805 505.21C196.04 505.008 196.217 504.733 196.336 504.385C196.459 504.037 196.52 503.641 196.52 503.197C196.52 502.753 196.459 502.357 196.336 502.009C196.217 501.661 196.04 501.385 195.805 501.183C195.569 500.981 195.276 500.88 194.925 500.88C194.57 500.88 194.272 500.981 194.03 501.183C193.791 501.385 193.61 501.661 193.488 502.009C193.368 502.357 193.309 502.753 193.309 503.197C193.309 503.641 193.368 504.037 193.488 504.385C193.61 504.733 193.791 505.008 194.03 505.21C194.272 505.409 194.57 505.509 194.925 505.509ZM201.365 507L199.287 499.364H201.43L202.613 504.494H202.683L203.916 499.364H206.019L207.271 504.464H207.336L208.499 499.364H210.637L208.564 507H206.322L205.009 502.197H204.915L203.602 507H201.365ZM215.007 507V499.364H217.026V500.711H217.115C217.274 500.263 217.539 499.911 217.911 499.652C218.282 499.393 218.726 499.264 219.243 499.264C219.767 499.264 220.213 499.395 220.58 499.657C220.948 499.915 221.194 500.267 221.316 500.711H221.396C221.552 500.273 221.833 499.924 222.241 499.662C222.652 499.397 223.137 499.264 223.698 499.264C224.41 499.264 224.989 499.491 225.433 499.945C225.88 500.396 226.104 501.036 226.104 501.864V507H223.991V502.282C223.991 501.858 223.878 501.54 223.653 501.327C223.427 501.115 223.146 501.009 222.808 501.009C222.423 501.009 222.123 501.132 221.908 501.377C221.692 501.619 221.585 501.939 221.585 502.337V507H219.531V502.237C219.531 501.863 219.424 501.564 219.208 501.342C218.996 501.12 218.716 501.009 218.368 501.009C218.133 501.009 217.921 501.069 217.732 501.188C217.546 501.304 217.399 501.468 217.289 501.68C217.18 501.889 217.125 502.134 217.125 502.416V507H215.007ZM232.674 503.749V499.364H234.792V507H232.758V505.613H232.679C232.506 506.06 232.22 506.42 231.819 506.692C231.421 506.964 230.935 507.099 230.362 507.099C229.852 507.099 229.403 506.983 229.015 506.751C228.627 506.519 228.324 506.19 228.105 505.762C227.89 505.335 227.78 504.822 227.777 504.226V499.364H229.895V503.848C229.898 504.299 230.019 504.655 230.258 504.917C230.496 505.179 230.816 505.31 231.217 505.31C231.472 505.31 231.711 505.252 231.933 505.136C232.155 505.016 232.334 504.841 232.47 504.609C232.609 504.377 232.677 504.09 232.674 503.749ZM239.936 507.149C239.154 507.149 238.481 506.983 237.918 506.652C237.357 506.317 236.927 505.853 236.625 505.26C236.327 504.667 236.178 503.984 236.178 503.212C236.178 502.429 236.328 501.743 236.63 501.153C236.935 500.56 237.367 500.098 237.928 499.766C238.488 499.432 239.154 499.264 239.926 499.264C240.592 499.264 241.176 499.385 241.676 499.627C242.177 499.869 242.573 500.209 242.864 500.646C243.156 501.084 243.317 501.598 243.347 502.188H241.348C241.292 501.806 241.143 501.5 240.901 501.268C240.662 501.032 240.349 500.915 239.961 500.915C239.633 500.915 239.346 501.004 239.101 501.183C238.859 501.359 238.67 501.616 238.534 501.954C238.398 502.292 238.33 502.701 238.33 503.182C238.33 503.669 238.397 504.083 238.529 504.425C238.665 504.766 238.856 505.026 239.101 505.205C239.346 505.384 239.633 505.474 239.961 505.474C240.203 505.474 240.42 505.424 240.612 505.325C240.808 505.225 240.969 505.081 241.094 504.892C241.224 504.7 241.308 504.469 241.348 504.201H243.347C243.313 504.784 243.154 505.298 242.869 505.742C242.588 506.183 242.198 506.528 241.701 506.776C241.204 507.025 240.616 507.149 239.936 507.149ZM246.82 502.585V507H244.703V496.818H246.761V500.711H246.85C247.023 500.26 247.301 499.907 247.686 499.652C248.07 499.393 248.552 499.264 249.132 499.264C249.663 499.264 250.125 499.38 250.519 499.612C250.917 499.841 251.225 500.171 251.444 500.602C251.666 501.029 251.776 501.541 251.772 502.138V507H249.654V502.516C249.658 502.045 249.538 501.679 249.296 501.417C249.058 501.155 248.723 501.024 248.292 501.024C248.004 501.024 247.749 501.085 247.526 501.208C247.308 501.331 247.135 501.51 247.009 501.745C246.887 501.977 246.824 502.257 246.82 502.585ZM260.741 499.364V500.955H256.142V499.364H260.741ZM257.186 497.534H259.304V504.653C259.304 504.849 259.334 505.001 259.394 505.111C259.453 505.217 259.536 505.291 259.642 505.335C259.752 505.378 259.878 505.399 260.02 505.399C260.119 505.399 260.219 505.391 260.318 505.374C260.418 505.354 260.494 505.339 260.547 505.33L260.88 506.906C260.774 506.939 260.625 506.977 260.433 507.02C260.24 507.066 260.007 507.094 259.732 507.104C259.221 507.124 258.774 507.056 258.389 506.901C258.008 506.745 257.712 506.503 257.499 506.175C257.287 505.847 257.183 505.432 257.186 504.932V497.534ZM265.519 507.149C264.733 507.149 264.057 506.99 263.49 506.672C262.927 506.35 262.493 505.896 262.188 505.31C261.883 504.72 261.73 504.022 261.73 503.217C261.73 502.431 261.883 501.742 262.188 501.148C262.493 500.555 262.922 500.093 263.475 499.761C264.032 499.43 264.685 499.264 265.434 499.264C265.938 499.264 266.407 499.345 266.841 499.508C267.279 499.667 267.66 499.907 267.985 500.229C268.313 500.55 268.568 500.955 268.75 501.442C268.932 501.926 269.024 502.492 269.024 503.142V503.724H262.575V502.411H267.03C267.03 502.106 266.964 501.836 266.831 501.601C266.699 501.366 266.515 501.182 266.279 501.049C266.047 500.913 265.777 500.845 265.469 500.845C265.147 500.845 264.862 500.92 264.614 501.069C264.369 501.215 264.176 501.412 264.037 501.661C263.898 501.906 263.827 502.179 263.823 502.481V503.729C263.823 504.107 263.893 504.433 264.032 504.708C264.175 504.983 264.375 505.195 264.634 505.344C264.892 505.494 265.199 505.568 265.553 505.568C265.789 505.568 266.004 505.535 266.2 505.469C266.395 505.402 266.563 505.303 266.702 505.17C266.841 505.038 266.947 504.875 267.02 504.683L268.979 504.812C268.879 505.283 268.676 505.694 268.367 506.045C268.062 506.393 267.668 506.665 267.184 506.861C266.704 507.053 266.148 507.149 265.519 507.149ZM272.039 499.364L273.441 502.033L274.878 499.364H277.05L274.838 503.182L277.11 507H274.947L273.441 504.36L271.959 507H269.772L272.039 503.182L269.851 499.364H272.039ZM282.37 499.364V500.955H277.771V499.364H282.37ZM278.815 497.534H280.933V504.653C280.933 504.849 280.963 505.001 281.023 505.111C281.082 505.217 281.165 505.291 281.271 505.335C281.381 505.378 281.506 505.399 281.649 505.399C281.748 505.399 281.848 505.391 281.947 505.374C282.047 505.354 282.123 505.339 282.176 505.33L282.509 506.906C282.403 506.939 282.254 506.977 282.062 507.02C281.869 507.066 281.636 507.094 281.361 507.104C280.85 507.124 280.403 507.056 280.018 506.901C279.637 506.745 279.34 506.503 279.128 506.175C278.916 505.847 278.812 505.432 278.815 504.932V497.534ZM291.096 499.364V500.955H286.383V499.364H291.096ZM287.462 507V498.812C287.462 498.258 287.57 497.799 287.785 497.435C288.004 497.07 288.302 496.797 288.68 496.614C289.058 496.432 289.487 496.341 289.968 496.341C290.292 496.341 290.589 496.366 290.858 496.415C291.129 496.465 291.332 496.51 291.464 496.55L291.086 498.141C291.003 498.114 290.901 498.089 290.778 498.066C290.659 498.043 290.536 498.031 290.41 498.031C290.099 498.031 289.882 498.104 289.759 498.25C289.636 498.393 289.575 498.593 289.575 498.852V507H287.462ZM292.39 507V499.364H294.508V507H292.39ZM293.454 498.379C293.139 498.379 292.869 498.275 292.644 498.066C292.422 497.854 292.311 497.6 292.311 497.305C292.311 497.014 292.422 496.763 292.644 496.555C292.869 496.343 293.139 496.237 293.454 496.237C293.769 496.237 294.037 496.343 294.259 496.555C294.485 496.763 294.597 497.014 294.597 497.305C294.597 497.6 294.485 497.854 294.259 498.066C294.037 498.275 293.769 498.379 293.454 498.379ZM300.266 499.364V500.955H295.668V499.364H300.266ZM296.712 497.534H298.83V504.653C298.83 504.849 298.859 505.001 298.919 505.111C298.979 505.217 299.062 505.291 299.168 505.335C299.277 505.378 299.403 505.399 299.545 505.399C299.645 505.399 299.744 505.391 299.844 505.374C299.943 505.354 300.019 505.339 300.072 505.33L300.406 506.906C300.299 506.939 300.15 506.977 299.958 507.02C299.766 507.066 299.532 507.094 299.257 507.104C298.747 507.124 298.299 507.056 297.915 506.901C297.534 506.745 297.237 506.503 297.025 506.175C296.813 505.847 296.708 505.432 296.712 504.932V497.534ZM307.904 501.541L305.965 501.661C305.932 501.495 305.861 501.346 305.751 501.213C305.642 501.077 305.498 500.969 305.319 500.89C305.143 500.807 304.933 500.766 304.687 500.766C304.359 500.766 304.082 500.835 303.857 500.974C303.632 501.11 303.519 501.293 303.519 501.521C303.519 501.704 303.592 501.858 303.738 501.984C303.884 502.11 304.134 502.211 304.488 502.287L305.871 502.565C306.613 502.718 307.166 502.963 307.531 503.301C307.896 503.639 308.078 504.083 308.078 504.634C308.078 505.134 307.93 505.573 307.635 505.951C307.344 506.329 306.943 506.624 306.432 506.836C305.925 507.045 305.34 507.149 304.677 507.149C303.666 507.149 302.861 506.939 302.261 506.518C301.665 506.094 301.315 505.517 301.212 504.788L303.295 504.678C303.358 504.987 303.511 505.222 303.753 505.384C303.995 505.543 304.305 505.623 304.682 505.623C305.054 505.623 305.352 505.552 305.577 505.409C305.806 505.263 305.922 505.076 305.925 504.847C305.922 504.655 305.841 504.498 305.682 504.375C305.523 504.249 305.277 504.153 304.946 504.087L303.623 503.823C302.878 503.674 302.323 503.415 301.958 503.048C301.597 502.68 301.416 502.211 301.416 501.641C301.416 501.15 301.549 500.728 301.814 500.373C302.082 500.018 302.458 499.745 302.942 499.553C303.43 499.36 304 499.264 304.653 499.264C305.617 499.264 306.376 499.468 306.93 499.876C307.486 500.283 307.811 500.839 307.904 501.541ZM312.652 507V499.364H314.77V507H312.652ZM313.716 498.379C313.401 498.379 313.131 498.275 312.905 498.066C312.683 497.854 312.572 497.6 312.572 497.305C312.572 497.014 312.683 496.763 312.905 496.555C313.131 496.343 313.401 496.237 313.716 496.237C314.031 496.237 314.299 496.343 314.521 496.555C314.747 496.763 314.859 497.014 314.859 497.305C314.859 497.6 314.747 497.854 314.521 498.066C314.299 498.275 314.031 498.379 313.716 498.379ZM318.584 502.585V507H316.466V499.364H318.485V500.711H318.574C318.743 500.267 319.027 499.915 319.424 499.657C319.822 499.395 320.304 499.264 320.871 499.264C321.401 499.264 321.864 499.38 322.258 499.612C322.653 499.844 322.959 500.176 323.178 500.607C323.397 501.034 323.506 501.545 323.506 502.138V507H321.388V502.516C321.391 502.048 321.272 501.684 321.03 501.422C320.788 501.157 320.455 501.024 320.031 501.024C319.746 501.024 319.494 501.085 319.275 501.208C319.06 501.331 318.891 501.51 318.768 501.745C318.649 501.977 318.587 502.257 318.584 502.585ZM145.963 519.585V524H143.845V513.818H145.903V517.711H145.993C146.165 517.26 146.444 516.907 146.828 516.652C147.213 516.393 147.695 516.264 148.275 516.264C148.805 516.264 149.268 516.38 149.662 516.612C150.06 516.841 150.368 517.171 150.587 517.602C150.809 518.029 150.918 518.541 150.915 519.138V524H148.797V519.516C148.8 519.045 148.681 518.679 148.439 518.417C148.2 518.155 147.866 518.024 147.435 518.024C147.146 518.024 146.891 518.085 146.669 518.208C146.45 518.331 146.278 518.51 146.152 518.745C146.029 518.977 145.966 519.257 145.963 519.585ZM156.062 524.149C155.276 524.149 154.6 523.99 154.033 523.672C153.47 523.35 153.036 522.896 152.731 522.31C152.426 521.72 152.273 521.022 152.273 520.217C152.273 519.431 152.426 518.742 152.731 518.148C153.036 517.555 153.465 517.093 154.018 516.761C154.575 516.43 155.228 516.264 155.977 516.264C156.481 516.264 156.95 516.345 157.384 516.508C157.822 516.667 158.203 516.907 158.528 517.229C158.856 517.55 159.111 517.955 159.293 518.442C159.475 518.926 159.567 519.492 159.567 520.142V520.724H153.118V519.411H157.573C157.573 519.106 157.507 518.836 157.374 518.601C157.242 518.366 157.058 518.182 156.822 518.049C156.59 517.913 156.32 517.845 156.012 517.845C155.69 517.845 155.405 517.92 155.157 518.069C154.912 518.215 154.719 518.412 154.58 518.661C154.441 518.906 154.37 519.179 154.366 519.481V520.729C154.366 521.107 154.436 521.433 154.575 521.708C154.718 521.983 154.918 522.195 155.177 522.344C155.435 522.494 155.742 522.568 156.096 522.568C156.332 522.568 156.547 522.535 156.743 522.469C156.938 522.402 157.106 522.303 157.245 522.17C157.384 522.038 157.49 521.875 157.563 521.683L159.522 521.812C159.422 522.283 159.219 522.694 158.91 523.045C158.605 523.393 158.211 523.665 157.727 523.861C157.247 524.053 156.691 524.149 156.062 524.149ZM160.949 524V516.364H163.002V517.696H163.081C163.221 517.222 163.454 516.864 163.782 516.622C164.111 516.377 164.488 516.254 164.916 516.254C165.022 516.254 165.136 516.261 165.259 516.274C165.382 516.287 165.489 516.306 165.582 516.329V518.208C165.483 518.178 165.345 518.152 165.17 518.129C164.994 518.105 164.833 518.094 164.687 518.094C164.376 518.094 164.097 518.162 163.852 518.298C163.61 518.43 163.418 518.616 163.275 518.854C163.136 519.093 163.067 519.368 163.067 519.68V524H160.949ZM169.802 524.149C169.016 524.149 168.34 523.99 167.773 523.672C167.21 523.35 166.776 522.896 166.471 522.31C166.166 521.72 166.013 521.022 166.013 520.217C166.013 519.431 166.166 518.742 166.471 518.148C166.776 517.555 167.205 517.093 167.759 516.761C168.315 516.43 168.968 516.264 169.717 516.264C170.221 516.264 170.69 516.345 171.124 516.508C171.562 516.667 171.943 516.907 172.268 517.229C172.596 517.55 172.851 517.955 173.033 518.442C173.216 518.926 173.307 519.492 173.307 520.142V520.724H166.859V519.411H171.313C171.313 519.106 171.247 518.836 171.114 518.601C170.982 518.366 170.798 518.182 170.562 518.049C170.33 517.913 170.06 517.845 169.752 517.845C169.431 517.845 169.146 517.92 168.897 518.069C168.652 518.215 168.46 518.412 168.32 518.661C168.181 518.906 168.11 519.179 168.107 519.481V520.729C168.107 521.107 168.176 521.433 168.315 521.708C168.458 521.983 168.658 522.195 168.917 522.344C169.175 522.494 169.482 522.568 169.837 522.568C170.072 522.568 170.287 522.535 170.483 522.469C170.679 522.402 170.846 522.303 170.985 522.17C171.124 522.038 171.23 521.875 171.303 521.683L173.262 521.812C173.163 522.283 172.959 522.694 172.651 523.045C172.346 523.393 171.951 523.665 171.467 523.861C170.987 524.053 170.432 524.149 169.802 524.149ZM180.047 519.585V524H177.929V516.364H179.948V517.711H180.037C180.206 517.267 180.49 516.915 180.887 516.657C181.285 516.395 181.767 516.264 182.334 516.264C182.864 516.264 183.327 516.38 183.721 516.612C184.115 516.844 184.422 517.176 184.641 517.607C184.86 518.034 184.969 518.545 184.969 519.138V524H182.851V519.516C182.854 519.048 182.735 518.684 182.493 518.422C182.251 518.157 181.918 518.024 181.494 518.024C181.209 518.024 180.957 518.085 180.738 518.208C180.523 518.331 180.354 518.51 180.231 518.745C180.112 518.977 180.05 519.257 180.047 519.585ZM190.088 524.149C189.316 524.149 188.648 523.985 188.085 523.657C187.525 523.326 187.092 522.865 186.787 522.275C186.482 521.682 186.33 520.994 186.33 520.212C186.33 519.423 186.482 518.733 186.787 518.143C187.092 517.55 187.525 517.089 188.085 516.761C188.648 516.43 189.316 516.264 190.088 516.264C190.861 516.264 191.527 516.43 192.087 516.761C192.65 517.089 193.085 517.55 193.39 518.143C193.694 518.733 193.847 519.423 193.847 520.212C193.847 520.994 193.694 521.682 193.39 522.275C193.085 522.865 192.65 523.326 192.087 523.657C191.527 523.985 190.861 524.149 190.088 524.149ZM190.098 522.509C190.45 522.509 190.743 522.409 190.978 522.21C191.214 522.008 191.391 521.733 191.51 521.385C191.633 521.037 191.694 520.641 191.694 520.197C191.694 519.753 191.633 519.357 191.51 519.009C191.391 518.661 191.214 518.385 190.978 518.183C190.743 517.981 190.45 517.88 190.098 517.88C189.744 517.88 189.445 517.981 189.203 518.183C188.965 518.385 188.784 518.661 188.662 519.009C188.542 519.357 188.483 519.753 188.483 520.197C188.483 520.641 188.542 521.037 188.662 521.385C188.784 521.733 188.965 522.008 189.203 522.21C189.445 522.409 189.744 522.509 190.098 522.509ZM196.539 524L194.461 516.364H196.604L197.787 521.494H197.857L199.089 516.364H201.192L202.445 521.464H202.51L203.673 516.364H205.811L203.738 524H201.496L200.183 519.197H200.089L198.776 524H196.539ZM207.14 524.129C206.812 524.129 206.53 524.013 206.295 523.781C206.063 523.546 205.947 523.264 205.947 522.936C205.947 522.611 206.063 522.333 206.295 522.101C206.53 521.869 206.812 521.753 207.14 521.753C207.458 521.753 207.736 521.869 207.975 522.101C208.214 522.333 208.333 522.611 208.333 522.936C208.333 523.155 208.277 523.355 208.164 523.538C208.055 523.717 207.91 523.861 207.731 523.97C207.552 524.076 207.355 524.129 207.14 524.129Z" fill="white"/>
<path d="M120.624 469.5H120.785C122.629 469.5 123.233 467.025 121.596 466.175L104.844 457.477C103.974 457.025 103.04 457.965 103.499 458.832L112.283 475.423C113.116 476.997 115.5 476.404 115.5 474.624C115.5 471.794 117.794 469.5 120.624 469.5Z" fill="#E700EC"/>
<path d="M120.785 469H120.624C117.518 469 115 471.518 115 474.624C115 475.883 113.314 476.302 112.725 475.189L103.941 458.598C103.712 458.165 104.178 457.694 104.613 457.92L121.366 466.619C122.538 467.227 122.105 469 120.785 469Z" stroke="white" stroke-opacity="0.2"/>
</svg>
