<svg width="400" height="595" viewBox="0 0 400 595" fill="none" xmlns="http://www.w3.org/2000/svg">
<g filter="url(#filter0_d_76_86)">
<mask id="path-1-inside-1_76_86" fill="white">
<path fill-rule="evenodd" clip-rule="evenodd" d="M30 20C24.4772 20 20 24.4772 20 30V234C20 239.523 24.4772 244 30 244H370C375.523 244 380 239.523 380 234V30C380 24.4772 375.523 20 370 20H30ZM30 263C24.4772 263 20 267.477 20 273C20 278.523 24.4772 283 30 283H370C375.523 283 380 278.523 380 273C380 267.477 375.523 263 370 263H30ZM20 410C20 407.239 22.2386 405 25 405H355C357.761 405 360 407.239 360 410C360 412.761 357.761 415 355 415H25C22.2386 415 20 412.761 20 410ZM25 445C22.2386 445 20 447.239 20 450C20 452.761 22.2386 455 25 455H375C377.761 455 380 452.761 380 450C380 447.239 377.761 445 375 445H25ZM20 490C20 487.239 22.2386 485 25 485H341C343.761 485 346 487.239 346 490C346 492.761 343.761 495 341 495H25C22.2386 495 20 492.761 20 490ZM25 525C22.2386 525 20 527.239 20 530C20 532.761 22.2386 535 25 535H341C343.761 535 346 532.761 346 530C346 527.239 343.761 525 341 525H25ZM20 570C20 567.239 22.2386 565 25 565H355C357.761 565 360 567.239 360 570C360 572.761 357.761 575 355 575H25C22.2386 575 20 572.761 20 570ZM20.5 343C20.2239 343 20 343.224 20 343.5C20 343.776 20.2239 344 20.5 344H379.5C379.776 344 380 343.776 380 343.5C380 343.224 379.776 343 379.5 343H20.5Z"/>
</mask>
<path fill-rule="evenodd" clip-rule="evenodd" d="M30 20C24.4772 20 20 24.4772 20 30V234C20 239.523 24.4772 244 30 244H370C375.523 244 380 239.523 380 234V30C380 24.4772 375.523 20 370 20H30ZM30 263C24.4772 263 20 267.477 20 273C20 278.523 24.4772 283 30 283H370C375.523 283 380 278.523 380 273C380 267.477 375.523 263 370 263H30ZM20 410C20 407.239 22.2386 405 25 405H355C357.761 405 360 407.239 360 410C360 412.761 357.761 415 355 415H25C22.2386 415 20 412.761 20 410ZM25 445C22.2386 445 20 447.239 20 450C20 452.761 22.2386 455 25 455H375C377.761 455 380 452.761 380 450C380 447.239 377.761 445 375 445H25ZM20 490C20 487.239 22.2386 485 25 485H341C343.761 485 346 487.239 346 490C346 492.761 343.761 495 341 495H25C22.2386 495 20 492.761 20 490ZM25 525C22.2386 525 20 527.239 20 530C20 532.761 22.2386 535 25 535H341C343.761 535 346 532.761 346 530C346 527.239 343.761 525 341 525H25ZM20 570C20 567.239 22.2386 565 25 565H355C357.761 565 360 567.239 360 570C360 572.761 357.761 575 355 575H25C22.2386 575 20 572.761 20 570ZM20.5 343C20.2239 343 20 343.224 20 343.5C20 343.776 20.2239 344 20.5 344H379.5C379.776 344 380 343.776 380 343.5C380 343.224 379.776 343 379.5 343H20.5Z" fill="url(#paint0_linear_76_86)" fill-opacity="0.25" shape-rendering="crispEdges"/>
<path d="M21 30C21 25.0294 25.0294 21 30 21V19C23.9249 19 19 23.9249 19 30H21ZM21 234V30H19V234H21ZM30 243C25.0294 243 21 238.971 21 234H19C19 240.075 23.9249 245 30 245V243ZM370 243H30V245H370V243ZM379 234C379 238.971 374.971 243 370 243V245C376.075 245 381 240.075 381 234H379ZM379 30V234H381V30H379ZM370 21C374.971 21 379 25.0294 379 30H381C381 23.9249 376.075 19 370 19V21ZM30 21H370V19H30V21ZM21 273C21 268.029 25.0294 264 30 264V262C23.9249 262 19 266.925 19 273H21ZM30 282C25.0294 282 21 277.971 21 273H19C19 279.075 23.9249 284 30 284V282ZM370 282H30V284H370V282ZM379 273C379 277.971 374.971 282 370 282V284C376.075 284 381 279.075 381 273H379ZM370 264C374.971 264 379 268.029 379 273H381C381 266.925 376.075 262 370 262V264ZM30 264H370V262H30V264ZM25 404C21.6863 404 19 406.686 19 410H21C21 407.791 22.7909 406 25 406V404ZM355 404H25V406H355V404ZM361 410C361 406.686 358.314 404 355 404V406C357.209 406 359 407.791 359 410H361ZM355 416C358.314 416 361 413.314 361 410H359C359 412.209 357.209 414 355 414V416ZM25 416H355V414H25V416ZM19 410C19 413.314 21.6863 416 25 416V414C22.7909 414 21 412.209 21 410H19ZM21 450C21 447.791 22.7909 446 25 446V444C21.6863 444 19 446.686 19 450H21ZM25 454C22.7909 454 21 452.209 21 450H19C19 453.314 21.6863 456 25 456V454ZM375 454H25V456H375V454ZM379 450C379 452.209 377.209 454 375 454V456C378.314 456 381 453.314 381 450H379ZM375 446C377.209 446 379 447.791 379 450H381C381 446.686 378.314 444 375 444V446ZM25 446H375V444H25V446ZM25 484C21.6863 484 19 486.686 19 490H21C21 487.791 22.7909 486 25 486V484ZM341 484H25V486H341V484ZM347 490C347 486.686 344.314 484 341 484V486C343.209 486 345 487.791 345 490H347ZM341 496C344.314 496 347 493.314 347 490H345C345 492.209 343.209 494 341 494V496ZM25 496H341V494H25V496ZM19 490C19 493.314 21.6863 496 25 496V494C22.7909 494 21 492.209 21 490H19ZM21 530C21 527.791 22.7909 526 25 526V524C21.6863 524 19 526.686 19 530H21ZM25 534C22.7909 534 21 532.209 21 530H19C19 533.314 21.6863 536 25 536V534ZM341 534H25V536H341V534ZM345 530C345 532.209 343.209 534 341 534V536C344.314 536 347 533.314 347 530H345ZM341 526C343.209 526 345 527.791 345 530H347C347 526.686 344.314 524 341 524V526ZM25 526H341V524H25V526ZM25 564C21.6863 564 19 566.686 19 570H21C21 567.791 22.7909 566 25 566V564ZM355 564H25V566H355V564ZM361 570C361 566.686 358.314 564 355 564V566C357.209 566 359 567.791 359 570H361ZM355 576C358.314 576 361 573.314 361 570H359C359 572.209 357.209 574 355 574V576ZM25 576H355V574H25V576ZM19 570C19 573.314 21.6863 576 25 576V574C22.7909 574 21 572.209 21 570H19ZM21 343.5C21 343.776 20.7761 344 20.5 344V342C19.6716 342 19 342.672 19 343.5H21ZM20.5 343C20.7761 343 21 343.224 21 343.5H19C19 344.328 19.6716 345 20.5 345V343ZM379.5 343H20.5V345H379.5V343ZM379 343.5C379 343.224 379.224 343 379.5 343V345C380.328 345 381 344.328 381 343.5H379ZM379.5 344C379.224 344 379 343.776 379 343.5H381C381 342.672 380.328 342 379.5 342V344ZM20.5 344H379.5V342H20.5V344Z" fill="url(#paint1_linear_76_86)" mask="url(#path-1-inside-1_76_86)"/>
</g>
<g filter="url(#filter1_d_76_86)">
<path d="M71.3301 308.172C72.3108 307.671 73.1606 307.5 74.5521 307.5C77.9148 307.515 80.5 310.481 80.5 314.429C80.5 317.407 78.9107 320.346 75.809 323.257C74.1792 324.786 72.0993 326.297 70.6287 327.092C70.2364 327.304 69.7636 327.304 69.3713 327.092C67.9007 326.297 65.8208 324.786 64.191 323.257C61.0893 320.346 59.5 317.407 59.5 314.429C59.5 310.435 62.0606 307.5 65.4545 307.5C66.7896 307.5 67.6881 307.686 68.6925 308.204C69.4991 308.62 70.4822 308.614 71.2844 308.195L71.3301 308.172Z" fill="url(#paint2_linear_76_86)" fill-opacity="0.25" stroke="url(#paint3_linear_76_86)"/>
<path d="M41.5 323.359V308.114C41.5 307.949 41.4353 307.792 41.3221 307.678C41.2091 307.563 41.0571 307.5 40.9 307.5H21.1C20.9429 307.5 20.7909 307.563 20.6779 307.678C20.5647 307.792 20.5 307.949 20.5 308.114V323.706C20.5 323.871 20.5647 324.028 20.6779 324.142C20.7909 324.257 20.9429 324.32 21.1 324.32H36.1968C36.8944 324.32 37.5713 324.556 38.1172 324.99C39.4832 326.077 41.5 325.104 41.5 323.359Z" fill="url(#paint4_linear_76_86)" fill-opacity="0.25" stroke="url(#paint5_linear_76_86)"/>
</g>
<path d="M167 100C167 96.6863 169.686 94 173 94H384C387.314 94 390 96.6863 390 100V156C390 159.314 387.314 162 384 162H173C169.686 162 167 159.314 167 156V100Z" fill="#40CD0E"/>
<path d="M173 94.5H384C387.038 94.5 389.5 96.9624 389.5 100V156C389.5 159.038 387.038 161.5 384 161.5H173C169.962 161.5 167.5 159.038 167.5 156V100C167.5 96.9624 169.962 94.5 173 94.5Z" stroke="white" stroke-opacity="0.2"/>
<g filter="url(#filter2_d_76_86)">
<path d="M187.497 115.593V113.818H195.859V115.593H192.742V124H190.614V115.593H187.497ZM199.315 119.585V124H197.197V113.818H199.255V117.711H199.344C199.517 117.26 199.795 116.907 200.18 116.652C200.564 116.393 201.046 116.264 201.626 116.264C202.157 116.264 202.619 116.38 203.013 116.612C203.411 116.841 203.719 117.171 203.938 117.602C204.16 118.029 204.27 118.541 204.266 119.138V124H202.148V119.516C202.152 119.045 202.032 118.679 201.79 118.417C201.552 118.155 201.217 118.024 200.786 118.024C200.498 118.024 200.243 118.085 200.021 118.208C199.802 118.331 199.629 118.51 199.504 118.745C199.381 118.977 199.318 119.257 199.315 119.585ZM205.933 124V116.364H208.051V124H205.933ZM206.997 115.379C206.682 115.379 206.412 115.275 206.187 115.066C205.965 114.854 205.854 114.6 205.854 114.305C205.854 114.014 205.965 113.763 206.187 113.555C206.412 113.343 206.682 113.237 206.997 113.237C207.312 113.237 207.58 113.343 207.802 113.555C208.028 113.763 208.14 114.014 208.14 114.305C208.14 114.6 208.028 114.854 207.802 115.066C207.58 115.275 207.312 115.379 206.997 115.379ZM216.101 118.541L214.162 118.661C214.129 118.495 214.058 118.346 213.949 118.213C213.839 118.077 213.695 117.969 213.516 117.89C213.34 117.807 213.13 117.766 212.885 117.766C212.556 117.766 212.28 117.835 212.054 117.974C211.829 118.11 211.716 118.293 211.716 118.521C211.716 118.704 211.789 118.858 211.935 118.984C212.081 119.11 212.331 119.211 212.686 119.287L214.068 119.565C214.81 119.718 215.364 119.963 215.728 120.301C216.093 120.639 216.275 121.083 216.275 121.634C216.275 122.134 216.128 122.573 215.833 122.951C215.541 123.329 215.14 123.624 214.63 123.836C214.123 124.045 213.538 124.149 212.875 124.149C211.864 124.149 211.058 123.939 210.458 123.518C209.862 123.094 209.512 122.517 209.409 121.788L211.493 121.678C211.556 121.987 211.708 122.222 211.95 122.384C212.192 122.543 212.502 122.623 212.88 122.623C213.251 122.623 213.549 122.552 213.775 122.409C214.003 122.263 214.119 122.076 214.123 121.847C214.119 121.655 214.038 121.498 213.879 121.375C213.72 121.249 213.475 121.153 213.143 121.087L211.821 120.823C211.075 120.674 210.52 120.415 210.155 120.048C209.794 119.68 209.613 119.211 209.613 118.641C209.613 118.15 209.746 117.728 210.011 117.373C210.279 117.018 210.656 116.745 211.14 116.553C211.627 116.36 212.197 116.264 212.85 116.264C213.814 116.264 214.573 116.468 215.127 116.876C215.684 117.283 216.008 117.839 216.101 118.541ZM222.967 113.818V124H220.849V113.818H222.967ZM228.114 124.149C227.342 124.149 226.674 123.985 226.11 123.657C225.55 123.326 225.118 122.865 224.813 122.275C224.508 121.682 224.355 120.994 224.355 120.212C224.355 119.423 224.508 118.733 224.813 118.143C225.118 117.55 225.55 117.089 226.11 116.761C226.674 116.43 227.342 116.264 228.114 116.264C228.886 116.264 229.552 116.43 230.112 116.761C230.676 117.089 231.11 117.55 231.415 118.143C231.72 118.733 231.872 119.423 231.872 120.212C231.872 120.994 231.72 121.682 231.415 122.275C231.11 122.865 230.676 123.326 230.112 123.657C229.552 123.985 228.886 124.149 228.114 124.149ZM228.124 122.509C228.475 122.509 228.768 122.409 229.004 122.21C229.239 122.008 229.416 121.733 229.536 121.385C229.658 121.037 229.72 120.641 229.72 120.197C229.72 119.753 229.658 119.357 229.536 119.009C229.416 118.661 229.239 118.385 229.004 118.183C228.768 117.981 228.475 117.88 228.124 117.88C227.769 117.88 227.471 117.981 227.229 118.183C226.99 118.385 226.81 118.661 226.687 119.009C226.568 119.357 226.508 119.753 226.508 120.197C226.508 120.641 226.568 121.037 226.687 121.385C226.81 121.733 226.99 122.008 227.229 122.21C227.471 122.409 227.769 122.509 228.124 122.509ZM236.7 124.149C235.927 124.149 235.26 123.985 234.696 123.657C234.136 123.326 233.704 122.865 233.399 122.275C233.094 121.682 232.941 120.994 232.941 120.212C232.941 119.423 233.094 118.733 233.399 118.143C233.704 117.55 234.136 117.089 234.696 116.761C235.26 116.43 235.927 116.264 236.7 116.264C237.472 116.264 238.138 116.43 238.698 116.761C239.262 117.089 239.696 117.55 240.001 118.143C240.306 118.733 240.458 119.423 240.458 120.212C240.458 120.994 240.306 121.682 240.001 122.275C239.696 122.865 239.262 123.326 238.698 123.657C238.138 123.985 237.472 124.149 236.7 124.149ZM236.71 122.509C237.061 122.509 237.354 122.409 237.59 122.21C237.825 122.008 238.002 121.733 238.122 121.385C238.244 121.037 238.306 120.641 238.306 120.197C238.306 119.753 238.244 119.357 238.122 119.009C238.002 118.661 237.825 118.385 237.59 118.183C237.354 117.981 237.061 117.88 236.71 117.88C236.355 117.88 236.057 117.981 235.815 118.183C235.576 118.385 235.396 118.661 235.273 119.009C235.154 119.357 235.094 119.753 235.094 120.197C235.094 120.641 235.154 121.037 235.273 121.385C235.396 121.733 235.576 122.008 235.815 122.21C236.057 122.409 236.355 122.509 236.71 122.509ZM243.754 121.803L243.759 119.262H244.068L246.514 116.364H248.945L245.659 120.202H245.156L243.754 121.803ZM241.835 124V113.818H243.953V124H241.835ZM246.608 124L244.361 120.674L245.773 119.178L249.089 124H246.608ZM256.338 118.541L254.399 118.661C254.365 118.495 254.294 118.346 254.185 118.213C254.075 118.077 253.931 117.969 253.752 117.89C253.577 117.807 253.366 117.766 253.121 117.766C252.793 117.766 252.516 117.835 252.291 117.974C252.065 118.11 251.953 118.293 251.953 118.521C251.953 118.704 252.026 118.858 252.171 118.984C252.317 119.11 252.567 119.211 252.922 119.287L254.304 119.565C255.047 119.718 255.6 119.963 255.965 120.301C256.329 120.639 256.512 121.083 256.512 121.634C256.512 122.134 256.364 122.573 256.069 122.951C255.777 123.329 255.376 123.624 254.866 123.836C254.359 124.045 253.774 124.149 253.111 124.149C252.1 124.149 251.295 123.939 250.695 123.518C250.098 123.094 249.749 122.517 249.646 121.788L251.729 121.678C251.792 121.987 251.944 122.222 252.186 122.384C252.428 122.543 252.738 122.623 253.116 122.623C253.487 122.623 253.785 122.552 254.011 122.409C254.24 122.263 254.356 122.076 254.359 121.847C254.356 121.655 254.274 121.498 254.115 121.375C253.956 121.249 253.711 121.153 253.379 121.087L252.057 120.823C251.311 120.674 250.756 120.415 250.392 120.048C250.03 119.68 249.85 119.211 249.85 118.641C249.85 118.15 249.982 117.728 250.247 117.373C250.516 117.018 250.892 116.745 251.376 116.553C251.863 116.36 252.433 116.264 253.086 116.264C254.051 116.264 254.81 116.468 255.363 116.876C255.92 117.283 256.245 117.839 256.338 118.541ZM264.526 127.023C263.84 127.023 263.251 126.928 262.761 126.739C262.274 126.554 261.886 126.3 261.597 125.979C261.309 125.657 261.122 125.296 261.036 124.895L262.994 124.631C263.054 124.784 263.149 124.926 263.278 125.059C263.407 125.192 263.578 125.298 263.79 125.377C264.005 125.46 264.267 125.501 264.575 125.501C265.036 125.501 265.416 125.389 265.714 125.163C266.016 124.941 266.166 124.568 266.166 124.045V122.648H266.077C265.984 122.86 265.845 123.06 265.659 123.249C265.474 123.438 265.235 123.592 264.943 123.712C264.652 123.831 264.304 123.891 263.899 123.891C263.326 123.891 262.804 123.758 262.333 123.493C261.866 123.224 261.493 122.815 261.215 122.265C260.94 121.711 260.802 121.012 260.802 120.167C260.802 119.302 260.943 118.579 261.225 117.999C261.506 117.419 261.881 116.985 262.348 116.697C262.819 116.408 263.334 116.264 263.894 116.264C264.322 116.264 264.68 116.337 264.968 116.483C265.257 116.625 265.489 116.804 265.664 117.02C265.843 117.232 265.981 117.441 266.077 117.646H266.156V116.364H268.259V124.075C268.259 124.724 268.1 125.268 267.782 125.705C267.464 126.143 267.023 126.471 266.46 126.69C265.9 126.912 265.255 127.023 264.526 127.023ZM264.57 122.3C264.912 122.3 265.2 122.215 265.436 122.046C265.674 121.874 265.856 121.629 265.982 121.31C266.112 120.989 266.176 120.604 266.176 120.157C266.176 119.71 266.113 119.322 265.987 118.994C265.861 118.662 265.679 118.405 265.441 118.223C265.202 118.041 264.912 117.95 264.57 117.95C264.222 117.95 263.929 118.044 263.691 118.233C263.452 118.419 263.271 118.677 263.149 119.009C263.026 119.34 262.965 119.723 262.965 120.157C262.965 120.598 263.026 120.979 263.149 121.3C263.275 121.619 263.455 121.866 263.691 122.041C263.929 122.214 264.222 122.3 264.57 122.3ZM269.945 124V116.364H271.998V117.696H272.078C272.217 117.222 272.45 116.864 272.779 116.622C273.107 116.377 273.485 116.254 273.912 116.254C274.018 116.254 274.133 116.261 274.255 116.274C274.378 116.287 274.485 116.306 274.578 116.329V118.208C274.479 118.178 274.341 118.152 274.166 118.129C273.99 118.105 273.829 118.094 273.683 118.094C273.372 118.094 273.093 118.162 272.848 118.298C272.606 118.43 272.414 118.616 272.271 118.854C272.132 119.093 272.063 119.368 272.063 119.68V124H269.945ZM278.798 124.149C278.012 124.149 277.336 123.99 276.77 123.672C276.206 123.35 275.772 122.896 275.467 122.31C275.162 121.72 275.01 121.022 275.01 120.217C275.01 119.431 275.162 118.742 275.467 118.148C275.772 117.555 276.201 117.093 276.755 116.761C277.311 116.43 277.964 116.264 278.713 116.264C279.217 116.264 279.686 116.345 280.12 116.508C280.558 116.667 280.939 116.907 281.264 117.229C281.592 117.55 281.847 117.955 282.029 118.442C282.212 118.926 282.303 119.492 282.303 120.142V120.724H275.855V119.411H280.309C280.309 119.106 280.243 118.836 280.11 118.601C279.978 118.366 279.794 118.182 279.559 118.049C279.327 117.913 279.056 117.845 278.748 117.845C278.427 117.845 278.142 117.92 277.893 118.069C277.648 118.215 277.456 118.412 277.316 118.661C277.177 118.906 277.106 119.179 277.103 119.481V120.729C277.103 121.107 277.172 121.433 277.311 121.708C277.454 121.983 277.654 122.195 277.913 122.344C278.172 122.494 278.478 122.568 278.833 122.568C279.068 122.568 279.283 122.535 279.479 122.469C279.675 122.402 279.842 122.303 279.981 122.17C280.12 122.038 280.226 121.875 280.299 121.683L282.258 121.812C282.159 122.283 281.955 122.694 281.647 123.045C281.342 123.393 280.947 123.665 280.463 123.861C279.983 124.053 279.428 124.149 278.798 124.149ZM285.863 124.144C285.375 124.144 284.941 124.06 284.56 123.891C284.179 123.718 283.877 123.465 283.655 123.13C283.436 122.792 283.327 122.371 283.327 121.867C283.327 121.443 283.405 121.087 283.561 120.798C283.717 120.51 283.929 120.278 284.197 120.102C284.466 119.927 284.77 119.794 285.112 119.705C285.457 119.615 285.818 119.552 286.196 119.516C286.64 119.469 286.998 119.426 287.27 119.386C287.541 119.343 287.739 119.28 287.861 119.197C287.984 119.115 288.045 118.992 288.045 118.83V118.8C288.045 118.485 287.946 118.241 287.747 118.069C287.551 117.897 287.273 117.81 286.912 117.81C286.53 117.81 286.227 117.895 286.002 118.064C285.776 118.23 285.627 118.438 285.554 118.69L283.596 118.531C283.695 118.067 283.891 117.666 284.182 117.328C284.474 116.987 284.85 116.725 285.311 116.543C285.775 116.357 286.312 116.264 286.922 116.264C287.346 116.264 287.752 116.314 288.14 116.413C288.531 116.513 288.877 116.667 289.179 116.876C289.484 117.085 289.724 117.353 289.9 117.681C290.075 118.006 290.163 118.395 290.163 118.849V124H288.154V122.941H288.095C287.972 123.18 287.808 123.39 287.603 123.572C287.397 123.751 287.15 123.892 286.862 123.995C286.574 124.094 286.24 124.144 285.863 124.144ZM286.469 122.683C286.781 122.683 287.056 122.621 287.294 122.499C287.533 122.373 287.72 122.204 287.856 121.991C287.992 121.779 288.06 121.539 288.06 121.271V120.46C287.994 120.503 287.903 120.543 287.787 120.58C287.674 120.613 287.546 120.644 287.404 120.674C287.261 120.701 287.119 120.725 286.976 120.749C286.834 120.768 286.704 120.787 286.588 120.803C286.34 120.84 286.123 120.898 285.937 120.977C285.752 121.057 285.607 121.165 285.505 121.3C285.402 121.433 285.35 121.599 285.35 121.798C285.35 122.086 285.455 122.306 285.664 122.459C285.876 122.608 286.144 122.683 286.469 122.683ZM295.868 116.364V117.955H291.269V116.364H295.868ZM292.313 114.534H294.431V121.653C294.431 121.849 294.461 122.001 294.521 122.111C294.58 122.217 294.663 122.291 294.769 122.335C294.879 122.378 295.004 122.399 295.147 122.399C295.246 122.399 295.346 122.391 295.445 122.374C295.545 122.354 295.621 122.339 295.674 122.33L296.007 123.906C295.901 123.939 295.752 123.977 295.56 124.02C295.367 124.066 295.134 124.094 294.859 124.104C294.348 124.124 293.901 124.056 293.516 123.901C293.135 123.745 292.839 123.503 292.626 123.175C292.414 122.847 292.31 122.432 292.313 121.932V114.534ZM299.549 122.608L299.495 123.155C299.452 123.592 299.369 124.028 299.246 124.462C299.127 124.9 299.001 125.296 298.868 125.651C298.739 126.005 298.635 126.284 298.555 126.486H297.183C297.233 126.29 297.301 126.017 297.387 125.665C297.473 125.317 297.554 124.926 297.63 124.492C297.707 124.058 297.755 123.616 297.775 123.165L297.799 122.608H299.549ZM304.287 124V113.818H306.405V117.646H306.47C306.563 117.441 306.697 117.232 306.873 117.02C307.051 116.804 307.283 116.625 307.569 116.483C307.857 116.337 308.215 116.264 308.642 116.264C309.199 116.264 309.713 116.41 310.184 116.702C310.654 116.99 311.03 117.426 311.312 118.009C311.594 118.589 311.735 119.317 311.735 120.192C311.735 121.044 311.597 121.763 311.322 122.349C311.05 122.933 310.679 123.375 310.208 123.677C309.741 123.975 309.217 124.124 308.637 124.124C308.226 124.124 307.877 124.056 307.588 123.92C307.303 123.785 307.07 123.614 306.887 123.408C306.705 123.2 306.566 122.989 306.47 122.777H306.375V124H304.287ZM306.36 120.182C306.36 120.636 306.423 121.032 306.549 121.37C306.675 121.708 306.858 121.972 307.096 122.161C307.335 122.346 307.625 122.439 307.966 122.439C308.311 122.439 308.603 122.344 308.841 122.156C309.08 121.963 309.261 121.698 309.383 121.36C309.509 121.019 309.572 120.626 309.572 120.182C309.572 119.741 309.511 119.353 309.388 119.018C309.266 118.684 309.085 118.422 308.846 118.233C308.608 118.044 308.314 117.95 307.966 117.95C307.622 117.95 307.33 118.041 307.091 118.223C306.856 118.405 306.675 118.664 306.549 118.999C306.423 119.333 306.36 119.728 306.36 120.182ZM318.045 120.749V116.364H320.163V124H318.129V122.613H318.05C317.878 123.06 317.591 123.42 317.19 123.692C316.792 123.964 316.307 124.099 315.733 124.099C315.223 124.099 314.774 123.983 314.386 123.751C313.998 123.519 313.695 123.19 313.476 122.762C313.261 122.335 313.151 121.822 313.148 121.226V116.364H315.266V120.848C315.269 121.299 315.39 121.655 315.629 121.917C315.867 122.179 316.187 122.31 316.588 122.31C316.843 122.31 317.082 122.252 317.304 122.136C317.526 122.016 317.705 121.841 317.841 121.609C317.98 121.377 318.048 121.09 318.045 120.749ZM325.919 116.364V117.955H321.32V116.364H325.919ZM322.364 114.534H324.482V121.653C324.482 121.849 324.512 122.001 324.571 122.111C324.631 122.217 324.714 122.291 324.82 122.335C324.929 122.378 325.055 122.399 325.198 122.399C325.297 122.399 325.397 122.391 325.496 122.374C325.596 122.354 325.672 122.339 325.725 122.33L326.058 123.906C325.952 123.939 325.803 123.977 325.61 124.02C325.418 124.066 325.185 124.094 324.909 124.104C324.399 124.124 323.952 124.056 323.567 123.901C323.186 123.745 322.889 123.503 322.677 123.175C322.465 122.847 322.361 122.432 322.364 121.932V114.534ZM333.989 124.149C333.207 124.149 332.534 123.983 331.97 123.652C331.41 123.317 330.979 122.853 330.678 122.26C330.379 121.667 330.23 120.984 330.23 120.212C330.23 119.429 330.381 118.743 330.683 118.153C330.988 117.56 331.42 117.098 331.98 116.766C332.54 116.432 333.207 116.264 333.979 116.264C334.645 116.264 335.228 116.385 335.729 116.627C336.229 116.869 336.625 117.209 336.917 117.646C337.209 118.084 337.369 118.598 337.399 119.188H335.401C335.344 118.806 335.195 118.5 334.953 118.268C334.715 118.032 334.401 117.915 334.014 117.915C333.686 117.915 333.399 118.004 333.154 118.183C332.912 118.359 332.723 118.616 332.587 118.954C332.451 119.292 332.383 119.701 332.383 120.182C332.383 120.669 332.449 121.083 332.582 121.425C332.718 121.766 332.908 122.026 333.154 122.205C333.399 122.384 333.686 122.474 334.014 122.474C334.256 122.474 334.473 122.424 334.665 122.325C334.86 122.225 335.021 122.081 335.147 121.892C335.276 121.7 335.361 121.469 335.401 121.201H337.399C337.366 121.784 337.207 122.298 336.922 122.742C336.64 123.183 336.251 123.528 335.754 123.776C335.257 124.025 334.668 124.149 333.989 124.149ZM340.933 124.144C340.446 124.144 340.011 124.06 339.63 123.891C339.249 123.718 338.948 123.465 338.725 123.13C338.507 122.792 338.397 122.371 338.397 121.867C338.397 121.443 338.475 121.087 338.631 120.798C338.787 120.51 338.999 120.278 339.267 120.102C339.536 119.927 339.841 119.794 340.182 119.705C340.527 119.615 340.888 119.552 341.266 119.516C341.71 119.469 342.068 119.426 342.34 119.386C342.612 119.343 342.809 119.28 342.931 119.197C343.054 119.115 343.115 118.992 343.115 118.83V118.8C343.115 118.485 343.016 118.241 342.817 118.069C342.622 117.897 342.343 117.81 341.982 117.81C341.601 117.81 341.297 117.895 341.072 118.064C340.847 118.23 340.698 118.438 340.625 118.69L338.666 118.531C338.765 118.067 338.961 117.666 339.252 117.328C339.544 116.987 339.92 116.725 340.381 116.543C340.845 116.357 341.382 116.264 341.992 116.264C342.416 116.264 342.822 116.314 343.21 116.413C343.601 116.513 343.947 116.667 344.249 116.876C344.554 117.085 344.794 117.353 344.97 117.681C345.145 118.006 345.233 118.395 345.233 118.849V124H343.225V122.941H343.165C343.042 123.18 342.878 123.39 342.673 123.572C342.467 123.751 342.221 123.892 341.932 123.995C341.644 124.094 341.311 124.144 340.933 124.144ZM341.539 122.683C341.851 122.683 342.126 122.621 342.365 122.499C342.603 122.373 342.791 122.204 342.926 121.991C343.062 121.779 343.13 121.539 343.13 121.271V120.46C343.064 120.503 342.973 120.543 342.857 120.58C342.744 120.613 342.617 120.644 342.474 120.674C342.332 120.701 342.189 120.725 342.047 120.749C341.904 120.768 341.775 120.787 341.659 120.803C341.41 120.84 341.193 120.898 341.007 120.977C340.822 121.057 340.678 121.165 340.575 121.3C340.472 121.433 340.421 121.599 340.421 121.798C340.421 122.086 340.525 122.306 340.734 122.459C340.946 122.608 341.215 122.683 341.539 122.683ZM348.994 119.585V124H346.876V116.364H348.895V117.711H348.984C349.153 117.267 349.437 116.915 349.835 116.657C350.232 116.395 350.714 116.264 351.281 116.264C351.812 116.264 352.274 116.38 352.668 116.612C353.063 116.844 353.369 117.176 353.588 117.607C353.807 118.034 353.916 118.545 353.916 119.138V124H351.798V119.516C351.802 119.048 351.682 118.684 351.44 118.422C351.198 118.157 350.865 118.024 350.441 118.024C350.156 118.024 349.904 118.085 349.685 118.208C349.47 118.331 349.301 118.51 349.178 118.745C349.059 118.977 348.998 119.257 348.994 119.585ZM189.352 141L187.273 133.364H189.416L190.599 138.494H190.669L191.902 133.364H194.005L195.258 138.464H195.322L196.486 133.364H198.624L196.55 141H194.308L192.996 136.197H192.901L191.589 141H189.352ZM203.042 141.149C202.257 141.149 201.58 140.99 201.014 140.672C200.45 140.35 200.016 139.896 199.711 139.31C199.406 138.72 199.254 138.022 199.254 137.217C199.254 136.431 199.406 135.742 199.711 135.148C200.016 134.555 200.445 134.093 200.999 133.761C201.556 133.43 202.209 133.264 202.958 133.264C203.461 133.264 203.93 133.345 204.365 133.508C204.802 133.667 205.183 133.907 205.508 134.229C205.836 134.55 206.091 134.955 206.274 135.442C206.456 135.926 206.547 136.492 206.547 137.142V137.724H200.099V136.411H204.553C204.553 136.106 204.487 135.836 204.355 135.601C204.222 135.366 204.038 135.182 203.803 135.049C203.571 134.913 203.301 134.845 202.992 134.845C202.671 134.845 202.386 134.92 202.137 135.069C201.892 135.215 201.7 135.412 201.561 135.661C201.421 135.906 201.35 136.179 201.347 136.481V137.729C201.347 138.107 201.416 138.433 201.556 138.708C201.698 138.983 201.899 139.195 202.157 139.344C202.416 139.494 202.722 139.568 203.077 139.568C203.312 139.568 203.528 139.535 203.723 139.469C203.919 139.402 204.086 139.303 204.225 139.17C204.365 139.038 204.471 138.875 204.544 138.683L206.502 138.812C206.403 139.283 206.199 139.694 205.891 140.045C205.586 140.393 205.191 140.665 204.708 140.861C204.227 141.053 203.672 141.149 203.042 141.149ZM211.169 141V133.364H213.188V134.711H213.277C213.436 134.263 213.702 133.911 214.073 133.652C214.444 133.393 214.888 133.264 215.405 133.264C215.929 133.264 216.375 133.395 216.743 133.657C217.11 133.915 217.356 134.267 217.478 134.711H217.558C217.714 134.273 217.995 133.924 218.403 133.662C218.814 133.397 219.3 133.264 219.86 133.264C220.572 133.264 221.151 133.491 221.595 133.945C222.042 134.396 222.266 135.036 222.266 135.864V141H220.153V136.282C220.153 135.858 220.04 135.54 219.815 135.327C219.59 135.115 219.308 135.009 218.97 135.009C218.585 135.009 218.285 135.132 218.07 135.377C217.855 135.619 217.747 135.939 217.747 136.337V141H215.694V136.237C215.694 135.863 215.586 135.564 215.37 135.342C215.158 135.12 214.878 135.009 214.53 135.009C214.295 135.009 214.083 135.069 213.894 135.188C213.708 135.304 213.561 135.468 213.451 135.68C213.342 135.889 213.287 136.134 213.287 136.416V141H211.169ZM226.116 141.144C225.629 141.144 225.195 141.06 224.814 140.891C224.433 140.718 224.131 140.465 223.909 140.13C223.69 139.792 223.581 139.371 223.581 138.867C223.581 138.443 223.659 138.087 223.815 137.798C223.97 137.51 224.183 137.278 224.451 137.102C224.719 136.927 225.024 136.794 225.366 136.705C225.71 136.615 226.072 136.552 226.45 136.516C226.894 136.469 227.252 136.426 227.523 136.386C227.795 136.343 227.992 136.28 228.115 136.197C228.238 136.115 228.299 135.992 228.299 135.83V135.8C228.299 135.485 228.2 135.241 228.001 135.069C227.805 134.897 227.527 134.81 227.165 134.81C226.784 134.81 226.481 134.895 226.256 135.064C226.03 135.23 225.881 135.438 225.808 135.69L223.849 135.531C223.949 135.067 224.144 134.666 224.436 134.328C224.728 133.987 225.104 133.725 225.565 133.543C226.029 133.357 226.566 133.264 227.175 133.264C227.6 133.264 228.006 133.314 228.393 133.413C228.785 133.513 229.131 133.667 229.433 133.876C229.737 134.085 229.978 134.353 230.153 134.681C230.329 135.006 230.417 135.395 230.417 135.849V141H228.408V139.941H228.349C228.226 140.18 228.062 140.39 227.857 140.572C227.651 140.751 227.404 140.892 227.116 140.995C226.827 141.094 226.494 141.144 226.116 141.144ZM226.723 139.683C227.035 139.683 227.31 139.621 227.548 139.499C227.787 139.373 227.974 139.204 228.11 138.991C228.246 138.779 228.314 138.539 228.314 138.271V137.46C228.248 137.503 228.156 137.543 228.04 137.58C227.928 137.613 227.8 137.644 227.658 137.674C227.515 137.701 227.373 137.725 227.23 137.749C227.088 137.768 226.958 137.787 226.842 137.803C226.594 137.84 226.377 137.898 226.191 137.977C226.005 138.057 225.861 138.165 225.759 138.3C225.656 138.433 225.604 138.599 225.604 138.798C225.604 139.086 225.709 139.306 225.918 139.459C226.13 139.608 226.398 139.683 226.723 139.683ZM233.979 138.803L233.984 136.262H234.292L236.738 133.364H239.169L235.883 137.202H235.381L233.979 138.803ZM232.06 141V130.818H234.178V141H232.06ZM236.833 141L234.586 137.674L235.998 136.178L239.314 141H236.833ZM243.374 141.149C242.589 141.149 241.912 140.99 241.346 140.672C240.782 140.35 240.348 139.896 240.043 139.31C239.738 138.72 239.586 138.022 239.586 137.217C239.586 136.431 239.738 135.742 240.043 135.148C240.348 134.555 240.777 134.093 241.331 133.761C241.888 133.43 242.541 133.264 243.29 133.264C243.793 133.264 244.262 133.345 244.697 133.508C245.134 133.667 245.515 133.907 245.84 134.229C246.168 134.55 246.423 134.955 246.606 135.442C246.788 135.926 246.879 136.492 246.879 137.142V137.724H240.431V136.411H244.885C244.885 136.106 244.819 135.836 244.687 135.601C244.554 135.366 244.37 135.182 244.135 135.049C243.903 134.913 243.633 134.845 243.324 134.845C243.003 134.845 242.718 134.92 242.469 135.069C242.224 135.215 242.032 135.412 241.893 135.661C241.753 135.906 241.682 136.179 241.679 136.481V137.729C241.679 138.107 241.748 138.433 241.888 138.708C242.03 138.983 242.231 139.195 242.489 139.344C242.748 139.494 243.054 139.568 243.409 139.568C243.644 139.568 243.86 139.535 244.055 139.469C244.251 139.402 244.418 139.303 244.557 139.17C244.697 139.038 244.803 138.875 244.876 138.683L246.834 138.812C246.735 139.283 246.531 139.694 246.223 140.045C245.918 140.393 245.523 140.665 245.04 140.861C244.559 141.053 244.004 141.149 243.374 141.149ZM251.501 141V133.364H253.619V141H251.501ZM252.565 132.379C252.25 132.379 251.98 132.275 251.755 132.066C251.533 131.854 251.422 131.6 251.422 131.305C251.422 131.014 251.533 130.763 251.755 130.555C251.98 130.343 252.25 130.237 252.565 130.237C252.88 130.237 253.149 130.343 253.371 130.555C253.596 130.763 253.709 131.014 253.709 131.305C253.709 131.6 253.596 131.854 253.371 132.066C253.149 132.275 252.88 132.379 252.565 132.379ZM259.378 133.364V134.955H254.779V133.364H259.378ZM255.823 131.534H257.941V138.653C257.941 138.849 257.971 139.001 258.03 139.111C258.09 139.217 258.173 139.291 258.279 139.335C258.388 139.378 258.514 139.399 258.657 139.399C258.756 139.399 258.856 139.391 258.955 139.374C259.055 139.354 259.131 139.339 259.184 139.33L259.517 140.906C259.411 140.939 259.262 140.977 259.069 141.02C258.877 141.066 258.644 141.094 258.368 141.104C257.858 141.124 257.411 141.056 257.026 140.901C256.645 140.745 256.348 140.503 256.136 140.175C255.924 139.847 255.82 139.432 255.823 138.932V131.534ZM263.998 143.864V133.364H266.086V134.646H266.18C266.273 134.441 266.407 134.232 266.583 134.02C266.762 133.804 266.994 133.625 267.279 133.483C267.567 133.337 267.925 133.264 268.353 133.264C268.909 133.264 269.423 133.41 269.894 133.702C270.364 133.99 270.741 134.426 271.022 135.009C271.304 135.589 271.445 136.317 271.445 137.192C271.445 138.044 271.307 138.763 271.032 139.349C270.761 139.933 270.389 140.375 269.919 140.677C269.451 140.975 268.928 141.124 268.348 141.124C267.937 141.124 267.587 141.056 267.299 140.92C267.014 140.785 266.78 140.614 266.598 140.408C266.415 140.2 266.276 139.989 266.18 139.777H266.115V143.864H263.998ZM266.071 137.182C266.071 137.636 266.134 138.032 266.26 138.37C266.386 138.708 266.568 138.972 266.806 139.161C267.045 139.346 267.335 139.439 267.676 139.439C268.021 139.439 268.313 139.344 268.551 139.156C268.79 138.963 268.971 138.698 269.093 138.36C269.219 138.019 269.282 137.626 269.282 137.182C269.282 136.741 269.221 136.353 269.098 136.018C268.976 135.684 268.795 135.422 268.556 135.233C268.318 135.044 268.025 134.95 267.676 134.95C267.332 134.95 267.04 135.041 266.801 135.223C266.566 135.405 266.386 135.664 266.26 135.999C266.134 136.333 266.071 136.728 266.071 137.182ZM276.307 141.149C275.535 141.149 274.867 140.985 274.304 140.657C273.743 140.326 273.311 139.865 273.006 139.275C272.701 138.682 272.549 137.994 272.549 137.212C272.549 136.423 272.701 135.733 273.006 135.143C273.311 134.55 273.743 134.089 274.304 133.761C274.867 133.43 275.535 133.264 276.307 133.264C277.079 133.264 277.746 133.43 278.306 133.761C278.869 134.089 279.303 134.55 279.608 135.143C279.913 135.733 280.066 136.423 280.066 137.212C280.066 137.994 279.913 138.682 279.608 139.275C279.303 139.865 278.869 140.326 278.306 140.657C277.746 140.985 277.079 141.149 276.307 141.149ZM276.317 139.509C276.668 139.509 276.962 139.409 277.197 139.21C277.432 139.008 277.61 138.733 277.729 138.385C277.852 138.037 277.913 137.641 277.913 137.197C277.913 136.753 277.852 136.357 277.729 136.009C277.61 135.661 277.432 135.385 277.197 135.183C276.962 134.981 276.668 134.88 276.317 134.88C275.962 134.88 275.664 134.981 275.422 135.183C275.184 135.385 275.003 135.661 274.88 136.009C274.761 136.357 274.701 136.753 274.701 137.197C274.701 137.641 274.761 138.037 274.88 138.385C275.003 138.733 275.184 139.008 275.422 139.21C275.664 139.409 275.962 139.509 276.317 139.509ZM281.443 143.864V133.364H283.531V134.646H283.625C283.718 134.441 283.852 134.232 284.028 134.02C284.207 133.804 284.439 133.625 284.724 133.483C285.012 133.337 285.37 133.264 285.798 133.264C286.355 133.264 286.868 133.41 287.339 133.702C287.81 133.99 288.186 134.426 288.468 135.009C288.749 135.589 288.89 136.317 288.89 137.192C288.89 138.044 288.753 138.763 288.478 139.349C288.206 139.933 287.835 140.375 287.364 140.677C286.897 140.975 286.373 141.124 285.793 141.124C285.382 141.124 285.032 141.056 284.744 140.92C284.459 140.785 284.225 140.614 284.043 140.408C283.861 140.2 283.721 139.989 283.625 139.777H283.561V143.864H281.443ZM283.516 137.182C283.516 137.636 283.579 138.032 283.705 138.37C283.831 138.708 284.013 138.972 284.252 139.161C284.49 139.346 284.78 139.439 285.122 139.439C285.467 139.439 285.758 139.344 285.997 139.156C286.235 138.963 286.416 138.698 286.539 138.36C286.665 138.019 286.728 137.626 286.728 137.182C286.728 136.741 286.666 136.353 286.544 136.018C286.421 135.684 286.24 135.422 286.002 135.233C285.763 135.044 285.47 134.95 285.122 134.95C284.777 134.95 284.485 135.041 284.247 135.223C284.011 135.405 283.831 135.664 283.705 135.999C283.579 136.333 283.516 136.728 283.516 137.182ZM293.542 141V133.364H295.561V134.711H295.65C295.809 134.263 296.075 133.911 296.446 133.652C296.817 133.393 297.261 133.264 297.778 133.264C298.302 133.264 298.748 133.395 299.116 133.657C299.483 133.915 299.729 134.267 299.851 134.711H299.931C300.087 134.273 300.368 133.924 300.776 133.662C301.187 133.397 301.673 133.264 302.233 133.264C302.945 133.264 303.524 133.491 303.968 133.945C304.415 134.396 304.639 135.036 304.639 135.864V141H302.526V136.282C302.526 135.858 302.413 135.54 302.188 135.327C301.963 135.115 301.681 135.009 301.343 135.009C300.958 135.009 300.658 135.132 300.443 135.377C300.228 135.619 300.12 135.939 300.12 136.337V141H298.067V136.237C298.067 135.863 297.959 135.564 297.743 135.342C297.531 135.12 297.251 135.009 296.903 135.009C296.668 135.009 296.456 135.069 296.267 135.188C296.081 135.304 295.934 135.468 295.824 135.68C295.715 135.889 295.66 136.134 295.66 136.416V141H293.542ZM309.762 141.149C308.99 141.149 308.322 140.985 307.759 140.657C307.199 140.326 306.766 139.865 306.461 139.275C306.156 138.682 306.004 137.994 306.004 137.212C306.004 136.423 306.156 135.733 306.461 135.143C306.766 134.55 307.199 134.089 307.759 133.761C308.322 133.43 308.99 133.264 309.762 133.264C310.535 133.264 311.201 133.43 311.761 133.761C312.324 134.089 312.758 134.55 313.063 135.143C313.368 135.733 313.521 136.423 313.521 137.212C313.521 137.994 313.368 138.682 313.063 139.275C312.758 139.865 312.324 140.326 311.761 140.657C311.201 140.985 310.535 141.149 309.762 141.149ZM309.772 139.509C310.124 139.509 310.417 139.409 310.652 139.21C310.887 139.008 311.065 138.733 311.184 138.385C311.307 138.037 311.368 137.641 311.368 137.197C311.368 136.753 311.307 136.357 311.184 136.009C311.065 135.661 310.887 135.385 310.652 135.183C310.417 134.981 310.124 134.88 309.772 134.88C309.418 134.88 309.119 134.981 308.877 135.183C308.639 135.385 308.458 135.661 308.335 136.009C308.216 136.357 308.156 136.753 308.156 137.197C308.156 137.641 308.216 138.037 308.335 138.385C308.458 138.733 308.639 139.008 308.877 139.21C309.119 139.409 309.418 139.509 309.772 139.509ZM314.898 141V133.364H316.951V134.696H317.031C317.17 134.222 317.404 133.864 317.732 133.622C318.06 133.377 318.438 133.254 318.865 133.254C318.971 133.254 319.086 133.261 319.208 133.274C319.331 133.287 319.439 133.306 319.531 133.329V135.208C319.432 135.178 319.294 135.152 319.119 135.129C318.943 135.105 318.782 135.094 318.637 135.094C318.325 135.094 318.047 135.162 317.801 135.298C317.559 135.43 317.367 135.616 317.225 135.854C317.085 136.093 317.016 136.368 317.016 136.68V141H314.898ZM323.751 141.149C322.966 141.149 322.289 140.99 321.723 140.672C321.159 140.35 320.725 139.896 320.42 139.31C320.115 138.72 319.963 138.022 319.963 137.217C319.963 136.431 320.115 135.742 320.42 135.148C320.725 134.555 321.154 134.093 321.708 133.761C322.265 133.43 322.917 133.264 323.667 133.264C324.17 133.264 324.639 133.345 325.074 133.508C325.511 133.667 325.892 133.907 326.217 134.229C326.545 134.55 326.8 134.955 326.983 135.442C327.165 135.926 327.256 136.492 327.256 137.142V137.724H320.808V136.411H325.262C325.262 136.106 325.196 135.836 325.064 135.601C324.931 135.366 324.747 135.182 324.512 135.049C324.28 134.913 324.01 134.845 323.701 134.845C323.38 134.845 323.095 134.92 322.846 135.069C322.601 135.215 322.409 135.412 322.27 135.661C322.13 135.906 322.059 136.179 322.056 136.481V137.729C322.056 138.107 322.125 138.433 322.265 138.708C322.407 138.983 322.608 139.195 322.866 139.344C323.125 139.494 323.431 139.568 323.786 139.568C324.021 139.568 324.237 139.535 324.432 139.469C324.628 139.402 324.795 139.303 324.934 139.17C325.074 139.038 325.18 138.875 325.252 138.683L327.211 138.812C327.112 139.283 326.908 139.694 326.6 140.045C326.295 140.393 325.9 140.665 325.417 140.861C324.936 141.053 324.381 141.149 323.751 141.149ZM330.458 137.947V137.778C330.461 137.198 330.512 136.736 330.612 136.391C330.715 136.047 330.864 135.768 331.059 135.556C331.255 135.344 331.49 135.152 331.765 134.979C331.971 134.847 332.155 134.709 332.317 134.567C332.48 134.424 332.609 134.267 332.705 134.094C332.801 133.919 332.849 133.723 332.849 133.508C332.849 133.279 332.794 133.079 332.685 132.906C332.576 132.734 332.428 132.601 332.243 132.509C332.06 132.416 331.858 132.369 331.636 132.369C331.421 132.369 331.217 132.417 331.025 132.513C330.832 132.606 330.675 132.746 330.552 132.931C330.43 133.113 330.363 133.34 330.353 133.612H328.325C328.342 132.949 328.501 132.402 328.802 131.972C329.104 131.537 329.503 131.214 330 131.002C330.498 130.787 331.046 130.679 331.646 130.679C332.306 130.679 332.889 130.788 333.396 131.007C333.903 131.223 334.301 131.536 334.589 131.947C334.877 132.358 335.022 132.853 335.022 133.433C335.022 133.821 334.957 134.166 334.828 134.467C334.702 134.766 334.525 135.031 334.296 135.263C334.067 135.491 333.797 135.699 333.485 135.884C333.224 136.04 333.008 136.202 332.839 136.371C332.673 136.54 332.549 136.736 332.466 136.958C332.387 137.18 332.345 137.454 332.342 137.778V137.947H330.458ZM331.442 141.129C331.111 141.129 330.827 141.013 330.592 140.781C330.36 140.546 330.246 140.264 330.249 139.936C330.246 139.611 330.36 139.333 330.592 139.101C330.827 138.869 331.111 138.753 331.442 138.753C331.757 138.753 332.034 138.869 332.272 139.101C332.511 139.333 332.632 139.611 332.635 139.936C332.632 140.155 332.574 140.355 332.461 140.538C332.352 140.717 332.208 140.861 332.029 140.97C331.85 141.076 331.654 141.129 331.442 141.129Z" fill="white"/>
</g>
<path d="M164.624 167H164.785C166.629 167 167.233 169.475 165.596 170.325L148.844 179.023C147.974 179.475 147.04 178.535 147.499 177.668L156.283 161.077C157.116 159.503 159.5 160.095 159.5 161.876C159.5 164.706 161.794 167 164.624 167Z" fill="#40CD0E"/>
<path d="M164.785 167.5H164.624C161.518 167.5 159 164.982 159 161.876C159 160.617 157.314 160.198 156.725 161.311L147.941 177.902C147.712 178.335 148.178 178.806 148.613 178.58L165.366 169.881C166.538 169.273 166.105 167.5 164.785 167.5Z" stroke="white" stroke-opacity="0.2"/>
<path d="M123 483C123 479.686 125.686 477 129 477H340C343.314 477 346 479.686 346 483V539C346 542.314 343.314 545 340 545H129C125.686 545 123 542.314 123 539V483Z" fill="#E700EC"/>
<path d="M129 477.5H340C343.038 477.5 345.5 479.962 345.5 483V539C345.5 542.038 343.038 544.5 340 544.5H129C125.962 544.5 123.5 542.038 123.5 539V483C123.5 479.962 125.962 477.5 129 477.5Z" stroke="white" stroke-opacity="0.2"/>
<g filter="url(#filter3_d_76_86)">
<path d="M146.038 496.818V507H143.885V496.818H146.038ZM153.127 496.818V507H151.009V496.818H153.127ZM158.274 507.149C157.502 507.149 156.834 506.985 156.27 506.657C155.71 506.326 155.278 505.865 154.973 505.275C154.668 504.682 154.515 503.994 154.515 503.212C154.515 502.423 154.668 501.733 154.973 501.143C155.278 500.55 155.71 500.089 156.27 499.761C156.834 499.43 157.502 499.264 158.274 499.264C159.046 499.264 159.712 499.43 160.273 499.761C160.836 500.089 161.27 500.55 161.575 501.143C161.88 501.733 162.032 502.423 162.032 503.212C162.032 503.994 161.88 504.682 161.575 505.275C161.27 505.865 160.836 506.326 160.273 506.657C159.712 506.985 159.046 507.149 158.274 507.149ZM158.284 505.509C158.635 505.509 158.929 505.409 159.164 505.21C159.399 505.008 159.577 504.733 159.696 504.385C159.818 504.037 159.88 503.641 159.88 503.197C159.88 502.753 159.818 502.357 159.696 502.009C159.577 501.661 159.399 501.385 159.164 501.183C158.929 500.981 158.635 500.88 158.284 500.88C157.929 500.88 157.631 500.981 157.389 501.183C157.15 501.385 156.97 501.661 156.847 502.009C156.728 502.357 156.668 502.753 156.668 503.197C156.668 503.641 156.728 504.037 156.847 504.385C156.97 504.733 157.15 505.008 157.389 505.21C157.631 505.409 157.929 505.509 158.284 505.509ZM170.283 499.364L167.613 507H165.227L162.557 499.364H164.794L166.38 504.827H166.46L168.041 499.364H170.283ZM174.601 507.149C173.815 507.149 173.139 506.99 172.572 506.672C172.009 506.35 171.575 505.896 171.27 505.31C170.965 504.72 170.812 504.022 170.812 503.217C170.812 502.431 170.965 501.742 171.27 501.148C171.575 500.555 172.004 500.093 172.557 499.761C173.114 499.43 173.767 499.264 174.516 499.264C175.02 499.264 175.489 499.345 175.923 499.508C176.361 499.667 176.742 499.907 177.067 500.229C177.395 500.55 177.65 500.955 177.832 501.442C178.015 501.926 178.106 502.492 178.106 503.142V503.724H171.657V502.411H176.112C176.112 502.106 176.046 501.836 175.913 501.601C175.781 501.366 175.597 501.182 175.361 501.049C175.129 500.913 174.859 500.845 174.551 500.845C174.229 500.845 173.944 500.92 173.696 501.069C173.451 501.215 173.258 501.412 173.119 501.661C172.98 501.906 172.909 502.179 172.905 502.481V503.729C172.905 504.107 172.975 504.433 173.114 504.708C173.257 504.983 173.457 505.195 173.716 505.344C173.974 505.494 174.281 505.568 174.635 505.568C174.871 505.568 175.086 505.535 175.282 505.469C175.477 505.402 175.645 505.303 175.784 505.17C175.923 505.038 176.029 504.875 176.102 504.683L178.061 504.812C177.961 505.283 177.758 505.694 177.449 506.045C177.144 506.393 176.75 506.665 176.266 506.861C175.786 507.053 175.23 507.149 174.601 507.149ZM184.846 502.585V507H182.728V496.818H184.786V500.711H184.876C185.048 500.26 185.326 499.907 185.711 499.652C186.095 499.393 186.578 499.264 187.158 499.264C187.688 499.264 188.15 499.38 188.545 499.612C188.942 499.841 189.251 500.171 189.469 500.602C189.692 501.029 189.801 501.541 189.798 502.138V507H187.68V502.516C187.683 502.045 187.564 501.679 187.322 501.417C187.083 501.155 186.748 501.024 186.317 501.024C186.029 501.024 185.774 501.085 185.552 501.208C185.333 501.331 185.161 501.51 185.035 501.745C184.912 501.977 184.849 502.257 184.846 502.585ZM194.915 507.149C194.142 507.149 193.474 506.985 192.911 506.657C192.351 506.326 191.918 505.865 191.613 505.275C191.309 504.682 191.156 503.994 191.156 503.212C191.156 502.423 191.309 501.733 191.613 501.143C191.918 500.55 192.351 500.089 192.911 499.761C193.474 499.43 194.142 499.264 194.915 499.264C195.687 499.264 196.353 499.43 196.913 499.761C197.477 500.089 197.911 500.55 198.216 501.143C198.521 501.733 198.673 502.423 198.673 503.212C198.673 503.994 198.521 504.682 198.216 505.275C197.911 505.865 197.477 506.326 196.913 506.657C196.353 506.985 195.687 507.149 194.915 507.149ZM194.925 505.509C195.276 505.509 195.569 505.409 195.805 505.21C196.04 505.008 196.217 504.733 196.336 504.385C196.459 504.037 196.52 503.641 196.52 503.197C196.52 502.753 196.459 502.357 196.336 502.009C196.217 501.661 196.04 501.385 195.805 501.183C195.569 500.981 195.276 500.88 194.925 500.88C194.57 500.88 194.272 500.981 194.03 501.183C193.791 501.385 193.61 501.661 193.488 502.009C193.368 502.357 193.309 502.753 193.309 503.197C193.309 503.641 193.368 504.037 193.488 504.385C193.61 504.733 193.791 505.008 194.03 505.21C194.272 505.409 194.57 505.509 194.925 505.509ZM201.365 507L199.287 499.364H201.43L202.613 504.494H202.683L203.916 499.364H206.019L207.271 504.464H207.336L208.499 499.364H210.637L208.564 507H206.322L205.009 502.197H204.915L203.602 507H201.365ZM215.007 507V499.364H217.026V500.711H217.115C217.274 500.263 217.539 499.911 217.911 499.652C218.282 499.393 218.726 499.264 219.243 499.264C219.767 499.264 220.213 499.395 220.58 499.657C220.948 499.915 221.194 500.267 221.316 500.711H221.396C221.552 500.273 221.833 499.924 222.241 499.662C222.652 499.397 223.137 499.264 223.698 499.264C224.41 499.264 224.989 499.491 225.433 499.945C225.88 500.396 226.104 501.036 226.104 501.864V507H223.991V502.282C223.991 501.858 223.878 501.54 223.653 501.327C223.427 501.115 223.146 501.009 222.808 501.009C222.423 501.009 222.123 501.132 221.908 501.377C221.692 501.619 221.585 501.939 221.585 502.337V507H219.531V502.237C219.531 501.863 219.424 501.564 219.208 501.342C218.996 501.12 218.716 501.009 218.368 501.009C218.133 501.009 217.921 501.069 217.732 501.188C217.546 501.304 217.399 501.468 217.289 501.68C217.18 501.889 217.125 502.134 217.125 502.416V507H215.007ZM232.674 503.749V499.364H234.792V507H232.758V505.613H232.679C232.506 506.06 232.22 506.42 231.819 506.692C231.421 506.964 230.935 507.099 230.362 507.099C229.852 507.099 229.403 506.983 229.015 506.751C228.627 506.519 228.324 506.19 228.105 505.762C227.89 505.335 227.78 504.822 227.777 504.226V499.364H229.895V503.848C229.898 504.299 230.019 504.655 230.258 504.917C230.496 505.179 230.816 505.31 231.217 505.31C231.472 505.31 231.711 505.252 231.933 505.136C232.155 505.016 232.334 504.841 232.47 504.609C232.609 504.377 232.677 504.09 232.674 503.749ZM239.936 507.149C239.154 507.149 238.481 506.983 237.918 506.652C237.357 506.317 236.927 505.853 236.625 505.26C236.327 504.667 236.178 503.984 236.178 503.212C236.178 502.429 236.328 501.743 236.63 501.153C236.935 500.56 237.367 500.098 237.928 499.766C238.488 499.432 239.154 499.264 239.926 499.264C240.592 499.264 241.176 499.385 241.676 499.627C242.177 499.869 242.573 500.209 242.864 500.646C243.156 501.084 243.317 501.598 243.347 502.188H241.348C241.292 501.806 241.143 501.5 240.901 501.268C240.662 501.032 240.349 500.915 239.961 500.915C239.633 500.915 239.346 501.004 239.101 501.183C238.859 501.359 238.67 501.616 238.534 501.954C238.398 502.292 238.33 502.701 238.33 503.182C238.33 503.669 238.397 504.083 238.529 504.425C238.665 504.766 238.856 505.026 239.101 505.205C239.346 505.384 239.633 505.474 239.961 505.474C240.203 505.474 240.42 505.424 240.612 505.325C240.808 505.225 240.969 505.081 241.094 504.892C241.224 504.7 241.308 504.469 241.348 504.201H243.347C243.313 504.784 243.154 505.298 242.869 505.742C242.588 506.183 242.198 506.528 241.701 506.776C241.204 507.025 240.616 507.149 239.936 507.149ZM246.82 502.585V507H244.703V496.818H246.761V500.711H246.85C247.023 500.26 247.301 499.907 247.686 499.652C248.07 499.393 248.552 499.264 249.132 499.264C249.663 499.264 250.125 499.38 250.519 499.612C250.917 499.841 251.225 500.171 251.444 500.602C251.666 501.029 251.776 501.541 251.772 502.138V507H249.654V502.516C249.658 502.045 249.538 501.679 249.296 501.417C249.058 501.155 248.723 501.024 248.292 501.024C248.004 501.024 247.749 501.085 247.526 501.208C247.308 501.331 247.135 501.51 247.009 501.745C246.887 501.977 246.824 502.257 246.82 502.585ZM260.741 499.364V500.955H256.142V499.364H260.741ZM257.186 497.534H259.304V504.653C259.304 504.849 259.334 505.001 259.394 505.111C259.453 505.217 259.536 505.291 259.642 505.335C259.752 505.378 259.878 505.399 260.02 505.399C260.119 505.399 260.219 505.391 260.318 505.374C260.418 505.354 260.494 505.339 260.547 505.33L260.88 506.906C260.774 506.939 260.625 506.977 260.433 507.02C260.24 507.066 260.007 507.094 259.732 507.104C259.221 507.124 258.774 507.056 258.389 506.901C258.008 506.745 257.712 506.503 257.499 506.175C257.287 505.847 257.183 505.432 257.186 504.932V497.534ZM265.519 507.149C264.733 507.149 264.057 506.99 263.49 506.672C262.927 506.35 262.493 505.896 262.188 505.31C261.883 504.72 261.73 504.022 261.73 503.217C261.73 502.431 261.883 501.742 262.188 501.148C262.493 500.555 262.922 500.093 263.475 499.761C264.032 499.43 264.685 499.264 265.434 499.264C265.938 499.264 266.407 499.345 266.841 499.508C267.279 499.667 267.66 499.907 267.985 500.229C268.313 500.55 268.568 500.955 268.75 501.442C268.932 501.926 269.024 502.492 269.024 503.142V503.724H262.575V502.411H267.03C267.03 502.106 266.964 501.836 266.831 501.601C266.699 501.366 266.515 501.182 266.279 501.049C266.047 500.913 265.777 500.845 265.469 500.845C265.147 500.845 264.862 500.92 264.614 501.069C264.369 501.215 264.176 501.412 264.037 501.661C263.898 501.906 263.827 502.179 263.823 502.481V503.729C263.823 504.107 263.893 504.433 264.032 504.708C264.175 504.983 264.375 505.195 264.634 505.344C264.892 505.494 265.199 505.568 265.553 505.568C265.789 505.568 266.004 505.535 266.2 505.469C266.395 505.402 266.563 505.303 266.702 505.17C266.841 505.038 266.947 504.875 267.02 504.683L268.979 504.812C268.879 505.283 268.676 505.694 268.367 506.045C268.062 506.393 267.668 506.665 267.184 506.861C266.704 507.053 266.148 507.149 265.519 507.149ZM272.039 499.364L273.441 502.033L274.878 499.364H277.05L274.838 503.182L277.11 507H274.947L273.441 504.36L271.959 507H269.772L272.039 503.182L269.851 499.364H272.039ZM282.37 499.364V500.955H277.771V499.364H282.37ZM278.815 497.534H280.933V504.653C280.933 504.849 280.963 505.001 281.023 505.111C281.082 505.217 281.165 505.291 281.271 505.335C281.381 505.378 281.506 505.399 281.649 505.399C281.748 505.399 281.848 505.391 281.947 505.374C282.047 505.354 282.123 505.339 282.176 505.33L282.509 506.906C282.403 506.939 282.254 506.977 282.062 507.02C281.869 507.066 281.636 507.094 281.361 507.104C280.85 507.124 280.403 507.056 280.018 506.901C279.637 506.745 279.34 506.503 279.128 506.175C278.916 505.847 278.812 505.432 278.815 504.932V497.534ZM291.096 499.364V500.955H286.383V499.364H291.096ZM287.462 507V498.812C287.462 498.258 287.57 497.799 287.785 497.435C288.004 497.07 288.302 496.797 288.68 496.614C289.058 496.432 289.487 496.341 289.968 496.341C290.292 496.341 290.589 496.366 290.858 496.415C291.129 496.465 291.332 496.51 291.464 496.55L291.086 498.141C291.003 498.114 290.901 498.089 290.778 498.066C290.659 498.043 290.536 498.031 290.41 498.031C290.099 498.031 289.882 498.104 289.759 498.25C289.636 498.393 289.575 498.593 289.575 498.852V507H287.462ZM292.39 507V499.364H294.508V507H292.39ZM293.454 498.379C293.139 498.379 292.869 498.275 292.644 498.066C292.422 497.854 292.311 497.6 292.311 497.305C292.311 497.014 292.422 496.763 292.644 496.555C292.869 496.343 293.139 496.237 293.454 496.237C293.769 496.237 294.037 496.343 294.259 496.555C294.485 496.763 294.597 497.014 294.597 497.305C294.597 497.6 294.485 497.854 294.259 498.066C294.037 498.275 293.769 498.379 293.454 498.379ZM300.266 499.364V500.955H295.668V499.364H300.266ZM296.712 497.534H298.83V504.653C298.83 504.849 298.859 505.001 298.919 505.111C298.979 505.217 299.062 505.291 299.168 505.335C299.277 505.378 299.403 505.399 299.545 505.399C299.645 505.399 299.744 505.391 299.844 505.374C299.943 505.354 300.019 505.339 300.072 505.33L300.406 506.906C300.299 506.939 300.15 506.977 299.958 507.02C299.766 507.066 299.532 507.094 299.257 507.104C298.747 507.124 298.299 507.056 297.915 506.901C297.534 506.745 297.237 506.503 297.025 506.175C296.813 505.847 296.708 505.432 296.712 504.932V497.534ZM307.904 501.541L305.965 501.661C305.932 501.495 305.861 501.346 305.751 501.213C305.642 501.077 305.498 500.969 305.319 500.89C305.143 500.807 304.933 500.766 304.687 500.766C304.359 500.766 304.082 500.835 303.857 500.974C303.632 501.11 303.519 501.293 303.519 501.521C303.519 501.704 303.592 501.858 303.738 501.984C303.884 502.11 304.134 502.211 304.488 502.287L305.871 502.565C306.613 502.718 307.166 502.963 307.531 503.301C307.896 503.639 308.078 504.083 308.078 504.634C308.078 505.134 307.93 505.573 307.635 505.951C307.344 506.329 306.943 506.624 306.432 506.836C305.925 507.045 305.34 507.149 304.677 507.149C303.666 507.149 302.861 506.939 302.261 506.518C301.665 506.094 301.315 505.517 301.212 504.788L303.295 504.678C303.358 504.987 303.511 505.222 303.753 505.384C303.995 505.543 304.305 505.623 304.682 505.623C305.054 505.623 305.352 505.552 305.577 505.409C305.806 505.263 305.922 505.076 305.925 504.847C305.922 504.655 305.841 504.498 305.682 504.375C305.523 504.249 305.277 504.153 304.946 504.087L303.623 503.823C302.878 503.674 302.323 503.415 301.958 503.048C301.597 502.68 301.416 502.211 301.416 501.641C301.416 501.15 301.549 500.728 301.814 500.373C302.082 500.018 302.458 499.745 302.942 499.553C303.43 499.36 304 499.264 304.653 499.264C305.617 499.264 306.376 499.468 306.93 499.876C307.486 500.283 307.811 500.839 307.904 501.541ZM312.652 507V499.364H314.77V507H312.652ZM313.716 498.379C313.401 498.379 313.131 498.275 312.905 498.066C312.683 497.854 312.572 497.6 312.572 497.305C312.572 497.014 312.683 496.763 312.905 496.555C313.131 496.343 313.401 496.237 313.716 496.237C314.031 496.237 314.299 496.343 314.521 496.555C314.747 496.763 314.859 497.014 314.859 497.305C314.859 497.6 314.747 497.854 314.521 498.066C314.299 498.275 314.031 498.379 313.716 498.379ZM318.584 502.585V507H316.466V499.364H318.485V500.711H318.574C318.743 500.267 319.027 499.915 319.424 499.657C319.822 499.395 320.304 499.264 320.871 499.264C321.401 499.264 321.864 499.38 322.258 499.612C322.653 499.844 322.959 500.176 323.178 500.607C323.397 501.034 323.506 501.545 323.506 502.138V507H321.388V502.516C321.391 502.048 321.272 501.684 321.03 501.422C320.788 501.157 320.455 501.024 320.031 501.024C319.746 501.024 319.494 501.085 319.275 501.208C319.06 501.331 318.891 501.51 318.768 501.745C318.649 501.977 318.587 502.257 318.584 502.585ZM145.963 519.585V524H143.845V513.818H145.903V517.711H145.993C146.165 517.26 146.444 516.907 146.828 516.652C147.213 516.393 147.695 516.264 148.275 516.264C148.805 516.264 149.268 516.38 149.662 516.612C150.06 516.841 150.368 517.171 150.587 517.602C150.809 518.029 150.918 518.541 150.915 519.138V524H148.797V519.516C148.8 519.045 148.681 518.679 148.439 518.417C148.2 518.155 147.866 518.024 147.435 518.024C147.146 518.024 146.891 518.085 146.669 518.208C146.45 518.331 146.278 518.51 146.152 518.745C146.029 518.977 145.966 519.257 145.963 519.585ZM156.062 524.149C155.276 524.149 154.6 523.99 154.033 523.672C153.47 523.35 153.036 522.896 152.731 522.31C152.426 521.72 152.273 521.022 152.273 520.217C152.273 519.431 152.426 518.742 152.731 518.148C153.036 517.555 153.465 517.093 154.018 516.761C154.575 516.43 155.228 516.264 155.977 516.264C156.481 516.264 156.95 516.345 157.384 516.508C157.822 516.667 158.203 516.907 158.528 517.229C158.856 517.55 159.111 517.955 159.293 518.442C159.475 518.926 159.567 519.492 159.567 520.142V520.724H153.118V519.411H157.573C157.573 519.106 157.507 518.836 157.374 518.601C157.242 518.366 157.058 518.182 156.822 518.049C156.59 517.913 156.32 517.845 156.012 517.845C155.69 517.845 155.405 517.92 155.157 518.069C154.912 518.215 154.719 518.412 154.58 518.661C154.441 518.906 154.37 519.179 154.366 519.481V520.729C154.366 521.107 154.436 521.433 154.575 521.708C154.718 521.983 154.918 522.195 155.177 522.344C155.435 522.494 155.742 522.568 156.096 522.568C156.332 522.568 156.547 522.535 156.743 522.469C156.938 522.402 157.106 522.303 157.245 522.17C157.384 522.038 157.49 521.875 157.563 521.683L159.522 521.812C159.422 522.283 159.219 522.694 158.91 523.045C158.605 523.393 158.211 523.665 157.727 523.861C157.247 524.053 156.691 524.149 156.062 524.149ZM160.949 524V516.364H163.002V517.696H163.081C163.221 517.222 163.454 516.864 163.782 516.622C164.111 516.377 164.488 516.254 164.916 516.254C165.022 516.254 165.136 516.261 165.259 516.274C165.382 516.287 165.489 516.306 165.582 516.329V518.208C165.483 518.178 165.345 518.152 165.17 518.129C164.994 518.105 164.833 518.094 164.687 518.094C164.376 518.094 164.097 518.162 163.852 518.298C163.61 518.43 163.418 518.616 163.275 518.854C163.136 519.093 163.067 519.368 163.067 519.68V524H160.949ZM169.802 524.149C169.016 524.149 168.34 523.99 167.773 523.672C167.21 523.35 166.776 522.896 166.471 522.31C166.166 521.72 166.013 521.022 166.013 520.217C166.013 519.431 166.166 518.742 166.471 518.148C166.776 517.555 167.205 517.093 167.759 516.761C168.315 516.43 168.968 516.264 169.717 516.264C170.221 516.264 170.69 516.345 171.124 516.508C171.562 516.667 171.943 516.907 172.268 517.229C172.596 517.55 172.851 517.955 173.033 518.442C173.216 518.926 173.307 519.492 173.307 520.142V520.724H166.859V519.411H171.313C171.313 519.106 171.247 518.836 171.114 518.601C170.982 518.366 170.798 518.182 170.562 518.049C170.33 517.913 170.06 517.845 169.752 517.845C169.431 517.845 169.146 517.92 168.897 518.069C168.652 518.215 168.46 518.412 168.32 518.661C168.181 518.906 168.11 519.179 168.107 519.481V520.729C168.107 521.107 168.176 521.433 168.315 521.708C168.458 521.983 168.658 522.195 168.917 522.344C169.175 522.494 169.482 522.568 169.837 522.568C170.072 522.568 170.287 522.535 170.483 522.469C170.679 522.402 170.846 522.303 170.985 522.17C171.124 522.038 171.23 521.875 171.303 521.683L173.262 521.812C173.163 522.283 172.959 522.694 172.651 523.045C172.346 523.393 171.951 523.665 171.467 523.861C170.987 524.053 170.432 524.149 169.802 524.149ZM180.047 519.585V524H177.929V516.364H179.948V517.711H180.037C180.206 517.267 180.49 516.915 180.887 516.657C181.285 516.395 181.767 516.264 182.334 516.264C182.864 516.264 183.327 516.38 183.721 516.612C184.115 516.844 184.422 517.176 184.641 517.607C184.86 518.034 184.969 518.545 184.969 519.138V524H182.851V519.516C182.854 519.048 182.735 518.684 182.493 518.422C182.251 518.157 181.918 518.024 181.494 518.024C181.209 518.024 180.957 518.085 180.738 518.208C180.523 518.331 180.354 518.51 180.231 518.745C180.112 518.977 180.05 519.257 180.047 519.585ZM190.088 524.149C189.316 524.149 188.648 523.985 188.085 523.657C187.525 523.326 187.092 522.865 186.787 522.275C186.482 521.682 186.33 520.994 186.33 520.212C186.33 519.423 186.482 518.733 186.787 518.143C187.092 517.55 187.525 517.089 188.085 516.761C188.648 516.43 189.316 516.264 190.088 516.264C190.861 516.264 191.527 516.43 192.087 516.761C192.65 517.089 193.085 517.55 193.39 518.143C193.694 518.733 193.847 519.423 193.847 520.212C193.847 520.994 193.694 521.682 193.39 522.275C193.085 522.865 192.65 523.326 192.087 523.657C191.527 523.985 190.861 524.149 190.088 524.149ZM190.098 522.509C190.45 522.509 190.743 522.409 190.978 522.21C191.214 522.008 191.391 521.733 191.51 521.385C191.633 521.037 191.694 520.641 191.694 520.197C191.694 519.753 191.633 519.357 191.51 519.009C191.391 518.661 191.214 518.385 190.978 518.183C190.743 517.981 190.45 517.88 190.098 517.88C189.744 517.88 189.445 517.981 189.203 518.183C188.965 518.385 188.784 518.661 188.662 519.009C188.542 519.357 188.483 519.753 188.483 520.197C188.483 520.641 188.542 521.037 188.662 521.385C188.784 521.733 188.965 522.008 189.203 522.21C189.445 522.409 189.744 522.509 190.098 522.509ZM196.539 524L194.461 516.364H196.604L197.787 521.494H197.857L199.089 516.364H201.192L202.445 521.464H202.51L203.673 516.364H205.811L203.738 524H201.496L200.183 519.197H200.089L198.776 524H196.539ZM207.14 524.129C206.812 524.129 206.53 524.013 206.295 523.781C206.063 523.546 205.947 523.264 205.947 522.936C205.947 522.611 206.063 522.333 206.295 522.101C206.53 521.869 206.812 521.753 207.14 521.753C207.458 521.753 207.736 521.869 207.975 522.101C208.214 522.333 208.333 522.611 208.333 522.936C208.333 523.155 208.277 523.355 208.164 523.538C208.055 523.717 207.91 523.861 207.731 523.97C207.552 524.076 207.355 524.129 207.14 524.129Z" fill="white"/>
</g>
<path d="M120.624 469.5H120.785C122.629 469.5 123.233 467.025 121.596 466.175L104.844 457.477C103.974 457.025 103.04 457.965 103.499 458.832L112.283 475.423C113.116 476.997 115.5 476.404 115.5 474.624C115.5 471.794 117.794 469.5 120.624 469.5Z" fill="#E700EC"/>
<path d="M120.785 469H120.624C117.518 469 115 471.518 115 474.624C115 475.883 113.314 476.302 112.725 475.189L103.941 458.598C103.712 458.165 104.178 457.694 104.613 457.92L121.366 466.619C122.538 467.227 122.105 469 120.785 469Z" stroke="white" stroke-opacity="0.2"/>
<path d="M24.4943 385H20.8849V374.818H24.5241C25.5483 374.818 26.4299 375.022 27.169 375.43C27.9081 375.834 28.4766 376.416 28.8743 377.175C29.2753 377.934 29.4759 378.842 29.4759 379.899C29.4759 380.96 29.2753 381.871 28.8743 382.634C28.4766 383.396 27.9048 383.981 27.1591 384.388C26.4167 384.796 25.5284 385 24.4943 385ZM23.0376 383.156H24.4048C25.0412 383.156 25.5765 383.043 26.0107 382.817C26.4482 382.589 26.7763 382.236 26.995 381.759C27.2171 381.278 27.3281 380.658 27.3281 379.899C27.3281 379.147 27.2171 378.532 26.995 378.055C26.7763 377.577 26.4498 377.226 26.0156 377.001C25.5814 376.775 25.0462 376.663 24.4098 376.663H23.0376V383.156ZM34.5108 385.149C33.7253 385.149 33.0492 384.99 32.4824 384.672C31.919 384.35 31.4848 383.896 31.1799 383.31C30.8749 382.72 30.7225 382.022 30.7225 381.217C30.7225 380.431 30.8749 379.742 31.1799 379.148C31.4848 378.555 31.914 378.093 32.4675 377.761C33.0243 377.43 33.6773 377.264 34.4263 377.264C34.9301 377.264 35.3991 377.345 35.8333 377.508C36.2708 377.667 36.6519 377.907 36.9767 378.229C37.3049 378.55 37.5601 378.955 37.7424 379.442C37.9247 379.926 38.0158 380.492 38.0158 381.142V381.724H31.5676V380.411H36.0222C36.0222 380.106 35.9559 379.836 35.8233 379.601C35.6908 379.366 35.5068 379.182 35.2715 379.049C35.0395 378.913 34.7694 378.845 34.4611 378.845C34.1396 378.845 33.8546 378.92 33.606 379.069C33.3607 379.215 33.1685 379.412 33.0293 379.661C32.8901 379.906 32.8188 380.179 32.8155 380.481V381.729C32.8155 382.107 32.8851 382.433 33.0243 382.708C33.1668 382.983 33.3674 383.195 33.6259 383.344C33.8844 383.494 34.191 383.568 34.5456 383.568C34.781 383.568 34.9964 383.535 35.1919 383.469C35.3875 383.402 35.5549 383.303 35.6941 383.17C35.8333 383.038 35.9393 382.875 36.0123 382.683L37.9711 382.812C37.8716 383.283 37.6678 383.694 37.3596 384.045C37.0546 384.393 36.6602 384.665 36.1763 384.861C35.6957 385.053 35.1406 385.149 34.5108 385.149ZM45.7516 379.541L43.8127 379.661C43.7795 379.495 43.7083 379.346 43.5989 379.213C43.4895 379.077 43.3453 378.969 43.1664 378.89C42.9907 378.807 42.7802 378.766 42.535 378.766C42.2069 378.766 41.9301 378.835 41.7047 378.974C41.4793 379.11 41.3667 379.293 41.3667 379.521C41.3667 379.704 41.4396 379.858 41.5854 379.984C41.7312 380.11 41.9815 380.211 42.3361 380.287L43.7182 380.565C44.4606 380.718 45.0141 380.963 45.3787 381.301C45.7433 381.639 45.9256 382.083 45.9256 382.634C45.9256 383.134 45.7781 383.573 45.4831 383.951C45.1915 384.329 44.7904 384.624 44.28 384.836C43.7729 385.045 43.1879 385.149 42.525 385.149C41.5141 385.149 40.7087 384.939 40.1088 384.518C39.5123 384.094 39.1626 383.517 39.0598 382.788L41.1429 382.678C41.2059 382.987 41.3584 383.222 41.6003 383.384C41.8423 383.543 42.1522 383.623 42.53 383.623C42.9012 383.623 43.1995 383.552 43.4249 383.409C43.6536 383.263 43.7696 383.076 43.7729 382.847C43.7696 382.655 43.6884 382.498 43.5293 382.375C43.3702 382.249 43.1249 382.153 42.7935 382.087L41.4711 381.823C40.7253 381.674 40.1702 381.415 39.8056 381.048C39.4443 380.68 39.2637 380.211 39.2637 379.641C39.2637 379.15 39.3962 378.728 39.6614 378.373C39.9299 378.018 40.306 377.745 40.79 377.553C41.2772 377.36 41.8472 377.264 42.5002 377.264C43.4647 377.264 44.2237 377.468 44.7772 377.876C45.334 378.283 45.6588 378.839 45.7516 379.541ZM50.7095 385.149C49.9273 385.149 49.2545 384.983 48.6911 384.652C48.1309 384.317 47.7 383.853 47.3984 383.26C47.1001 382.667 46.951 381.984 46.951 381.212C46.951 380.429 47.1018 379.743 47.4034 379.153C47.7083 378.56 48.1409 378.098 48.701 377.766C49.2611 377.432 49.9273 377.264 50.6996 377.264C51.3658 377.264 51.9491 377.385 52.4496 377.627C52.95 377.869 53.3461 378.209 53.6378 378.646C53.9295 379.084 54.0902 379.598 54.12 380.188H52.1214C52.0651 379.806 51.916 379.5 51.674 379.268C51.4354 379.032 51.1222 378.915 50.7344 378.915C50.4062 378.915 50.1196 379.004 49.8743 379.183C49.6323 379.359 49.4434 379.616 49.3075 379.954C49.1716 380.292 49.1037 380.701 49.1037 381.182C49.1037 381.669 49.17 382.083 49.3026 382.425C49.4384 382.766 49.629 383.026 49.8743 383.205C50.1196 383.384 50.4062 383.474 50.7344 383.474C50.9763 383.474 51.1934 383.424 51.3857 383.325C51.5812 383.225 51.742 383.081 51.8679 382.892C51.9972 382.7 52.0817 382.469 52.1214 382.201H54.12C54.0869 382.784 53.9278 383.298 53.6428 383.742C53.361 384.183 52.9716 384.528 52.4744 384.776C51.9773 385.025 51.389 385.149 50.7095 385.149ZM55.476 385V377.364H57.5293V378.696H57.6088C57.748 378.222 57.9817 377.864 58.3098 377.622C58.638 377.377 59.0158 377.254 59.4434 377.254C59.5494 377.254 59.6638 377.261 59.7864 377.274C59.909 377.287 60.0167 377.306 60.1096 377.329V379.208C60.0101 379.178 59.8726 379.152 59.6969 379.129C59.5212 379.105 59.3605 379.094 59.2147 379.094C58.9031 379.094 58.6247 379.162 58.3794 379.298C58.1375 379.43 57.9453 379.616 57.8027 379.854C57.6635 380.093 57.5939 380.368 57.5939 380.68V385H55.476ZM61.2045 385V377.364H63.3224V385H61.2045ZM62.2685 376.379C61.9536 376.379 61.6835 376.275 61.4581 376.066C61.236 375.854 61.125 375.6 61.125 375.305C61.125 375.014 61.236 374.763 61.4581 374.555C61.6835 374.343 61.9536 374.237 62.2685 374.237C62.5833 374.237 62.8518 374.343 63.0739 374.555C63.2992 374.763 63.4119 375.014 63.4119 375.305C63.4119 375.6 63.2992 375.854 63.0739 376.066C62.8518 376.275 62.5833 376.379 62.2685 376.379ZM65.019 387.864V377.364H67.1071V378.646H67.2015C67.2943 378.441 67.4286 378.232 67.6042 378.02C67.7832 377.804 68.0152 377.625 68.3002 377.483C68.5886 377.337 68.9466 377.264 69.3741 377.264C69.9309 377.264 70.4447 377.41 70.9153 377.702C71.3859 377.99 71.7621 378.426 72.0439 379.009C72.3256 379.589 72.4664 380.317 72.4664 381.192C72.4664 382.044 72.3289 382.763 72.0538 383.349C71.782 383.933 71.4108 384.375 70.9402 384.677C70.4728 384.975 69.9492 385.124 69.3691 385.124C68.9582 385.124 68.6085 385.056 68.3201 384.92C68.0351 384.785 67.8014 384.614 67.6191 384.408C67.4368 384.2 67.2976 383.989 67.2015 383.777H67.1369V387.864H65.019ZM67.0922 381.182C67.0922 381.636 67.1551 382.032 67.2811 382.37C67.407 382.708 67.5893 382.972 67.8279 383.161C68.0666 383.346 68.3566 383.439 68.698 383.439C69.0427 383.439 69.3343 383.344 69.573 383.156C69.8116 382.963 69.9922 382.698 70.1149 382.36C70.2408 382.019 70.3038 381.626 70.3038 381.182C70.3038 380.741 70.2425 380.353 70.1199 380.018C69.9972 379.684 69.8166 379.422 69.5779 379.233C69.3393 379.044 69.046 378.95 68.698 378.95C68.3533 378.95 68.0616 379.041 67.823 379.223C67.5877 379.405 67.407 379.664 67.2811 379.999C67.1551 380.333 67.0922 380.728 67.0922 381.182ZM77.9402 377.364V378.955H73.3414V377.364H77.9402ZM74.3855 375.534H76.5034V382.653C76.5034 382.849 76.5332 383.001 76.5929 383.111C76.6525 383.217 76.7354 383.291 76.8414 383.335C76.9508 383.378 77.0768 383.399 77.2193 383.399C77.3187 383.399 77.4181 383.391 77.5176 383.374C77.617 383.354 77.6932 383.339 77.7463 383.33L78.0794 384.906C77.9733 384.939 77.8242 384.977 77.6319 385.02C77.4397 385.066 77.206 385.094 76.9309 385.104C76.4205 385.124 75.9731 385.056 75.5886 384.901C75.2074 384.745 74.9108 384.503 74.6987 384.175C74.4866 383.847 74.3822 383.432 74.3855 382.932V375.534ZM79.3198 385V377.364H81.4377V385H79.3198ZM80.3837 376.379C80.0688 376.379 79.7987 376.275 79.5733 376.066C79.3513 375.854 79.2402 375.6 79.2402 375.305C79.2402 375.014 79.3513 374.763 79.5733 374.555C79.7987 374.343 80.0688 374.237 80.3837 374.237C80.6986 374.237 80.967 374.343 81.1891 374.555C81.4145 374.763 81.5272 375.014 81.5272 375.305C81.5272 375.6 81.4145 375.854 81.1891 376.066C80.967 376.275 80.6986 376.379 80.3837 376.379ZM86.5845 385.149C85.8123 385.149 85.1444 384.985 84.581 384.657C84.0208 384.326 83.5883 383.865 83.2834 383.275C82.9785 382.682 82.826 381.994 82.826 381.212C82.826 380.423 82.9785 379.733 83.2834 379.143C83.5883 378.55 84.0208 378.089 84.581 377.761C85.1444 377.43 85.8123 377.264 86.5845 377.264C87.3568 377.264 88.023 377.43 88.5831 377.761C89.1465 378.089 89.5807 378.55 89.8857 379.143C90.1906 379.733 90.343 380.423 90.343 381.212C90.343 381.994 90.1906 382.682 89.8857 383.275C89.5807 383.865 89.1465 384.326 88.5831 384.657C88.023 384.985 87.3568 385.149 86.5845 385.149ZM86.5945 383.509C86.9458 383.509 87.2391 383.409 87.4744 383.21C87.7098 383.008 87.8871 382.733 88.0064 382.385C88.129 382.037 88.1903 381.641 88.1903 381.197C88.1903 380.753 88.129 380.357 88.0064 380.009C87.8871 379.661 87.7098 379.385 87.4744 379.183C87.2391 378.981 86.9458 378.88 86.5945 378.88C86.2398 378.88 85.9415 378.981 85.6996 379.183C85.4609 379.385 85.2803 379.661 85.1577 380.009C85.0384 380.357 84.9787 380.753 84.9787 381.197C84.9787 381.641 85.0384 382.037 85.1577 382.385C85.2803 382.733 85.4609 383.008 85.6996 383.21C85.9415 383.409 86.2398 383.509 86.5945 383.509ZM93.8381 380.585V385H91.7202V377.364H93.7386V378.711H93.8281C93.9972 378.267 94.2805 377.915 94.6783 377.657C95.076 377.395 95.5582 377.264 96.125 377.264C96.6553 377.264 97.1177 377.38 97.5121 377.612C97.9065 377.844 98.2131 378.176 98.4318 378.607C98.6506 379.034 98.7599 379.545 98.7599 380.138V385H96.642V380.516C96.6454 380.048 96.526 379.684 96.2841 379.422C96.0421 379.157 95.709 379.024 95.2848 379.024C94.9998 379.024 94.7479 379.085 94.5291 379.208C94.3137 379.331 94.1446 379.51 94.022 379.745C93.9027 379.977 93.8414 380.257 93.8381 380.585Z" fill="white" fill-opacity="0.2"/>
<defs>
<filter id="filter0_d_76_86" x="18" y="20" width="364" height="559" filterUnits="userSpaceOnUse" color-interpolation-filters="sRGB">
<feFlood flood-opacity="0" result="BackgroundImageFix"/>
<feColorMatrix in="SourceAlpha" type="matrix" values="0 0 0 0 0 0 0 0 0 0 0 0 0 0 0 0 0 0 127 0" result="hardAlpha"/>
<feOffset dy="2"/>
<feGaussianBlur stdDeviation="1"/>
<feComposite in2="hardAlpha" operator="out"/>
<feColorMatrix type="matrix" values="0 0 0 0 0 0 0 0 0 0 0 0 0 0 0 0 0 0 0.12 0"/>
<feBlend mode="normal" in2="BackgroundImageFix" result="effect1_dropShadow_76_86"/>
<feBlend mode="normal" in="SourceGraphic" in2="effect1_dropShadow_76_86" result="shape"/>
</filter>
<filter id="filter1_d_76_86" x="18" y="307" width="65" height="24.751" filterUnits="userSpaceOnUse" color-interpolation-filters="sRGB">
<feFlood flood-opacity="0" result="BackgroundImageFix"/>
<feColorMatrix in="SourceAlpha" type="matrix" values="0 0 0 0 0 0 0 0 0 0 0 0 0 0 0 0 0 0 127 0" result="hardAlpha"/>
<feOffset dy="2"/>
<feGaussianBlur stdDeviation="1"/>
<feComposite in2="hardAlpha" operator="out"/>
<feColorMatrix type="matrix" values="0 0 0 0 0 0 0 0 0 0 0 0 0 0 0 0 0 0 0.12 0"/>
<feBlend mode="normal" in2="BackgroundImageFix" result="effect1_dropShadow_76_86"/>
<feBlend mode="normal" in="SourceGraphic" in2="effect1_dropShadow_76_86" result="shape"/>
</filter>
<filter id="filter2_d_76_86" x="186.273" y="113.237" width="168.643" height="33.6271" filterUnits="userSpaceOnUse" color-interpolation-filters="sRGB">
<feFlood flood-opacity="0" result="BackgroundImageFix"/>
<feColorMatrix in="SourceAlpha" type="matrix" values="0 0 0 0 0 0 0 0 0 0 0 0 0 0 0 0 0 0 127 0" result="hardAlpha"/>
<feOffset dy="2"/>
<feGaussianBlur stdDeviation="0.5"/>
<feComposite in2="hardAlpha" operator="out"/>
<feColorMatrix type="matrix" values="0 0 0 0 0 0 0 0 0 0 0 0 0 0 0 0 0 0 0.15 0"/>
<feBlend mode="normal" in2="BackgroundImageFix" result="effect1_dropShadow_76_86"/>
<feBlend mode="normal" in="SourceGraphic" in2="effect1_dropShadow_76_86" result="shape"/>
</filter>
<filter id="filter3_d_76_86" x="142.845" y="496.237" width="181.661" height="30.9126" filterUnits="userSpaceOnUse" color-interpolation-filters="sRGB">
<feFlood flood-opacity="0" result="BackgroundImageFix"/>
<feColorMatrix in="SourceAlpha" type="matrix" values="0 0 0 0 0 0 0 0 0 0 0 0 0 0 0 0 0 0 127 0" result="hardAlpha"/>
<feOffset dy="2"/>
<feGaussianBlur stdDeviation="0.5"/>
<feComposite in2="hardAlpha" operator="out"/>
<feColorMatrix type="matrix" values="0 0 0 0 0 0 0 0 0 0 0 0 0 0 0 0 0 0 0.15 0"/>
<feBlend mode="normal" in2="BackgroundImageFix" result="effect1_dropShadow_76_86"/>
<feBlend mode="normal" in="SourceGraphic" in2="effect1_dropShadow_76_86" result="shape"/>
</filter>
<linearGradient id="paint0_linear_76_86" x1="153" y1="116.629" x2="315.505" y2="299.338" gradientUnits="userSpaceOnUse">
<stop stop-color="white"/>
<stop offset="1" stop-color="white" stop-opacity="0.4"/>
</linearGradient>
<linearGradient id="paint1_linear_76_86" x1="200" y1="20" x2="299" y2="372" gradientUnits="userSpaceOnUse">
<stop stop-color="white" stop-opacity="0.25"/>
<stop offset="1" stop-color="white" stop-opacity="0"/>
</linearGradient>
<linearGradient id="paint2_linear_76_86" x1="67.1278" y1="310.656" x2="72.3599" y2="320.157" gradientUnits="userSpaceOnUse">
<stop stop-color="white"/>
<stop offset="1" stop-color="white" stop-opacity="0.4"/>
</linearGradient>
<linearGradient id="paint3_linear_76_86" x1="70" y1="307" x2="72.4292" y2="320.949" gradientUnits="userSpaceOnUse">
<stop stop-color="white" stop-opacity="0.25"/>
<stop offset="1" stop-color="white" stop-opacity="0"/>
</linearGradient>
<linearGradient id="paint4_linear_76_86" x1="33.8722" y1="310.781" x2="28.3653" y2="320.45" gradientUnits="userSpaceOnUse">
<stop stop-color="white"/>
<stop offset="1" stop-color="white" stop-opacity="0.4"/>
</linearGradient>
<linearGradient id="paint5_linear_76_86" x1="31" y1="307" x2="28.4072" y2="321.397" gradientUnits="userSpaceOnUse">
<stop stop-color="white" stop-opacity="0.25"/>
<stop offset="1" stop-color="white" stop-opacity="0"/>
</linearGradient>
</defs>
</svg>
