<svg width="2420" height="40" viewBox="0 0 2420 40" fill="none" xmlns="http://www.w3.org/2000/svg">
<mask id="mask0_1_110" style="mask-type:alpha" maskUnits="userSpaceOnUse" x="0" y="0" width="2420" height="40">
<rect width="2420" height="40" fill="#F1C911"/>
</mask>
<g mask="url(#mask0_1_110)">
<path d="M-2.58689 30.0828C-9.74191 16.4658 -5.51979 -2.59332 8.87872 -16.3062C23.2772 -30.019 43.2891 -34.0398 57.5869 -27.2256C64.7418 -13.6087 60.52 5.45029 46.1215 19.1631C31.723 32.876 11.7109 36.8971 -2.58689 30.0828Z" fill="#F1C911"/>
<path d="M263.772 24.6761C248.028 27.3299 230.047 18.0471 220.346 0.996541C210.645 -16.054 212.298 -35.4687 223.228 -46.5809C238.972 -49.2346 256.952 -39.9521 266.654 -22.9016C276.355 -5.85102 274.702 13.564 263.772 24.6761Z" fill="#F1C911"/>
<path d="M218.925 26.7274C203.182 29.3812 185.201 20.0983 175.5 3.04779C165.799 -14.0027 167.451 -33.4175 178.382 -44.5296C194.126 -47.1834 212.106 -37.9008 221.808 -20.8503C231.509 -3.79978 229.856 15.6153 218.925 26.7274Z" fill="#F1C911"/>
<path d="M147.711 38.3811C133.698 32.6982 127.921 15.9667 134.808 -3.07575C141.694 -22.1181 159.061 -37.4367 176.491 -41.2003C190.504 -35.5174 196.281 -18.7862 189.394 0.256197C182.508 19.2986 165.141 34.6175 147.711 38.3811Z" fill="#F1C911"/>
<path d="M105.711 21.2382C91.6977 15.5553 85.9212 -1.1762 92.8076 -20.2186C99.694 -39.261 117.061 -54.5796 134.491 -58.3432C148.504 -52.6603 154.281 -35.929 147.394 -16.8867C140.508 2.15575 123.141 17.4746 105.711 21.2382Z" fill="#F1C911"/>
<path d="M83.9423 33.0048C69.5781 37.8288 53.4522 29.2066 45.0252 10.7346C36.5982 -7.7373 38.5406 -30.2052 48.7243 -44.1927C63.0884 -49.0166 79.2142 -40.3948 87.6412 -21.9228C96.0682 -3.45082 94.126 19.0173 83.9423 33.0048Z" fill="#F1C911"/>
<path d="M523.841 12.9399C530.141 -0.677024 526.423 -19.7362 513.744 -33.449C501.065 -47.1619 483.442 -51.1827 470.852 -44.3684C464.551 -30.7515 468.269 -11.6926 480.948 2.02027C493.627 15.7331 511.25 19.7542 523.841 12.9399Z" fill="#F1C911"/>
<path d="M280.867 33.2476C294.759 35.9014 310.624 26.6185 319.184 9.56797C327.744 -7.48253 326.286 -26.8973 316.641 -38.0095C302.75 -40.6632 286.884 -31.3806 278.324 -14.3301C269.764 2.72041 271.222 22.1354 280.867 33.2476Z" fill="#F1C911"/>
<path d="M2106.41 30.0828C2099.26 16.4658 2103.48 -2.59332 2117.88 -16.3062C2132.28 -30.019 2152.29 -34.0398 2166.59 -27.2256C2173.74 -13.6087 2169.52 5.45029 2155.12 19.1631C2140.72 32.876 2120.71 36.8971 2106.41 30.0828Z" fill="#F1C911"/>
<path d="M2373.77 21.819C2358.03 24.4728 2340.05 15.1899 2330.35 -1.86059C2320.64 -18.9111 2322.3 -38.3259 2333.23 -49.438C2348.97 -52.0917 2366.95 -42.8092 2376.65 -25.7587C2386.35 -8.70816 2384.7 10.7069 2373.77 21.819Z" fill="#F1C911"/>
<path d="M2327.93 26.7274C2312.18 29.3812 2294.2 20.0983 2284.5 3.04779C2274.8 -14.0027 2276.45 -33.4175 2287.38 -44.5296C2303.13 -47.1834 2321.11 -37.9008 2330.81 -20.8503C2340.51 -3.79978 2338.86 15.6153 2327.93 26.7274Z" fill="#F1C911"/>
<path d="M2256.71 38.3811C2242.7 32.6982 2236.92 15.9667 2243.81 -3.07575C2250.69 -22.1181 2268.06 -37.4367 2285.49 -41.2003C2299.5 -35.5174 2305.28 -18.7862 2298.39 0.256197C2291.51 19.2986 2274.14 34.6175 2256.71 38.3811Z" fill="#F1C911"/>
<path d="M2214.71 30.762C2200.7 25.0792 2194.92 8.34761 2201.81 -10.6948C2208.69 -29.7372 2226.06 -45.0557 2243.49 -48.8194C2257.5 -43.1365 2263.28 -26.4052 2256.39 -7.36285C2249.51 11.6796 2232.14 26.9984 2214.71 30.762Z" fill="#F1C911"/>
<path d="M2192.94 33.0048C2178.58 37.8288 2162.45 29.2066 2154.03 10.7346C2145.6 -7.7373 2147.54 -30.2052 2157.72 -44.1927C2172.09 -49.0166 2188.21 -40.3948 2196.64 -21.9228C2205.07 -3.45082 2203.13 19.0173 2192.94 33.0048Z" fill="#F1C911"/>
<path d="M2389.87 33.2476C2403.76 35.9014 2419.62 26.6185 2428.18 9.56797C2436.74 -7.48253 2435.29 -26.8973 2425.64 -38.0095C2411.75 -40.6632 2395.88 -31.3806 2387.32 -14.3301C2378.76 2.72041 2380.22 22.1354 2389.87 33.2476Z" fill="#F1C911"/>
<path d="M328.379 19.1083C342.271 21.7621 358.136 12.4793 366.696 -4.57126C375.257 -21.6218 373.798 -41.0365 364.153 -52.1487C350.262 -54.8024 334.396 -45.5199 325.836 -28.4694C317.276 -11.4188 318.734 7.99621 328.379 19.1083Z" fill="#F1C911"/>
<path d="M391.216 21.2382C403.582 15.5553 408.678 -1.17619 402.602 -20.2186C396.526 -39.261 381.202 -54.5796 365.822 -58.3432C353.457 -52.6603 348.36 -35.929 354.437 -16.8867C360.513 2.15576 375.837 17.4746 391.216 21.2382Z" fill="#F1C911"/>
<path d="M437.099 32.6668C449.465 26.9839 454.562 10.2524 448.485 -8.79002C442.409 -27.8324 427.085 -43.151 411.705 -46.9146C399.34 -41.2317 394.243 -24.5004 400.32 -5.45807C406.396 13.5843 421.72 28.9032 437.099 32.6668Z" fill="#F1C911"/>
<path d="M706.413 30.0828C699.258 16.4658 703.48 -2.59332 717.879 -16.3062C732.277 -30.019 752.289 -34.0398 766.587 -27.2256C773.742 -13.6087 769.52 5.45029 755.121 19.1631C740.723 32.876 720.711 36.8971 706.413 30.0828Z" fill="#F1C911"/>
<path d="M975.772 37.0571C960.028 39.7109 942.047 30.428 932.346 13.3775C922.645 -3.67301 924.298 -23.0878 935.228 -34.1999C950.972 -36.8537 968.952 -27.5711 978.654 -10.5206C988.355 6.52993 986.702 25.945 975.772 37.0571Z" fill="#F1C911"/>
<path d="M927.925 26.7274C912.182 29.3812 894.201 20.0983 884.5 3.04779C874.799 -14.0027 876.451 -33.4175 887.382 -44.5296C903.126 -47.1834 921.106 -37.9008 930.808 -20.8503C940.509 -3.79978 938.856 15.6153 927.925 26.7274Z" fill="#F1C911"/>
<path d="M856.711 38.3811C842.698 32.6982 836.921 15.9667 843.808 -3.07575C850.694 -22.1181 868.061 -37.4367 885.491 -41.2003C899.504 -35.5174 905.281 -18.7862 898.394 0.256197C891.508 19.2986 874.141 34.6175 856.711 38.3811Z" fill="#F1C911"/>
<path d="M804.711 30.762C790.698 25.0792 784.921 8.34761 791.808 -10.6948C798.694 -29.7372 816.061 -45.0557 833.491 -48.8194C847.504 -43.1365 853.281 -26.4052 846.394 -7.36285C839.508 11.6796 822.141 26.9984 804.711 30.762Z" fill="#F1C911"/>
<path d="M792.942 33.0048C778.578 37.8288 762.452 29.2066 754.025 10.7346C745.598 -7.7373 747.541 -30.2052 757.724 -44.1927C772.088 -49.0166 788.214 -40.3948 796.641 -21.9228C805.068 -3.45082 803.126 19.0173 792.942 33.0048Z" fill="#F1C911"/>
<path d="M530.413 30.0828C523.258 16.4658 527.48 -2.59332 541.879 -16.3062C556.277 -30.019 576.289 -34.0398 590.587 -27.2256C597.742 -13.6087 593.52 5.45029 579.121 19.1631C564.723 32.876 544.711 36.8971 530.413 30.0828Z" fill="#F1C911"/>
<path d="M680.711 38.3811C666.698 32.6982 660.921 15.9667 667.808 -3.07575C674.694 -22.1181 692.061 -37.4367 709.491 -41.2003C723.504 -35.5174 729.281 -18.7862 722.394 0.256197C715.508 19.2986 698.141 34.6175 680.711 38.3811Z" fill="#F1C911"/>
<path d="M639.711 30.762C625.698 25.0792 619.921 8.34761 626.808 -10.6948C633.694 -29.7372 651.061 -45.0557 668.491 -48.8194C682.504 -43.1365 688.281 -26.4052 681.394 -7.36285C674.508 11.6796 657.141 26.9984 639.711 30.762Z" fill="#F1C911"/>
<path d="M616.942 33.0048C602.578 37.8288 586.452 29.2066 578.025 10.7346C569.598 -7.7373 571.541 -30.2052 581.724 -44.1927C596.088 -49.0166 612.214 -40.3948 620.641 -21.9228C629.068 -3.45082 627.126 19.0173 616.942 33.0048Z" fill="#F1C911"/>
<path d="M989.867 33.2476C1003.76 35.9014 1019.62 26.6185 1028.18 9.56797C1036.74 -7.48253 1035.29 -26.8973 1025.64 -38.0095C1011.75 -40.6632 995.884 -31.3806 987.324 -14.3301C978.764 2.72041 980.222 22.1354 989.867 33.2476Z" fill="#F1C911"/>
<path d="M1064.02 30.762C1076.39 25.0792 1081.48 8.34761 1075.41 -10.6948C1069.33 -29.7372 1054.01 -45.0557 1038.63 -48.8194C1026.26 -43.1365 1021.17 -26.4052 1027.24 -7.36285C1033.32 11.6796 1048.64 26.9984 1064.02 30.762Z" fill="#F1C911"/>
<path d="M447.484 15.862C460.159 20.686 474.387 12.0638 481.823 -6.40822C489.259 -24.8802 487.545 -47.348 478.559 -61.3355C465.885 -66.1595 451.656 -57.5376 444.22 -39.0657C436.784 -20.5937 438.498 1.87445 447.484 15.862Z" fill="#F1C911"/>
<path d="M1078.41 30.0828C1071.26 16.4658 1075.48 -2.59332 1089.88 -16.3062C1104.28 -30.019 1124.29 -34.0398 1138.59 -27.2256C1145.74 -13.6087 1141.52 5.45029 1127.12 19.1631C1112.72 32.876 1092.71 36.8971 1078.41 30.0828Z" fill="#F1C911"/>
<path d="M1325.22 35.0798C1310.64 28.8418 1301.25 11.5355 1303.3 -7.75923C1305.35 -27.0539 1318.18 -42.2223 1333.78 -45.556C1348.36 -39.318 1357.75 -22.0119 1355.7 -2.71725C1353.65 16.5775 1340.82 31.7461 1325.22 35.0798Z" fill="#F1C911"/>
<path d="M1299.93 26.7274C1284.18 29.3812 1266.2 20.0983 1256.5 3.04779C1246.8 -14.0027 1248.45 -33.4175 1259.38 -44.5296C1275.13 -47.1834 1293.11 -37.9008 1302.81 -20.8503C1312.51 -3.79978 1310.86 15.6153 1299.93 26.7274Z" fill="#F1C911"/>
<path d="M1228.71 38.3811C1214.7 32.6982 1208.92 15.9667 1215.81 -3.07575C1222.69 -22.1181 1240.06 -37.4367 1257.49 -41.2003C1271.5 -35.5174 1277.28 -18.7862 1270.39 0.256197C1263.51 19.2986 1246.14 34.6175 1228.71 38.3811Z" fill="#F1C911"/>
<path d="M1196.71 21.2382C1182.7 15.5553 1176.92 -1.1762 1183.81 -20.2186C1190.69 -39.261 1208.06 -54.5796 1225.49 -58.3432C1239.5 -52.6603 1245.28 -35.929 1238.39 -16.8867C1231.51 2.15575 1214.14 17.4746 1196.71 21.2382Z" fill="#F1C911"/>
<path d="M1164.94 33.0048C1150.58 37.8288 1134.45 29.2066 1126.03 10.7346C1117.6 -7.7373 1119.54 -30.2052 1129.72 -44.1927C1144.09 -49.0166 1160.21 -40.3948 1168.64 -21.9228C1177.07 -3.45082 1175.13 19.0173 1164.94 33.0048Z" fill="#F1C911"/>
<path d="M1967.33 3.41608C1973.63 -10.2008 1969.91 -29.26 1957.23 -42.9729C1944.55 -56.6857 1926.93 -60.7065 1914.34 -53.8923C1908.04 -40.2753 1911.76 -21.2164 1924.44 -7.50355C1937.11 6.20931 1954.74 10.2304 1967.33 3.41608Z" fill="#F1C911"/>
<path d="M1361.87 33.2476C1375.76 35.9014 1391.62 26.6185 1400.18 9.56797C1408.74 -7.48253 1407.29 -26.8973 1397.64 -38.0095C1383.75 -40.6632 1367.88 -31.3806 1359.32 -14.3301C1350.76 2.72041 1352.22 22.1354 1361.87 33.2476Z" fill="#F1C911"/>
<path d="M1771.87 9.58453C1785.76 12.2383 1801.62 2.95546 1810.18 -14.0951C1818.74 -31.1456 1817.29 -50.5603 1807.64 -61.6725C1793.75 -64.3262 1777.88 -55.0437 1769.32 -37.9932C1760.76 -20.9426 1762.22 -1.52761 1771.87 9.58453Z" fill="#F1C911"/>
<path d="M1834.7 11.7144C1847.07 6.03153 1852.17 -10.7 1846.09 -29.7424C1840.01 -48.7848 1824.69 -64.1034 1809.31 -67.867C1796.94 -62.1841 1791.85 -45.4529 1797.92 -26.4105C1804 -7.36806 1819.32 7.95082 1834.7 11.7144Z" fill="#F1C911"/>
<path d="M1880.59 23.143C1892.95 17.4601 1898.05 0.728552 1891.97 -18.3139C1885.9 -37.3562 1870.57 -52.6748 1855.19 -56.4384C1842.83 -50.7555 1837.73 -34.0243 1843.81 -14.9819C1849.88 4.0605 1865.21 19.3794 1880.59 23.143Z" fill="#F1C911"/>
<path d="M1400.41 20.5589C1393.26 6.94201 1397.48 -12.1171 1411.88 -25.83C1426.28 -39.5428 1446.29 -43.5637 1460.59 -36.7494C1467.74 -23.1325 1463.52 -4.07353 1449.12 9.6393C1434.72 23.3522 1414.71 27.3732 1400.41 20.5589Z" fill="#F1C911"/>
<path d="M1675.77 21.819C1660.03 24.4728 1642.05 15.1899 1632.35 -1.86061C1622.64 -18.9111 1624.3 -38.3259 1635.23 -49.438C1650.97 -52.0918 1668.95 -42.8092 1678.65 -25.7587C1688.35 -8.70817 1686.7 10.7069 1675.77 21.819Z" fill="#F1C911"/>
<path d="M1621.93 17.2036C1606.18 19.8573 1588.2 10.5745 1578.5 -6.47605C1568.8 -23.5265 1570.45 -42.9413 1581.38 -54.0535C1597.13 -56.7072 1615.11 -47.4246 1624.81 -30.3741C1634.51 -13.3236 1632.86 6.09142 1621.93 17.2036Z" fill="#F1C911"/>
<path d="M1550.71 28.8573C1536.7 23.1744 1530.92 6.44283 1537.81 -12.5996C1544.69 -31.642 1562.06 -46.9605 1579.49 -50.7242C1593.5 -45.0412 1599.28 -28.31 1592.39 -9.26763C1585.51 9.77478 1568.14 25.0937 1550.71 28.8573Z" fill="#F1C911"/>
<path d="M1498.71 40.2858C1484.7 34.603 1478.92 17.8714 1485.81 -1.171C1492.69 -20.2134 1510.06 -35.5319 1527.49 -39.2956C1541.5 -33.6127 1547.28 -16.8814 1540.39 2.16095C1533.51 21.2034 1516.14 36.5222 1498.71 40.2858Z" fill="#F1C911"/>
<path d="M1486.94 23.481C1472.58 28.305 1456.45 19.6828 1448.03 1.21081C1439.6 -17.2611 1441.54 -39.729 1451.72 -53.7165C1466.09 -58.5405 1482.21 -49.9186 1490.64 -31.4466C1499.07 -12.9747 1497.13 9.49347 1486.94 23.481Z" fill="#F1C911"/>
<path d="M1973.9 20.5589C1966.75 6.94201 1970.97 -12.1171 1985.37 -25.83C1999.76 -39.5428 2019.78 -43.5637 2034.07 -36.7494C2041.23 -23.1325 2037.01 -4.07353 2022.61 9.6393C2008.21 23.3522 1988.2 27.3732 1973.9 20.5589Z" fill="#F1C911"/>
<path d="M2124.2 28.8573C2110.18 23.1744 2104.41 6.44283 2111.29 -12.5996C2118.18 -31.642 2135.55 -46.9605 2152.98 -50.7242C2166.99 -45.0412 2172.77 -28.31 2165.88 -9.26763C2159 9.77478 2141.63 25.0937 2124.2 28.8573Z" fill="#F1C911"/>
<path d="M2083.2 21.2382C2069.18 15.5553 2063.41 -1.17621 2070.29 -20.2186C2077.18 -39.261 2094.55 -54.5796 2111.98 -58.3432C2125.99 -52.6603 2131.77 -35.929 2124.88 -16.8867C2118 2.15574 2100.63 17.4746 2083.2 21.2382Z" fill="#F1C911"/>
<path d="M2060.43 23.481C2046.07 28.305 2029.94 19.6828 2021.51 1.21081C2013.09 -17.2611 2015.03 -39.729 2025.21 -53.7165C2039.58 -58.5405 2055.7 -49.9186 2064.13 -31.4466C2072.56 -12.9747 2070.61 9.49347 2060.43 23.481Z" fill="#F1C911"/>
<path d="M1683.87 23.7238C1697.76 26.3775 1713.62 17.0947 1722.18 0.0441546C1730.74 -17.0063 1729.29 -36.4211 1719.64 -47.5333C1705.75 -50.187 1689.88 -40.9044 1681.32 -23.8539C1672.76 -6.80341 1674.22 12.6116 1683.87 23.7238Z" fill="#F1C911"/>
<path d="M1758.02 21.2382C1770.39 15.5553 1775.48 -1.17621 1769.41 -20.2186C1763.33 -39.261 1748.01 -54.5796 1732.63 -58.3432C1720.26 -52.6603 1715.17 -35.929 1721.24 -16.8867C1727.32 2.15574 1742.64 17.4746 1758.02 21.2382Z" fill="#F1C911"/>
<path d="M1890.97 6.33814C1903.65 11.1622 1917.87 2.53995 1925.31 -15.932C1932.75 -34.404 1931.03 -56.8718 1922.05 -70.8594C1909.37 -75.6833 1895.14 -67.0614 1887.71 -48.5895C1880.27 -30.1175 1881.99 -7.64937 1890.97 6.33814Z" fill="#F1C911"/>
<rect y="-115.238" width="2420" height="117.143" fill="#F1C911"/>
</g>
</svg>
