<svg width="23" height="23" viewBox="0 0 23 23" fill="none" xmlns="http://www.w3.org/2000/svg">
<path fill-rule="evenodd" clip-rule="evenodd" d="M11.9999 6.42434C15.0788 6.42434 17.574 8.92039 17.574 11.9993C17.574 15.0774 15.0796 17.5742 11.9999 17.5742C8.92099 17.5742 6.42416 15.0782 6.42416 11.9993C6.42416 8.92039 8.92099 6.42434 11.9999 6.42434ZM5.6381 6.75515L6.23096 7.348C6.54268 7.65818 7.04385 7.65818 7.35481 7.348C7.66499 7.03783 7.66499 6.53511 7.35481 6.22492L6.76195 5.63206C6.45023 5.32188 5.94906 5.32188 5.6381 5.63206C5.32793 5.94224 5.32793 6.44495 5.6381 6.75515ZM3.79456 12.7893C3.35526 12.7893 3 12.4341 3 11.9948C3 11.5562 3.3545 11.2002 3.79456 11.2002H4.6319C5.06968 11.2002 5.42646 11.5555 5.42646 11.9948C5.42646 12.4333 5.07044 12.7893 4.6319 12.7893H3.79456ZM6.75591 18.3604L7.34877 17.7675C7.65894 17.4573 7.65894 16.9546 7.34877 16.6444C7.03859 16.3342 6.53588 16.3342 6.22644 16.6444L5.63359 17.2373C5.32341 17.5475 5.32341 18.0502 5.63359 18.3596C5.94376 18.6698 6.44648 18.6698 6.75591 18.3596V18.3604ZM12.7893 20.2054C12.7893 20.644 12.4348 20.9992 11.9947 20.9992C11.5554 20.9992 11.2017 20.644 11.2017 20.2054V19.3673C11.2017 18.9288 11.5562 18.5727 11.9947 18.5727C12.4325 18.5727 12.7893 18.928 12.7893 19.3673V20.2054ZM18.3596 17.2433L17.7682 16.6504C17.4565 16.3403 16.9538 16.3403 16.6444 16.6504C16.3342 16.9606 16.3342 17.4633 16.6444 17.7735L17.2372 18.3664C17.5474 18.6766 18.0501 18.6766 18.3596 18.3664C18.6713 18.0562 18.6713 17.5535 18.3596 17.2433ZM20.2046 11.2099C20.6439 11.2099 20.9992 11.5652 20.9992 12.0037C20.9992 12.4422 20.6447 12.7983 20.2046 12.7983H19.3673C18.9295 12.7983 18.5727 12.443 18.5727 12.0037C18.5727 11.5652 18.9287 11.2099 19.3673 11.2099H20.2046ZM17.2433 5.63887L16.6504 6.23172C16.3402 6.5419 16.3402 7.04461 16.6504 7.35481C16.9606 7.66499 17.4633 7.66499 17.7727 7.35481L18.3656 6.76195C18.6758 6.45178 18.6758 5.94906 18.3656 5.63887C18.0554 5.32869 17.5527 5.32869 17.2433 5.63887ZM11.2099 3.7938C11.2099 3.35526 11.5644 3 12.0029 3C12.4407 3 12.7975 3.35526 12.7975 3.7938V4.63192C12.7975 5.07046 12.443 5.42572 12.0029 5.42572C11.5636 5.42572 11.2099 5.07046 11.2099 4.63192V3.7938ZM14.8182 9.18079C13.2612 7.62376 10.737 7.62376 9.17913 9.18079C7.6221 10.7378 7.6221 13.2621 9.17913 14.8183C10.7362 16.3754 13.2604 16.3754 14.8182 14.8183C16.3737 13.2613 16.3737 10.7371 14.8182 9.18079Z" fill="black"/>
</svg>
