<svg width="28" height="28" viewBox="0 0 28 28" fill="none" xmlns="http://www.w3.org/2000/svg">
<rect x="3.25" y="3.25" width="21.5" height="21.5" stroke="#D81515" stroke-width="1.5" stroke-linecap="round" stroke-linejoin="round"/>
<path d="M10.1315 11.382H7.00101V21.0325H10.1315V11.382Z" fill="#D81515"/>
<path d="M18.6586 11.4952C18.6254 11.4848 18.5939 11.4734 18.559 11.4636C18.5168 11.454 18.475 11.446 18.432 11.4392C18.2659 11.4057 18.0837 11.3821 17.8703 11.3821C16.0453 11.3821 14.8876 12.7131 14.5063 13.2271V11.382H11.3758V21.0325H14.5063V15.7686C14.5063 15.7686 16.872 12.4647 17.8703 14.8912V21.0325H21V14.5202C21 13.062 20.0034 11.847 18.6586 11.4952Z" fill="#D81515"/>
<path d="M10.0635 8.53085C10.0635 9.3789 9.37784 10.0662 8.53234 10.0662C7.68678 10.0662 7.00116 9.37887 7.00116 8.53085C7.00116 7.68297 7.68678 6.99559 8.53234 6.99559C9.37784 6.99559 10.0635 7.68297 10.0635 8.53085Z" fill="#D81515"/>
</svg>
