<svg width="400" height="400" viewBox="0 0 400 400" fill="none" xmlns="http://www.w3.org/2000/svg">
<path fill-rule="evenodd" clip-rule="evenodd" d="M215.155 68.2495C208.419 56.5829 191.58 56.5828 184.844 68.2495L47.146 306.75C40.4103 318.416 48.83 333 62.3016 333H337.698C351.169 333 359.589 318.416 352.853 306.75L215.155 68.2495ZM147.53 162.88L60.1365 314.25C59.1743 315.916 60.3771 318 62.3016 318H337.698C339.622 318 340.825 315.916 339.863 314.25L252.469 162.88L240.302 178.491C233.296 187.48 219.703 187.48 212.697 178.491L201.971 164.729C200.97 163.445 199.029 163.445 198.028 164.729L187.302 178.491C180.296 187.48 166.703 187.48 159.697 178.491L147.53 162.88Z" fill="black"/>
</svg>
