<svg width="400" height="400" viewBox="0 0 400 400" fill="none" xmlns="http://www.w3.org/2000/svg">
<path d="M314.73 80.3571C344.981 80.3571 363.303 104.058 355.641 133.303C347.98 162.548 317.241 186.249 286.99 186.249C256.739 186.248 238.419 162.547 246.08 133.303C247.912 126.309 251.069 119.625 255.226 113.505C254.917 113.313 254.499 113.253 254.046 113.366L209.603 124.48C208.558 124.742 207.661 125.599 207.406 126.573L168.313 275.799C167.155 280.22 163.118 284.084 158.446 285.311L157.992 285.422L63.3797 306.609C56.5221 308.144 51.5162 303.423 53.2023 296.986L96.9399 130.031C97.063 129.561 97.0249 129.105 96.8324 128.731H96.8314L96.4946 128.074C96.0841 127.276 95.0568 126.987 94.003 127.375H94.002L85.5058 130.499L85.5051 130.498C82.3747 131.649 79.2023 131.461 76.9224 129.99H76.9214C74.2944 128.293 73.2228 125.134 74.1199 121.71L74.598 119.885C75.787 115.346 80.012 111.389 84.8513 110.277L206.22 82.3788C213.106 80.7961 218.16 85.5231 216.467 91.9862L214.454 99.6712C214.063 101.163 215.366 102.399 217.166 101.877C227.671 98.8297 244.65 94.2931 266.067 89.5281C269.782 88.7018 273.67 87.7299 277.709 86.7196C281.726 85.7147 285.887 84.673 290.043 83.7363C298.332 81.8685 306.861 80.3572 314.73 80.3571Z" fill="black" stroke="white" stroke-width="8"/>
</svg>
