<svg width="400" height="400" viewBox="0 0 400 400" fill="none" xmlns="http://www.w3.org/2000/svg">
<rect width="400" height="400" rx="40" fill="black"/>
<path fill-rule="evenodd" clip-rule="evenodd" d="M222.433 80.9897C212.434 63.6701 187.435 63.6701 177.436 80.9896L62.5193 280.031C52.5199 297.351 65.0192 319 85.018 319H314.851C334.85 319 347.349 297.351 337.35 280.031L222.433 80.9897ZM142.097 182.167L79.826 290.023C77.5185 294.02 80.4029 299.016 85.018 299.016H314.851C319.466 299.016 322.351 294.02 320.043 290.023L257.773 182.167L247.881 192.058C237.736 202.204 221.286 202.204 211.141 192.058L204.174 185.091C201.833 182.75 198.037 182.75 195.695 185.091L188.728 192.058C178.583 202.204 162.134 202.204 151.988 192.058L142.097 182.167Z" fill="white"/>
</svg>
