<svg width="400" height="400" viewBox="0 0 400 400" fill="none" xmlns="http://www.w3.org/2000/svg">
<path d="M303 116.5C331.001 116.5 360.579 89.0595 367.669 61.9984C374.758 34.9374 352.806 13 324.805 13C310.066 13 292.324 18.6803 277.196 22.0459C255.915 26.7804 239.065 31.2842 228.678 34.2973C224.193 35.5981 220.603 32.631 221.706 28.4202L223.716 20.7473C224.746 16.8166 221.672 13.9364 217.477 14.9008L96.3007 42.755C93.3536 43.4323 90.7834 45.8406 90.0602 48.6012L89.5828 50.4235C89.0509 52.4538 90.1039 54.3053 91 55.5C92.5 57.5 96.5 62 99.5 62L104.824 52.5186C107.744 51.4446 110.591 52.2444 111.729 54.458L112.066 55.1136C112.603 56.1574 112.708 57.4273 112.366 58.7321L68.6982 225.421C67.6727 229.336 74.8215 237.935 79 237L169.356 210.123C172.318 209.46 174.912 207.043 175.639 204.268L214.67 55.2788C215.38 52.5679 217.874 50.1905 220.767 49.4669L265.139 38.3697C268.005 37.6531 270.485 38.9388 270.971 41.3927C270.997 41.526 271.03 41.6559 271.069 41.7825C266.562 47.946 263.158 54.7904 261.269 61.9984C254.18 89.0595 274.999 116.5 303 116.5Z" fill="#7E4894"/>
<path d="M32.5806 376.09L59.9371 271.665C60.6609 268.902 63.2345 266.493 66.184 265.818L159.957 244.347C162.012 243.876 163.945 244.327 165.153 245.56C166.274 246.705 171.968 251.712 171.5 253.5L142.848 339.263C142.577 340.297 142.59 341.313 142.886 342.21C143.646 344.521 146.135 345.671 148.975 345.026L188.908 335.952C191.862 335.281 194.442 332.869 195.167 330.101L236.769 171.3C237.04 170.267 237.027 169.251 236.73 168.354C235.971 166.043 233.481 164.892 230.642 165.538L223.5 174.5C219.938 175.31 213.069 166.49 213.944 163.151C214.558 160.808 216.736 158.763 219.237 158.181L339.588 130.192C343.792 129.214 352.532 136.562 351.5 140.5L297.97 318.791C297.244 321.559 294.661 323.973 291.705 324.642L43 388.5C38.8135 389.448 31.5533 380.012 32.5806 376.09Z" fill="#7E4894"/>
</svg>
