<svg width="400" height="400" viewBox="0 0 400 400" fill="none" xmlns="http://www.w3.org/2000/svg">
<path d="M28.5826 379.251L55.9827 274.66C56.7077 271.892 59.2854 269.479 62.2396 268.803L156.162 247.297C158.221 246.826 160.156 247.278 161.366 248.513C162.489 249.659 162.867 251.357 162.398 253.148L139.025 342.365C138.754 343.4 138.767 344.418 139.064 345.317C139.825 347.631 142.318 348.784 145.163 348.137L185.159 339.049C188.118 338.377 190.703 335.96 191.429 333.189L233.096 174.134C233.368 173.099 233.355 172.082 233.058 171.183C232.297 168.868 229.804 167.716 226.959 168.363L215.536 170.958C211.968 171.769 209.359 169.316 210.235 165.973C210.85 163.626 213.031 161.577 215.537 160.994L336.08 132.96C340.29 131.981 343.382 134.867 342.349 138.811L294.395 321.86C293.668 324.633 291.081 327.05 288.12 327.721L34.8092 385.112C30.6161 386.062 27.5537 383.179 28.5826 379.251Z" fill="black"/>
<path d="M296.004 113.38C324.049 113.38 352.54 91.4073 359.641 64.3031C366.742 37.1989 349.762 15.2266 321.717 15.2266C306.955 15.2266 289.185 20.9159 274.032 24.2869C252.717 29.029 235.84 33.54 225.437 36.5578C220.945 37.8607 217.349 34.8889 218.454 30.6714L220.467 22.9862C221.499 19.0492 218.42 16.1644 214.218 17.1303L92.8485 45.029C89.8968 45.7073 87.3224 48.1195 86.5981 50.8845L86.1199 52.7097C85.5872 54.7433 86.223 56.6205 87.7851 57.6296C89.1412 58.5048 91.0284 58.6165 92.8892 57.9319L101.386 54.8082C104.31 53.7324 107.161 54.5335 108.302 56.7507L108.639 57.4073C109.177 58.4528 109.282 59.7247 108.939 61.0316L65.202 227.986C64.1748 231.907 67.2239 234.789 71.4091 233.852L166.021 212.664C168.987 212 171.585 209.579 172.313 206.799L211.406 57.5728C212.118 54.8576 214.615 52.4764 217.514 51.7516L261.956 40.6367C264.827 39.9189 267.311 41.2067 267.797 43.6646C267.823 43.798 267.856 43.9282 267.895 44.055C263.382 50.2283 259.971 57.0836 258.08 64.3031C250.98 91.4073 267.959 113.38 296.004 113.38Z" fill="black"/>
</svg>
