<svg width="28" height="28" viewBox="0 0 28 28" fill="none" xmlns="http://www.w3.org/2000/svg">
<path d="M22.2967 8.42866C21.582 7.128 20.57 6.124 19.2613 5.41666C17.9527 4.70933 16.4587 4.35533 14.7787 4.35533C12.7787 4.35533 11.0053 4.79066 9.45868 5.66266C7.91201 6.534 6.72068 7.762 5.88468 9.348C5.04868 10.934 4.63068 12.742 4.63068 14.774C4.63068 17.5707 5.41401 19.748 6.98001 21.3073C8.54668 22.866 10.7473 23.6447 13.5833 23.6447C15.4893 23.6447 17.1927 23.3173 18.6927 22.66V21.102C16.9273 21.774 15.224 22.11 13.5833 22.11C11.216 22.11 9.40334 21.4687 8.14601 20.188C6.88801 18.906 6.25934 17.0753 6.25934 14.6913C6.25934 12.9333 6.59934 11.3853 7.27868 10.0453C7.95801 8.70533 8.94268 7.67333 10.232 6.95133C11.5213 6.22866 13.0367 5.86733 14.7787 5.86733C16.1613 5.86733 17.386 6.154 18.4527 6.72866C19.5193 7.302 20.3413 8.12133 20.9193 9.184C21.4973 10.2467 21.7867 11.4847 21.7867 12.8987C21.7867 14.2427 21.564 15.3333 21.1187 16.174C20.6733 17.0133 20.0953 17.4333 19.384 17.4333C18.3447 17.4333 17.8253 16.738 17.8253 15.3473V15.0893L18.118 9.58133C17.5787 9.41 16.9733 9.27533 16.3013 9.17733C15.6293 9.08 15.028 9.03133 14.4967 9.03133C12.9967 9.03133 11.786 9.52933 10.864 10.5247C9.94201 11.5207 9.48134 12.816 9.48134 14.41C9.48134 15.7853 9.81134 16.8727 10.4713 17.674C11.1313 18.4753 12.0473 18.8747 13.2193 18.8747C14.016 18.8747 14.7053 18.6833 15.288 18.3007C15.8707 17.918 16.3173 17.3867 16.63 16.7073H16.724C16.81 17.34 17.0833 17.86 17.544 18.2653C18.0047 18.6713 18.5713 18.8747 19.2433 18.8747C20.056 18.8747 20.7747 18.6207 21.3993 18.1127C22.0247 17.6053 22.5087 16.89 22.8527 15.968C23.1967 15.0467 23.368 14.0307 23.368 12.922C23.3693 11.2267 23.012 9.72866 22.2967 8.42866ZM12.1133 11.5273C12.6873 10.8247 13.4827 10.4733 14.498 10.4733C15.162 10.4733 15.7753 10.5507 16.338 10.7073L16.174 13.7667C16.0333 16.2113 15.1547 17.434 13.5373 17.434C12.014 17.434 11.252 16.4427 11.252 14.4573C11.252 13.2073 11.5393 12.2307 12.1133 11.5273Z" fill="#220932"/>
</svg>
