<svg width="156" height="156" viewBox="0 0 156 156" fill="none" xmlns="http://www.w3.org/2000/svg">
<g clip-path="url(#clip0_6_82)">
<path d="M92.5571 51.5285C92.5571 50.1478 91.4378 49.0285 90.0571 49.0285C88.6764 49.0285 87.5571 50.1478 87.5571 51.5285H92.5571ZM87.5571 75.5C87.5571 76.8807 88.6764 78 90.0571 78C91.4378 78 92.5571 76.8807 92.5571 75.5H87.5571ZM62.5 84.199C62.5 85.5797 63.6193 86.699 65 86.699C66.3807 86.699 67.5 85.5797 67.5 84.199H62.5ZM67.5 51.5285C67.5 50.1478 66.3807 49.0285 65 49.0285C63.6193 49.0285 62.5 50.1478 62.5 51.5285H67.5ZM87.5571 50.5285C87.5571 56.0672 83.0672 60.5571 77.5285 60.5571V65.5571C85.8286 65.5571 92.5571 58.8286 92.5571 50.5285H87.5571ZM77.5285 40.5C83.0672 40.5 87.5571 44.9899 87.5571 50.5285H92.5571C92.5571 42.2285 85.8286 35.5 77.5285 35.5V40.5ZM67.5 50.5285C67.5 44.9899 71.9899 40.5 77.5285 40.5V35.5C69.2285 35.5 62.5 42.2285 62.5 50.5285H67.5ZM77.5285 60.5571C71.9899 60.5571 67.5 56.0672 67.5 50.5285H62.5C62.5 58.8286 69.2285 65.5571 77.5285 65.5571V60.5571ZM87.5571 51.5285V75.5H92.5571V51.5285H87.5571ZM67.5 84.199V51.5285H62.5V84.199H67.5Z" fill="black"/>
<path d="M112.854 86.0527L111.925 88.3736L112.854 86.0527ZM112.605 85.9235L113.823 83.7405L112.605 85.9235ZM102.136 108.682L101.272 111.028L102.136 108.682ZM102.397 108.788L103.555 106.572L102.397 108.788ZM72.9705 95.2527L72.0413 97.5736L72.9705 95.2527ZM83.4281 72.5176L84.5857 70.3017L83.4281 72.5176ZM83.6887 72.6231L82.8239 74.9688L83.6887 72.6231ZM84.5857 70.3017C84.3603 70.184 84.131 70.0714 83.8978 69.9642L81.8084 74.5067C81.9654 74.5789 82.1194 74.6545 82.2705 74.7335L84.5857 70.3017ZM83.8978 69.9642C76.3572 66.4957 67.4326 69.7969 63.9642 77.3375L68.5067 79.4269C70.8212 74.395 76.7765 72.1922 81.8084 74.5067L83.8978 69.9642ZM63.9642 77.3375C60.4958 84.8781 63.7969 93.8027 71.3375 97.2711L73.4269 92.7286C68.3951 90.4141 66.1922 84.4587 68.5067 79.4269L63.9642 77.3375ZM71.3375 97.2711C71.5707 97.3783 71.8053 97.4792 72.0413 97.5736L73.8997 92.9318C73.7415 92.8685 73.5839 92.8008 73.4269 92.7286L71.3375 97.2711ZM74.3354 93.1465C74.3704 93.1625 74.4048 93.18 74.4387 93.1989L72.0019 97.5649C72.0814 97.6093 72.1628 97.6507 72.246 97.689L74.3354 93.1465ZM103.108 106.381L74.3354 93.1465L72.246 97.689L101.019 110.923L103.108 106.381ZM103.001 106.337C103.037 106.35 103.073 106.365 103.108 106.381L101.019 110.923C101.102 110.962 101.186 110.997 101.272 111.028L103.001 106.337ZM101.239 111.004C101.465 111.122 101.694 111.234 101.927 111.341L104.017 106.799C103.86 106.727 103.706 106.651 103.555 106.572L101.239 111.004ZM101.927 111.341C109.468 114.81 118.392 111.509 121.861 103.968L117.318 101.879C115.004 106.91 109.048 109.113 104.017 106.799L101.927 111.341ZM121.861 103.968C125.329 96.4274 122.028 87.5028 114.487 84.0344L112.398 88.5769C117.43 90.8914 119.633 96.8468 117.318 101.879L121.861 103.968ZM114.487 84.0344C114.254 83.9271 114.02 83.8263 113.784 83.7318L111.925 88.3736C112.083 88.437 112.241 88.5047 112.398 88.5769L114.487 84.0344ZM111.49 88.159C111.455 88.143 111.42 88.1255 111.386 88.1066L113.823 83.7405C113.744 83.6962 113.662 83.6548 113.579 83.6165L111.49 88.159ZM82.7169 74.9246L111.49 88.159L113.579 83.6165L84.8063 70.3821L82.7169 74.9246ZM82.8239 74.9688C82.7875 74.9554 82.7518 74.9406 82.7169 74.9246L84.8063 70.3821C84.7231 70.3438 84.6388 70.3089 84.5535 70.2775L82.8239 74.9688ZM113.784 83.7318C113.824 83.7479 113.855 83.7624 113.876 83.7725C113.897 83.7824 113.91 83.7894 113.912 83.7906C113.914 83.7914 113.91 83.7896 113.894 83.7804C113.89 83.7783 113.886 83.776 113.881 83.7732C113.877 83.7707 113.871 83.7673 113.865 83.7641C113.854 83.7577 113.839 83.7494 113.823 83.7405L111.386 88.1066C111.401 88.1147 111.406 88.1177 111.438 88.1358C111.463 88.1497 111.5 88.1708 111.543 88.1938C111.628 88.2392 111.761 88.3078 111.925 88.3736L113.784 83.7318ZM101.272 111.028C101.289 111.034 101.305 111.04 101.317 111.045C101.323 111.047 101.329 111.049 101.334 111.051C101.34 111.053 101.344 111.054 101.348 111.056C101.366 111.062 101.369 111.064 101.368 111.063C101.365 111.062 101.352 111.057 101.331 111.048C101.309 111.038 101.278 111.024 101.239 111.004L103.555 106.572C103.397 106.49 103.259 106.434 103.169 106.399C103.124 106.381 103.084 106.367 103.057 106.357C103.022 106.344 103.017 106.342 103.001 106.337L101.272 111.028ZM72.0413 97.5736C72.0011 97.5575 71.9696 97.543 71.9487 97.533C71.9281 97.523 71.915 97.516 71.9128 97.5148C71.9114 97.5141 71.9148 97.5159 71.931 97.525C71.9348 97.5272 71.9389 97.5295 71.9438 97.5322C71.9483 97.5348 71.9542 97.5381 71.9598 97.5413C71.9713 97.5478 71.986 97.5561 72.0019 97.5649L74.4387 93.1989C74.4241 93.1908 74.419 93.1879 74.3869 93.1697C74.3622 93.1558 74.3246 93.1347 74.2819 93.1117C74.1975 93.0663 74.0643 92.9977 73.8997 92.9318L72.0413 97.5736ZM82.2705 74.7335C82.4276 74.8155 82.5663 74.872 82.6556 74.9065C82.7009 74.924 82.7414 74.9388 82.768 74.9485C82.8027 74.9611 82.8082 74.963 82.8239 74.9688L84.5535 70.2775C84.5363 70.2712 84.5205 70.2654 84.5081 70.2609C84.5021 70.2587 84.4957 70.2564 84.4908 70.2546C84.4855 70.2527 84.4811 70.2511 84.477 70.2496C84.4595 70.2433 84.4559 70.2419 84.4575 70.2425C84.4598 70.2434 84.4736 70.2487 84.4946 70.2579C84.5158 70.2672 84.5473 70.2817 84.5857 70.3017L82.2705 74.7335Z" fill="black"/>
<path d="M119.498 90.8174L134.022 85.4452C134.325 85.3331 134.663 85.3743 134.931 85.5556L144.398 91.9809C144.838 92.2791 144.967 92.8689 144.693 93.3239L140.852 99.7069C140.528 100.244 139.796 100.355 139.328 99.9367L133.508 94.7323C133.232 94.4854 132.842 94.4113 132.495 94.5398L122.274 98.3205" stroke="black" stroke-width="5" stroke-linecap="round"/>
<path d="M113.419 110.414L122.02 122.128C122.207 122.384 122.505 122.535 122.822 122.536L134.274 122.584C134.805 122.586 135.246 122.173 135.277 121.643L135.714 114.206C135.75 113.58 135.208 113.075 134.586 113.156L126.844 114.161C126.477 114.209 126.113 114.05 125.899 113.748L119.602 104.853" stroke="black" stroke-width="5" stroke-linecap="round"/>
<path d="M158 20L102.185 20C102.063 20 101.941 19.9776 101.827 19.9339L89.8327 15.3402C82.5468 12.5498 74.4765 12.6094 67.2326 15.507L56.1788 19.9285C56.0607 19.9757 55.9346 20 55.8074 20L-1 20" stroke="black" stroke-width="5" stroke-linecap="round"/>
<path d="M158 135L-1 135" stroke="black" stroke-width="5" stroke-linecap="round"/>
<path d="M90 70.4034C96.6085 66.2443 101 58.885 101 50.5C101 37.5213 90.4787 27 77.5 27C64.5213 27 54 37.5213 54 50.5C54 58.885 58.3915 66.2443 65 70.4034" stroke="black" stroke-width="5" stroke-linecap="round"/>
</g>
<defs>
<clipPath id="clip0_6_82">
<rect width="156" height="156" fill="white"/>
</clipPath>
</defs>
</svg>
