<svg width="28" height="28" viewBox="0 0 28 28" fill="none" xmlns="http://www.w3.org/2000/svg">
<mask id="path-1-outside-1_6_47" maskUnits="userSpaceOnUse" x="3" y="5" width="22" height="18" fill="black">
<rect fill="white" x="3" y="5" width="22" height="18"/>
<path d="M10.6606 21C17.4531 21 21.1683 15.6133 21.1683 10.942C21.1683 10.789 21.1683 10.6367 21.1575 10.4851C21.8803 9.98464 22.5042 9.36508 23 8.6553C22.326 8.94117 21.611 9.12861 20.8789 9.21146C21.6496 8.76981 22.2269 8.07463 22.5025 7.25622C21.7776 7.66795 20.9844 7.95817 20.1574 8.11428C19.4592 7.40352 18.4839 7 17.4647 7C15.4368 7 13.7682 8.59725 13.7682 10.5383C13.7682 10.8076 13.8003 11.076 13.8639 11.3383C10.8961 11.1959 8.12711 9.85219 6.25279 7.64494C5.27812 9.251 5.78244 11.3324 7.39614 12.3638C6.80851 12.3471 6.23349 12.1954 5.72 11.9213V11.9661C5.72049 13.6425 6.96618 15.0995 8.68279 15.4314C8.13914 15.5733 7.56859 15.594 7.0153 15.492C7.49789 16.9284 8.88951 17.9186 10.4655 17.9469C9.15807 18.9305 7.54204 19.4647 5.87912 19.4631C5.58528 19.4626 5.29173 19.4456 5 19.4121C6.6887 20.4494 8.65414 20.9998 10.6606 20.9972"/>
</mask>
<path d="M10.6606 19.5C9.83222 19.5 9.16065 20.1716 9.16065 21C9.16065 21.8284 9.83222 22.5 10.6606 22.5V19.5ZM21.1575 10.4851L20.3036 9.25185C19.8679 9.55358 19.6237 10.0629 19.6613 10.5916L21.1575 10.4851ZM23 8.6553L24.2297 9.51428C24.6127 8.966 24.5864 8.2304 24.1653 7.71082C23.7442 7.19124 23.03 7.01322 22.4143 7.27438L23 8.6553ZM20.8789 9.21146L20.1331 7.90997C19.5159 8.26366 19.232 9.00227 19.4534 9.67833C19.6748 10.3544 20.3407 10.7819 21.0476 10.7019L20.8789 9.21146ZM22.5025 7.25622L23.924 7.73492C24.1225 7.14544 23.9366 6.49461 23.4567 6.09891C22.9768 5.7032 22.3025 5.64473 21.7616 5.95193L22.5025 7.25622ZM20.1574 8.11428L19.0874 9.1655C19.4382 9.52252 19.9439 9.68108 20.4357 9.58824L20.1574 8.11428ZM13.8639 11.3383L13.792 12.8366C14.2641 12.8592 14.7193 12.658 15.0203 12.2937C15.3213 11.9293 15.433 11.4443 15.3217 10.985L13.8639 11.3383ZM6.25279 7.64494L7.39617 6.67402C7.08415 6.30657 6.61454 6.11147 6.134 6.14965C5.65346 6.18782 5.22055 6.45462 4.97046 6.86672L6.25279 7.64494ZM7.39614 12.3638L7.35364 13.8632C8.0276 13.8823 8.6315 13.4494 8.8298 12.805C9.0281 12.1605 8.77208 11.463 8.20398 11.0999L7.39614 12.3638ZM5.72 11.9213L6.42621 10.598C5.96131 10.3499 5.40031 10.3639 4.94842 10.635C4.49652 10.9061 4.22 11.3944 4.22 11.9213H5.72ZM5.72 11.9661H4.22L4.22 11.9666L5.72 11.9661ZM8.68279 15.4314L9.06164 16.8827C9.73945 16.7058 10.2045 16.0833 10.182 15.3831C10.1595 14.683 9.65533 14.0916 8.96754 13.9587L8.68279 15.4314ZM7.0153 15.492L7.28724 14.0169C6.76474 13.9206 6.23028 14.1078 5.88216 14.5092C5.53403 14.9105 5.42419 15.4661 5.5934 15.9697L7.0153 15.492ZM10.4655 17.9469L11.3673 19.1456C11.8789 18.7607 12.0899 18.0934 11.8924 17.4844C11.695 16.8753 11.1327 16.4587 10.4925 16.4472L10.4655 17.9469ZM5.87912 19.4631L5.87637 20.9631L5.87769 20.9631L5.87912 19.4631ZM5 19.4121L5.17087 17.9219C4.47222 17.8418 3.8117 18.2578 3.58216 18.9225C3.35262 19.5872 3.61568 20.3222 4.21489 20.6902L5 19.4121ZM10.6626 22.4972C11.491 22.4962 12.1617 21.8238 12.1606 20.9953C12.1596 20.1669 11.4872 19.4962 10.6587 19.4972L10.6626 22.4972ZM10.6606 22.5C18.3955 22.5 22.6683 16.323 22.6683 10.942H19.6683C19.6683 14.9037 16.5107 19.5 10.6606 19.5V22.5ZM22.6683 10.942C22.6683 10.7981 22.669 10.5923 22.6537 10.3786L19.6613 10.5916C19.6677 10.6811 19.6683 10.78 19.6683 10.942H22.6683ZM22.0114 11.7183C22.8783 11.1181 23.6302 10.3725 24.2297 9.51428L21.7703 7.79631C21.3782 8.35769 20.8822 8.85122 20.3036 9.25185L22.0114 11.7183ZM22.4143 7.27438C21.8743 7.50343 21.2998 7.65425 20.7102 7.72097L21.0476 10.7019C21.9222 10.603 22.7778 10.3789 23.5857 10.0362L22.4143 7.27438ZM21.6246 10.5129C22.7037 9.89463 23.5277 8.91177 23.924 7.73492L21.0809 6.77753C20.926 7.2375 20.5956 7.64499 20.1331 7.90997L21.6246 10.5129ZM21.7616 5.95193C21.1819 6.2812 20.5453 6.51457 19.8792 6.64031L20.4357 9.58824C21.4236 9.40176 22.3732 9.05471 23.2433 8.56052L21.7616 5.95193ZM21.2275 7.06306C20.2399 6.05786 18.8759 5.5 17.4647 5.5V8.5C18.0919 8.5 18.6784 8.74917 19.0874 9.1655L21.2275 7.06306ZM17.4647 5.5C14.6709 5.5 12.2682 7.70767 12.2682 10.5383H15.2682C15.2682 9.48683 16.2028 8.5 17.4647 8.5V5.5ZM12.2682 10.5383C12.2682 10.927 12.3146 11.314 12.4061 11.6916L15.3217 10.985C15.2861 10.838 15.2682 10.6882 15.2682 10.5383H12.2682ZM13.9358 9.84001C11.3705 9.71694 8.9939 8.55554 7.39617 6.67402L5.10941 8.61585C7.26033 11.1488 10.4217 12.6749 13.792 12.8366L13.9358 9.84001ZM4.97046 6.86672C3.55947 9.19175 4.3103 12.1716 6.58831 13.6277L8.20398 11.0999C7.25457 10.4931 6.99678 9.31024 7.53513 8.42315L4.97046 6.86672ZM7.43865 10.8644C7.08042 10.8542 6.73289 10.7616 6.42621 10.598L5.01379 13.2447C5.73409 13.6291 6.53659 13.84 7.35364 13.8632L7.43865 10.8644ZM4.22 11.9213V11.9661H7.22V11.9213H4.22ZM4.22 11.9666C4.22072 14.4058 6.02062 16.4444 8.39804 16.9041L8.96754 13.9587C7.91175 13.7545 7.22027 12.8791 7.22 11.9657L4.22 11.9666ZM8.30395 13.98C7.9732 14.0663 7.62482 14.0791 7.28724 14.0169L6.74336 16.9672C7.51235 17.1089 8.30507 17.0802 9.06164 16.8827L8.30395 13.98ZM5.5934 15.9697C6.28878 18.0395 8.26262 19.4075 10.4386 19.4467L10.4925 16.4472C9.51641 16.4296 8.70699 15.8174 8.43719 15.0143L5.5934 15.9697ZM9.56381 16.7482C8.52125 17.5325 7.22344 17.9644 5.88054 17.9631L5.87769 20.9631C7.86065 20.965 9.7949 20.3284 11.3673 19.1456L9.56381 16.7482ZM5.88187 17.9631C5.64413 17.9627 5.40671 17.9489 5.17087 17.9219L4.82913 20.9023C5.17674 20.9422 5.52643 20.9625 5.87637 20.9631L5.88187 17.9631ZM4.21489 20.6902C6.14341 21.8749 8.38188 22.5001 10.6626 22.4972L10.6587 19.4972C8.9264 19.4994 7.23398 19.024 5.78511 18.134L4.21489 20.6902Z" fill="#A131E7" mask="url(#path-1-outside-1_6_47)"/>
</svg>
