<svg width="342" height="342" viewBox="0 0 342 342" fill="none" xmlns="http://www.w3.org/2000/svg">
<rect x="1" y="1" width="340" height="340" rx="9" stroke="#2121FF" stroke-width="2"/>
<path d="M25 64H157C159.209 64 161 65.7909 161 68V177C161 179.209 159.209 181 157 181H25C22.7909 181 21 179.209 21 177V68C21 65.7909 22.7909 64 25 64Z" stroke="#2121FF" stroke-width="2"/>
<path d="M185 64H317C319.209 64 321 65.7909 321 68V77C321 79.2091 319.209 81 317 81H185C182.791 81 181 79.2091 181 77V68C181 65.7909 182.791 64 185 64Z" stroke="#2121FF" stroke-width="2"/>
<path d="M185 94H317C319.209 94 321 95.7909 321 98V147C321 149.209 319.209 151 317 151H185C182.791 151 181 149.209 181 147V98C181 95.7909 182.791 94 185 94Z" stroke="#2121FF" stroke-width="2"/>
<path d="M185 194H317C319.209 194 321 195.791 321 198V287C321 289.209 319.209 291 317 291H185C182.791 291 181 289.209 181 287V198C181 195.791 182.791 194 185 194Z" stroke="#2121FF" stroke-width="2"/>
<path d="M185 164H317C319.209 164 321 165.791 321 168V177C321 179.209 319.209 181 317 181H185C182.791 181 181 179.209 181 177V168C181 165.791 182.791 164 185 164Z" stroke="#2121FF" stroke-width="2"/>
<path d="M185 304H228C230.209 304 232 305.791 232 308V317C232 319.209 230.209 321 228 321H185C182.791 321 181 319.209 181 317V308C181 305.791 182.791 304 185 304Z" stroke="#2121FF" stroke-width="2"/>
<path d="M248 304H317C319.209 304 321 305.791 321 308V317C321 319.209 319.209 321 317 321H248C245.791 321 244 319.209 244 317V308C244 305.791 245.791 304 248 304Z" stroke="#2121FF" stroke-width="2"/>
<path d="M10 1H332C336.971 1 341 5.02944 341 10V43H1V10C1 5.02944 5.02944 1 10 1Z" stroke="#2121FF" stroke-width="2"/>
<circle cx="25" cy="22" r="4" stroke="#2121FF" stroke-width="2"/>
<circle cx="41" cy="22" r="4" stroke="#2121FF" stroke-width="2"/>
<circle cx="57" cy="22" r="4" stroke="#2121FF" stroke-width="2"/>
</svg>
