<svg width="342" height="342" viewBox="0 0 342 342" fill="none" xmlns="http://www.w3.org/2000/svg">
<rect x="2" y="2" width="338" height="338" rx="8" stroke="#2121FF" stroke-width="4"/>
<path d="M25 65H157C158.657 65 160 66.3431 160 68V177C160 178.657 158.657 180 157 180H25C23.3431 180 22 178.657 22 177V68C22 66.3431 23.3431 65 25 65Z" stroke="#2121FF" stroke-width="4"/>
<path d="M185 65H317C318.657 65 320 66.3431 320 68V77C320 78.6569 318.657 80 317 80H185C183.343 80 182 78.6569 182 77V68C182 66.3431 183.343 65 185 65Z" stroke="#2121FF" stroke-width="4"/>
<path d="M185 95H317C318.657 95 320 96.3431 320 98V147C320 148.657 318.657 150 317 150H185C183.343 150 182 148.657 182 147V98C182 96.3431 183.343 95 185 95Z" stroke="#2121FF" stroke-width="4"/>
<path d="M185 195H317C318.657 195 320 196.343 320 198V287C320 288.657 318.657 290 317 290H185C183.343 290 182 288.657 182 287V198C182 196.343 183.343 195 185 195Z" stroke="#2121FF" stroke-width="4"/>
<path d="M185 165H317C318.657 165 320 166.343 320 168V177C320 178.657 318.657 180 317 180H185C183.343 180 182 178.657 182 177V168C182 166.343 183.343 165 185 165Z" stroke="#2121FF" stroke-width="4"/>
<path d="M185 305H228C229.657 305 231 306.343 231 308V317C231 318.657 229.657 320 228 320H185C183.343 320 182 318.657 182 317V308C182 306.343 183.343 305 185 305Z" stroke="#2121FF" stroke-width="4"/>
<path d="M248 305H317C318.657 305 320 306.343 320 308V317C320 318.657 318.657 320 317 320H248C246.343 320 245 318.657 245 317V308C245 306.343 246.343 305 248 305Z" stroke="#2121FF" stroke-width="4"/>
<path d="M10 2H332C336.418 2 340 5.58172 340 10V42H2V10C2 5.58172 5.58172 2 10 2Z" stroke="#2121FF" stroke-width="4"/>
<circle cx="25" cy="22" r="3" stroke="#2121FF" stroke-width="4"/>
<circle cx="41" cy="22" r="3" stroke="#2121FF" stroke-width="4"/>
<circle cx="57" cy="22" r="3" stroke="#2121FF" stroke-width="4"/>
</svg>
