<svg width="200" height="200" viewBox="0 0 200 200" fill="none" xmlns="http://www.w3.org/2000/svg">
<path d="M98.9484 40.8239C101.133 39.2376 104.006 40.0109 105.371 42.5509C106.735 45.0913 106.07 48.433 103.886 50.0205C67.1454 76.7271 58.2651 101.848 60.0844 118.2C61.9185 134.682 73.7368 145.017 86.8501 143.11C122.378 137.943 144.185 109.545 149.455 90.5471C150.766 85.8227 150.894 82.224 150.403 79.9413C149.98 77.9796 149.179 77.0938 147.879 76.6886C146.183 76.1611 142.074 74.7764 136.904 77.2925C131.828 79.7634 126.278 83.2674 118.312 90.5471C116.286 92.3942 113.33 94.5225 111.739 92.1681C110.151 89.8125 111.899 86.0865 113.924 84.2366C122.28 76.6015 128.104 71.7807 134.214 68.8058C140.228 65.8783 145.713 64.779 150.284 66.1994C155.249 67.7437 158.314 71.9893 159.458 77.2925C160.533 82.278 159.932 88.0908 158.329 93.874C151.937 116.916 130.784 153.138 86.8501 159.341C59.6756 163.178 42.8724 149.955 40.3632 127.401C37.8414 104.718 47.5229 68.8058 98.9484 40.8239Z" fill="white"/>
</svg>
