<svg xmlns="http://www.w3.org/2000/svg" version="1.1" viewBox="-5.0 -10.0 110.0 135.0">
 <path d="m96.871 56.25c0 0.16406-0.042969 0.32031-0.089844 0.47266-0.011719 0.039063-0.007812 0.082032-0.023438 0.125 0 0 0 0.003906-0.003906 0.003906-0.003906 0.003907-0.007812 0.011719-0.007812 0.015626-0.070313 0.16797-0.17578 0.3125-0.29297 0.44141-0.035156 0.039062-0.074219 0.066406-0.11328 0.10156-0.10938 0.09375-0.22266 0.17188-0.35156 0.23438-0.03125 0.015625-0.050781 0.039063-0.078125 0.054688l-20.543 8.457c-3.4453 1.418-6.2305 4.207-7.6484 7.6484l-8.457 20.543s0 0.003906-0.003907 0.003906c-0.003906 0.003907-0.007812 0.011719-0.007812 0.015626-0.070312 0.16797-0.17578 0.3125-0.29297 0.44141-0.035156 0.039062-0.074219 0.066406-0.11328 0.10156-0.10938 0.09375-0.22266 0.17188-0.35156 0.23438-0.03125 0.015625-0.050782 0.039063-0.078126 0.054688-0.019531 0.007812-0.039062 0.003906-0.058593 0.011719-0.16797 0.0625-0.34766 0.10547-0.53125 0.10547-0.007813-0.003906-0.007813-0.003906-0.011719-0.003906h-0.003906c-0.18359 0-0.35938-0.042969-0.53125-0.10547-0.019532-0.007812-0.039063-0.003906-0.058594-0.011719-0.03125-0.011718-0.050781-0.039062-0.078125-0.054687-0.12891-0.0625-0.24609-0.14062-0.35156-0.23438-0.039062-0.035156-0.078124-0.0625-0.11328-0.10156-0.11719-0.12891-0.21875-0.26953-0.29297-0.44141-0.003906-0.003906-0.007812-0.007812-0.007812-0.015625 0 0 0-0.003906-0.003906-0.003906l-8.457-20.543c-1.418-3.4453-4.207-6.2305-7.6484-7.6484l-20.543-8.457c-0.03125-0.011718-0.050781-0.039062-0.078125-0.054687-0.12891-0.0625-0.24609-0.14062-0.35156-0.23438-0.039063-0.035156-0.078125-0.0625-0.11328-0.10156-0.11719-0.12891-0.21875-0.26953-0.29297-0.44141-0.003907-0.003906-0.007813-0.007812-0.007813-0.015625 0 0 0-0.003906-0.003906-0.003906-0.015625-0.039062-0.011719-0.082031-0.023438-0.125-0.050781-0.15234-0.089843-0.30859-0.089843-0.47266 0-0.16406 0.042969-0.32031 0.089843-0.47266 0.011719-0.039063 0.007813-0.082032 0.023438-0.125 0.078125-0.1875 0.19531-0.36328 0.33984-0.50781 0.14453-0.14453 0.31641-0.26172 0.50391-0.33594 0 0 0.003906-0.003907 0.003906-0.003907l20.543-8.457c3.4453-1.418 6.2305-4.207 7.6484-7.6484l8.4531-20.543c0.078124-0.1875 0.19531-0.35938 0.33984-0.50781 0.14453-0.14453 0.31641-0.26172 0.50391-0.33984h0.003906c0.050781-0.023438 0.10547-0.015626 0.15625-0.03125 0.14453-0.042969 0.28906-0.085938 0.4375-0.085938 0.17578 0 0.33984 0.042969 0.50391 0.097656 0.03125 0.011719 0.0625 0.003906 0.09375 0.019532h0.003906c0.1875 0.078124 0.35938 0.19141 0.50781 0.33984 0.14453 0.14453 0.26172 0.31641 0.33984 0.50781l0.003907 0.003906 8.457 20.543c1.418 3.4453 4.207 6.2305 7.6484 7.6484l20.539 8.457h0.003906c0.1875 0.078124 0.35938 0.19141 0.50391 0.33984 0.14453 0.14453 0.26172 0.31641 0.33984 0.50781l0.003906 0.003906c0.015626 0.039062 0.011719 0.082031 0.023438 0.125 0.050781 0.14844 0.089844 0.30469 0.089844 0.46875zm-68.855 21.293c-0.003906-0.007813-0.007813-0.011719-0.011719-0.015625-0.058594-0.14062-0.15234-0.26172-0.25-0.37891-0.03125-0.039063-0.050781-0.089844-0.085937-0.125-0.058594-0.058594-0.14062-0.09375-0.21094-0.14453-0.097656-0.070312-0.18359-0.14844-0.29297-0.19141-0.007812-0.003906-0.011718-0.011719-0.019531-0.011719l-3.7734-1.5078c-2.1367-0.85547-3.7812-2.5977-4.5117-4.7852l-1.75-5.25c-0.011719-0.035156-0.039063-0.058593-0.054687-0.09375-0.042969-0.10156-0.097657-0.1875-0.15625-0.27734-0.054688-0.082031-0.10938-0.16016-0.17578-0.23047-0.066406-0.066406-0.14453-0.11719-0.22656-0.17188-0.089844-0.0625-0.17969-0.12109-0.28125-0.16016-0.035156-0.015625-0.058594-0.042969-0.09375-0.054688-0.058594-0.019531-0.11719-0.007812-0.17969-0.023437-0.10547-0.023438-0.20703-0.039063-0.31641-0.039063s-0.21094 0.015625-0.31641 0.039063c-0.058594 0.011718-0.11719 0.003906-0.17578 0.023437-0.035156 0.011719-0.058593 0.039063-0.09375 0.054688-0.10156 0.042969-0.19141 0.097656-0.28125 0.16016-0.078124 0.054687-0.15625 0.10547-0.22266 0.17188-0.070312 0.070312-0.12109 0.14844-0.17578 0.23047-0.0625 0.089843-0.11719 0.17578-0.15625 0.27344-0.015625 0.035156-0.042969 0.058594-0.054687 0.09375l-1.7539 5.25c-0.72656 2.1836-2.3711 3.9297-4.5117 4.7852l-3.7734 1.5117c-0.007813 0.003907-0.011719 0.007813-0.015625 0.011719-0.13281 0.054688-0.25 0.14844-0.36328 0.23828-0.046875 0.035157-0.10547 0.058594-0.14453 0.097657-0.046876 0.046874-0.070313 0.11328-0.11328 0.16406-0.082031 0.10938-0.17188 0.21484-0.22266 0.34375-0.003906 0.007812-0.007812 0.011719-0.011719 0.015625-0.027343 0.070313-0.023437 0.14453-0.039062 0.21484-0.03125 0.12109-0.066407 0.23828-0.066407 0.36328s0.035157 0.24219 0.066407 0.36328c0.015625 0.070313 0.011719 0.14453 0.039062 0.21484 0.003907 0.007813 0.007813 0.011719 0.011719 0.019531 0.011719 0.03125 0.035156 0.054688 0.050781 0.085938 0.066407 0.13672 0.15234 0.26172 0.25391 0.37109 0.039062 0.042968 0.082031 0.074218 0.125 0.11328 0.10547 0.09375 0.22266 0.16797 0.34766 0.22656 0.03125 0.015625 0.050781 0.042969 0.085937 0.054688l3.7734 1.5078c2.1367 0.85547 3.7812 2.5977 4.5117 4.7852l1.75 5.25c0.015624 0.042968 0.042968 0.074218 0.058593 0.11328 0.027344 0.0625 0.058594 0.12109 0.09375 0.17969 0.0625 0.10938 0.13672 0.20312 0.22266 0.29297 0.042968 0.042969 0.082031 0.085937 0.12891 0.125 0.13281 0.10938 0.28125 0.19531 0.44141 0.25391 0.015625 0.003907 0.023438 0.015625 0.035156 0.019531h0.007813c0.15625 0.058594 0.32031 0.085938 0.48828 0.085938s0.33203-0.027344 0.48438-0.078125h0.007813c0.015624-0.003906 0.023437-0.015625 0.035156-0.019531 0.16016-0.058594 0.30859-0.14453 0.44141-0.25391 0.046875-0.039063 0.085938-0.082032 0.12891-0.125 0.085938-0.085938 0.16016-0.18359 0.22266-0.29297 0.035157-0.058594 0.066407-0.11719 0.09375-0.17969 0.015626-0.039062 0.046876-0.070312 0.058594-0.11328l1.75-5.25c0.72656-2.1836 2.3711-3.9297 4.5117-4.7852l3.7734-1.5117c0.03125-0.011719 0.054688-0.039063 0.085938-0.054687 0.125-0.058594 0.24219-0.13672 0.34766-0.22656 0.042969-0.039063 0.085938-0.070313 0.125-0.11328 0.10156-0.10938 0.18359-0.23438 0.25391-0.37109 0.015626-0.03125 0.039063-0.054688 0.050782-0.085938 0.003906-0.007812 0.007812-0.011718 0.011718-0.019531 0.027344-0.070312 0.023438-0.14453 0.039063-0.21484 0.03125-0.12109 0.066406-0.23828 0.066406-0.36328s-0.035156-0.24219-0.066406-0.36328c-0.011719-0.078125-0.003906-0.15234-0.03125-0.22266zm-20.066-55.074c0.015625 0.035156 0.011719 0.070312 0.027343 0.10547 0.042969 0.089843 0.10547 0.16406 0.16406 0.23828 0.023437 0.03125 0.039063 0.066406 0.066406 0.09375 0.125 0.14062 0.26953 0.25 0.42969 0.33594 0.015625 0.007812 0.023437 0.023437 0.039062 0.03125l6.3047 3.1523c1.6484 0.82422 2.9609 2.2148 3.6875 3.9102l3.3359 7.7812c0.070313 0.16797 0.17188 0.30859 0.28906 0.43359 0.03125 0.03125 0.066406 0.054688 0.097656 0.085938 0.10938 0.10156 0.23047 0.18359 0.36328 0.25 0.027344 0.011719 0.042969 0.039062 0.070313 0.050781 0.019531 0.007812 0.042969 0.003906 0.066406 0.011719 0.17578 0.066406 0.35547 0.11328 0.54688 0.11328-0.003906 0 0 0 0 0h0.003906c0.19141 0 0.37109-0.046875 0.54688-0.11328 0.019531-0.007813 0.042969-0.003907 0.066407-0.011719 0.027343-0.011719 0.046874-0.035156 0.070312-0.050781 0.13281-0.066407 0.25391-0.14844 0.36328-0.25 0.03125-0.03125 0.070313-0.054688 0.097657-0.085938 0.11719-0.125 0.21875-0.26953 0.28906-0.43359l3.3359-7.7812c0.72656-1.6953 2.0352-3.0859 3.6875-3.9102l6.3047-3.1523c0.015625-0.007813 0.023437-0.023438 0.039063-0.03125 0.16016-0.085938 0.30469-0.19531 0.42969-0.33594 0.027344-0.03125 0.042969-0.0625 0.066406-0.09375 0.058594-0.078125 0.12109-0.14844 0.16406-0.23828 0.015625-0.035157 0.015625-0.070313 0.027344-0.10547 0.042968-0.10156 0.0625-0.20312 0.082031-0.30859 0.019531-0.097656 0.039062-0.1875 0.035156-0.28516 0-0.097656-0.019531-0.1875-0.035156-0.28516-0.019531-0.10547-0.042969-0.21094-0.082031-0.30859-0.015626-0.035156-0.011719-0.070312-0.027344-0.10547-0.027344-0.054687-0.078125-0.089843-0.10938-0.14062-0.058594-0.089844-0.12109-0.17578-0.19531-0.25-0.078125-0.078125-0.16016-0.13672-0.24609-0.19531-0.050781-0.035156-0.085937-0.082032-0.14453-0.11328l-6.3047-3.1523c-1.6484-0.82422-2.9609-2.2148-3.6875-3.9102l-3.3398-7.7812c-0.03125-0.070312-0.085938-0.11719-0.12109-0.17969-0.066406-0.10547-0.12109-0.21875-0.21094-0.30859-0.09375-0.09375-0.20703-0.15234-0.31641-0.21875-0.058593-0.035156-0.10156-0.089843-0.16797-0.11719-0.003906-0.003906-0.011719 0-0.015625-0.003906-0.12891-0.054688-0.26953-0.070313-0.41016-0.085938-0.066406-0.007812-0.12891-0.035156-0.19141-0.035156-0.039062 0-0.078125 0.019531-0.11719 0.023437-0.16797 0.011719-0.33203 0.039063-0.48438 0.10156-0.003906 0-0.007813 0-0.011719 0.003906-0.054687 0.023438-0.085937 0.066406-0.13672 0.09375-0.125 0.070312-0.25 0.14062-0.35156 0.24219-0.085938 0.085937-0.14062 0.19141-0.20312 0.29687-0.039063 0.066407-0.097657 0.11719-0.12891 0.1875l-3.3398 7.7812c-0.72656 1.6953-2.0352 3.0859-3.6875 3.9102l-6.3047 3.1523c-0.054687 0.027344-0.09375 0.078126-0.14453 0.11328-0.089844 0.058594-0.17188 0.11719-0.25 0.19531s-0.13672 0.16016-0.19531 0.25c-0.035157 0.050782-0.082032 0.085938-0.10938 0.14062-0.015624 0.035157-0.015624 0.070313-0.027343 0.10547-0.042969 0.10156-0.0625 0.20312-0.082031 0.30859-0.019532 0.097656-0.039063 0.1875-0.035157 0.28516 0 0.097656 0.019531 0.1875 0.035157 0.28516 0.019531 0.10547 0.039062 0.20703 0.082031 0.30859z"/></svg>