<svg width="400" height="400" viewBox="0 0 400 400" fill="none" xmlns="http://www.w3.org/2000/svg">
<path d="M309.982 90.7034C325.004 99.3762 330.15 118.584 321.478 133.606L227.257 296.801C218.584 311.823 199.376 316.969 184.354 308.297V308.297C169.333 299.624 164.186 280.416 172.859 265.394L267.079 102.199C275.752 87.1775 294.96 82.0307 309.982 90.7034V90.7034Z" fill="url(#paint0_linear_56_445)"/>
<path fill-rule="evenodd" clip-rule="evenodd" d="M133.036 102.199C124.364 87.1774 105.156 82.0306 90.1338 90.7034C75.1122 99.3762 69.9654 118.584 78.6381 133.606L172.859 296.801C181.531 311.822 200.74 316.969 215.761 308.297C221.949 304.724 226.461 299.364 229.022 293.245L260.858 238.255C256.671 242.443 245.783 252.074 235.733 257.099C229.674 260.129 223.311 255.701 218.295 249.871L133.036 102.199Z" fill="url(#paint1_linear_56_445)"/>
<defs>
<linearGradient id="paint0_linear_56_445" x1="329.953" y1="140.894" x2="147.794" y2="241.396" gradientUnits="userSpaceOnUse">
<stop offset="0.0897277" stop-color="#C3D5AD"/>
<stop offset="0.776664" stop-color="#BFCDFF"/>
</linearGradient>
<linearGradient id="paint1_linear_56_445" x1="97.5427" y1="178.582" x2="179.201" y2="313.632" gradientUnits="userSpaceOnUse">
<stop stop-color="#9AB1FD"/>
<stop offset="1" stop-color="#6C8DFB"/>
</linearGradient>
</defs>
</svg>
