<svg width="400" height="400" viewBox="0 0 400 400" fill="none" xmlns="http://www.w3.org/2000/svg">
<path d="M104.58 141.245C112.86 158.607 123.062 179.989 138.632 187.469C154.203 194.95 173.807 190.595 185.808 186.513C185.396 175.161 179.054 152.844 156.981 154.385C129.389 156.311 123.547 155.958 111.58 154.293" stroke="#72BD45" stroke-width="14" stroke-linecap="round" stroke-linejoin="round"/>
<path d="M247.287 98.9111C249.815 117.98 252.922 141.466 243.95 156.227C234.977 170.988 216.169 178.028 203.884 181.151C198.039 171.411 191.185 149.245 210.528 138.5C234.707 125.069 239.411 121.587 248.535 113.666" stroke="#72BD45" stroke-width="14" stroke-linecap="round" stroke-linejoin="round"/>
<path d="M115.682 201.524C125.609 218 137.841 238.289 154.064 244.221C170.288 250.153 189.376 243.914 200.924 238.685C199.411 227.427 190.93 205.832 169.111 209.51C141.838 214.109 135.989 214.325 123.916 213.83" stroke="#72BD45" stroke-width="14" stroke-linecap="round" stroke-linejoin="round"/>
<path d="M270.852 155.493C271.515 174.717 272.326 198.394 261.961 212.214C251.597 226.033 232.194 231.212 219.663 233.126C214.792 222.865 210.125 200.137 230.42 191.323C255.79 180.305 260.81 177.297 270.66 170.299" stroke="#72BD45" stroke-width="14" stroke-linecap="round" stroke-linejoin="round"/>
<path d="M126.469 262.502C138.454 277.548 153.218 296.075 170.075 299.849C186.932 303.622 205.048 294.955 215.818 288.27C212.855 277.304 201.639 256.994 180.483 263.477C154.039 271.581 148.268 272.555 136.233 273.634" stroke="#72BD45" stroke-width="14" stroke-linecap="round" stroke-linejoin="round"/>
<path d="M295.061 212.489C293.22 231.636 290.947 255.218 278.875 267.573C266.802 279.929 246.891 282.542 234.217 282.812C230.722 272.004 229.047 248.863 250.316 242.761C276.902 235.133 282.271 232.803 292.947 227.145" stroke="#72BD45" stroke-width="14" stroke-linecap="round" stroke-linejoin="round"/>
<path d="M164.485 81.2296L159.366 63.9729" stroke="#72BD45" stroke-width="14" stroke-linecap="round" stroke-linejoin="round"/>
<path d="M239.993 335.766L230.466 303.649" stroke="#72BD45" stroke-width="14" stroke-linecap="round" stroke-linejoin="round"/>
<path d="M163.639 77.83C158.996 87.3781 150.884 113.949 159.127 127.671C163.252 134.538 173.749 138.284 183.404 144.46" stroke="#72BD45" stroke-width="14" stroke-linecap="round" stroke-linejoin="round"/>
<path d="M163.639 77.83C172.737 83.3017 194.026 101.151 194.599 117.148C194.886 125.153 188.13 134.018 183.404 144.46" stroke="#72BD45" stroke-width="14" stroke-linecap="round" stroke-linejoin="round"/>
</svg>
